<?xml version="1.0" standalone="no"?> <!DOCTYPE svg PUBLIC "-//W3C//DTD SVG 1.0//EN" "http://www.w3.org/TR/2001/REC-SVG-20010904/DTD/svg10.dtd" > <svg xmlns="http://www.w3.org/2000/svg" width="100%" height="100%">
<defs >
<font id="Puritan2BoldItalic" horiz-adv-x="476" ><font-face
    font-family="Puritan 2.0"
    units-per-em="1000"
    panose-1="0 0 7 0 0 0 0 0 0 0"
    ascent="875"
    descent="-242"
    alphabetic="0" />
<missing-glyph horiz-adv-x="364" d="M33 0V666H298V0H33ZM66 33H265V633H66V33Z" />
<glyph unicode=" " glyph-name="space" horiz-adv-x="273" />
<glyph unicode="!" glyph-name="exclam" horiz-adv-x="235" d="M40 172L94 686H219L165 172H40ZM7 44Q11 76 35 99T92 122Q124 122 145 99T162 44Q159 11 134 -11T75 -33Q44 -33 24 -11T7 44Z" />
<glyph unicode="&quot;" glyph-name="quotedbl" horiz-adv-x="329" d="M202 645L200 425H234L297 645H202ZM61 645L59 425H92L155 645H61Z" />
<glyph unicode="#" glyph-name="numbersign" horiz-adv-x="536" d="M377 529L373 495L445 502L436 419L364 411L354 324L265 314L276 402L239 398L229 311L140 301L150 389L57 379L66 462L159 472L163 507L71 497L79 580L172 590L179 658L268 667L260 600L298
603L305 671L394 682L386 613L459 620L450 537L377 529ZM248 482L284 485L288 520L252 516L248 482Z" />
<glyph unicode="$" glyph-name="dollar" horiz-adv-x="536" d="M286 -100H169L179 -10Q92 7 49 80L123 159Q176 84 242 84Q275 84 301 109T331 174Q335 216 278 241Q174 287 168 291Q108 333 108 412Q108 426 109 441Q116 498 154 542Q190 583 243 601L253 690H370L360
604Q410 590 468 537L398 460Q343 514 297 514Q269 514 250 494T226 436Q222 400 279 379Q368 346 387 333Q446 291 446 205Q446 191 444 175Q430 32 296 -7L286 -100Z" />
<glyph unicode="%" glyph-name="percent" horiz-adv-x="536" d="M178 650Q229 650 259 613T283 518Q276 455 240 420T151 385Q103 385 74 414T45 497Q45 558 81 602Q119 650 178 650ZM-32 -46L407 634L502 596L70 -82L-32 -46ZM254 131Q260 188 298 226T389 265Q440
265 470 227T494 131Q487 65 451 30T361 -6Q312 -6 283 23T253 108Q253 119 254 131ZM139 515Q135 474 160 474Q184 474 188 515Q193 559 168 559Q144 559 139 515ZM349 127Q345 85 370 85Q394 85 398 127Q403 172 378 172Q354 172 349 127Z" />
<glyph unicode="&amp;" glyph-name="ampersand" horiz-adv-x="555" d="M116 186Q112 145 132 113Q155 75 201 75Q242 75 289 120Q193 222 166 292Q125 264 116 186ZM351 60Q330 32 285 12T196 -9Q105 -9 55 40Q9 85 9 156Q9 217 44 274Q76 329 130 363Q103 418
109 475Q116 546 170 593T293 640Q335 640 362 627Q394 611 426 568L363 506Q330 552 267 552Q226 552 219 489Q216 461 230 414Q273 430 341 432L349 352Q298 352 269 344Q317 264 356 213Q362 228 363 242Q367 275 362 314L452 330Q455 275 452 253Q447 202 423
145Q442 126 510 87L437 0Q405 12 351 60Z" />
<glyph unicode="&apos;" glyph-name="quotesingle" horiz-adv-x="194" d="M62 646L67 413H96L156 646H62Z" />
<glyph unicode="(" glyph-name="parenleft" horiz-adv-x="318" d="M211 789L287 744Q170 500 151 323Q146 278 146 235Q146 157 163 68Q169 36 201 -100L113 -143Q41 38 41 226Q41 521 211 789Z" />
<glyph unicode=")" glyph-name="parenright" horiz-adv-x="316" d="M29 -100Q101 63 116 104Q155 212 167 319Q172 366 172 413Q172 557 120 745L206 788Q275 624 275 433Q275 133 108 -143L29 -100Z" />
<glyph unicode="*" glyph-name="asterisk" horiz-adv-x="275" d="M162 500L158 446H83L91 500L45 462L10 532L74 569L19 607L66 677L106 638L110 694L185 692L176 640L221 678L254 607L193 570L248 532L199 462L162 500Z" />
<glyph unicode="+" glyph-name="plus" horiz-adv-x="498" d="M295 96H203V266H52V360H203V521H295V360H446V266H295V96Z" />
<glyph unicode="," glyph-name="comma" horiz-adv-x="254" d="M97 -107L32 -94Q56 -53 68 -1Q70 9 82 85H187Q183 49 153 -14Q124 -73 97 -107Z" />
<glyph unicode="-" glyph-name="hyphen" horiz-adv-x="380" d="M55 360H335L325 267H45L55 360Z" />
<glyph unicode="." glyph-name="period" horiz-adv-x="244" d="M32 41T36 77T68 138T132 164Q168 164 191 139T210 77T178 16T114 -9T56 16Z" />
<glyph unicode="/" glyph-name="slash" horiz-adv-x="385" d="M-58 -149L342 707L460 683L61 -173L-58 -149Z" />
<glyph unicode="0" glyph-name="zero" horiz-adv-x="500" d="M35 103Q4 167 4 253Q4 282 7 315Q22 459 88 551Q164 656 284 656Q390 656 445 573Q495 500 495 378Q495 347 491 315Q479 195 412 103Q329 -12 214 -12Q91 -12 35 103ZM224 85Q297 85 339 169Q368
228 377 315Q382 363 382 397Q382 559 274 559Q194 559 156 470Q135 419 124 315Q121 285 121 256Q121 85 224 85Z" />
<glyph unicode="1" glyph-name="one" horiz-adv-x="500" d="M440 100L430 0H68L78 100H211L257 534H133L143 637H375L319 100H440Z" />
<glyph unicode="2" glyph-name="two" horiz-adv-x="500" d="M60 99L260 295Q350 382 357 455Q362 501 341 533T276 565Q218 565 159 477L89 527Q175 658 284 658Q370 658 424 608T478 479Q478 407 427 333Q389 277 313 211L191 111H457L445 0H49L60 99Z" />
<glyph unicode="3" glyph-name="three" horiz-adv-x="500" d="M87 145Q153 68 217 68Q274 68 308 105Q336 136 341 183Q345 228 321 258Q293 292 239 292H177L186 378H248Q290 378 322 408T360 482Q364 517 340 544T277 572Q245 572 220 554Q204 543 170 506L114
563Q199 660 286 660Q357 660 409 615Q467 565 459 489Q453 436 418 400Q395 376 347 351Q395 326 423 281Q456 231 450 174Q443 109 385 49Q318 -19 229 -19Q92 -19 28 69L87 145Z" />
<glyph unicode="4" glyph-name="four" horiz-adv-x="500" d="M127 230H275L300 464L127 230ZM360 0H251L266 141H-3L5 217L334 651H428L384 230H471L462 141H375L360 0Z" />
<glyph unicode="5" glyph-name="five" horiz-adv-x="500" d="M-1 64L55 138Q109 61 198 61Q254 61 300 113Q340 159 345 207Q346 218 346 227Q346 323 243 323Q223 323 189 303Q151 282 129 254L49 274L88 644H458L446 533H156L137 347Q159 375 194 396Q237 422
279 422Q356 422 406 372Q458 319 458 233Q458 121 377 49T182 -24Q44 -24 -1 64Z" />
<glyph unicode="6" glyph-name="six" horiz-adv-x="500" d="M124 193Q118 137 145 100Q175 58 234 58Q288 58 330 113Q368 164 368 220Q368 271 342 298T269 326Q214 326 174 292Q130 255 124 193ZM11 270Q29 438 97 537Q179 656 326 656Q395 656 483 611L434
528Q390 564 315 564Q237 564 187 491Q146 432 130 335Q157 380 219 405Q263 422 296 422Q374 422 423 378Q477 330 477 244Q477 229 475 213Q465 116 397 49Q326 -22 225 -22Q131 -22 74 32Q8 94 8 217Q8 242 11 270Z" />
<glyph unicode="7" glyph-name="seven" horiz-adv-x="500" d="M155 -32L49 -2L376 535H60L72 644H494L483 543L155 -32Z" />
<glyph unicode="8" glyph-name="eight" horiz-adv-x="500" d="M125 179Q118 118 153 85Q181 58 221 58Q268 58 303 92T345 179Q354 268 251 311Q133 254 125 179ZM192 497Q197 429 260 401Q354 436 360 495Q364 531 342 557T286 583Q255 583 229 562Q200 538 192
497ZM21 177Q33 283 176 352Q78 421 86 494Q95 577 161 621Q217 658 294 658Q360 658 404 625Q454 589 454 522Q454 430 341 358Q459 291 459 198Q459 95 388 32Q321 -28 216 -28Q130 -28 78 15Q20 62 20 149Q20 162 21 177Z" />
<glyph unicode="9" glyph-name="nine" horiz-adv-x="500" d="M-2 56L66 133Q104 95 134 81T212 66Q282 66 327 147Q362 210 372 302Q292 218 219 218Q143 218 89 269T35 404Q35 509 108 582T287 656Q372 656 429 599Q495 534 495 413Q495 389 492 363Q476 214
420 115Q339 -26 194 -26Q75 -26 -2 56ZM144 432Q139 381 167 340Q196 296 243 296Q305 296 343 340T381 447Q381 499 358 533Q330 572 278 572Q225 572 188 533T144 432Z" />
<glyph unicode=":" glyph-name="colon" horiz-adv-x="244" d="M50 384T54 420T86 481T150 506Q186 506 209 481T228 420T196 359T132 333T74 358ZM14 41T18 77T50 138T114 164Q150 164 173 139T192 77T160 16T96 -9T38 16Z" />
<glyph unicode=";" glyph-name="semicolon" horiz-adv-x="254" d="M82 332T91 418T169 504Q235 504 226 418T151 332Q82 332 91 418ZM75 -107L10 -94Q34 -53 46 -1Q48 9 60 85H165Q161 49 131 -14Q102 -73 75 -107Z" />
<glyph unicode="&lt;" glyph-name="less" horiz-adv-x="366" d="M359 46L237 42L0 289L236 529L359 525L158 285L359 46Z" />
<glyph unicode="=" glyph-name="equal" horiz-adv-x="441" d="M89 352H410V254H89V352ZM89 223H410V125H89V223Z" />
<glyph unicode="&gt;" glyph-name="greater" horiz-adv-x="365" d="M-14 46L187 285L-16 525L107 529L343 289L107 42L-14 46Z" />
<glyph unicode="?" glyph-name="question" horiz-adv-x="546" d="M154 60Q157 90 181 112T237 134Q270 134 291 113T309 60Q305 29 280 8T222 -13Q190 -13 170 8T154 60ZM384 356Q326 316 297 251Q290 236 284 178H186Q184 197 189 227Q192 247 196 268Q201 320
227 352Q247 378 315 429Q366 467 371 509Q375 546 354 575T301 605Q221 605 174 500L84 539Q128 622 177 656T307 691Q397 691 446 646Q490 605 490 533Q490 521 489 509Q483 457 456 420Q434 391 384 356Z" />
<glyph unicode="@" glyph-name="at" horiz-adv-x="1010" d="M626 470L634 510H724Q717 428 699 320L666 129L674 81Q680 64 719 64Q761 64 806 130T851 269Q851 422 757 522T513 623T256 504Q152 389 152 238Q152 78 238 -35Q329 -157 473 -157Q577 -157 643 -128Q705
-100 787 -21L847 -90Q747 -181 695 -205Q617 -242 473 -242Q269 -242 147 -100Q33 34 33 238Q33 428 173 563T513 698Q711 698 830 580T950 269Q950 160 864 70T669 -21Q609 -21 577 76Q509 -20 424 -20Q249 -20 249 199Q249 314 323 411Q405 520 529 520Q559
520 584 504L626 470ZM526 436Q476 436 432 390Q372 329 372 212Q372 148 384 119Q403 70 459 70Q489 70 532 114T583 199L617 387Q604 404 575 420T526 436Z" />
<glyph unicode="A" glyph-name="A" horiz-adv-x="568" d="M362 148H155L92 -12L-11 2L266 654H368L510 7L392 -12L362 148ZM192 241H345L297 501L192 241Z" />
<glyph unicode="B" glyph-name="B" horiz-adv-x="501" d="M29 2L97 641Q105 641 191 643Q254 645 291 645Q365 645 406 609T448 505Q448 494 447 482Q438 399 343 351Q395 347 429 300T457 192Q445 77 358 31Q295 -2 176 -2Q149 -2 99 0T29 2ZM207 569L187 380H231Q276
380 306 408Q333 434 337 473Q346 571 264 571Q243 571 207 569ZM179 304L156 81H223Q276 81 308 113Q338 142 343 193Q348 235 323 268Q295 304 244 304H179Z" />
<glyph unicode="C" glyph-name="C" horiz-adv-x="557" d="M348 660Q433 660 538 591L488 513Q429 550 427 552Q393 569 355 569Q274 569 219 479Q174 407 165 318Q163 301 163 284Q163 202 203 149T302 96Q337 96 370 108Q395 117 451 147L490 69Q419 26 380 11Q330
-8 273 -8Q150 -8 86 79Q29 156 29 278Q29 427 112 538Q203 660 348 660Z" />
<glyph unicode="D" glyph-name="D" horiz-adv-x="565" d="M29 2L97 643Q177 647 260 647Q536 647 536 383Q536 354 533 323Q518 170 431 86Q341 -2 188 -2Q164 -2 117 0T29 2ZM260 569H237Q221 568 211 568L160 87H215Q292 87 348 160Q398 225 407 313Q410 345
410 374Q410 569 260 569Z" />
<glyph unicode="E" glyph-name="E" horiz-adv-x="462" d="M186 391H413L404 302L177 303L155 89H395L385 0H29L97 640H456L447 555H204L186 391Z" />
<glyph unicode="F" glyph-name="F" horiz-adv-x="463" d="M186 391H415L406 302H177L145 0H29L97 640H457L448 555H204L186 391Z" />
<glyph unicode="G" glyph-name="G" horiz-adv-x="582" d="M267 -6Q149 -6 85 82Q28 160 28 279Q28 301 31 323Q42 444 116 543Q205 660 334 660Q380 660 436 643Q501 622 537 590L488 514Q414 569 346 569Q272 569 217 478Q172 403 163 318Q161 298 161 279Q161
198 194 145T281 92Q342 92 377 108L398 304H267L276 391H526L491 65Q422 25 382 12Q331 -6 267 -6Z" />
<glyph unicode="H" glyph-name="H" horiz-adv-x="582" d="M399 302H180L148 0H29L97 640H216L189 391H408L435 640H553L485 0H367L399 302Z" />
<glyph unicode="I" glyph-name="I" horiz-adv-x="245" d="M97 641H216L148 0H29L97 641Z" />
<glyph unicode="J" glyph-name="J" horiz-adv-x="247" d="M-30 -187Q-85 -187 -121 -167Q-142 -154 -185 -111L-117 -36Q-95 -65 -80 -76Q-59 -91 -28 -91Q31 -91 47 60L107 640H227L167 67Q141 -187 -30 -187Z" />
<glyph unicode="K" glyph-name="K" horiz-adv-x="542" d="M209 255L169 206L148 0H29L96 641H215L185 351L420 673L519 620L281 330Q311 270 386 169L509 8L365 -23Q281 111 209 255Z" />
<glyph unicode="L" glyph-name="L" horiz-adv-x="501" d="M97 641H214L155 85H413L404 0H29L97 641Z" />
<glyph unicode="M" glyph-name="M" horiz-adv-x="793" d="M599 427L402 -1H298L191 431L145 0H39L107 642H259L383 170L611 642H753L685 0H554L599 427Z" />
<glyph unicode="N" glyph-name="N" horiz-adv-x="582" d="M176 401L133 0H30L98 644H194L409 239L451 640H553L488 15L389 -15Q310 165 176 401Z" />
<glyph unicode="O" glyph-name="O" horiz-adv-x="644" d="M33 322Q47 462 139 554T361 646Q477 646 546 568T616 366Q616 345 614 322Q597 163 501 71Q412 -16 284 -16Q170 -16 102 57Q30 133 30 267Q30 294 33 322ZM155 276Q155 191 192 134Q231 74 294 74Q382
74 440 173Q490 257 490 352Q490 440 454 497Q415 558 350 558Q260 558 203 458Q155 373 155 276Z" />
<glyph unicode="P" glyph-name="P" horiz-adv-x="475" d="M172 259L145 0H29L97 641L285 644Q361 645 411 597T462 473Q462 386 385 320Q312 257 223 257Q212 257 172 259ZM205 569L180 327H212Q262 327 301 363T345 448Q346 459 346 469Q346 562 249 571Q242
572 227 571T205 569Z" />
<glyph unicode="Q" glyph-name="Q" horiz-adv-x="658" d="M438 41Q354 -19 288 -19Q174 -19 103 56T32 267Q32 293 35 321Q50 462 143 554T365 646Q482 646 552 569T622 369Q622 208 523 122L639 6L555 -78L438 41ZM158 276Q158 191 194 133Q233 72 295 72Q337
72 376 101L306 164L393 247L456 185Q482 221 492 315Q494 335 494 355Q494 441 459 497Q420 557 354 557Q264 557 207 458Q158 373 158 276Z" />
<glyph unicode="R" glyph-name="R" horiz-adv-x="522" d="M195 263H173L146 0H30L97 641Q125 641 201 643Q255 644 290 644Q459 643 459 489Q459 474 457 458Q449 389 404 338Q364 293 309 276Q376 166 510 16L361 -11Q313 44 269 120Q249 156 195 263ZM206 569L181
333H222Q332 333 345 459Q349 501 336 530Q316 573 260 571L206 569Z" />
<glyph unicode="S" glyph-name="S" horiz-adv-x="454" d="M-2 82L60 159Q113 89 190 89Q294 89 305 191Q310 242 248 270L124 325Q57 369 57 455Q57 470 59 486Q68 568 138 620Q197 664 262 664Q366 664 443 593L394 509Q333 573 272 573Q231 573 211 557Q184
537 179 485Q174 440 236 413Q346 365 356 359Q422 313 422 223Q422 209 420 193Q409 90 336 36Q274 -10 188 -10Q53 -10 -2 82Z" />
<glyph unicode="T" glyph-name="T" horiz-adv-x="536" d="M298 0H179L238 558H56L65 639H538L529 558H357L298 0Z" />
<glyph unicode="U" glyph-name="U" horiz-adv-x="611" d="M263 -17Q177 -17 120 33Q53 91 53 197Q53 216 55 235L98 640H217L174 235Q173 222 173 210Q173 142 211 103Q244 71 285 71Q329 71 367 110Q413 156 421 235L464 640H583L540 235Q527 110 436 41Q360
-17 263 -17Z" />
<glyph unicode="V" glyph-name="V" horiz-adv-x="542" d="M192 -10L40 626L167 657L272 187L466 658L566 625L279 -10H192Z" />
<glyph unicode="W" glyph-name="W" horiz-adv-x="789" d="M495 -6L415 396L244 -6H156L43 622L178 648L244 208L399 636H502L567 209L717 649L814 621L573 -6H495Z" />
<glyph unicode="X" glyph-name="X" horiz-adv-x="552" d="M267 244L101 -30L-6 10L215 317L69 621L189 662L293 407L453 664L542 620L335 329L515 10L386 -25L267 244Z" />
<glyph unicode="Y" glyph-name="Y" horiz-adv-x="503" d="M276 0H158L186 271L42 621L168 654L268 371L433 654L522 621L304 271L276 0Z" />
<glyph unicode="Z" glyph-name="Z" horiz-adv-x="544" d="M455 99L444 0H27L9 74L366 550L92 548L102 639H505L519 555L171 99H455Z" />
<glyph unicode="[" glyph-name="bracketleft" horiz-adv-x="225" d="M117 740H273L264 653H206L136 -9H201L190 -114H27L117 740Z" />
<glyph unicode="\" glyph-name="backslash" horiz-adv-x="385" d="M50 683L161 707L350 -149L239 -173L50 683Z" />
<glyph unicode="]" glyph-name="bracketright" horiz-adv-x="266" d="M16 -9H81L151 653H94L103 740H255L165 -114H5L16 -9Z" />
<glyph unicode="^" glyph-name="asciicircum" horiz-adv-x="536" d="M152 443L100 515L280 686L427 515L359 443L267 562L152 443Z" />
<glyph unicode="_" glyph-name="underscore" horiz-adv-x="536" d="M8 -50H533L527 -109H2L8 -50Z" />
<glyph unicode="`" glyph-name="grave" horiz-adv-x="329" d="M323 626L117 715L47 637L253 554L323 626Z" />
<glyph unicode="a" glyph-name="a" horiz-adv-x="491" d="M296 223Q266 223 222 215Q174 207 157 196Q131 181 126 137Q123 109 139 88T179 66Q239 66 284 114L296 223ZM289 54Q243 17 226 6Q190 -16 157 -16Q102 -16 65 19T28 115Q28 125 29 136Q38 219 90 254Q123
275 216 293Q263 302 302 306L308 358Q310 380 294 399T254 419Q163 419 99 351L62 412Q94 457 159 486Q216 512 264 512Q335 512 378 466T415 349L388 98Q388 92 394 84T409 76Q441 76 452 86L456 22Q391 -11 355 -11Q339 -11 318 7Q293 28 289 54Z" />
<glyph unicode="b" glyph-name="b" horiz-adv-x="515" d="M132 46L119 -1H28L101 700H209L181 434Q204 468 252 494Q297 518 328 518Q399 518 439 456Q474 401 474 320Q474 302 472 285Q440 -10 245 -10Q210 -10 132 46ZM171 335L149 128Q163 110 192 95T246 80Q303
80 330 147Q346 187 355 271Q358 294 358 315Q358 429 283 429Q227 429 171 335Z" />
<glyph unicode="c" glyph-name="c" horiz-adv-x="479" d="M38 242Q52 376 138 449Q210 512 302 511Q360 511 448 447L408 378Q348 431 285 431T184 347Q153 279 153 206Q153 143 180 105T254 67Q313 67 391 131L429 72Q348 -12 246 -12Q128 -12 75 72Q37 131 37
215Q37 230 38 242Z" />
<glyph unicode="d" glyph-name="d" horiz-adv-x="511" d="M320 -1L317 49L252 11Q208 -13 185 -13Q104 -13 61 55Q25 114 25 205Q25 304 73 401Q131 518 218 518Q269 518 295 506Q309 499 353 462L377 697H485L412 -1H320ZM246 429Q164 429 146 259Q144 234 144
210Q144 75 218 75Q248 75 317 127L340 342Q312 389 303 399Q278 429 246 429Z" />
<glyph unicode="e" glyph-name="e" horiz-adv-x="491" d="M256 68Q321 67 393 131L431 70Q374 20 336 4T241 -12Q124 -12 73 74Q37 133 37 218Q37 234 39 247Q51 360 118 433Q190 510 299 510Q368 510 413 467Q462 420 462 341Q462 327 461 313L453 238H157Q155
214 155 195Q155 69 256 68ZM353 323Q355 338 355 351Q355 432 284 432Q251 432 221 406Q188 376 173 323H353Z" />
<glyph unicode="f" glyph-name="f" horiz-adv-x="324" d="M264 657Q229 658 216 594L206 498H330L321 408H197L154 0H49L92 408H22L31 498H101L107 551Q127 746 272 746Q318 746 341 732Q345 729 385 690L330 623Q295 656 264 657Z" />
<glyph unicode="g" glyph-name="g" horiz-adv-x="511" d="M447 323Q439 243 381 190T242 137Q216 137 187 146Q169 130 150 104Q147 73 192 67Q199 66 264 66Q364 66 391 57Q450 38 450 -35Q450 -47 449 -60Q439 -149 332 -200Q250 -239 169 -239Q94 -239 52 -207T15
-117Q20 -63 115 -6Q76 -6 54 18Q34 39 37 68Q39 88 78 121Q128 165 132 170Q59 232 69 320Q76 394 137 449T279 504Q373 504 413 446L550 505L538 392H439Q449 343 447 323ZM178 320Q174 282 191 250Q212 213 250 213Q286 213 313 246T345 325Q349 359 327 393T269
428Q232 428 205 391Q182 359 178 320ZM174 -16Q164 -19 146 -44T124 -93Q123 -103 123 -111Q123 -167 201 -167Q250 -167 296 -133T345 -63Q349 -33 328 -23Q313 -16 268 -16H174Z" />
<glyph unicode="h" glyph-name="h" horiz-adv-x="512" d="M340 326Q341 339 341 351Q341 420 294 420Q249 420 205 373Q169 335 167 319L133 0H26L100 696H207L176 406Q243 511 309 511Q363 511 404 470Q449 426 449 359Q449 349 448 339L412 0H305L340 326Z" />
<glyph unicode="i" glyph-name="i" horiz-adv-x="233" d="M74 657Q77 689 101 710T155 731T204 710T221 657Q217 625 194 604T140 582T90 603T74 657ZM77 495H184L132 0H25L77 495Z" />
<glyph unicode="j" glyph-name="j" horiz-adv-x="233" d="M236 658Q233 626 209 605T155 584Q124 584 105 605T88 658Q92 690 116 711T170 732T220 711T236 658ZM74 -171Q36 -196 -42 -223L-71 -132Q16 -107 29 -64Q30 -59 35 -13L88 495H196L138 -55Q130 -134 74 -171Z" />
<glyph unicode="k" glyph-name="k" d="M188 222L154 178L135 -1H28L101 697H208L165 289L369 536L457 471L252 275L443 31L341 -31L188 222Z" />
<glyph unicode="l" glyph-name="l" horiz-adv-x="234" d="M101 698H207L133 0H27L101 698Z" />
<glyph unicode="m" glyph-name="m" horiz-adv-x="776" d="M610 339Q611 350 611 360Q611 420 564 420Q540 420 500 386Q452 345 447 297L416 0H304L338 324Q342 361 327 388T289 416Q259 416 219 374T175 306L143 0H36L88 496H195L186 407Q260 507 325 507Q361
507 394 478T438 412Q524 512 590 512Q658 512 696 457Q729 408 722 344L686 0H574L610 339Z" />
<glyph unicode="n" glyph-name="n" horiz-adv-x="512" d="M349 320Q350 333 350 344Q350 421 302 421Q266 421 222 379T175 303L143 0H36L88 496H195L186 407Q257 511 320 511Q378 511 418 468T458 355Q458 344 457 332L422 0H315L349 320Z" />
<glyph unicode="o" glyph-name="o" horiz-adv-x="546" d="M39 252Q53 380 141 452Q214 512 303 512Q384 512 442 461Q509 400 509 291Q509 272 507 252Q498 164 445 91Q372 -11 248 -11Q128 -11 75 69Q37 127 37 215Q37 234 39 252ZM153 215Q153 152 177 112Q203
67 252 67Q320 67 360 145Q393 209 393 285Q393 348 371 388Q345 433 299 433Q228 433 187 356Q153 292 153 215Z" />
<glyph unicode="p" glyph-name="p" horiz-adv-x="517" d="M156 28L133 -197H26L99 496H206L197 414Q214 453 258 483T343 513Q494 512 494 316Q494 290 491 261Q461 -23 253 -23Q223 -23 156 28ZM186 310L165 114Q222 68 264 68Q310 68 341 130Q367 180 373 248Q377
283 377 307Q377 421 299 421Q275 421 235 378Q199 340 186 310Z" />
<glyph unicode="q" glyph-name="q" horiz-adv-x="511" d="M369 450L374 496H481L408 -197H301L326 43Q225 -23 193 -23Q120 -23 80 41Q44 99 44 197Q44 224 47 252Q56 338 104 416Q161 508 235 508Q281 508 311 493Q330 484 369 450ZM273 422Q211 421 181 341Q159
284 159 207Q159 146 179 107Q200 65 234 65Q249 65 281 93Q332 135 336 138L357 341Q351 368 325 395T273 422Z" />
<glyph unicode="r" glyph-name="r" horiz-adv-x="338" d="M264 384Q235 383 204 353Q178 327 176 312L143 0H36L89 496H196L187 415Q203 446 229 474Q259 506 283 506Q320 506 344 496L319 372Q302 382 293 384Q289 385 264 384Z" />
<glyph unicode="s" glyph-name="s" horiz-adv-x="437" d="M27 66L91 141Q136 71 200 71Q232 71 253 89T278 135Q283 185 173 218Q118 234 94 259Q64 292 69 349Q78 430 135 475Q185 514 251 514H253Q319 514 399 460L352 386Q299 427 251 427Q219 427 200 410T178
371Q175 344 196 335Q229 321 261 311Q400 268 390 165Q381 78 319 29Q264 -14 187 -14Q79 -14 27 66Z" />
<glyph unicode="t" glyph-name="t" horiz-adv-x="351" d="M76 154L103 410H33L42 492H112L123 597H236L225 492H325L316 409L216 410L188 143Q181 79 218 79Q249 79 259 83Q277 92 295 102L312 33Q258 5 240 0Q213 -8 159 -8Q74 -8 74 115Q74 133 76 154Z" />
<glyph unicode="u" glyph-name="u" horiz-adv-x="511" d="M324 0Q323 27 321 71Q243 -18 188 -18Q132 -18 93 25T54 140Q54 153 55 166L90 495H197L163 169Q161 154 161 142Q161 75 205 75Q241 75 288 121Q331 163 334 189L366 495H473L421 0H324Z" />
<glyph unicode="v" glyph-name="v" horiz-adv-x="464" d="M169 -12L40 474L151 505L223 121L370 505L472 474L245 -12H169Z" />
<glyph unicode="w" glyph-name="w" horiz-adv-x="735" d="M452 -9L376 307L232 -9H145L46 475L159 503L212 119L352 493H446L512 120L639 503L743 475L537 -9H452Z" />
<glyph unicode="x" glyph-name="x" horiz-adv-x="488" d="M237 183L70 -31L-16 32L177 246L46 454L153 514L257 317L407 513L490 462L309 251L460 31L360 -33L237 183Z" />
<glyph unicode="y" glyph-name="y" horiz-adv-x="480" d="M77 -196Q49 -196 -17 -172L25 -77Q60 -97 93 -97Q144 -98 192 32L57 473L174 503L253 137L400 501L498 476L241 -78Q218 -125 180 -157Q133 -196 77 -196Z" />
<glyph unicode="z" glyph-name="z" horiz-adv-x="482" d="M35 77L267 355Q278 370 312 408H79L88 494H453L445 414L229 152L181 92H423L413 0H27L35 77Z" />
<glyph unicode="{" glyph-name="braceleft" horiz-adv-x="536" d="M375 725Q343 725 332 706T312 614Q309 589 307 545T304 487Q296 412 215 339L214 332Q278 267 278 170Q278 158 277 146Q275 124 266 68T253 -10Q248 -65 250 -75Q253 -90 272 -90Q315 -90 345
-65L362 -184Q313 -200 258 -197Q139 -190 139 -40Q139 -7 146 61Q147 75 153 114T162 177Q170 252 111 310L118 365Q158 407 168 420Q191 452 195 490Q198 514 200 558T204 621Q226 834 384 834Q410 834 469 819L437 707Q388 725 375 725Z" />
<glyph unicode="|" glyph-name="bar" horiz-adv-x="229" d="M113 686H241L145 -220H17L113 686Z" />
<glyph unicode="}" glyph-name="braceright" horiz-adv-x="536" d="M342 61Q329 -57 307 -107Q269 -192 177 -197Q120 -200 75 -184L117 -65Q142 -90 185 -90Q202 -90 207 -82T216 -49L220 -10Q223 11 225 67T230 146Q236 203 269 258Q296 303 331 332L332 339Q267
412 275 487Q276 501 288 580Q297 636 297 673Q297 705 288 715T254 725Q241 725 188 707L180 819Q241 834 267 834Q405 834 405 668Q405 646 403 621Q401 602 394 558T384 490Q380 452 396 420Q403 407 435 365L430 310Q359 252 351 177Q349 154 346 114L342 61Z"
/>
<glyph unicode="~" glyph-name="asciitilde" horiz-adv-x="395" d="M206 403Q183 420 173 420Q160 420 146 407Q137 399 102 360L83 453Q132 497 183 497Q216 497 246 479T281 461Q292 460 314 481Q325 493 337 504L353 417Q304 379 265 379Q239 379 206 403Z" />
<glyph unicode="&#xa0;" glyph-name="nbspace" horiz-adv-x="273" />
<glyph unicode="&#xa1;" glyph-name="exclamdown" horiz-adv-x="235" d="M192 501L128 -103H4L68 501H192ZM227 649Q224 617 199 594T141 571Q110 571 90 594T72 649Q76 681 101 703T158 726T210 704T227 649Z" />
<glyph unicode="&#xa2;" glyph-name="cent" horiz-adv-x="479" d="M37 242Q49 355 108 425Q158 486 235 505L244 590H362L353 506Q404 494 458 447L401 371Q354 412 341 420Q317 436 288 436Q227 436 186 350Q152 279 152 209Q152 146 180 107T247 67Q277 67 309
86Q332 99 379 140L430 69Q365 8 299 -10L290 -89H172L181 -11Q98 8 62 82Q35 135 35 208Q35 226 37 242Z" />
<glyph unicode="&#xa3;" glyph-name="sterling" d="M262 26Q215 26 37 -18L32 82Q50 86 69 91Q92 97 103 107Q130 132 135 179Q142 242 138 293H71L81 386H135Q131 440 134 467Q142 547 189 599Q240 656 321 656Q382 656 448 615L396 534Q331 568 317 568Q286
568 262 536T233 463Q232 448 237 386H363L353 293H247Q247 250 241 196Q236 150 201 114Q239 119 286 119Q347 119 422 98L389 -12Q376 -8 319 13Q284 26 262 26Z" />
<glyph unicode="&#xa5;" glyph-name="yen" horiz-adv-x="531" d="M189 287L55 641H179L265 416L399 641H523L314 287H390L382 204H303L298 155H377L368 72H289L281 2H162L170 72H88L97 155H179L184 204H102L110 287H189Z" />
<glyph unicode="&#xa7;" glyph-name="section" horiz-adv-x="392" d="M28 -23L85 56Q125 3 171 3Q188 3 201 15T215 38Q217 55 203 62Q200 64 175 71Q157 75 125 87Q62 112 69 183Q75 233 107 267Q81 294 86 340Q92 402 136 437Q174 467 222 466Q271 465 333 422L291
341Q236 381 211 381Q190 381 184 375T174 346Q173 335 238 320Q331 289 323 207Q317 155 288 123Q311 96 306 50Q300 -17 254 -54Q213 -87 157 -87Q84 -87 28 -23ZM158 189Q157 182 190 172L210 166Q230 179 232 195Q233 211 219 219Q214 222 186 230Q162 226
158 189Z" />
<glyph unicode="&#xa8;" glyph-name="dieresis" horiz-adv-x="306" d="M185 628Q188 655 206 675Q228 700 263 700Q296 700 313 675Q328 654 325 628Q322 601 303 580Q280 556 247 556T197 580Q182 600 185 628ZM-25 628Q-22 654 -3 675Q19 700 53 700Q86 700
103 675Q118 654 115 628Q112 601 93 580Q71 556 37 556Q4 556 -13 580Q-28 600 -25 628Z" />
<glyph unicode="&#xa9;" glyph-name="copyright" horiz-adv-x="796" d="M396 102Q309 102 260 169Q217 228 217 318Q217 403 261 462Q311 529 398 530Q458 530 519 495L495 444Q436 480 401 480Q337 480 302 419Q275 371 275 310Q275 242 310 198T396 153Q449
153 498 181L523 139Q453 102 396 102ZM132 426T132 316T210 128T398 50T586 128T664 316T586 504T398 582T210 504ZM67 179T67 316T164 550T398 647T632 550T729 316T632 82T398 -15T164 82Z" />
<glyph unicode="&#xaa;" glyph-name="ordfeminine" horiz-adv-x="246" />
<glyph unicode="&#xab;" glyph-name="guillemotleft" horiz-adv-x="390" d="M419 126L312 122L156 289L312 451L419 447L288 286L419 126ZM261 126L154 122L-1 289L154 451L261 447L131 286L261 126Z" />
<glyph unicode="&#xac;" glyph-name="logicalnot" horiz-adv-x="613" d="M443 225H88V343H558V28H443V225Z" />
<glyph unicode="&#xae;" glyph-name="registered" horiz-adv-x="796" d="M133 316H132Q132 206 210 128T398 50T586 128T664 316T586 504T398 582T211 504T133 316ZM67 179T67 316T164 550T398 647T632 550T729 316T632 82T398 -15T164 82ZM491 108Q457 142 415
202Q388 241 352 300L323 299V114H266V524Q363 526 395 526Q507 525 506 413Q505 322 408 304L477 211Q501 180 562 121L491 108ZM379 487L323 486V342H365Q416 342 437 362Q454 380 454 420Q454 488 379 487Z" />
<glyph unicode="&#xaf;" glyph-name="overscore" horiz-adv-x="406" d="M108 659H342L336 594H102L108 659Z" />
<glyph unicode="&#xb0;" glyph-name="degree" horiz-adv-x="273" d="M284 640T278 582T228 483T123 442T26 483T-5 582T46 681T153 722Q213 722 248 681ZM71 612T68 582T82 532T131 512Q160 512 181 532T205 582T192 632T145 652T93 632Z" />
<glyph unicode="&#xb1;" glyph-name="plusminus" horiz-adv-x="501" d="M295 89H202V260H52V355H202V517H295V355H446V260H295V89ZM65 49H441V-38H65V49Z" />
<glyph unicode="&#xb4;" glyph-name="acute" horiz-adv-x="329" d="M46 626L270 715L294 637L72 554L46 626Z" />
<glyph unicode="&#xb5;" glyph-name="mu" horiz-adv-x="508" d="M335 29L325 19Q273 -32 226 -32Q187 -32 155 -10L135 -196H32L104 486H207L171 144Q167 107 187 89T252 71Q280 71 308 98T338 149L374 487H484L445 117Q437 49 463 31Q481 18 501 -7L410 -72Q349
-34 335 29Z" />
<glyph unicode="&#xb6;" glyph-name="paragraph" horiz-adv-x="507" d="M338 0V642H437V0H338ZM211 0V317Q49 317 50 483Q50 569 91 607Q129 642 209 642H310V0H211Z" />
<glyph unicode="&#xb7;" glyph-name="middot" horiz-adv-x="236" d="M37 373T41 413T73 482T138 512Q175 512 196 483T214 413Q210 373 182 344T118 314Q81 314 59 343Z" />
<glyph unicode="&#xb8;" glyph-name="cedilla" horiz-adv-x="205" d="M5 -176L49 -147Q75 -182 104 -182Q112 -182 121 -167T132 -142Q134 -129 128 -118T115 -106Q86 -106 77 -122L22 -105L40 4L120 5L113 -36H116Q158 -36 180 -67Q199 -94 196 -130Q192 -169
170 -200Q142 -239 97 -239Q26 -239 5 -176Z" />
<glyph unicode="&#xba;" glyph-name="ordmasculine" horiz-adv-x="1061" />
<glyph unicode="&#xbb;" glyph-name="guillemotright" horiz-adv-x="393" d="M141 126L273 286L141 447L250 451L404 289L250 122L141 126ZM-17 126L115 286L-16 447L92 451L246 289L92 122L-17 126Z" />
<glyph unicode="&#xbf;" glyph-name="questiondown" horiz-adv-x="459" d="M171 333Q190 390 191 489H298Q299 470 299 451Q299 259 197 173Q150 133 149 133Q122 106 119 80Q115 44 133 24T183 4Q255 4 299 109L389 59Q347 -25 299 -63Q247 -103 176 -103Q92
-103 46 -43Q5 11 12 81Q23 183 105 241Q150 273 171 333ZM329 608Q325 577 303 556T251 534T203 555T188 608Q191 638 214 659T266 681Q296 681 314 660T329 608Z" />
<glyph unicode="&#xc0;" glyph-name="Agrave" horiz-adv-x="580" d="M351 168H170L97 -12L-14 2L261 654H363L506 7L388 -12L351 168ZM207 261H334L294 483L207 261ZM394 686L194 776L248 841L448 745L394 686Z" />
<glyph unicode="&#xc1;" glyph-name="Aacute" horiz-adv-x="568" d="M351 168H170L97 -12L-14 2L261 654H363L506 7L388 -12L351 168ZM207 261H334L295 483L207 261ZM181 746L406 835L459 757L237 674L181 746Z" />
<glyph unicode="&#xc2;" glyph-name="Acircumflex" horiz-adv-x="568" d="M350 168H169L96 -12L-16 2L260 654H362L505 7L387 -12L350 168ZM206 261H333L293 483L206 261ZM171 661L181 759L329 865L460 759L450 662L318 749L171 661Z" />
<glyph unicode="&#xc3;" glyph-name="Atilde" horiz-adv-x="580" d="M352 168H171L98 -12L-14 2L262 654H364L507 7L389 -12L352 168ZM208 261H335L295 483L208 261ZM312 719Q278 742 270 742Q245 742 199 695L169 773Q213 823 279 825Q310 826 345 799T391 772Q405
772 446 803L475 727Q457 711 429 700T385 689Q355 689 312 719Z" />
<glyph unicode="&#xc4;" glyph-name="Adieresis" horiz-adv-x="580" d="M352 168H171L98 -12L-14 2L262 654H364L507 7L389 -12L352 168ZM207 261H334L295 483L207 261ZM363 758Q365 785 384 805Q406 830 440 830Q473 830 490 805Q505 784 503 758Q500 731 480
710Q458 686 425 686Q391 686 374 710Q360 730 363 758ZM153 758Q155 785 174 805Q196 830 230 830Q263 830 281 805Q295 784 293 758Q290 731 270 710Q248 686 215 686Q181 686 164 710Q150 730 153 758Z" />
<glyph unicode="&#xc5;" glyph-name="Aring" horiz-adv-x="580" d="M350 168H169L96 -12L-15 2L260 654H362L505 7L387 -12L350 168ZM206 261H333L293 483L206 261ZM321 686Q280 686 258 710T239 773Q243 810 271 834T339 859T402 835T421 773Q417 735 389 711T321
686ZM367 816T334 816T297 773Q292 729 325 729T363 773Q367 816 334 816Z" />
<glyph unicode="&#xc6;" glyph-name="AE" horiz-adv-x="862" d="M222 271H346L306 493L222 271ZM572 391H812L802 292H562L542 99H796L785 -1H400L365 168H179L105 -12L-11 2L272 654H376L441 310L476 641H856L846 545H589L572 391Z" />
<glyph unicode="&#xc7;" glyph-name="Ccedilla" horiz-adv-x="570" d="M302 -219Q237 -219 220 -171L260 -137Q285 -169 308 -169Q343 -169 347 -135Q351 -96 318 -96Q304 -96 281 -111L237 -90L251 -6Q148 7 94 92Q46 167 46 278Q46 427 127 537Q216 659 361
660Q452 661 554 597L491 488L428 533Q388 559 356 559Q274 559 220 474Q175 405 166 318Q164 300 164 283Q164 200 202 148T299 95Q352 95 460 152L505 58Q433 21 400 10Q357 -6 308 -8L301 -47Q311 -43 326 -43Q368 -43 391 -72Q411 -97 407 -132T377 -192Q348
-219 302 -219Z" />
<glyph unicode="&#xc8;" glyph-name="Egrave" horiz-adv-x="489" d="M182 391H408L397 292L172 293L152 109L392 110L381 0H24L91 640H450L439 535H197L182 391ZM362 686L163 776L216 841L417 745L362 686Z" />
<glyph unicode="&#xc9;" glyph-name="Eacute" horiz-adv-x="469" d="M182 391H408L397 292L171 293L152 109L392 110L381 0H24L91 640H450L439 535H197L182 391ZM151 756L374 845L428 767L205 684L151 756Z" />
<glyph unicode="&#xca;" glyph-name="Ecircumflex" horiz-adv-x="489" d="M180 391H406L396 292L170 293L150 109L391 110L379 0H22L89 640H448L437 535H195L180 391ZM151 681L160 769L309 875L440 769L431 682L297 759L151 681Z" />
<glyph unicode="&#xcb;" glyph-name="Edieresis" horiz-adv-x="489" d="M182 391H408L398 292L172 293L153 109L393 110L381 0H24L92 640H451L440 535H198L182 391ZM331 758Q334 784 353 805Q375 830 409 830Q442 830 459 805Q474 784 471 758Q468 731 449 710Q427
686 393 686Q360 686 343 710Q328 730 331 758ZM122 758Q125 785 143 805Q165 830 200 830Q232 830 249 805Q264 784 261 758Q258 731 239 710Q217 686 184 686Q150 686 133 710Q119 730 122 758Z" />
<glyph unicode="&#xcc;" glyph-name="Igrave" horiz-adv-x="215" d="M71 642H200L133 0H4L71 642ZM226 686L26 776L80 841L280 745L226 686Z" />
<glyph unicode="&#xcd;" glyph-name="Iacute" horiz-adv-x="215" d="M72 642H201L133 0H4L72 642ZM14 746L238 835L292 757L69 674L14 746Z" />
<glyph unicode="&#xce;" glyph-name="Icircumflex" horiz-adv-x="215" d="M63 642H192L125 0H-4L63 642ZM-5 681L4 769L153 875L284 769L275 682L141 759L-5 681Z" />
<glyph unicode="&#xcf;" glyph-name="Idieresis" horiz-adv-x="215" d="M72 642H201L134 0H5L72 642ZM184 748Q186 774 205 795Q227 820 261 820Q294 820 311 795Q326 774 324 748Q321 721 301 700Q279 676 246 676Q212 676 195 700Q181 720 184 748ZM-25 748Q-23
775 -4 795Q18 820 52 820Q84 820 102 795Q116 774 114 748Q111 721 92 700Q70 676 37 676Q2 676 -14 700Q-28 720 -25 748Z" />
<glyph unicode="&#xd1;" glyph-name="Ntilde" horiz-adv-x="570" d="M182 395L140 1L27 -1L95 644H191L398 259L438 640H550L485 15L396 -15Q334 127 182 395ZM331 689Q298 712 290 712Q264 712 219 665L188 743Q233 793 299 795Q329 796 365 769T411 742Q424
742 465 773L494 697Q477 681 446 669Q419 659 404 659Q375 659 331 689Z" />
<glyph unicode="&#xd2;" glyph-name="Ograve" horiz-adv-x="644" d="M27 322Q42 462 134 554T356 646Q472 646 541 568T611 367Q611 345 608 322Q592 163 496 71Q406 -16 279 -16Q165 -16 95 58T25 267Q25 294 27 322ZM140 281Q140 197 182 141T289 84Q379 84
440 173Q495 253 495 346Q495 432 453 490T343 548Q254 548 193 456Q140 375 140 281ZM437 686L237 776L291 841L491 745L437 686Z" />
<glyph unicode="&#xd3;" glyph-name="Oacute" horiz-adv-x="644" d="M28 322Q43 462 135 554T356 646Q473 646 542 568T611 367Q611 345 609 322Q592 163 497 71Q407 -16 279 -16Q165 -16 97 57Q25 133 25 267Q25 294 28 322ZM140 281Q140 197 182 141T290 84Q379
84 440 173Q496 253 496 346Q496 432 454 490T344 548Q254 548 194 456Q140 375 140 281ZM224 746L449 835L503 757L280 674L224 746Z" />
<glyph unicode="&#xd4;" glyph-name="Ocircumflex" horiz-adv-x="644" d="M26 322Q41 462 133 554T354 646Q471 646 540 568T610 367Q610 345 607 322Q591 163 495 71Q405 -16 278 -16Q164 -16 95 57Q23 133 23 267Q23 294 26 322ZM139 281Q139 197 181 141T288
84Q378 84 439 173Q494 253 494 346Q494 432 452 490T342 548Q252 548 192 456Q139 375 139 281ZM220 661L230 759L379 865L510 759L500 662L367 749L220 661Z" />
<glyph unicode="&#xd5;" glyph-name="Otilde" horiz-adv-x="648" d="M29 322Q44 462 136 554T357 646Q474 646 543 568T613 367Q613 345 610 322Q594 163 498 71Q408 -16 281 -16Q167 -16 98 57Q26 133 26 267Q26 294 29 322ZM142 281Q142 197 184 141T291 84Q381
84 442 173Q497 253 497 346Q497 432 455 490T345 548Q255 548 195 456Q142 375 142 281ZM332 699Q299 722 290 722Q265 722 219 675L189 753Q233 803 299 805Q330 806 365 779T412 752Q425 752 466 783L495 707Q477 691 449 680T405 669Q376 669 332 699Z" />
<glyph unicode="&#xd6;" glyph-name="Odieresis" horiz-adv-x="648" d="M29 322Q43 462 135 554T357 646Q473 646 542 568T612 367Q612 345 610 322Q593 163 497 71Q407 -16 280 -16Q166 -16 96 58T26 267Q26 294 29 322ZM141 281Q141 197 183 141T291 84Q380
84 441 173Q496 253 496 346Q496 432 454 490T344 548Q255 548 194 456Q141 375 141 281ZM405 748Q408 775 427 795Q449 820 483 820Q515 820 533 795Q548 774 545 748Q543 721 523 700Q500 676 468 676Q433 676 417 700Q402 720 405 748ZM195 748Q198 775 217
795Q239 820 273 820Q306 820 323 795Q338 774 335 748Q332 721 313 700Q291 676 258 676Q224 676 207 700Q192 720 195 748Z" />
<glyph unicode="&#xd8;" glyph-name="Oslash" horiz-adv-x="644" d="M34 322Q48 462 140 554T362 646Q383 646 402 643L420 687L525 653L505 604Q617 530 617 367Q617 345 615 322Q598 163 502 71Q412 -16 285 -16Q274 -16 254 -14L230 -74L125 -40L149 19Q31
91 31 267Q31 294 34 322ZM295 84H296Q385 84 446 173Q501 253 501 346Q501 433 459 490L295 84ZM146 281Q146 191 195 132L363 547Q358 548 349 548Q259 548 199 457Q146 376 146 281Z" />
<glyph unicode="&#xd9;" glyph-name="Ugrave" horiz-adv-x="571" d="M238 -17Q155 -17 104 32Q47 87 47 191Q47 212 49 235L92 640H211L168 235Q166 216 166 198Q166 81 250 81Q294 81 327 115Q367 156 375 235L418 640H537L494 235Q481 109 400 41Q331 -17 238
-17ZM395 686L195 776L249 841L449 745L395 686Z" />
<glyph unicode="&#xda;" glyph-name="Uacute" horiz-adv-x="571" d="M238 -17Q155 -17 105 32Q47 87 47 191Q47 212 50 235L92 640H211L169 235Q167 216 167 198Q167 81 251 81Q295 81 328 115Q367 156 376 235L418 640H537L495 235Q481 109 401 41Q332 -17 238
-17ZM182 746L407 835L461 757L238 674L182 746Z" />
<glyph unicode="&#xdb;" glyph-name="Ucircumflex" horiz-adv-x="571" d="M237 -17Q154 -17 103 32Q46 87 46 191Q46 212 48 235L91 640H210L167 235Q165 216 165 198Q165 81 249 81Q293 81 326 115Q366 156 374 235L417 640H536L493 235Q480 109 399 41Q330 -17
237 -17ZM171 671L180 759L329 865L460 759L451 672L317 749L171 671Z" />
<glyph unicode="&#xdc;" glyph-name="Udieresis" horiz-adv-x="521" d="M239 -17Q156 -17 105 32Q48 87 48 191Q48 212 51 235L93 640H212L170 235Q167 216 167 198Q167 81 251 81Q295 81 329 115Q368 156 377 235L419 640H538L496 235Q482 109 401 41Q332 -17
239 -17ZM352 748Q355 774 374 795Q396 820 430 820Q463 820 480 795Q495 774 492 748Q490 721 470 700Q448 676 415 676Q381 676 364 700Q350 720 352 748ZM143 748Q146 775 165 795Q187 820 221 820Q253 820 271 795Q285 774 282 748Q280 721 260 700Q238 676
206 676Q171 676 155 700Q140 720 143 748Z" />
<glyph unicode="&#xdf;" glyph-name="germandbls" horiz-adv-x="549" d="M148 61L206 140Q231 99 259 88Q272 83 306 83Q333 83 352 106Q367 124 370 149Q373 181 341 200Q330 206 284 222Q187 255 187 357Q187 368 188 379Q192 419 232 464Q279 517 335 517Q357
517 379 508Q383 515 384 535Q385 549 385 563Q388 586 358 600T289 615Q249 615 216 582T178 500L125 -1H15L68 500Q78 593 136 651Q200 715 304 715Q386 715 430 672T475 554Q475 541 474 527Q467 460 426 401Q370 423 345 423Q300 423 295 374Q293 356 314 345Q320
342 366 327Q442 302 469 249Q488 212 483 155Q475 84 418 35T291 -15Q234 -15 212 -4Q186 9 148 61Z" />
<glyph unicode="&#xe0;" glyph-name="agrave" horiz-adv-x="491" d="M403 626L197 715L127 637L332 554L403 626ZM296 223Q266 223 222 215Q174 207 157 196Q131 181 126 137Q123 109 139 88T179 66Q239 66 284 114L296 223ZM289 54Q243 17 226 6Q190 -16 157
-16Q102 -16 65 19T28 115Q28 125 29 136Q38 219 90 254Q123 275 216 293Q263 302 302 306L308 358Q310 380 294 399T254 419Q163 419 99 351L62 412Q94 457 159 486Q216 512 264 512Q335 512 378 466T415 349L388 98Q388 92 394 84T409 76Q441 76 452 86L456 22Q391
-11 355 -11Q339 -11 318 7Q293 28 289 54Z" />
<glyph unicode="&#xe1;" glyph-name="aacute" horiz-adv-x="491" d="M155 626L379 715L433 637L210 554L155 626ZM296 223Q266 223 222 215Q174 207 157 196Q131 181 126 137Q123 109 139 88T179 66Q239 66 284 114L296 223ZM289 54Q243 17 226 6Q190 -16 157
-16Q102 -16 65 19T28 115Q28 125 29 136Q38 219 90 254Q123 275 216 293Q263 302 302 306L308 358Q310 380 294 399T254 419Q163 419 99 351L62 412Q94 457 159 486Q216 512 264 512Q335 512 378 466T415 349L388 98Q388 92 394 84T409 76Q441 76 452 86L456 22Q391
-11 355 -11Q339 -11 318 7Q293 28 289 54Z" />
<glyph unicode="&#xe2;" glyph-name="acircumflex" horiz-adv-x="491" d="M133 521L142 609L291 715L422 609L413 522L279 599L133 521ZM296 223Q266 223 222 215Q174 207 157 196Q131 181 126 137Q123 109 139 88T179 66Q239 66 284 114L296 223ZM289 54Q243
17 226 6Q190 -16 157 -16Q102 -16 65 19T28 115Q28 125 29 136Q38 219 90 254Q123 275 216 293Q263 302 302 306L308 358Q310 380 294 399T254 419Q163 419 99 351L62 412Q94 457 159 486Q216 512 264 512Q335 512 378 466T415 349L388 98Q388 92 394 84T409 76Q441
76 452 86L456 22Q391 -11 355 -11Q339 -11 318 7Q293 28 289 54Z" />
<glyph unicode="&#xe3;" glyph-name="atilde" horiz-adv-x="491" d="M253 579Q221 602 211 602Q186 602 140 555L108 633Q153 683 219 685Q249 686 285 659T332 632Q345 632 386 663L416 587Q398 571 367 559Q340 549 326 549Q295 549 253 579ZM296 223Q266 223
222 215Q174 207 157 196Q131 181 126 137Q123 109 139 88T179 66Q239 66 284 114L296 223ZM289 54Q243 17 226 6Q190 -16 157 -16Q102 -16 65 19T28 115Q28 125 29 136Q38 219 90 254Q123 275 216 293Q263 302 302 306L308 358Q310 380 294 399T254 419Q163 419
99 351L62 412Q94 457 159 486Q216 512 264 512Q335 512 378 466T415 349L388 98Q388 92 394 84T409 76Q441 76 452 86L456 22Q391 -11 355 -11Q339 -11 318 7Q293 28 289 54Z" />
<glyph unicode="&#xe4;" glyph-name="adieresis" horiz-adv-x="491" d="M313 598Q316 625 335 645Q357 670 391 670Q423 670 441 645Q456 624 453 598Q451 571 431 550Q409 526 376 526Q341 526 325 550Q311 570 313 598ZM103 598Q106 625 125 645Q147 670 181
670Q214 670 231 645Q246 624 243 598Q241 571 221 550Q199 526 166 526Q132 526 115 550Q101 570 103 598ZM296 223Q266 223 222 215Q174 207 157 196Q131 181 126 137Q123 109 139 88T179 66Q239 66 284 114L296 223ZM289 54Q243 17 226 6Q190 -16 157 -16Q102
-16 65 19T28 115Q28 125 29 136Q38 219 90 254Q123 275 216 293Q263 302 302 306L308 358Q310 380 294 399T254 419Q163 419 99 351L62 412Q94 457 159 486Q216 512 264 512Q335 512 378 466T415 349L388 98Q388 92 394 84T409 76Q441 76 452 86L456 22Q391 -11
355 -11Q339 -11 318 7Q293 28 289 54Z" />
<glyph unicode="&#xe5;" glyph-name="aring" horiz-adv-x="491" d="M261 566Q221 566 199 590T181 653Q185 690 212 714T280 739T343 715T362 653Q358 615 330 591T261 566ZM275 696Q243 696 239 653Q234 609 266 609Q299 609 304 653Q308 696 275 696ZM296 223Q266
223 222 215Q174 207 157 196Q131 181 126 137Q123 109 139 88T179 66Q239 66 284 114L296 223ZM289 54Q243 17 226 6Q190 -16 157 -16Q102 -16 65 19T28 115Q28 125 29 136Q38 219 90 254Q123 275 216 293Q263 302 302 306L308 358Q310 380 294 399T254 419Q163
419 99 351L62 412Q94 457 159 486Q216 512 264 512Q335 512 378 466T415 349L388 98Q388 92 394 84T409 76Q441 76 452 86L456 22Q391 -11 355 -11Q339 -11 318 7Q293 28 289 54Z" />
<glyph unicode="&#xe6;" glyph-name="ae" horiz-adv-x="775" d="M560 429Q506 429 478 402Q457 382 435 325H623V326Q625 339 625 351Q625 429 560 429ZM254 -1Q213 -16 162 -16Q105 -16 68 18Q28 54 28 116Q28 126 29 136Q38 219 93 257Q128 281 222 303Q262
312 311 319L316 358Q318 379 302 394T260 409Q214 409 123 341L70 422Q115 459 179 487Q239 512 271 512Q361 512 404 446Q474 507 574 507Q645 507 689 461T733 334Q733 319 732 304L725 239H425Q423 220 423 202Q423 68 532 68Q586 68 653 146L700 75Q621 -12
517 -12Q403 -12 349 58Q292 12 254 -1ZM246 205Q191 195 176 189Q140 173 135 134Q129 80 183 80Q216 80 248 93Q290 111 293 140L300 214L246 205Z" />
<glyph unicode="&#xe7;" glyph-name="ccedilla" horiz-adv-x="483" d="M363 -132Q359 -167 331 -193T257 -219Q193 -219 176 -171L216 -137Q241 -169 263 -169Q299 -169 302 -135Q307 -96 273 -96Q258 -96 237 -111L192 -90L205 -8H209Q119 8 77 86Q48 141 48
215Q48 230 49 242Q63 376 148 449Q220 512 313 511Q371 511 459 447L418 378Q359 431 296 431T195 347Q164 279 164 206Q164 143 191 105T265 67Q323 67 401 131L440 72Q362 -8 266 -12H262L256 -47Q265 -43 281 -43Q323 -43 346 -72Q366 -97 363 -132ZM262 -12L256
-47Q265 -43 281 -43Q323 -43 346 -72Q366 -97 363 -132Q359 -167 331 -193T257 -219Q193 -219 176 -171L216 -137Q241 -169 263 -169Q299 -169 302 -135Q307 -96 273 -96Q258 -96 237 -111L192 -90L206 -8L262 -12Z" />
<glyph unicode="&#xe8;" glyph-name="egrave" horiz-adv-x="497" d="M433 626L227 715L177 637L382 554L433 626ZM256 68Q321 67 393 131L431 70Q374 20 336 4T241 -12Q124 -12 73 74Q37 133 37 218Q37 234 39 247Q51 360 118 433Q190 510 299 510Q368 510 413
467Q462 420 462 341Q462 327 461 313L453 238H157Q155 214 155 195Q155 69 256 68ZM353 323Q355 338 355 351Q355 432 284 432Q251 432 221 406Q188 376 173 323H353Z" />
<glyph unicode="&#xe9;" glyph-name="eacute" horiz-adv-x="497" d="M155 626L379 715L403 637L180 554L155 626ZM256 68Q321 67 393 131L431 70Q374 20 336 4T241 -12Q124 -12 73 74Q37 133 37 218Q37 234 39 247Q51 360 118 433Q190 510 299 510Q368 510 413
467Q462 420 462 341Q462 327 461 313L453 238H157Q155 214 155 195Q155 69 256 68ZM353 323Q355 338 355 351Q355 432 284 432Q251 432 221 406Q188 376 173 323H353Z" />
<glyph unicode="&#xea;" glyph-name="ecircumflex" horiz-adv-x="497" d="M155 561L164 649L313 755L444 649L435 562L301 639L155 561ZM256 68Q321 67 393 131L431 70Q374 20 336 4T241 -12Q124 -12 73 74Q37 133 37 218Q37 234 39 247Q51 360 118 433Q190 510
299 510Q368 510 413 467Q462 420 462 341Q462 327 461 313L453 238H157Q155 214 155 195Q155 69 256 68ZM353 323Q355 338 355 351Q355 432 284 432Q251 432 221 406Q188 376 173 323H353Z" />
<glyph unicode="&#xeb;" glyph-name="edieresis" horiz-adv-x="497" d="M285 628Q288 655 306 675Q328 700 363 700Q396 700 413 675Q428 654 425 628Q422 601 403 580Q380 556 347 556T297 580Q282 600 285 628ZM75 628Q78 654 97 675Q119 700 153 700Q186 700
203 675Q218 654 215 628Q212 601 193 580Q171 556 137 556Q104 556 87 580Q72 600 75 628ZM256 68Q321 67 393 131L431 70Q374 20 336 4T241 -12Q124 -12 73 74Q37 133 37 218Q37 234 39 247Q51 360 118 433Q190 510 299 510Q368 510 413 467Q462 420 462 341Q462
327 461 313L453 238H157Q155 214 155 195Q155 69 256 68ZM353 323Q355 338 355 351Q355 432 284 432Q251 432 221 406Q188 376 173 323H353Z" />
<glyph unicode="&#xec;" glyph-name="igrave" horiz-adv-x="249" d="M89 495H196L144 0H37L89 495ZM263 626L57 715L-13 637L193 554L263 626Z" />
<glyph unicode="&#xed;" glyph-name="iacute" horiz-adv-x="234" d="M18 626L242 715L275 637L53 554L18 626ZM77 495H184L132 0H25L77 495Z" />
<glyph unicode="&#xee;" glyph-name="icircumflex" horiz-adv-x="210" d="M89 495H196L144 0H37L89 495ZM-35 521L-26 609L123 715L254 609L245 522L111 599L-35 521Z" />
<glyph unicode="&#xef;" glyph-name="idieresis" horiz-adv-x="207" d="M78 495H185L133 0H26L78 495ZM155 628Q158 655 176 675Q198 700 233 700Q266 700 283 675Q298 654 295 628Q292 601 273 580Q250 556 217 556T167 580Q152 600 155 628ZM-55 628Q-52 654
-33 675Q-11 700 23 700Q56 700 73 675Q88 654 85 628Q82 601 63 580Q41 556 7 556Q-26 556 -43 580Q-58 600 -55 628Z" />
<glyph unicode="&#xf1;" glyph-name="ntilde" horiz-adv-x="486" d="M273 579Q241 602 231 602Q206 602 160 555L129 633Q173 683 239 685Q270 686 306 659T352 632Q365 632 406 663L436 587Q418 571 390 560T346 549Q315 549 273 579ZM349 320Q350 333 350 344Q350
421 302 421Q266 421 222 379T175 303L143 0H36L88 496H195L186 407Q257 511 320 511Q378 511 418 468T458 355Q458 344 457 332L422 0H315L349 320Z" />
<glyph unicode="&#xf2;" glyph-name="ograve" horiz-adv-x="543" d="M409 556L209 646L263 711L463 615L409 556ZM39 252Q53 380 141 452Q214 512 303 512Q384 512 442 461Q509 400 509 291Q509 272 507 252Q498 164 445 91Q372 -11 248 -11Q128 -11 75 69Q37
127 37 215Q37 234 39 252ZM153 215Q153 152 177 112Q203 67 252 67Q320 67 360 145Q393 209 393 285Q393 348 371 388Q345 433 299 433Q228 433 187 356Q153 292 153 215Z" />
<glyph unicode="&#xf3;" glyph-name="oacute" horiz-adv-x="543" d="M197 626L421 715L475 637L252 554L197 626ZM39 252Q53 380 141 452Q214 512 303 512Q384 512 442 461Q509 400 509 291Q509 272 507 252Q498 164 445 91Q372 -11 248 -11Q128 -11 75 69Q37
127 37 215Q37 234 39 252ZM153 215Q153 152 177 112Q203 67 252 67Q320 67 360 145Q393 209 393 285Q393 348 371 388Q345 433 299 433Q228 433 187 356Q153 292 153 215Z" />
<glyph unicode="&#xf4;" glyph-name="ocircumflex" horiz-adv-x="543" d="M163 521L172 609L321 715L452 609L443 522L309 599L163 521ZM39 252Q53 380 141 452Q214 512 303 512Q384 512 442 461Q509 400 509 291Q509 272 507 252Q498 164 445 91Q372 -11 248
-11Q128 -11 75 69Q37 127 37 215Q37 234 39 252ZM153 215Q153 152 177 112Q203 67 252 67Q320 67 360 145Q393 209 393 285Q393 348 371 388Q345 433 299 433Q228 433 187 356Q153 292 153 215Z" />
<glyph unicode="&#xf5;" glyph-name="otilde" horiz-adv-x="543" d="M304 579Q271 602 263 602Q237 602 192 555L161 633Q206 683 272 685Q302 686 338 659T384 632Q397 632 438 663L467 587Q450 571 419 559Q392 549 377 549Q348 549 304 579ZM39 252Q53 380
141 452Q214 512 303 512Q384 512 442 461Q509 400 509 291Q509 272 507 252Q498 164 445 91Q372 -11 248 -11Q128 -11 75 69Q37 127 37 215Q37 234 39 252ZM153 215Q153 152 177 112Q203 67 252 67Q320 67 360 145Q393 209 393 285Q393 348 371 388Q345 433 299
433Q228 433 187 356Q153 292 153 215Z" />
<glyph unicode="&#xf6;" glyph-name="odieresis" horiz-adv-x="543" d="M315 628Q318 655 336 675Q358 700 393 700Q426 700 443 675Q458 654 455 628Q452 601 433 580Q410 556 377 556T327 580Q312 600 315 628ZM105 628Q108 654 127 675Q149 700 183 700Q216
700 233 675Q248 654 245 628Q242 601 223 580Q201 556 167 556Q134 556 117 580Q102 600 105 628ZM39 252Q53 380 141 452Q214 512 303 512Q384 512 442 461Q509 400 509 291Q509 272 507 252Q498 164 445 91Q372 -11 248 -11Q128 -11 75 69Q37 127 37 215Q37
234 39 252ZM153 215Q153 152 177 112Q203 67 252 67Q320 67 360 145Q393 209 393 285Q393 348 371 388Q345 433 299 433Q228 433 187 356Q153 292 153 215Z" />
<glyph unicode="&#xf7;" glyph-name="divide" horiz-adv-x="496" d="M190 480Q190 513 211 536T262 559Q293 559 314 536T335 480Q335 448 314 425T262 402Q232 402 211 425T190 480ZM52 360H456V260H52V360ZM190 142Q190 174 211 197T262 220Q293 220 314 197T335
142Q335 109 314 86T262 63Q232 63 211 86T190 142Z" />
<glyph unicode="&#xf8;" glyph-name="oslash" horiz-adv-x="546" d="M447 549L418 478Q509 419 509 291Q509 272 507 252Q498 164 445 91Q371 -11 247 -11Q229 -11 221 -10L195 -74L92 -40L118 25Q37 81 37 215Q37 234 39 252Q52 380 140 452Q214 512 303 512H314L343
583L447 549ZM282 432Q228 424 193 366Q161 316 154 246Q148 186 164 139L282 432ZM391 251Q398 323 377 375L252 67Q309 68 348 125Q383 177 391 251Z" />
<glyph unicode="&#xf9;" glyph-name="ugrave" horiz-adv-x="482" d="M377 556L178 646L231 711L432 615L377 556ZM324 0Q323 27 321 71Q243 -18 188 -18Q132 -18 93 25T54 140Q54 153 55 166L90 495H197L163 169Q161 154 161 142Q161 75 205 75Q241 75 288 121Q331
163 334 189L366 495H473L421 0H324Z" />
<glyph unicode="&#xfa;" glyph-name="uacute" horiz-adv-x="482" d="M155 626L380 715L433 637L211 554L155 626ZM324 0Q323 27 321 71Q243 -18 188 -18Q132 -18 93 25T54 140Q54 153 55 166L90 495H197L163 169Q161 154 161 142Q161 75 205 75Q241 75 288 121Q331
163 334 189L366 495H473L421 0H324Z" />
<glyph unicode="&#xfb;" glyph-name="ucircumflex" horiz-adv-x="482" d="M143 521L152 609L302 715L432 609L423 522L289 599L143 521ZM324 0Q323 27 321 71Q243 -18 188 -18Q132 -18 93 25T54 140Q54 153 55 166L90 495H197L163 169Q161 154 161 142Q161 75
205 75Q241 75 288 121Q331 163 334 189L366 495H473L421 0H324Z" />
<glyph unicode="&#xfc;" glyph-name="udieresis" horiz-adv-x="482" d="M295 628Q298 655 316 675Q338 700 373 700Q406 700 423 675Q438 654 435 628Q432 601 413 580Q390 556 357 556T307 580Q292 600 295 628ZM85 628Q88 654 107 675Q129 700 163 700Q196 700
213 675Q228 654 225 628Q222 601 203 580Q181 556 147 556Q114 556 97 580Q82 600 85 628ZM324 0Q323 27 321 71Q243 -18 188 -18Q132 -18 93 25T54 140Q54 153 55 166L90 495H197L163 169Q161 154 161 142Q161 75 205 75Q241 75 288 121Q331 163 334 189L366
495H473L421 0H324Z" />
<glyph unicode="&#xff;" glyph-name="ydieresis" horiz-adv-x="467" d="M73 -196Q48 -196 -21 -172L21 -77Q56 -97 89 -97Q119 -97 150 -39L188 48L53 473L162 503L250 137L397 501L494 476L237 -78Q215 -125 176 -157Q129 -196 73 -196ZM311 598Q314 624 333
645Q355 670 389 670Q422 670 439 645Q454 624 451 598Q448 571 429 550Q407 526 373 526T323 550Q308 570 311 598ZM102 598Q105 625 123 645Q145 670 180 670Q212 670 229 645Q244 624 241 598Q238 571 219 550Q197 526 164 526Q130 526 113 550Q99 570 102 598Z"
/>
<glyph unicode="&#x131;" glyph-name="dotlessi" horiz-adv-x="233" d="M89 495H196L144 0H37L89 495Z" />
<glyph unicode="&#x152;" glyph-name="OE" horiz-adv-x="1028" d="M567 157Q454 -3 301 -3Q185 -3 114 73Q40 150 40 286Q40 312 43 340Q58 480 151 568T377 657Q526 657 604 510L618 639H997L986 534H699L684 390H962L951 291H673L654 107H941L930 0H551L567
157ZM160 299Q160 214 203 156T312 98Q402 98 464 189Q520 270 520 364Q520 449 478 503T365 558Q273 558 213 472Q160 395 160 299Z" />
<glyph unicode="&#x153;" glyph-name="oe" horiz-adv-x="1033" d="M207 217Q207 156 232 118Q260 76 312 76Q382 76 422 147Q456 206 456 282Q456 344 432 381Q406 423 357 423Q284 423 242 353Q207 295 207 217ZM717 68Q787 68 851 148L905 68Q810 -12 701 -12Q621
-12 576 25Q544 52 523 109Q446 -11 307 -11Q182 -11 127 70Q87 128 87 217Q87 235 89 252Q103 380 194 452Q270 512 363 512Q422 512 473 483Q531 451 558 390Q634 507 770 507Q841 507 885 466Q932 421 932 342Q932 328 931 313L923 238H628Q625 205 625 194Q625
68 717 68ZM828 323Q830 363 814 393Q795 429 755 429Q668 429 650 323H828Z" />
<glyph unicode="&#x178;" glyph-name="Ydieresis" horiz-adv-x="482" d="M272 0H153L182 271L48 621L161 654L255 375L405 654L508 621L301 271L272 0ZM342 758Q345 785 363 805Q385 830 420 830Q452 830 470 805Q485 784 482 758Q479 731 460 710Q437 686 404
686Q370 686 353 710Q339 730 342 758ZM132 758Q135 785 153 805Q175 830 210 830Q243 830 260 805Q275 784 272 758Q269 731 250 710Q228 686 194 686Q161 686 144 710Q129 730 132 758Z" />
<glyph unicode="&#x192;" glyph-name="florin" horiz-adv-x="361" d="M267 606Q217 606 208 499H334L325 399H202L156 -122L48 -123L95 397L23 396L33 497L103 498Q124 709 273 711Q319 711 348 697Q353 694 410 654L351 570Q296 606 267 606Z" />
<glyph unicode="&#x2c6;" glyph-name="circumflex" horiz-adv-x="337" d="M25 521L34 609L183 715L314 609L305 522L171 599L25 521Z" />
<glyph unicode="&#x2c7;" glyph-name="caron" horiz-adv-x="337" d="M326 725L315 627L167 521L35 627L46 724L178 637L326 725Z" />
<glyph unicode="&#x2d8;" glyph-name="breve" horiz-adv-x="345" d="M31 642L108 651Q126 604 171 604Q212 604 239 652L313 642Q266 538 165 538Q58 538 31 642Z" />
<glyph unicode="&#x2d9;" glyph-name="dotaccent" horiz-adv-x="237" d="M55 576Q58 605 81 624T135 644Q165 644 184 624T201 576T175 528T121 508Q90 508 71 528T55 576Z" />
<glyph unicode="&#x2da;" glyph-name="ring" horiz-adv-x="305" d="M203 576T163 576T100 600T81 663Q85 700 113 724T181 749T244 725T263 663Q259 625 231 601ZM210 706T177 706T139 663Q134 619 167 619T205 663Q210 706 177 706Z" />
<glyph unicode="&#x2db;" glyph-name="ogonek" horiz-adv-x="1061" />
<glyph unicode="&#x2dc;" glyph-name="tilde" horiz-adv-x="375" d="M186 579Q154 602 144 602Q119 602 73 555L42 633Q88 683 153 685Q183 686 219 659T266 632Q279 632 319 663L349 587Q331 571 303 560T259 549Q228 549 186 579Z" />
<glyph unicode="&#x2dd;" glyph-name="hungarumlaut" horiz-adv-x="362" d="M170 561L292 675H393L270 561H170ZM12 561L135 675H235L113 561H12Z" />
<glyph unicode="&#x3a9;" glyph-name="Omega" horiz-adv-x="646" d="M394 99H542L532 0H302L323 203Q381 203 428 254Q468 299 473 347Q475 369 475 389Q475 546 341 547Q265 547 216 494Q169 443 158 347Q152 295 179 254Q211 203 278 203L257 0H28L38 99H182L185
125Q123 142 83 204T43 336Q43 472 129 554T351 637Q593 637 593 406Q593 384 590 357Q582 283 526 213Q467 141 397 125L394 99Z" />
<glyph unicode="&#x3c0;" glyph-name="pi" horiz-adv-x="518" d="M362 410H238L195 0H79L122 410H85L96 508H489L435 0H319L362 410Z" />
<glyph unicode="&#x2013;" glyph-name="endash" horiz-adv-x="500" d="M34 363H466V292H34V363Z" />
<glyph unicode="&#x2014;" glyph-name="emdash" horiz-adv-x="1000" d="M27 363H973V292H27V363Z" />
<glyph unicode="&#x2018;" glyph-name="quoteleft" horiz-adv-x="138" d="M81 675L146 672Q123 631 111 579Q109 569 96 493H-9Q-4 529 25 587Q52 640 81 675Z" />
<glyph unicode="&#x2019;" glyph-name="quoteright" horiz-adv-x="138" d="M57 493L-8 506Q16 547 28 599Q30 609 42 685H147Q143 649 113 586Q84 527 57 493Z" />
<glyph unicode="&#x201a;" glyph-name="quotesinglbase" horiz-adv-x="214" d="M57 -107L-8 -94Q16 -53 28 -1Q30 9 42 85H147Q143 49 113 -14Q84 -73 57 -107Z" />
<glyph unicode="&#x201c;" glyph-name="quotedblleft" horiz-adv-x="429" d="M331 675L396 672Q373 631 361 579Q359 569 346 493H241Q246 529 275 587Q302 640 331 675ZM131 675L196 672Q173 631 161 579Q159 569 146 493H41Q46 529 75 587Q102 640 131 675Z" />
<glyph unicode="&#x201d;" glyph-name="quotedblright" horiz-adv-x="429" d="M107 483L42 496Q66 537 78 589Q80 599 92 675H197Q193 639 163 576Q134 517 107 483ZM307 483L242 496Q266 537 278 589Q280 599 292 675H397Q393 639 363 576Q334 517 307 483Z" />
<glyph unicode="&#x201e;" glyph-name="quotedblbase" horiz-adv-x="417" d="M107 -117L42 -104Q66 -63 78 -11Q80 -1 92 75H197Q193 39 163 -24Q134 -83 107 -117ZM307 -117L242 -104Q266 -63 278 -11Q280 -1 292 75H397Q393 39 363 -24Q334 -83 307 -117Z" />
<glyph unicode="&#x2020;" glyph-name="dagger" horiz-adv-x="221" d="M135 534V333H71V534H23V600H71V655H135V600H192V534H135Z" />
<glyph unicode="&#x2021;" glyph-name="daggerdbl" horiz-adv-x="221" d="M141 383V245H64V383H4V442H64V522H4V580H64V655H141V580H203V522H141V442H203V383H141Z" />
<glyph unicode="&#x2022;" glyph-name="bullet" horiz-adv-x="282" d="M167 190T129 190T67 218T48 291Q53 334 83 362T151 391Q188 391 212 363T231 291T197 219Z" />
<glyph unicode="&#x2026;" glyph-name="ellipsis" horiz-adv-x="900" d="M603 53Q607 95 637 120Q664 142 699 142Q735 142 757 119T776 53Q772 12 744 -12T681 -36Q645 -36 622 -12T603 53ZM364 53Q368 95 398 120Q425 142 460 142Q496 142 518 119T537 53Q533
12 505 -12T442 -36Q406 -36 383 -12T364 53ZM125 53Q129 95 159 120Q186 142 221 142Q257 142 279 119T298 53Q294 12 266 -12T203 -36Q167 -36 144 -12T125 53Z" />
<glyph unicode="&#x2030;" glyph-name="perthousand" horiz-adv-x="886" d="M717 256Q769 256 799 218T824 124Q817 59 780 25T689 -10Q640 -10 610 19T580 103Q580 164 618 210T717 256ZM181 650Q235 650 265 613T290 518Q283 455 245 420T154 385Q105 385 75
414T45 497Q45 559 83 604T181 650ZM453 256Q505 256 535 218T560 124Q553 59 516 25T425 -10Q375 -10 345 19T315 103Q315 164 353 210T453 256ZM-12 -46L439 634L537 596L93 -82L-12 -46ZM678 121Q673 79 698 79T728 121Q729 134 724 149T706 165Q682 165 678
121ZM142 515Q138 474 163 474T192 515Q197 559 171 559Q147 559 142 515ZM414 121Q409 79 434 79T464 121Q465 134 460 149T442 165Q418 165 414 121Z" />
<glyph unicode="&#x2039;" glyph-name="guilsinglleft" horiz-adv-x="319" d="M297 126L195 122L49 289L195 451L297 447L173 286L297 126Z" />
<glyph unicode="&#x203a;" glyph-name="guilsinglright" horiz-adv-x="317" d="M30 126L153 286L30 447L131 451L277 289L131 122L30 126Z" />
<glyph unicode="&#x2044;" glyph-name="fraction" horiz-adv-x="537" d="M32 126L444 594L541 528L129 60L32 126Z" />
<glyph unicode="&#x2122;" glyph-name="trademark" horiz-adv-x="641" d="M174 315H110V590H15V642H263V590H174V315ZM555 514L479 315H425L348 516V315H288V644H366L455 415L544 644H619V315H555V514Z" />
<glyph unicode="&#x2202;" glyph-name="partialdiff" horiz-adv-x="552" d="M295 508Q363 508 410 452Q405 478 391 514T363 561Q332 586 271 586Q202 586 124 552L105 665Q187 689 264 689Q371 689 426 645Q512 577 512 401Q512 354 506 298Q473 -17 233 -17Q136
-17 81 53Q31 116 31 208Q31 337 98 419Q170 508 295 508ZM284 416Q231 416 196 374T152 251Q151 237 151 224Q151 163 178 125T254 86Q380 86 399 266Q403 305 402 342Q355 416 284 416Z" />
<glyph unicode="&#x2206;" glyph-name="increment" horiz-adv-x="689" d="M210 90H467L389 490L210 90ZM355 657H461L614 0H42L355 657Z" />
<glyph unicode="&#x220f;" glyph-name="product" horiz-adv-x="595" d="M354 0L410 529H268L212 0H89L157 642H545L477 0H354Z" />
<glyph unicode="&#x2211;" glyph-name="summation" horiz-adv-x="491" d="M68 91L283 339L114 536L137 633H481L470 528H271L425 349L219 109L426 110L415 0H59L68 91Z" />
<glyph unicode="&#x221a;" glyph-name="radical" horiz-adv-x="503" d="M135 -10L51 308L152 364L178 224L257 639H363L231 -10H135Z" />
<glyph unicode="&#x221e;" glyph-name="infinity" horiz-adv-x="536" d="M258 304Q209 264 147 264Q84 264 44 303T9 398Q15 453 63 492T175 531Q237 531 278 492Q326 531 389 531Q451 531 491 492T526 398T472 304T361 264Q297 264 258 304ZM312 399Q310 376
326 360T369 343T416 359T438 399Q440 421 424 437T381 454Q354 454 334 438T312 399ZM97 399Q94 373 113 357Q129 344 155 344T201 358T224 399Q226 421 210 437T167 454Q140 454 120 438T97 399Z" />
<glyph unicode="&#x222b;" glyph-name="integral'" horiz-adv-x="303" d="M257 595Q204 595 204 500Q204 459 228 318Q251 187 251 115Q251 87 249 63Q240 -21 202 -73Q154 -140 66 -140Q45 -140 -24 -116L13 4Q58 -24 82 -24Q122 -24 133 79Q137 116 108 273Q84
402 84 475Q84 501 86 524Q94 604 135 654Q185 713 272 713Q310 713 366 677L303 567Q273 595 257 595Z" />
<glyph unicode="&#x2248;" glyph-name="approxequal" horiz-adv-x="536" d="M248 107Q223 128 214 128Q202 128 188 113Q180 105 145 61L118 158Q176 219 227 219Q259 219 288 198T324 177Q329 177 353 200L377 224L405 129Q352 79 307 79Q281 79 248 107ZM267
285Q243 306 233 306Q221 306 206 291Q199 284 164 238L137 336Q195 397 245 397Q278 397 307 376T343 354Q348 354 372 378L396 402L424 307Q371 257 326 257Q298 257 267 285Z" />
<glyph unicode="&#x2260;" glyph-name="notequal" horiz-adv-x="441" d="M92 12L129 125H51V223H161L176 266H51V364H208L266 539L355 507L307 364H389V266H275L260 223H389V125H228L180 -20L92 12Z" />
<glyph unicode="&#x2264;" glyph-name="lessequal" horiz-adv-x="250" d="M261 116L159 111L13 282L159 448L261 444L137 279L261 116ZM21 77H242V4H21V77Z" />
<glyph unicode="&#x2265;" glyph-name="greaterequal" horiz-adv-x="250" d="M3 116L126 279L3 444L104 448L250 282L104 111L3 116ZM21 77H242V4H21V77Z" />
<glyph unicode="&#x25ca;" glyph-name="lozenge" horiz-adv-x="576" d="M12 333L275 589L537 333L275 78L12 333ZM159 332L278 217L396 332L278 448L159 332Z" />
</font>
</defs>
</svg>
