<?xml version="1.0" standalone="no"?> <!DOCTYPE svg PUBLIC "-//W3C//DTD SVG 1.0//EN" "http://www.w3.org/TR/2001/REC-SVG-20010904/DTD/svg10.dtd" > <svg xmlns="http://www.w3.org/2000/svg" width="100%" height="100%">
<defs >
<font id="Puritan2" horiz-adv-x="475" ><font-face
    font-family="Puritan 2.0"
    units-per-em="1000"
    panose-1="0 0 4 0 0 0 0 0 0 0"
    ascent="859"
    descent="-232"
    alphabetic="0" />
<missing-glyph horiz-adv-x="364" d="M33 0V666H298V0H33ZM66 33H265V633H66V33Z" />
<glyph unicode=" " glyph-name="space" horiz-adv-x="273" />
<glyph unicode="!" glyph-name="exclam" horiz-adv-x="235" d="M161 192H76V706H161V192ZM113 -13Q89 -13 73 3T57 44T73 85T113 102Q138 102 155 86T172 44T155 3T113 -13Z" />
<glyph unicode="&quot;" glyph-name="quotedbl" horiz-adv-x="329" d="M258 681Q210 681 210 625Q210 601 224 549T252 475H266Q277 497 291 549T305 625Q305 681 258 681ZM163 681T116 681T69 625Q69 601 83 549T111 475H124Q135 497 149 549T163 625Q163 681 116 681Z" />
<glyph unicode="#" glyph-name="numbersign" horiz-adv-x="536" d="M445 560L365 551V473L444 481V429L364 421V324L307 318L308 415L228 406L227 309L170 303L171 400L69 389V441L171 452V531L70 520V572L172 583V658L229 664L228 589L309 597V672L367 680L365
603L445 612V560ZM228 537V458L308 467V545L228 537Z" />
<glyph unicode="$" glyph-name="dollar" horiz-adv-x="536" d="M314 -6V-100H225V-9Q123 5 77 69L124 131Q181 64 263 64Q311 64 341 91T372 167T325 242Q312 250 236 277Q170 301 140 330Q96 373 96 448Q96 505 132 546T225 601V690H314V604Q375 593 434 545L390
487Q334 534 275 534Q186 534 186 443Q186 390 278 359Q378 325 409 299Q457 258 457 169Q457 24 314 -6Z" />
<glyph unicode="%" glyph-name="percent" horiz-adv-x="536" d="M129 410Q77 410 50 444T22 531Q22 581 51 615T129 650T207 616T237 531Q237 477 210 445Q182 410 129 410ZM107 -78L33 -53L410 628L479 602L107 -78ZM401 -2Q346 -2 319 32T291 122Q291 173 321
208T401 244T480 209T510 122Q510 67 484 34Q455 -2 401 -2ZM150 594T128 594T93 571Q83 552 83 528Q83 505 94 486Q107 464 129 464Q175 464 175 528Q175 552 164 571Q150 594 128 594ZM423 186T400 186T364 162Q354 143 354 118Q354 54 401 54Q424 54 436 76Q447
94 447 118Q447 143 436 162Q423 186 400 186Z" />
<glyph unicode="&amp;" glyph-name="ampersand" horiz-adv-x="555" d="M176 307Q98 264 98 178Q98 125 133 93T222 61Q288 61 333 118Q222 232 176 307ZM479 4Q440 17 384 66Q311 -9 227 -9Q140 -9 85 36Q25 85 25 169Q25 228 57 279T142 359Q97 421 97 484Q97
551 143 595T257 640Q341 640 407 568L360 520Q315 576 250 576Q176 576 176 499Q176 454 206 395Q259 417 317 419L331 358Q278 358 244 342Q322 234 373 182Q387 232 387 252Q387 275 377 315L447 321Q454 276 454 249Q454 194 432 129Q458 99 525 66L479 4Z"
/>
<glyph unicode="&apos;" glyph-name="quotesingle" horiz-adv-x="194" d="M109 683Q61 683 61 627Q61 601 78 548Q95 492 110 475Q126 501 140 549T155 627Q155 683 109 683Z" />
<glyph unicode="(" glyph-name="parenleft" horiz-adv-x="318" d="M174 -138Q46 83 46 323Q46 574 174 783L237 753Q133 511 133 323Q133 208 164 100Q179 46 240 -108L174 -138Z" />
<glyph unicode=")" glyph-name="parenright" horiz-adv-x="316" d="M145 -138L78 -108Q140 50 154 98Q186 206 186 319Q186 513 81 753L145 783Q269 580 269 326Q269 76 145 -138Z" />
<glyph unicode="*" glyph-name="asterisk" horiz-adv-x="275" d="M219 475L153 535L157 446H110L113 535L47 475L20 519L101 569L21 620L47 664L115 603L111 693L158 692L153 603L219 664L244 620L167 570L245 519L219 475Z" />
<glyph unicode="+" glyph-name="plus" horiz-adv-x="498" d="M279 282V96H218V282H53V345H218V521H279V345H446V282H279Z" />
<glyph unicode="," glyph-name="comma" horiz-adv-x="254" d="M65 -72L109 -84Q200 35 201 120H104Q104 82 92 22Q80 -41 65 -72Z" />
<glyph unicode="-" glyph-name="hyphen" horiz-adv-x="380" d="M50 267V360H330V267H50Z" />
<glyph unicode="." glyph-name="period" horiz-adv-x="233" d="M157 -9T128 -9T80 13T61 64T80 115T128 137T175 115T194 64T176 13Z" />
<glyph unicode="/" glyph-name="slash" horiz-adv-x="385" d="M93 -170L13 -153L309 704L390 687L93 -170Z" />
<glyph unicode="0" glyph-name="zero" horiz-adv-x="500" d="M482 257Q482 147 424 73Q361 -9 251 -9Q142 -9 78 68Q17 141 17 256Q17 365 81 438T250 512T420 435Q482 363 482 257ZM419 257Q419 339 372 396T250 454Q173 454 124 391Q80 334 80 256T124 118Q173
52 249 52Q333 52 379 116Q419 171 419 257Z" />
<glyph unicode="1" glyph-name="one" horiz-adv-x="500" d="M329 0H253V447H122V507H329V0Z" />
<glyph unicode="2" glyph-name="two" horiz-adv-x="500" d="M85 0L84 77L249 219Q297 261 316 289Q338 323 338 363Q337 399 312 424T251 449Q184 449 129 377L83 426Q162 519 249 519Q319 519 366 477T414 364Q414 263 326 190L191 77H452V0H85Z" />
<glyph unicode="3" glyph-name="three" horiz-adv-x="500" d="M230 -179Q138 -179 71 -102L109 -49Q173 -110 235 -110T332 -74T368 32Q368 83 338 120Q301 165 232 165Q213 165 165 166V229Q210 229 231 235Q325 264 325 358Q325 399 300 424T239 450Q172 450
132 381L81 424Q159 520 237 520Q305 520 350 481Q400 437 400 360Q400 315 380 276Q359 234 321 214Q380 202 415 150T450 32Q450 -60 390 -119T230 -179Z" />
<glyph unicode="4" glyph-name="four" horiz-adv-x="500" d="M305 367L118 76H305V367ZM370 0V-168H305V0H27V76L312 509H370V76H470V0H370Z" />
<glyph unicode="5" glyph-name="five" horiz-adv-x="584" d="M238 -179Q184 -179 130 -151T52 -84L87 -38Q148 -113 240 -113Q308 -113 347 -61Q382 -14 382 53Q382 116 342 157Q306 194 257 194Q201 194 139 145L71 175V508H417V447H147V224Q197 274 285 274Q348
274 402 218Q462 155 462 59Q462 -31 402 -101Q337 -179 238 -179Z" />
<glyph unicode="6" glyph-name="six" horiz-adv-x="500" d="M259 372Q202 372 158 330Q111 285 111 217T148 99Q190 42 260 42Q318 42 361 95Q402 145 402 203Q402 280 362 326T259 372ZM260 -22Q159 -22 97 42Q24 117 24 267Q24 433 96 539Q177 657 320 657Q398
657 472 619L443 558Q379 591 319 591Q231 591 172 518T109 336Q182 440 276 440Q354 440 412 376Q474 308 474 207Q474 116 411 47T260 -22Z" />
<glyph unicode="7" glyph-name="seven" horiz-adv-x="500" d="M450 443L179 -169L101 -147L364 444H77V504H450V443Z" />
<glyph unicode="8" glyph-name="eight" horiz-adv-x="500" d="M249 325Q187 291 161 266Q121 225 121 169Q121 101 170 63Q208 34 254 34Q312 34 349 70T386 168Q386 233 345 272Q316 299 249 325ZM244 608Q143 608 143 514Q143 439 242 394Q351 437 351 510Q351
608 244 608ZM248 -28Q165 -28 107 20Q43 74 43 166Q43 223 76 274Q114 330 181 360Q126 395 104 422Q75 459 75 510Q75 588 130 629Q177 664 251 664Q317 664 366 626Q419 584 419 517Q419 420 311 362Q462 299 462 168Q462 84 411 32Q353 -28 248 -28Z" />
<glyph unicode="9" glyph-name="nine" horiz-adv-x="500" d="M233 446Q176 446 137 389Q101 338 101 278T139 169Q179 115 237 115Q302 115 348 164T394 281Q394 345 349 395T233 446ZM222 -196Q106 -196 33 -125L62 -64Q133 -130 230 -130Q313 -130 363 -23Q404
65 406 174Q370 110 338 84Q296 48 234 49Q145 50 85 120Q28 187 28 275Q28 373 82 439Q140 510 233 510Q327 510 395 446Q478 369 478 226Q478 71 427 -43Q359 -196 222 -196Z" />
<glyph unicode=":" glyph-name="colon" horiz-adv-x="244" d="M133 360Q105 360 86 382T66 433T85 484T133 506Q162 506 181 484T200 433T181 382T133 360ZM133 -9Q105 -9 86 13T66 64T85 115T133 137Q162 137 181 115T200 64T181 13T133 -9Z" />
<glyph unicode=";" glyph-name="semicolon" horiz-adv-x="254" d="M147 361Q118 361 98 382T78 432T98 482T147 504T194 483T213 432T194 382T147 361ZM65 -72L109 -84Q200 35 201 120H104Q104 82 92 22Q80 -41 65 -72Z" />
<glyph unicode="&lt;" glyph-name="less" horiz-adv-x="366" d="M132 285L319 45L246 42L27 289L245 529L319 526L132 285Z" />
<glyph unicode="=" glyph-name="equal" horiz-adv-x="441" d="M51 287V352H389V287H51ZM51 135V200H389V135H51Z" />
<glyph unicode="&gt;" glyph-name="greater" horiz-adv-x="365" d="M99 42L25 45L212 285L24 526L99 529L316 289L99 42Z" />
<glyph unicode="?" glyph-name="question" horiz-adv-x="484" d="M343 371Q326 359 294 333Q275 317 264 289Q262 285 247 238Q245 232 249 189H180Q175 229 175 253Q175 300 195 334Q212 363 253 397T305 445Q333 477 333 509Q333 553 305 581T233 609Q139 609
105 505L38 540Q95 681 230 681Q306 681 358 632T411 508Q411 427 343 371ZM219 -13Q195 -13 179 3T163 44T179 85T219 102Q244 102 261 86T278 44T261 3T219 -13Z" />
<glyph unicode="@" glyph-name="at" horiz-adv-x="1010" d="M493 -232Q303 -232 176 -91Q53 46 53 238T187 564T513 698Q704 698 817 579T930 268Q930 162 857 80Q825 44 771 17Q714 -12 669 -12Q630 -12 608 19Q588 47 592 87Q517 -11 424 -11Q271 -11 271 200Q271
312 340 407Q417 512 529 512Q563 512 596 500Q634 485 650 461L653 502H726L662 94Q663 81 674 71T699 60Q716 59 752 81Q784 100 799 117Q822 142 841 188T861 268Q861 431 768 530T513 629Q350 629 236 515T122 238Q122 74 224 -42Q331 -163 493 -163Q633 -163
726 -123Q834 -76 901 32L968 -11Q893 -137 764 -189Q659 -232 493 -232ZM638 398Q625 423 589 437Q558 450 526 450Q481 450 430 407Q354 342 354 215Q354 149 366 120Q389 64 459 64Q503 64 549 112T603 205L638 398Z" />
<glyph unicode="A" glyph-name="A" horiz-adv-x="568" d="M453 -10L394 179H169L111 -10L29 0L242 654H322L538 4L453 -10ZM281 551L190 248H374L281 551Z" />
<glyph unicode="B" glyph-name="B" horiz-adv-x="524" d="M266 0L63 2V641L229 644Q231 644 242 645H256Q333 645 378 608Q426 568 426 492Q426 408 384 378Q362 363 318 351Q471 318 471 184Q471 94 412 45Q358 -1 266 0ZM235 585Q221 585 152 582V375L221 374Q275
373 309 400Q347 430 347 482Q346 585 235 585ZM244 312H152V67H246Q385 67 385 185Q385 243 344 277T244 312Z" />
<glyph unicode="C" glyph-name="C" horiz-adv-x="539" d="M311 -8Q175 -8 99 96Q31 188 31 329Q31 465 102 558Q180 659 313 660Q360 660 424 639Q474 622 503 605L465 526Q374 582 318 582Q219 582 164 487Q121 412 121 317Q121 223 167 153Q220 72 310 72Q395
72 470 115L509 50Q450 17 413 6Q368 -8 311 -8Z" />
<glyph unicode="D" glyph-name="D" horiz-adv-x="565" d="M215 -2Q190 -2 139 0T63 2V644Q132 647 209 647Q378 647 455 570T533 323Q534 167 453 83T215 -2ZM438 312Q438 583 235 583Q206 583 152 581V74H242Q337 74 390 148Q438 214 438 312Z" />
<glyph unicode="E" glyph-name="E" horiz-adv-x="489" d="M152 568V375H404V300L152 301V76L419 77V0H63V640H422V568H152Z" />
<glyph unicode="F" glyph-name="F" horiz-adv-x="490" d="M152 568V375H406V300H152V0H63V640H423V568H152Z" />
<glyph unicode="G" glyph-name="G" horiz-adv-x="582" d="M519 61Q459 25 419 11Q369 -6 305 -6Q175 -6 100 97Q32 189 31 323Q30 445 96 544Q173 660 301 660Q349 660 407 644Q471 627 503 600L466 525Q383 582 310 582Q215 582 163 485Q122 409 122 317T165
155Q216 72 302 72Q373 72 431 103V301H289V375H519V61Z" />
<glyph unicode="H" glyph-name="H" horiz-adv-x="582" d="M431 0V300H152V0H63V640H152V375H431V640H519V0H431Z" />
<glyph unicode="I" glyph-name="I" horiz-adv-x="215" d="M63 0V642H152V0H63Z" />
<glyph unicode="J" glyph-name="J" horiz-adv-x="215" d="M152 69Q152 -159 -48 -159Q-107 -159 -148 -109L-102 -42Q-69 -77 -35 -77Q63 -77 63 61V638H152V69Z" />
<glyph unicode="K" glyph-name="K" horiz-adv-x="531" d="M420 -21L199 276L152 206V0H63V640H152V325Q313 537 402 665L472 615L256 335Q297 268 389 160L526 2L420 -21Z" />
<glyph unicode="L" glyph-name="L" horiz-adv-x="501" d="M63 0V641H152V72H438V0H63Z" />
<glyph unicode="M" glyph-name="M" horiz-adv-x="793" d="M630 0V511L436 -1H353L156 515V0H74V642H201L399 127L602 642H719V0H630Z" />
<glyph unicode="N" glyph-name="N" horiz-adv-x="582" d="M456 -11Q366 151 146 464V1L63 0V644H137L437 189V640H519V11L456 -11Z" />
<glyph unicode="O" glyph-name="O" horiz-adv-x="644" d="M459 -16T319 -16T102 86Q32 177 32 322Q32 458 110 549Q192 646 326 646Q459 646 539 549Q613 458 613 322Q613 178 539 85Q459 -16 319 -16ZM324 572Q226 572 167 489Q115 415 115 313Q115 215 167 142Q225
61 319 61Q414 61 475 141Q531 215 531 312Q531 413 479 488Q421 572 324 572Z" />
<glyph unicode="P" glyph-name="P" horiz-adv-x="459" d="M244 264Q206 264 152 268V0H63V640L252 644Q333 646 380 594T427 459Q427 379 375 322T244 264ZM240 585L152 583V330L230 331Q280 332 310 370Q339 405 339 456Q339 587 240 585Z" />
<glyph unicode="Q" glyph-name="Q" horiz-adv-x="658" d="M607 -70L485 37Q410 -16 318 -16Q179 -16 102 87Q31 180 31 323Q31 460 109 550Q192 646 326 646Q459 646 538 551Q612 462 612 326Q612 263 597 202Q578 127 543 92L660 -11L607 -70ZM421 571T323 571T167
489Q114 416 114 315Q114 219 165 145Q223 61 315 61Q370 61 422 93L347 159L401 217L478 149Q530 222 530 316Q530 418 479 490Q421 571 323 571Z" />
<glyph unicode="R" glyph-name="R" horiz-adv-x="530" d="M414 -10Q363 41 296 137Q250 202 196 291L152 289V0H63V641L265 644Q440 642 438 467Q437 398 396 354T285 296L393 152Q433 100 525 10L414 -10ZM239 583L152 581V356H217Q289 356 322 382T356 478Q356
586 239 583Z" />
<glyph unicode="S" glyph-name="S" horiz-adv-x="492" d="M239 -10Q182 -10 130 10Q71 32 41 73L87 137Q148 66 242 66Q298 66 331 96T364 183Q364 250 285 283L138 344Q60 393 61 495Q62 571 121 620Q176 666 254 666Q346 666 423 605L381 542Q328 590 254 590Q152
590 152 489Q152 426 256 391Q365 354 399 325Q450 281 450 185Q450 92 392 41T239 -10Z" />
<glyph unicode="T" glyph-name="T" horiz-adv-x="536" d="M318 572V0H229V572H31V639H504V572H318Z" />
<glyph unicode="U" glyph-name="U" horiz-adv-x="571" d="M508 230Q508 119 447 51T277 -17Q171 -17 115 55Q63 121 63 230V640H152V230Q152 58 279 58Q350 58 386 110Q418 155 418 230V640H508V230Z" />
<glyph unicode="V" glyph-name="V" horiz-adv-x="548" d="M311 -10H246L41 630L126 653L285 131L444 653L518 630L311 -10Z" />
<glyph unicode="W" glyph-name="W" horiz-adv-x="789" d="M591 -6H539L397 459L255 -6H192L16 626L103 645L235 146L370 635H434L565 147L701 645L769 626L591 -6Z" />
<glyph unicode="X" glyph-name="X" horiz-adv-x="552" d="M421 -15L266 263L127 -15L36 5L222 317L48 626L139 645L273 402L402 646L477 626L312 334L516 5L421 -15Z" />
<glyph unicode="Y" glyph-name="Y" horiz-adv-x="503" d="M296 272V0H206V272L29 627L109 650L254 353L397 650L473 627L296 272Z" />
<glyph unicode="Z" glyph-name="Z" horiz-adv-x="544" d="M161 76H478V0H70L63 77L385 574L80 572V639H473L481 567L161 76Z" />
<glyph unicode="[" glyph-name="bracketleft" horiz-adv-x="269" d="M56 -114V740H209V689H138V-44H219V-114H56Z" />
<glyph unicode="\" glyph-name="backslash" horiz-adv-x="385" d="M308 -170L12 687L92 704L389 -153L308 -170Z" />
<glyph unicode="]" glyph-name="bracketright" horiz-adv-x="266" d="M50 -114V-44H131V689H59V740H210V-114H50Z" />
<glyph unicode="^" glyph-name="asciicircum" horiz-adv-x="536" d="M267 592L152 453L110 505L267 678L426 505L384 453L267 592Z" />
<glyph unicode="_" glyph-name="underscore" horiz-adv-x="536" d="M5 -109V-50H530V-109H5Z" />
<glyph unicode="`" glyph-name="grave" horiz-adv-x="329" d="M266 556L57 646L104 711L314 615L266 556Z" />
<glyph unicode="a" glyph-name="a" horiz-adv-x="491" d="M394 -11Q353 -11 331 37Q301 14 279 4Q235 -16 179 -16Q116 -16 79 24T41 127Q41 208 90 244Q122 267 211 288Q245 296 319 303V366Q319 399 294 420T234 441Q179 441 101 377L60 433Q91 461 142 485Q198
512 234 512Q303 512 350 469T397 357V75Q402 55 418 55Q429 54 460 76L476 24Q443 -11 394 -11ZM319 233Q290 233 243 224Q216 219 186 211Q114 192 113 126Q113 90 133 69T190 47Q229 47 270 68Q319 93 319 132V233Z" />
<glyph unicode="b" glyph-name="b" horiz-adv-x="515" d="M272 -10Q208 -10 143 40L129 0H64V700H143V448Q211 512 268 512Q370 512 428 434Q481 364 481 259Q481 144 435 73Q381 -10 272 -10ZM267 443Q176 443 143 371V108Q161 84 198 70Q232 56 264 56Q391 56
391 256Q391 329 366 379Q333 443 267 443Z" />
<glyph unicode="c" glyph-name="c" horiz-adv-x="479" d="M269 -12Q138 -12 78 89Q39 155 39 242Q39 357 97 429Q160 508 271 507Q359 506 428 454L386 388Q319 439 260 439Q189 439 152 371Q122 316 122 238Q122 165 158 114Q199 57 269 57Q341 57 403 112L442
60Q369 -12 269 -12Z" />
<glyph unicode="d" glyph-name="d" horiz-adv-x="511" d="M448 0H382L370 42Q289 -13 231 -13Q138 -13 84 72Q37 145 37 243Q37 355 87 428Q145 512 252 512Q322 512 370 454V697H448V0ZM370 380Q342 418 319 430T248 443Q181 443 150 378Q126 329 126 254T154
127Q188 61 257 61Q318 61 370 106V380Z" />
<glyph unicode="e" glyph-name="e" horiz-adv-x="491" d="M124 257Q124 109 208 71Q241 56 277 56Q336 56 408 120L448 64Q368 -12 270 -12Q134 -12 76 90Q39 155 39 247Q39 361 99 432Q162 507 274 507Q356 507 405 454T454 318V257H124ZM375 332Q375 441 267
441Q207 441 177 412T131 320H375V332Z" />
<glyph unicode="f" glyph-name="f" horiz-adv-x="324" d="M336 651Q289 681 250 682Q208 683 187 639Q172 605 172 558V495H311V430H172V0H96V430H18V495H96V561Q96 640 132 690Q172 746 249 746Q294 746 318 736Q325 733 374 702L336 651Z" />
<glyph unicode="g" glyph-name="g" horiz-adv-x="511" d="M508 398L401 401Q417 367 417 335Q417 260 366 210Q308 154 224 154Q175 154 158 166Q119 142 119 112Q119 85 157 77Q175 73 255 73Q358 73 395 59Q461 34 461 -50Q461 -136 371 -186Q294 -229 202 -229H199Q136
-229 91 -202Q37 -169 37 -110Q37 -45 106 20Q84 28 64 54T43 104Q43 131 67 155L108 196Q46 249 45 335Q45 410 103 465Q157 515 235 514Q281 513 323 491Q360 471 378 444L508 464V398ZM348 337Q348 384 313 420Q280 453 231 453Q181 453 151 416T120 331T150
249T228 214Q283 214 317 250Q348 282 348 337ZM384 -53Q384 12 270 12Q225 12 171 9Q146 8 126 -27Q108 -58 108 -85Q108 -126 148 -149Q181 -167 225 -167Q282 -167 329 -139Q384 -106 384 -53Z" />
<glyph unicode="h" glyph-name="h" horiz-adv-x="512" d="M371 0V325Q371 374 349 406Q324 443 277 443Q238 443 192 411Q142 377 142 340V0H63V696H142V439Q219 511 285 511Q355 511 402 460T449 338V0H371Z" />
<glyph unicode="i" glyph-name="i" horiz-adv-x="233" d="M140 602T117 602T79 618T63 657T78 695T117 711T155 696T170 657T155 618ZM71 0V495H152V0H71Z" />
<glyph unicode="j" glyph-name="j" horiz-adv-x="233" d="M153 604T130 604T92 619T76 658T91 696T130 712T168 697T184 658T169 620ZM58 -109Q28 -131 -13 -143L19 -218Q163 -163 163 -65V495H84V-21Q84 -90 58 -109Z" />
<glyph unicode="k" glyph-name="k" horiz-adv-x="476" d="M395 -25L176 226L142 192V0H63V697H142V276L360 521L428 475L230 272L465 18L395 -25Z" />
<glyph unicode="l" glyph-name="l" horiz-adv-x="234" d="M156 0H78V698H156V0Z" />
<glyph unicode="m" glyph-name="m" horiz-adv-x="776" d="M634 0V346Q634 443 546 443Q519 443 477 411Q426 372 426 322V0H348V351Q348 391 327 416T266 442T185 406T142 331V0H63V495H142V425Q218 507 282 507Q323 507 356 481T405 416Q489 512 563 512Q625
512 669 463T713 351V0H634Z" />
<glyph unicode="n" glyph-name="n" horiz-adv-x="512" d="M371 0V325Q371 374 349 406Q324 443 277 443Q236 443 192 411Q142 375 142 328V0H63V495H142V439Q181 476 207 490Q244 511 286 511Q355 511 402 460T449 338V0H371Z" />
<glyph unicode="o" glyph-name="o" horiz-adv-x="546" d="M275 -11Q140 -11 80 90Q39 159 39 252Q39 381 120 453Q186 512 276 512Q365 512 429 453Q507 381 507 252Q507 162 461 89Q398 -11 275 -11ZM281 445Q202 445 160 383Q125 329 125 246Q125 167 158 116Q197
54 271 54Q348 54 387 117Q421 170 421 251Q421 328 390 381Q353 445 281 445Z" />
<glyph unicode="p" glyph-name="p" horiz-adv-x="517" d="M258 -13Q195 -13 142 44V-197H63V495H142V448Q208 512 259 512Q480 512 480 267Q480 147 431 73Q373 -13 258 -13ZM258 445Q221 445 187 422T142 364V101Q203 54 263 54Q327 54 363 124Q393 183 393 253Q393
445 258 445Z" />
<glyph unicode="q" glyph-name="q" horiz-adv-x="511" d="M368 -197V54Q275 -13 225 -13Q131 -13 80 80Q37 156 37 257T81 426Q138 513 253 512Q282 512 316 495T368 455V495H448V-197H368ZM368 365Q357 401 326 423T256 446Q183 446 149 379Q123 328 123 248Q123
180 155 125Q193 61 257 61Q310 61 368 106V365Z" />
<glyph unicode="r" glyph-name="r" horiz-adv-x="342" d="M298 410Q279 423 244 422Q217 422 180 383T142 317V0H63V495H142V413Q201 506 266 506Q283 506 322 490L298 410Z" />
<glyph unicode="s" glyph-name="s" horiz-adv-x="437" d="M214 -14Q111 -14 48 44L88 105Q140 55 222 55Q257 55 287 81T317 141Q317 196 238 217Q177 233 118 255Q60 285 60 357T106 472T225 514Q293 513 369 468L343 405Q273 450 222 450Q135 450 135 377Q135
337 175 323L319 276Q399 239 399 159Q399 78 348 32T214 -14Z" />
<glyph unicode="t" glyph-name="t" horiz-adv-x="351" d="M214 -8Q158 -8 127 43Q100 86 100 145V430H21V496H100V597H179V496H308V429L179 430V133Q179 66 236 66Q267 66 314 111L353 57Q297 -8 214 -8Z" />
<glyph unicode="u" glyph-name="u" horiz-adv-x="511" d="M446 0H375L364 52Q290 -18 211 -18Q143 -18 101 38Q63 90 63 160V495H142V164Q142 53 230 53Q272 53 320 88T368 164V495H446V0Z" />
<glyph unicode="v" glyph-name="v" horiz-adv-x="464" d="M261 -12H207L22 479L101 501L237 115L366 501L442 479L261 -12Z" />
<glyph unicode="w" glyph-name="w" horiz-adv-x="735" d="M561 -9H500L370 361L238 -9H175L27 479L104 499L215 104L338 492H408L536 105L641 499L714 479L561 -9Z" />
<glyph unicode="x" glyph-name="x" horiz-adv-x="492" d="M411 -26L247 190L86 -24L19 21L200 246L38 464L112 508L253 310L399 507L461 472L292 251L478 20L411 -26Z" />
<glyph unicode="y" glyph-name="y" horiz-adv-x="480" d="M249 -84Q232 -131 187 -163T91 -196Q76 -196 22 -178L47 -107Q75 -120 97 -121Q143 -122 181 -54L222 42L30 478L107 499L258 145L387 498L458 481L249 -84Z" />
<glyph unicode="z" glyph-name="z" horiz-adv-x="482" d="M53 0V66L281 369Q298 392 332 430H63V494H425V424L205 125Q194 110 160 70H439V0H53Z" />
<glyph unicode="{" glyph-name="braceleft" horiz-adv-x="536" d="M398 748Q357 761 341 761Q296 761 282 740Q264 713 264 625Q264 603 266 560T269 494Q269 422 187 348V323Q227 294 253 242T279 139Q279 112 275 58T271 -23Q271 -82 276 -97Q286 -126 322 -126Q366
-126 391 -105L411 -180Q351 -199 319 -197Q225 -192 197 -110Q182 -66 182 51Q182 71 184 111T186 172Q186 259 112 319L113 359Q151 398 163 417Q186 453 186 497Q186 520 183 565T180 633Q180 834 339 834Q365 834 413 823L398 748Z" />
<glyph unicode="|" glyph-name="bar" horiz-adv-x="229" d="M85 -220V686H173V-220H85Z" />
<glyph unicode="}" glyph-name="braceright" horiz-adv-x="536" d="M357 172Q357 152 359 112T361 51Q361 -66 344 -113Q315 -193 224 -197Q194 -198 132 -180L152 -105Q177 -126 221 -126Q272 -126 272 -64V-23Q272 4 268 58T264 139Q264 189 290 241T356 323V348Q274
422 274 494Q274 516 276 559T279 625Q279 713 261 740Q247 761 202 761Q186 761 145 748L130 823Q178 834 204 834Q363 834 363 633Q363 610 360 565T357 497Q357 453 380 417Q392 398 430 359L431 319Q357 259 357 172Z" />
<glyph unicode="~" glyph-name="asciitilde" horiz-adv-x="395" d="M279 379Q257 379 221 406T167 434Q138 434 102 381L83 453Q120 497 170 497Q205 497 252 463Q271 449 287 449T319 469Q326 476 335 486L353 416Q316 379 279 379Z" />
<glyph unicode="&#xa0;" glyph-name="nbspace" horiz-adv-x="273" />
<glyph unicode="&#xa1;" glyph-name="exclamdown" horiz-adv-x="235" d="M68 501H152V-103H68V501ZM114 706Q139 706 155 690T172 649T156 608T114 591Q90 591 74 608T57 649T73 689T114 706Z" />
<glyph unicode="&#xa2;" glyph-name="cent" horiz-adv-x="479" d="M225 -10Q118 6 70 101Q38 164 38 242Q38 343 82 411Q131 488 225 504V590H314V505Q377 494 429 454L386 386Q323 435 260 435Q188 435 152 369Q123 316 123 238Q123 165 159 116Q199 61 269 61Q345
61 403 114L443 60Q385 3 314 -9V-89H225V-10Z" />
<glyph unicode="&#xa3;" glyph-name="sterling" horiz-adv-x="476" d="M426 -7Q374 7 297 7Q165 7 80 -14L69 54Q85 58 108 67Q114 69 125 80Q159 113 159 171Q159 236 145 301H85V370H138Q123 460 123 476Q123 555 167 605T289 656Q351 656 407 624L377 563Q317
592 295 592Q249 592 220 554Q194 520 194 472Q194 455 211 370H347V301H228Q234 240 234 178Q234 101 204 76Q283 87 313 87Q381 87 442 70L426 -7Z" />
<glyph unicode="&#xa5;" glyph-name="yen" horiz-adv-x="531" d="M300 283V265H386V206H300V146H386V87H300V2H211V87H122V146H211V206H122V265H211V283L33 641H123L255 377L387 641H478L300 283Z" />
<glyph unicode="&#xa7;" glyph-name="section" horiz-adv-x="392" d="M186 -87Q109 -87 56 -35L88 14Q131 -31 191 -31Q215 -31 236 -14T257 27Q257 65 192 82Q182 85 154 92Q142 95 137 98Q72 120 72 183Q72 243 118 274Q72 298 72 351Q72 403 106 435T193 466Q246
465 301 431L279 381Q225 415 191 415Q159 415 146 402T133 357Q133 340 160 328L224 310Q321 282 321 208Q321 147 280 117Q321 93 321 40Q321 -19 284 -53T186 -87ZM182 253Q133 247 133 189Q133 167 187 152Q200 148 218 143Q257 160 257 195Q257 221 236 234Q221
243 182 253Z" />
<glyph unicode="&#xa8;" glyph-name="dieresis" horiz-adv-x="306" d="M277 546T255 546T219 561T205 598T219 635T255 650Q276 650 290 635T305 598Q305 576 291 561ZM67 546T45 546T9 561T-5 598T9 635T45 650T81 635T95 598T81 561Z" />
<glyph unicode="&#xa9;" glyph-name="copyright" horiz-adv-x="796" d="M396 102Q309 102 260 168Q217 228 217 318Q217 406 263 465Q313 529 398 530Q457 530 519 495L495 444Q436 480 401 480Q337 480 302 419Q275 372 275 310Q275 250 305 205Q339 153 396
153Q449 153 498 181L523 139Q453 102 396 102ZM132 427T132 316T209 128T398 50T586 127T664 316T587 504T398 582T210 505ZM67 178T67 316T163 550T398 647T632 551T729 316T633 82T398 -15T164 81Z" />
<glyph unicode="&#xaa;" glyph-name="ordfeminine" horiz-adv-x="246" />
<glyph unicode="&#xab;" glyph-name="guillemotleft" horiz-adv-x="390" d="M240 286L371 125L300 122L147 289L300 451L371 448L240 286ZM99 286L229 125L159 122L5 289L159 451L229 448L99 286Z" />
<glyph unicode="&#xac;" glyph-name="logicalnot" horiz-adv-x="613" d="M474 28V250H88V343H558V28H474Z" />
<glyph unicode="&#xae;" glyph-name="registered" horiz-adv-x="796" d="M133 316H132Q132 205 209 128T398 50T586 127T664 316T587 504T398 582T210 505T133 316ZM67 178T67 316T163 550T398 647T632 551T729 316T633 82T398 -15T164 81ZM491 108Q435 164 352
300L323 299V114H266V524Q371 526 395 526Q507 525 506 413Q505 322 408 304L477 211Q500 181 562 121L491 108ZM379 487L323 486V342H365Q412 342 433 358T454 420Q454 488 379 487Z" />
<glyph unicode="&#xaf;" glyph-name="overscore" horiz-adv-x="406" d="M105 594V659H339V594H105Z" />
<glyph unicode="&#xb0;" glyph-name="degree" horiz-adv-x="273" d="M82 712T138 712T231 675T268 582T231 489T138 452T44 489T5 582T43 675ZM138 662Q103 662 81 640T58 582T80 525T138 502Q172 502 193 525T215 582T194 639T138 662Z" />
<glyph unicode="&#xb1;" glyph-name="plusminus" horiz-adv-x="501" d="M279 280V95H217V279L53 280V342H217V517H279V342H446V280H279ZM66 12V66H440V12H66Z" />
<glyph unicode="&#xb4;" glyph-name="acute" horiz-adv-x="329" d="M104 557L57 616L267 712L314 647L104 557Z" />
<glyph unicode="&#xb5;" glyph-name="mu" horiz-adv-x="508" d="M444 -61Q378 -23 364 61L301 0Q274 -22 241 -22Q212 -22 184 -9Q153 5 141 29V-196H68V486H141V144Q141 47 257 47Q293 47 327 80T362 149V487H442V116Q442 32 481 7Q501 -6 508 -13L444 -61Z" />
<glyph unicode="&#xb6;" glyph-name="paragraph" horiz-adv-x="507" d="M437 0H368V642H437V0ZM297 0H228V337H203Q49 337 50 493Q50 574 87 608T206 642H297V0Z" />
<glyph unicode="&#xb7;" glyph-name="middot" horiz-adv-x="236" d="M128 334Q98 334 80 358T61 413T79 467T128 492Q157 492 177 467Q194 443 194 413T177 359Q157 334 128 334Z" />
<glyph unicode="&#xb8;" glyph-name="cedilla" horiz-adv-x="205" d="M101 -219Q36 -219 15 -171L51 -137Q81 -169 102 -169Q138 -169 138 -135Q138 -96 104 -96Q90 -96 69 -111L23 -90L28 4L86 5L82 -47Q91 -43 107 -43Q146 -43 171 -68T197 -132Q197 -172 170
-195T101 -219Z" />
<glyph unicode="&#xba;" glyph-name="ordmasculine" horiz-adv-x="1061" />
<glyph unicode="&#xbb;" glyph-name="guillemotright" horiz-adv-x="393" d="M215 122L144 125L275 286L144 448L215 451L368 289L215 122ZM74 122L2 125L133 286L2 448L74 451L226 289L74 122Z" />
<glyph unicode="&#xbf;" glyph-name="questiondown" horiz-adv-x="459" d="M109 222Q204 290 187 479H267Q274 442 274 402Q274 251 194 182Q149 143 140 133Q112 102 112 69Q112 25 140 -3T212 -31Q306 -31 340 72L408 38Q349 -103 216 -103Q140 -103 87 -55T34
70Q34 169 109 222ZM226 681Q250 681 266 665T282 624T266 583T226 566T185 583T167 624Q167 649 184 665T226 681Z" />
<glyph unicode="&#xc0;" glyph-name="Agrave" horiz-adv-x="580" d="M458 -10L399 179H174L117 -10L35 0L247 654H328L543 4L458 -10ZM287 551L195 248H379L287 551ZM365 686L156 776L203 841L413 745L365 686Z" />
<glyph unicode="&#xc1;" glyph-name="Aacute" horiz-adv-x="568" d="M458 -10L399 179H174L117 -10L35 0L247 654H328L543 4L458 -10ZM287 551L195 248H379L287 551ZM203 687L156 746L366 842L413 777L203 687Z" />
<glyph unicode="&#xc2;" glyph-name="Acircumflex" horiz-adv-x="568" d="M458 -10L399 179H174L117 -10L35 0L247 654H328L543 4L458 -10ZM287 551L195 248H379L287 551ZM283 749L146 656V727L283 840L425 727V656L283 749Z" />
<glyph unicode="&#xc3;" glyph-name="Atilde" horiz-adv-x="580" d="M458 -10L399 179H174L117 -10L35 0L247 654H328L543 4L458 -10ZM287 551L195 248H379L287 551ZM364 669Q339 669 291 703T229 738Q190 738 159 696L132 755Q146 776 174 790T229 805Q254 806
299 772T362 737Q387 737 412 762L438 702Q429 691 404 680T364 669Z" />
<glyph unicode="&#xc4;" glyph-name="Adieresis" horiz-adv-x="580" d="M458 -10L399 179H174L117 -10L35 0L247 654H328L543 4L458 -10ZM287 551L195 248H379L287 551ZM396 694Q346 694 346 746Q346 768 360 782T396 797Q417 797 431 782T446 746Q446 724 432
709T396 694ZM186 694Q136 694 136 746Q136 768 150 782T186 797Q207 797 221 782T236 746Q236 724 222 709T186 694Z" />
<glyph unicode="&#xc5;" glyph-name="Aring" horiz-adv-x="580" d="M458 -10L399 179H174L117 -10L35 0L247 654H328L543 4L458 -10ZM287 551L195 248H379L287 551ZM332 686T293 686T228 710T202 773Q202 811 228 835T293 859T358 835T384 773Q384 734 358 710ZM336
816T293 816T250 773Q250 729 293 729T336 773Q336 816 293 816Z" />
<glyph unicode="&#xc6;" glyph-name="AE" horiz-adv-x="862" d="M281 551L190 248H374L281 551ZM552 568V375H804V300L552 301V76L819 77V0H449L394 179H169L111 -10L29 0L242 654H322L463 227V640H822V568H552Z" />
<glyph unicode="&#xc7;" glyph-name="Ccedilla" horiz-adv-x="570" d="M348 -219Q284 -219 261 -171L298 -137Q326 -169 349 -169Q384 -169 384 -135Q384 -96 351 -96Q337 -96 316 -111L270 -90L275 -5Q158 10 93 113Q37 203 37 329Q37 466 107 558Q185 659 318
660Q367 660 430 639Q476 623 508 605L470 526Q379 582 323 582Q224 582 169 487Q126 412 126 317Q126 223 172 153Q225 72 315 72Q400 72 476 115L514 50Q456 19 424 8Q383 -6 332 -8L329 -47Q338 -43 354 -43Q393 -43 418 -68T444 -132Q444 -172 417 -195T348
-219Z" />
<glyph unicode="&#xc8;" glyph-name="Egrave" horiz-adv-x="489" d="M157 568V375H409V300L157 301V76L424 77V0H68V640H427V568H157ZM334 686L126 776L172 841L383 745L334 686Z" />
<glyph unicode="&#xc9;" glyph-name="Eacute" horiz-adv-x="469" d="M157 568V375H409V300L157 301V76L424 77V0H68V640H427V568H157ZM172 687L126 746L336 842L383 777L172 687Z" />
<glyph unicode="&#xca;" glyph-name="Ecircumflex" horiz-adv-x="489" d="M157 568V375H409V300L157 301V76L424 77V0H68V640H427V568H157ZM252 749L114 656V727L252 840L394 727V656L252 749Z" />
<glyph unicode="&#xcb;" glyph-name="Edieresis" horiz-adv-x="489" d="M157 568V375H409V300L157 301V76L424 77V0H68V640H427V568H157ZM387 696T365 696T329 711T315 748T329 785T365 800Q386 800 400 785T415 748Q415 726 401 711ZM178 696T156 696T120 711T106
748T120 785T156 800T191 785T205 748T192 711Z" />
<glyph unicode="&#xcc;" glyph-name="Igrave" horiz-adv-x="215" d="M68 0V642H157V0H68ZM198 686L-11 776L36 841L246 745L198 686Z" />
<glyph unicode="&#xcd;" glyph-name="Iacute" horiz-adv-x="215" d="M68 0V642H157V0H68ZM36 687L-11 746L199 842L246 777L36 687Z" />
<glyph unicode="&#xce;" glyph-name="Icircumflex" horiz-adv-x="215" d="M68 0V642H157V0H68ZM115 749L-22 656V727L115 840L257 727V656L115 749Z" />
<glyph unicode="&#xcf;" glyph-name="Idieresis" horiz-adv-x="215" d="M68 0V642H157V0H68ZM240 696T218 696T182 711T168 748T182 785T218 800Q239 800 253 785T268 748Q268 726 254 711ZM31 696T9 696T-27 711T-41 748T-27 785T9 800T44 785T58 748T45 711Z" />
<glyph unicode="&#xd1;" glyph-name="Ntilde" horiz-adv-x="570" d="M461 -11Q371 151 151 464V1L68 0V644H142L442 189V640H524V11L461 -11ZM385 659Q360 659 312 693T250 728Q211 728 180 686L153 745Q167 766 195 780T250 795Q275 796 320 762T383 727Q408
727 433 752L459 692Q450 681 425 670T385 659Z" />
<glyph unicode="&#xd2;" glyph-name="Ograve" horiz-adv-x="644" d="M324 -16Q184 -16 107 86Q37 177 37 322Q37 458 115 549Q197 646 331 646Q464 646 544 549Q618 458 618 322Q618 177 545 84Q465 -16 324 -16ZM329 572Q231 572 172 489Q120 415 120 313Q120
215 172 142Q230 61 324 61Q419 61 480 141Q536 215 536 312Q536 413 484 488Q426 572 329 572ZM408 686L199 776L246 841L456 745L408 686Z" />
<glyph unicode="&#xd3;" glyph-name="Oacute" horiz-adv-x="644" d="M324 -16Q184 -16 107 86Q37 177 37 322Q37 458 115 549Q197 646 331 646Q464 646 544 549Q618 458 618 322Q618 177 545 84Q465 -16 324 -16ZM329 572Q231 572 172 489Q120 415 120 313Q120
215 172 142Q230 61 324 61Q419 61 480 141Q536 215 536 312Q536 413 484 488Q426 572 329 572ZM246 687L199 746L409 842L456 777L246 687Z" />
<glyph unicode="&#xd4;" glyph-name="Ocircumflex" horiz-adv-x="644" d="M324 -16Q184 -16 107 86Q37 177 37 322Q37 458 115 549Q197 646 331 646Q464 646 544 549Q618 458 618 322Q618 177 545 84Q465 -16 324 -16ZM329 572Q231 572 172 489Q120 415 120 313Q120
215 172 142Q230 61 324 61Q419 61 480 141Q536 215 536 312Q536 413 484 488Q426 572 329 572ZM333 759L195 666V737L333 850L475 737V666L333 759Z" />
<glyph unicode="&#xd5;" glyph-name="Otilde" horiz-adv-x="648" d="M324 -16Q184 -16 107 86Q37 177 37 322Q37 458 115 549Q197 646 331 646Q464 646 544 549Q618 458 618 322Q618 177 545 84Q465 -16 324 -16ZM329 572Q231 572 172 489Q120 415 120 313Q120
215 172 142Q230 61 324 61Q419 61 480 141Q536 215 536 312Q536 413 484 488Q426 572 329 572ZM385 669Q360 669 312 703T250 738Q211 738 180 696L153 755Q167 776 195 790T250 805Q275 806 320 772T383 737Q408 737 433 762L459 702Q450 691 425 680T385 669Z"
/>
<glyph unicode="&#xd6;" glyph-name="Odieresis" horiz-adv-x="648" d="M324 -16Q184 -16 107 86Q37 177 37 322Q37 458 115 549Q197 646 331 646Q464 646 544 549Q618 458 618 322Q618 177 545 84Q465 -16 324 -16ZM329 572Q231 572 172 489Q120 415 120 313Q120
215 172 142Q230 61 324 61Q419 61 480 141Q536 215 536 312Q536 413 484 488Q426 572 329 572ZM461 696T439 696T403 711T389 748T403 785T439 800Q460 800 474 785T489 748Q489 726 475 711ZM251 696T229 696T193 711T179 748T193 785T229 800Q250 800 264 785T279
748Q279 726 265 711Z" />
<glyph unicode="&#xd8;" glyph-name="Oslash" horiz-adv-x="644" d="M217 93L362 568Q346 572 324 572Q226 572 167 489Q115 415 115 313Q115 247 140 190Q167 128 217 93ZM437 533L293 63Q311 61 319 61Q414 61 475 141Q531 215 531 312Q531 458 437 533ZM397
682L475 658L461 612Q537 570 577 489Q613 414 613 322Q613 178 539 85Q459 -16 319 -16Q291 -16 270 -12L253 -69L175 -45L192 12Q32 91 32 322Q32 458 110 549Q192 646 326 646Q357 646 384 640L397 682Z" />
<glyph unicode="&#xd9;" glyph-name="Ugrave" horiz-adv-x="571" d="M513 230Q513 119 452 51T282 -17Q176 -17 120 55Q68 121 68 230V640H157V230Q157 58 285 58Q356 58 392 110Q423 156 423 230V640H513V230ZM366 686L157 776L204 841L414 745L366 686Z" />
<glyph unicode="&#xda;" glyph-name="Uacute" horiz-adv-x="571" d="M513 230Q513 119 452 51T282 -17Q176 -17 120 55Q68 121 68 230V640H157V230Q157 58 285 58Q356 58 392 110Q423 156 423 230V640H513V230ZM204 687L157 746L367 842L414 777L204 687Z" />
<glyph unicode="&#xdb;" glyph-name="Ucircumflex" horiz-adv-x="571" d="M513 230Q513 119 452 51T282 -17Q176 -17 120 55Q68 121 68 230V640H157V230Q157 58 285 58Q356 58 392 110Q423 156 423 230V640H513V230ZM283 759L145 666V737L283 850L425 737V666L283 759Z" />
<glyph unicode="&#xdc;" glyph-name="Udieresis" horiz-adv-x="521" d="M513 230Q513 119 452 51T282 -17Q176 -17 120 55Q68 121 68 230V640H157V230Q157 58 285 58Q356 58 392 110Q423 156 423 230V640H513V230ZM408 696T386 696T350 711T336 748T350 785T386
800Q407 800 421 785T436 748Q436 726 422 711ZM199 696T177 696T141 711T127 748T141 785T177 800T212 785T226 748T213 711Z" />
<glyph unicode="&#xdf;" glyph-name="germandbls" horiz-adv-x="549" d="M334 -15Q272 -15 233 -1Q187 16 150 58L192 123Q220 84 251 71Q278 59 329 59Q365 59 393 81T421 138Q421 190 343 216L262 241Q164 274 164 360Q164 434 204 474T319 514Q339 514 358
511Q371 531 371 538Q371 599 329 626Q293 649 249 649Q193 649 162 617T131 529V0H53V529Q53 715 254 715Q340 715 394 670Q450 622 450 537Q450 488 414 428Q368 444 318 447Q286 449 263 428T240 375Q240 351 268 334Q286 323 337 307L416 281Q464 261 483 229T503
144Q503 78 452 32T334 -15Z" />
<glyph unicode="&#xe0;" glyph-name="agrave" horiz-adv-x="491" d="M399 -11Q358 -11 336 37Q303 12 285 4Q242 -16 184 -16Q121 -16 84 24T46 127Q46 208 95 244Q127 267 216 288Q250 296 324 303V366Q324 399 299 420T239 441Q184 441 106 377L65 433Q96 461
147 485Q203 512 239 512Q308 512 355 469T402 357V75Q407 55 423 55Q434 54 465 76L481 24Q448 -11 399 -11ZM324 233Q293 233 248 224Q234 221 191 211Q120 193 119 126Q119 90 139 69T195 47Q234 47 275 68Q324 93 324 132V233ZM345 556L136 646L183 711L393
615L345 556Z" />
<glyph unicode="&#xe1;" glyph-name="aacute" horiz-adv-x="491" d="M399 -11Q358 -11 336 37Q303 12 285 4Q242 -16 184 -16Q121 -16 84 24T46 127Q46 208 95 244Q127 267 216 288Q250 296 324 303V366Q324 399 299 420T239 441Q184 441 106 377L65 433Q96 461
147 485Q203 512 239 512Q308 512 355 469T402 357V75Q407 55 423 55Q434 54 465 76L481 24Q448 -11 399 -11ZM324 233Q293 233 248 224Q234 221 191 211Q120 193 119 126Q119 90 139 69T195 47Q234 47 275 68Q324 93 324 132V233ZM183 557L136 616L346 712L393
647L183 557Z" />
<glyph unicode="&#xe2;" glyph-name="acircumflex" horiz-adv-x="491" d="M399 -11Q358 -11 336 37Q303 12 285 4Q242 -16 184 -16Q121 -16 84 24T46 127Q46 208 95 244Q127 267 216 288Q250 296 324 303V366Q324 399 299 420T239 441Q184 441 106 377L65 433Q96
461 147 485Q203 512 239 512Q308 512 355 469T402 357V75Q407 55 423 55Q434 54 465 76L481 24Q448 -11 399 -11ZM324 233Q293 233 248 224Q234 221 191 211Q120 193 119 126Q119 90 139 69T195 47Q234 47 275 68Q324 93 324 132V233ZM252 619L114 526V597L252
710L394 597V526L252 619Z" />
<glyph unicode="&#xe3;" glyph-name="atilde" horiz-adv-x="491" d="M399 -11Q358 -11 336 37Q303 12 285 4Q242 -16 184 -16Q121 -16 84 24T46 127Q46 208 95 244Q127 267 216 288Q250 296 324 303V366Q324 399 299 420T239 441Q184 441 106 377L65 433Q96 461
147 485Q203 512 239 512Q308 512 355 469T402 357V75Q407 55 423 55Q434 54 465 76L481 24Q448 -11 399 -11ZM324 233Q293 233 248 224Q234 221 191 211Q120 193 119 126Q119 90 139 69T195 47Q234 47 275 68Q324 93 324 132V233ZM312 549Q286 549 237 583T176
618Q137 618 106 576L80 635Q94 655 122 669T176 685T247 652T310 617Q333 617 360 642L386 582Q377 572 352 561T312 549Z" />
<glyph unicode="&#xe4;" glyph-name="adieresis" horiz-adv-x="491" d="M399 -11Q358 -11 336 37Q303 12 285 4Q242 -16 184 -16Q121 -16 84 24T46 127Q46 208 95 244Q127 267 216 288Q250 296 324 303V366Q324 399 299 420T239 441Q184 441 106 377L65 433Q96
461 147 485Q203 512 239 512Q308 512 355 469T402 357V75Q407 55 423 55Q434 54 465 76L481 24Q448 -11 399 -11ZM324 233Q293 233 248 224Q234 221 191 211Q120 193 119 126Q119 90 139 69T195 47Q234 47 275 68Q324 93 324 132V233ZM377 546T355 546T319 561T305
598T319 635T355 650Q376 650 390 635T405 598Q405 576 391 561ZM167 546T145 546T109 561T95 598T109 635T145 650Q166 650 180 635T195 598Q195 576 181 561Z" />
<glyph unicode="&#xe5;" glyph-name="aring" horiz-adv-x="491" d="M399 -11Q358 -11 336 37Q303 12 285 4Q242 -16 184 -16Q121 -16 84 24T46 127Q46 208 95 244Q127 267 216 288Q250 296 324 303V366Q324 399 299 420T239 441Q184 441 106 377L65 433Q96 461
147 485Q203 512 239 512Q308 512 355 469T402 357V75Q407 55 423 55Q434 54 465 76L481 24Q448 -11 399 -11ZM324 233Q293 233 248 224Q234 221 191 211Q120 193 119 126Q119 90 139 69T195 47Q234 47 275 68Q324 93 324 132V233ZM240 566Q201 566 176 590T150
653Q150 691 175 715T240 739T305 716T331 653T306 590T240 566ZM240 696Q198 696 198 653Q198 609 240 609Q283 609 283 653Q283 696 240 696Z" />
<glyph unicode="&#xe6;" glyph-name="ae" horiz-adv-x="775" d="M658 332Q658 441 550 441Q477 441 446 405Q423 378 404 300H658V332ZM331 37Q314 25 279 4Q235 -16 179 -16Q116 -16 79 24T41 127Q41 208 90 244Q121 267 211 288Q267 301 319 306V366Q319 399
294 420T234 441Q179 441 101 377L60 433Q89 459 142 485Q200 512 234 512Q337 512 380 429Q445 507 558 507Q638 507 690 441Q737 381 737 298V237H397Q397 172 422 125Q439 92 482 73Q520 56 561 56Q590 56 631 78Q666 96 692 120L732 64Q650 -12 553 -12Q428
-12 370 73L331 37ZM319 233Q296 233 235 221Q171 208 154 199Q113 177 113 126Q113 47 190 47Q229 47 270 68Q319 93 319 132V233Z" />
<glyph unicode="&#xe7;" glyph-name="ccedilla" horiz-adv-x="483" d="M295 -219Q232 -219 209 -171L246 -137Q274 -169 296 -169Q332 -169 332 -135Q332 -96 298 -96Q284 -96 264 -111L217 -90L222 -7Q121 11 75 104Q44 167 44 242Q44 356 102 429Q165 508 276
507Q364 506 433 454L391 388Q325 439 266 439Q194 439 157 371Q128 317 127 238Q126 165 163 114Q204 57 274 57Q346 57 408 112L447 60Q375 -10 279 -12L276 -47Q285 -43 301 -43Q339 -43 365 -68T392 -132Q392 -172 364 -195T295 -219Z" />
<glyph unicode="&#xe8;" glyph-name="egrave" horiz-adv-x="497" d="M129 257Q129 110 214 71Q247 56 283 56Q342 56 414 120L453 64Q373 -12 275 -12Q139 -12 81 90Q44 155 44 247Q44 361 104 432Q167 507 279 507Q361 507 410 454T459 318V257H129ZM380 332Q380
441 272 441Q212 441 180 410Q152 382 136 320H380V332ZM355 556L147 646L193 711L404 615L355 556Z" />
<glyph unicode="&#xe9;" glyph-name="eacute" horiz-adv-x="497" d="M129 257Q129 110 214 71Q247 56 283 56Q342 56 414 120L453 64Q373 -12 275 -12Q139 -12 81 90Q44 155 44 247Q44 361 104 432Q167 507 279 507Q361 507 410 454T459 318V257H129ZM380 332Q380
441 272 441Q212 441 180 410Q152 382 136 320H380V332ZM183 557L136 616L346 712L393 647L183 557Z" />
<glyph unicode="&#xea;" glyph-name="ecircumflex" horiz-adv-x="497" d="M129 257Q129 110 214 71Q247 56 283 56Q342 56 414 120L453 64Q373 -12 275 -12Q139 -12 81 90Q44 155 44 247Q44 361 104 432Q167 507 279 507Q361 507 410 454T459 318V257H129ZM380
332Q380 441 272 441Q212 441 180 410Q152 382 136 320H380V332ZM273 619L135 526V597L273 710L415 597V526L273 619Z" />
<glyph unicode="&#xeb;" glyph-name="edieresis" horiz-adv-x="497" d="M129 257Q129 110 214 71Q247 56 283 56Q342 56 414 120L453 64Q373 -12 275 -12Q139 -12 81 90Q44 155 44 247Q44 361 104 432Q167 507 279 507Q361 507 410 454T459 318V257H129ZM380 332Q380
441 272 441Q212 441 180 410Q152 382 136 320H380V332ZM387 546T365 546T329 561T315 598T329 635T365 650Q386 650 400 635T415 598Q415 576 401 561ZM178 546T156 546T120 561T106 598T120 635T156 650T191 635T205 598T192 561Z" />
<glyph unicode="&#xec;" glyph-name="igrave" horiz-adv-x="249" d="M77 0V495H157V0H77ZM208 556L0 646L46 711L257 615L208 556Z" />
<glyph unicode="&#xed;" glyph-name="iacute" horiz-adv-x="234" d="M77 0V495H157V0H77ZM46 557L0 616L210 712L257 647L46 557Z" />
<glyph unicode="&#xee;" glyph-name="icircumflex" horiz-adv-x="210" d="M77 0V495H157V0H77ZM115 619L-22 526V597L115 710L257 597V526L115 619Z" />
<glyph unicode="&#xef;" glyph-name="idieresis" horiz-adv-x="207" d="M77 0V495H157V0H77ZM237 546T215 546T179 561T165 598T179 635T215 650Q236 650 250 635T265 598Q265 576 251 561ZM27 546T5 546T-30 561T-44 598T-31 635T5 650T41 635T55 598T41 561Z" />
<glyph unicode="&#xf1;" glyph-name="ntilde" horiz-adv-x="486" d="M376 0V325Q376 374 354 406Q329 443 282 443Q241 443 197 411Q147 375 147 328V0H68V495H147V439Q186 476 212 490Q249 511 291 511Q361 511 408 460T455 338V0H376ZM333 549Q307 549 258 583T197
618Q158 618 127 576L101 635Q115 655 143 669T197 685T268 652T331 617Q354 617 381 642L407 582Q398 572 373 561T333 549Z" />
<glyph unicode="&#xf2;" glyph-name="ograve" horiz-adv-x="543" d="M280 -11Q146 -11 85 90Q44 158 44 252Q44 381 125 453Q192 512 282 512Q371 512 435 453Q513 382 513 252Q513 162 467 89Q404 -11 280 -11ZM286 445Q207 445 165 383Q130 329 130 246Q130
167 163 116Q202 54 276 54Q353 54 392 117Q426 170 426 251Q426 328 395 381Q358 445 286 445ZM387 556L178 646L225 711L435 615L387 556Z" />
<glyph unicode="&#xf3;" glyph-name="oacute" horiz-adv-x="543" d="M280 -11Q146 -11 85 90Q44 158 44 252Q44 381 125 453Q192 512 282 512Q371 512 435 453Q513 382 513 252Q513 162 467 89Q404 -11 280 -11ZM286 445Q207 445 165 383Q130 329 130 246Q130
167 163 116Q202 54 276 54Q353 54 392 117Q426 170 426 251Q426 328 395 381Q358 445 286 445ZM225 557L178 616L388 712L435 647L225 557Z" />
<glyph unicode="&#xf4;" glyph-name="ocircumflex" horiz-adv-x="543" d="M280 -11Q146 -11 85 90Q44 158 44 252Q44 381 125 453Q192 512 282 512Q371 512 435 453Q513 382 513 252Q513 162 467 89Q404 -11 280 -11ZM286 445Q207 445 165 383Q130 329 130 246Q130
167 163 116Q202 54 276 54Q353 54 392 117Q426 170 426 251Q426 328 395 381Q358 445 286 445ZM283 619L146 526V597L283 710L425 597V526L283 619Z" />
<glyph unicode="&#xf5;" glyph-name="otilde" horiz-adv-x="543" d="M280 -11Q146 -11 85 90Q44 158 44 252Q44 381 125 453Q192 512 282 512Q371 512 435 453Q513 382 513 252Q513 162 467 89Q404 -11 280 -11ZM286 445Q207 445 165 383Q130 329 130 246Q130
167 163 116Q202 54 276 54Q353 54 392 117Q426 170 426 251Q426 328 395 381Q358 445 286 445ZM364 549Q339 549 291 583T229 618Q190 618 159 576L132 635Q146 656 174 670T229 685Q254 686 299 652T362 617Q387 617 412 642L438 582Q429 571 404 560T364 549Z"
/>
<glyph unicode="&#xf6;" glyph-name="odieresis" horiz-adv-x="543" d="M280 -11Q146 -11 85 90Q44 158 44 252Q44 381 125 453Q192 512 282 512Q371 512 435 453Q513 382 513 252Q513 162 467 89Q404 -11 280 -11ZM286 445Q207 445 165 383Q130 329 130 246Q130
167 163 116Q202 54 276 54Q353 54 392 117Q426 170 426 251Q426 328 395 381Q358 445 286 445ZM408 546T386 546T350 561T336 598T350 635T386 650Q407 650 421 635T436 598Q436 576 422 561ZM199 546T177 546T141 561T127 598T141 635T177 650T212 635T226 598T213
561Z" />
<glyph unicode="&#xf7;" glyph-name="divide" horiz-adv-x="496" d="M290 397T264 397T221 416T204 463T221 509T264 529T307 510T324 463T307 417ZM53 275V345H446V275H53ZM290 93T264 93T221 112T204 159T221 205T264 225T307 206T324 159T307 113Z" />
<glyph unicode="&#xf8;" glyph-name="oslash" horiz-adv-x="546" d="M177 92L284 445H281Q202 445 160 383Q125 329 125 246Q125 145 177 92ZM361 416L251 55Q257 54 271 54Q348 54 387 117Q421 170 421 251Q421 366 361 416ZM325 578L403 554L382 486Q507 420
507 252Q507 162 461 89Q398 -11 275 -11Q252 -11 232 -8L213 -69L135 -45L154 17Q96 49 66 118Q39 178 39 252Q39 381 120 453Q186 512 276 512Q286 512 304 510L325 578Z" />
<glyph unicode="&#xf9;" glyph-name="ugrave" horiz-adv-x="482" d="M451 0H380Q377 14 370 52Q295 -18 216 -18Q148 -18 106 38Q68 90 68 160V495H147V164Q147 53 235 53Q277 53 325 88T373 164V495H451V0ZM355 556L147 646L193 711L404 615L355 556Z" />
<glyph unicode="&#xfa;" glyph-name="uacute" horiz-adv-x="482" d="M451 0H380Q377 14 370 52Q295 -18 216 -18Q148 -18 106 38Q68 90 68 160V495H147V164Q147 53 235 53Q277 53 325 88T373 164V495H451V0ZM183 557L136 616L346 712L393 647L183 557Z" />
<glyph unicode="&#xfb;" glyph-name="ucircumflex" horiz-adv-x="482" d="M451 0H380Q377 14 370 52Q295 -18 216 -18Q148 -18 106 38Q68 90 68 160V495H147V164Q147 53 235 53Q277 53 325 88T373 164V495H451V0ZM262 619L125 526V597L262 710L404 597V526L262 619Z" />
<glyph unicode="&#xfc;" glyph-name="udieresis" horiz-adv-x="482" d="M451 0H380Q377 14 370 52Q295 -18 216 -18Q148 -18 106 38Q68 90 68 160V495H147V164Q147 53 235 53Q277 53 325 88T373 164V495H451V0ZM387 546T365 546T329 561T315 598T329 635T365 650Q386
650 400 635T415 598Q415 576 401 561ZM178 546T156 546T120 561T106 598T120 635T156 650T191 635T205 598T192 561Z" />
<glyph unicode="&#xff;" glyph-name="ydieresis" horiz-adv-x="467" d="M254 -84Q237 -131 192 -163T97 -196Q81 -196 27 -178L52 -107Q80 -120 102 -121Q148 -122 186 -54L227 42L36 478L112 499L264 145L393 498L463 481L254 -84ZM365 546T343 546T307 561T293
598T307 635T343 650Q364 650 378 635T393 598Q393 576 379 561ZM156 546T134 546T98 561T84 598T98 635T134 650T169 635T183 598T170 561Z" />
<glyph unicode="&#x131;" glyph-name="dotlessi" horiz-adv-x="233" d="M71 0V495H152V0H71Z" />
<glyph unicode="&#x152;" glyph-name="OE" horiz-adv-x="1028" d="M609 0V223Q520 -3 329 -3Q189 -3 112 102Q42 196 42 341Q42 477 120 565Q201 657 335 657Q521 657 609 449V649H964V577H699V384H954V309H696L697 84H964V0H609ZM334 581Q236 581 178 503Q126
432 126 331Q126 233 177 159Q235 75 329 75T484 158Q539 234 539 331Q539 432 488 502Q431 581 334 581Z" />
<glyph unicode="&#x153;" glyph-name="oe" horiz-adv-x="931" d="M281 445Q202 445 160 383Q125 329 125 246Q125 167 158 116Q197 54 271 54Q348 54 387 117Q421 170 421 251Q421 328 390 381Q353 445 281 445ZM564 257Q564 109 648 71Q681 56 717 56Q776 56
848 120L888 64Q808 -12 710 -12Q533 -12 491 153Q436 -11 275 -11Q140 -11 80 90Q39 159 39 252Q39 381 120 453Q186 512 276 512Q353 512 412 467T494 348Q518 424 576 465T714 507Q796 507 845 454T894 318V257H564ZM815 332Q815 441 707 441Q647 441 617 412T571
320H815V332Z" />
<glyph unicode="&#x178;" glyph-name="Ydieresis" horiz-adv-x="482" d="M301 272V0H212V272L34 627L114 650L259 353L402 650L478 627L301 272ZM398 696T376 696T340 711T326 748T340 785T376 800Q397 800 411 785T426 748Q426 726 412 711ZM188 696T166 696T130
711T116 748T130 785T166 800Q187 800 201 785T216 748Q216 726 202 711Z" />
<glyph unicode="&#x192;" glyph-name="florin" horiz-adv-x="361" d="M360 610Q312 641 273 641Q199 641 190 530L189 526Q187 496 187 489H324L318 424H183L131 -122L53 -123L104 422L25 421L31 487L109 488L113 529Q121 608 159 656Q203 710 279 711Q323 711
347 701Q353 698 402 666L360 610Z" />
<glyph unicode="&#x2c6;" glyph-name="circumflex" horiz-adv-x="337" d="M173 619L35 526V597L173 710L315 597V526L173 619Z" />
<glyph unicode="&#x2c7;" glyph-name="caron" horiz-adv-x="337" d="M178 617L315 710V639L178 526L35 639V710L178 617Z" />
<glyph unicode="&#x2d8;" glyph-name="breve" horiz-adv-x="345" d="M171 538Q121 538 84 566T31 643L80 650Q106 587 170 587Q229 587 255 650L303 643Q290 595 255 567T171 538Z" />
<glyph unicode="&#x2d9;" glyph-name="dotaccent" horiz-adv-x="237" d="M149 528T128 528T91 541T75 576T90 610T128 624T165 611T181 576T165 542Z" />
<glyph unicode="&#x2da;" glyph-name="ring" horiz-adv-x="305" d="M211 576T172 576T107 600T81 663Q81 701 107 725T172 749T237 725T263 663Q263 624 237 600ZM215 706T172 706T129 663Q129 619 172 619T215 663Q215 706 172 706Z" />
<glyph unicode="&#x2db;" glyph-name="ogonek" horiz-adv-x="1061" />
<glyph unicode="&#x2dc;" glyph-name="tilde" horiz-adv-x="375" d="M275 549Q249 549 201 583T140 618Q101 618 69 576L43 635Q57 656 85 670T140 685Q165 686 210 652T273 617Q296 617 323 642L349 582Q340 571 315 560T275 549Z" />
<glyph unicode="&#x2dd;" glyph-name="hungarumlaut" horiz-adv-x="362" d="M224 561H161L254 675H317L224 561ZM101 561H38L131 675H194L101 561Z" />
<glyph unicode="&#x3a9;" glyph-name="Omega" horiz-adv-x="646" d="M405 130V65H563V0H357V176Q418 176 463 239Q502 294 502 349Q502 451 462 511Q415 581 318 581T169 512Q124 450 124 349Q124 290 157 239Q198 176 269 176V0H62V65H217V129Q144 140 91 213Q40
283 40 359Q40 495 111 566T319 637Q586 637 586 359Q586 285 533 213Q477 138 405 130Z" />
<glyph unicode="&#x3c0;" glyph-name="pi" horiz-adv-x="518" d="M374 0V442H197V0H109V442H69V508H462V0H374Z" />
<glyph unicode="&#x2013;" glyph-name="endash" horiz-adv-x="500" d="M34 292V363H466V292H34Z" />
<glyph unicode="&#x2014;" glyph-name="emdash" horiz-adv-x="1000" d="M27 292V363H973V292H27Z" />
<glyph unicode="&#x2018;" glyph-name="quoteleft" horiz-adv-x="213" d="M186 708L142 720Q51 601 50 516H147Q147 554 159 615T186 708Z" />
<glyph unicode="&#x2019;" glyph-name="quoteright" horiz-adv-x="241" d="M47 528L91 516Q182 635 183 720H86Q86 682 74 622Q62 559 47 528Z" />
<glyph unicode="&#x201a;" glyph-name="quotesinglbase" horiz-adv-x="214" d="M97 -128L42 -132Q43 -131 71 -87Q89 -59 93 -39Q29 -36 29 33Q29 60 49 81T97 102Q123 102 143 81T164 33Q163 -12 144 -53Q134 -74 97 -128Z" />
<glyph unicode="&#x201c;" glyph-name="quotedblleft" horiz-adv-x="443" d="M425 708L381 720Q290 601 289 516H386Q386 554 398 615T425 708ZM225 708L181 720Q90 601 89 516H186Q186 554 198 615T225 708Z" />
<glyph unicode="&#x201d;" glyph-name="quotedblright" horiz-adv-x="443" d="M31 528L75 516Q166 635 167 720H70Q70 682 58 622Q46 559 31 528ZM231 528L275 516Q366 635 367 720H270Q270 682 258 622Q246 559 231 528Z" />
<glyph unicode="&#x201e;" glyph-name="quotedblbase" horiz-adv-x="417" d="M31 -72L75 -84Q166 35 167 120H70Q70 82 58 22Q46 -41 31 -72ZM231 -72L275 -84Q366 35 367 120H270Q270 82 258 22Q246 -41 231 -72Z" />
<glyph unicode="&#x2020;" glyph-name="dagger" horiz-adv-x="221" d="M192 559H122V333H83V559H23V593H83V655H122V593H192V559Z" />
<glyph unicode="&#x2021;" glyph-name="daggerdbl" horiz-adv-x="221" d="M183 397H121V245H84V397H24V421H84V549H24V573H84V655H121V573H183V549H121V421H183V397Z" />
<glyph unicode="&#x2022;" glyph-name="bullet" horiz-adv-x="282" d="M140 190Q99 190 74 220T48 291T74 361T140 391T205 361T231 291T206 221T140 190Z" />
<glyph unicode="&#x2026;" glyph-name="ellipsis" horiz-adv-x="621" d="M535 -16T505 -16T457 3T438 53Q438 84 456 103T505 122Q535 122 553 103T571 53Q571 23 553 4ZM346 -16T316 -16T268 3T249 53Q249 84 267 103T316 122Q346 122 364 103T382 53Q382 23
364 4ZM157 -16T127 -16T79 3T60 53Q60 84 78 103T127 122Q157 122 175 103T193 53Q193 23 175 4Z" />
<glyph unicode="&#x2030;" glyph-name="perthousand" horiz-adv-x="886" d="M787 -6T734 -6T653 29Q626 61 626 115Q626 165 655 199T734 234T812 200T841 115Q841 61 815 29Q787 -6 734 -6ZM129 410Q77 410 50 444T22 531Q22 581 51 615T129 650T207 616T237
531Q237 477 210 445Q182 410 129 410ZM510 -6T457 -6T376 29Q349 61 349 115Q349 165 378 199T457 234T535 200T564 115Q564 61 538 29Q510 -6 457 -6ZM107 -78L33 -53L410 628L479 602L107 -78ZM755 178T733 178T698 155Q688 136 688 112Q688 87 698 70Q711 48
734 48Q756 48 769 70Q780 89 780 112Q780 136 769 155Q755 178 733 178ZM150 594T128 594T93 571Q83 552 83 528Q83 505 94 486Q107 464 129 464Q175 464 175 528Q175 552 164 571Q150 594 128 594ZM478 178T456 178T421 155Q411 136 411 112Q411 87 421 70Q434
48 457 48Q479 48 492 70Q503 89 503 112Q503 136 492 155Q478 178 456 178Z" />
<glyph unicode="&#x2039;" glyph-name="guilsinglleft" horiz-adv-x="319" d="M148 286L279 125L208 122L56 289L208 451L279 448L148 286Z" />
<glyph unicode="&#x203a;" glyph-name="guilsinglright" horiz-adv-x="317" d="M118 122L47 125L177 286L47 448L118 451L271 289L118 122Z" />
<glyph unicode="&#x2044;" glyph-name="fraction" horiz-adv-x="537" d="M141 66L62 116L433 588L511 538L141 66Z" />
<glyph unicode="&#x2122;" glyph-name="trademark" horiz-adv-x="641" d="M174 315H110V590H15V642H263V590H174V315ZM555 514L479 315H425L348 516V315H288V644H366L455 415L544 644H619V315H555V514Z" />
<glyph unicode="&#x2202;" glyph-name="partialdiff" horiz-adv-x="552" d="M269 -17Q167 -17 104 58Q44 129 43 233Q42 355 98 424Q158 498 277 498Q315 498 355 485Q399 470 423 446Q419 484 402 525Q382 571 356 590Q313 621 237 621Q166 621 99 592L77 670Q146
690 217 690Q330 690 392 646Q510 563 510 296Q510 151 463 76Q405 -17 269 -17ZM431 350Q365 440 276 440Q201 440 163 378Q131 326 131 246Q131 170 167 115Q208 52 280 52Q437 52 437 262Q437 306 431 350Z" />
<glyph unicode="&#x2206;" glyph-name="increment" horiz-adv-x="689" d="M373 565L198 56H529L373 565ZM85 0L330 657H416L642 0H85Z" />
<glyph unicode="&#x220f;" glyph-name="product" horiz-adv-x="595" d="M511 0H415V562H218V0H123V642H511V0Z" />
<glyph unicode="&#x2211;" glyph-name="summation" horiz-adv-x="491" d="M92 0V70L309 342L92 557L102 633H448V561H198L413 349L196 76L448 77V0H92Z" />
<glyph unicode="&#x221a;" glyph-name="radical" horiz-adv-x="503" d="M218 -10H141L55 297L130 337L173 116L280 639H359L218 -10Z" />
<glyph unicode="&#x221e;" glyph-name="infinity" horiz-adv-x="536" d="M383 264Q309 264 268 320Q225 264 152 264Q94 264 52 302T9 398T51 493T152 531Q225 531 268 476Q310 531 383 531Q441 531 483 493T526 398T484 303T383 264ZM383 482Q348 482 322 458T295
399Q295 363 321 339T383 315T445 339T471 399T445 458T383 482ZM152 482Q117 482 91 458T64 399Q64 362 89 340T152 317T215 339T240 399Q240 435 214 458T152 482Z" />
<glyph unicode="&#x222b;" glyph-name="integral'" horiz-adv-x="303" d="M281 611Q257 630 233 630Q196 630 177 599Q161 573 161 534Q161 473 213 306T266 53Q266 -140 103 -140Q81 -140 21 -121L40 -39Q86 -64 119 -58Q173 -48 173 69Q173 123 120 287T67 535Q67
713 234 713Q271 713 319 687L281 611Z" />
<glyph unicode="&#x2248;" glyph-name="approxequal" horiz-adv-x="536" d="M344 82Q322 82 279 108T218 134Q194 134 167 117T125 79L101 142Q119 163 155 180T218 197Q248 197 292 173T349 149Q383 149 413 182L440 120Q426 106 396 94T344 82ZM344 282Q322
282 277 308T214 334Q191 334 165 317T125 279L101 342Q119 363 155 380T218 397Q248 397 292 373T349 349Q383 349 413 382L440 320Q426 306 396 294T344 282Z" />
<glyph unicode="&#x2260;" glyph-name="notequal" horiz-adv-x="441" d="M163 -15L102 6L146 135H51V200H168L198 287H51V352H221L284 534L345 513L290 352H389V287H267L237 200H389V135H215L163 -15Z" />
<glyph unicode="&#x2264;" glyph-name="lessequal" horiz-adv-x="250" d="M112 283L244 122L172 119L19 286L172 448L244 445L112 283ZM21 34V74H242V34H21Z" />
<glyph unicode="&#x2265;" glyph-name="greaterequal" horiz-adv-x="250" d="M90 119L20 122L150 283L20 445L90 448L244 286L90 119ZM21 34V74H242V34H21Z" />
<glyph unicode="&#x25ca;" glyph-name="lozenge" horiz-adv-x="576" d="M275 85L20 333L275 582L529 333L275 85ZM278 485L122 332L278 180L434 332L278 485Z" />
</font>
</defs>
</svg>
