<?xml version="1.0" standalone="no"?> <!DOCTYPE svg PUBLIC "-//W3C//DTD SVG 1.0//EN" "http://www.w3.org/TR/2001/REC-SVG-20010904/DTD/svg10.dtd" > <svg xmlns="http://www.w3.org/2000/svg" width="100%" height="100%">
<defs >
<font id="Puritan2Italic" horiz-adv-x="476" ><font-face
    font-family="Puritan 2.0"
    units-per-em="1000"
    panose-1="0 0 4 0 0 0 0 0 0 0"
    ascent="859"
    descent="-249"
    alphabetic="0" />
<missing-glyph horiz-adv-x="364" d="M33 0V666H298V0H33ZM66 33H265V633H66V33Z" />
<glyph unicode=" " glyph-name="space" horiz-adv-x="273" />
<glyph unicode="!" glyph-name="exclam" horiz-adv-x="235" d="M145 192H60L114 706H199L145 192ZM75 -13Q52 -13 37 3T25 44Q27 68 45 85T87 102Q112 102 127 85T140 44Q137 20 119 4T75 -13Z" />
<glyph unicode="&quot;" glyph-name="quotedbl" horiz-adv-x="329" d="M269 681Q221 681 215 625Q213 603 222 551T241 475H255Q271 500 290 553Q308 603 310 625Q316 681 269 681ZM174 681T127 681T74 625Q72 603 80 551T100 475H113Q129 500 148 553Q166 603
168 625Q174 681 127 681Z" />
<glyph unicode="#" glyph-name="numbersign" horiz-adv-x="536" d="M452 560L371 551L363 473L443 481L437 429L357 421L346 324L289 318L300 415L219 406L208 309L150 303L161 400L58 389L64 441L167 452L175 531L73 520L79 572L182 583L190 658L247 664L238
589L320 597L328 672L387 680L377 603L458 612L452 560ZM233 537L224 458L305 467L314 545L233 537Z" />
<glyph unicode="$" glyph-name="dollar" horiz-adv-x="536" d="M282 -6L272 -100H183L193 -9Q93 5 53 69L107 131Q157 64 239 64Q285 64 319 91T358 167Q363 215 319 242Q306 250 234 277Q176 299 149 324Q111 361 111 422Q111 435 112 448Q118 504 160 547Q200
587 257 601L267 690H356L347 604Q407 593 460 545L410 487Q360 534 300 534Q211 534 202 443Q196 390 285 359T402 305Q445 270 445 201Q445 186 444 169Q429 24 282 -6Z" />
<glyph unicode="%" glyph-name="percent" horiz-adv-x="536" d="M142 410Q99 410 73 435T47 511Q47 520 48 531Q53 583 87 616T168 650Q214 650 241 617T263 531Q257 472 224 441T142 410ZM68 -78L-3 -53L446 628L512 602L68 -78ZM370 -2Q272 -2 272 100Q272 111
274 122Q279 175 314 209T397 244Q443 244 470 210T493 122Q486 61 453 30T370 -2ZM177 594T161 594T130 579Q112 561 109 528Q105 495 120 478Q131 464 148 464T179 478Q197 495 201 528Q204 561 189 579Q177 594 161 594ZM389 186Q373 186 358 171Q340 152 336
118Q333 84 348 67Q359 54 376 54T407 67Q426 85 429 118Q433 152 418 171Q406 186 389 186Z" />
<glyph unicode="&amp;" glyph-name="ampersand" horiz-adv-x="555" d="M175 307Q92 263 83 178Q78 129 106 97Q136 61 195 61Q261 61 312 118Q213 232 175 307ZM446 4Q408 17 358 66Q276 -9 193 -9Q102 -9 53 38Q8 81 8 149Q8 213 48 272Q87 328 147 359Q108 421
115 484Q122 551 174 595T291 640Q375 640 434 568L382 520Q342 576 278 576Q204 576 195 499Q191 454 214 395Q270 417 328 419L336 358Q283 358 247 342Q313 233 359 182Q378 232 380 252Q383 275 377 315L448 321Q452 219 412 129Q435 99 499 66L446 4Z" />
<glyph unicode="&apos;" glyph-name="quotesingle" horiz-adv-x="194" d="M120 683Q72 683 66 627Q64 603 74 550Q85 493 99 475Q118 502 137 551T160 627Q166 683 120 683Z" />
<glyph unicode="(" glyph-name="parenleft" horiz-adv-x="318" d="M125 -138Q41 39 41 236Q41 377 90 523Q138 665 223 783L283 753Q153 511 133 323Q128 279 128 237Q128 154 148 64Q158 18 194 -108L125 -138Z" />
<glyph unicode=")" glyph-name="parenright" horiz-adv-x="316" d="M96 -138L32 -108Q110 48 130 98Q174 207 186 319Q190 362 190 405Q190 561 127 753L194 783Q274 623 274 422Q274 122 96 -138Z" />
<glyph unicode="*" glyph-name="asterisk" horiz-adv-x="275" d="M219 475L153 535L157 446H110L113 535L47 475L20 519L101 569L21 620L47 664L115 603L111 693L158 692L153 603L219 664L244 620L167 570L245 519L219 475Z" />
<glyph unicode="+" glyph-name="plus" horiz-adv-x="498" d="M279 282V96H218V282H53V345H218V521H279V345H446V282H279Z" />
<glyph unicode="," glyph-name="comma" horiz-adv-x="254" d="M55 -72L98 -84Q202 35 212 120H115Q110 76 89 12Q70 -47 55 -72Z" />
<glyph unicode="-" glyph-name="hyphen" horiz-adv-x="380" d="M50 267V360H330V267H50Z" />
<glyph unicode="." glyph-name="period" horiz-adv-x="233" d="M147 -9T120 -9T76 12T61 64T86 116T136 137T180 116T194 64T169 12Z" />
<glyph unicode="/" glyph-name="slash" horiz-adv-x="385" d="M47 -170L-32 -153L355 704L435 687L47 -170Z" />
<glyph unicode="0" glyph-name="zero" horiz-adv-x="536" d="M227 -9Q117 -9 65 74Q20 143 20 259Q20 404 88 513Q167 642 303 642Q406 642 463 563Q515 490 515 376Q515 230 445 120Q364 -9 227 -9ZM435 325Q438 352 438 377Q438 568 295 568Q192 568 139 464Q98
382 98 269Q98 181 127 129Q162 65 235 65Q322 65 378 152Q424 224 435 325Z" />
<glyph unicode="1" glyph-name="one" horiz-adv-x="483" d="M269 0H180L241 577H103L110 637H337L269 0Z" />
<glyph unicode="2" glyph-name="two" horiz-adv-x="536" d="M39 0L47 77L253 289Q368 408 377 491Q381 527 353 558T286 589Q216 589 151 517L108 566Q201 659 292 659Q362 659 412 603T455 474Q446 384 331 260L160 77H453L445 0H39Z" />
<glyph unicode="3" glyph-name="three" horiz-adv-x="536" d="M43 46L84 94Q112 66 152 45Q198 21 234 21Q299 21 341 71Q376 114 383 172Q388 224 350 260T241 297Q229 297 206 298H172L178 364H200Q219 363 223 363Q240 363 276 374Q361 400 369 482Q375 531
351 568Q324 610 272 610Q242 610 201 586T140 536L101 582Q185 670 275 670Q352 670 404 616T449 489Q444 443 410 402Q373 358 321 347Q384 335 429 285T468 176Q459 90 398 31Q328 -36 217 -36Q107 -36 43 46Z" />
<glyph unicode="4" glyph-name="four" horiz-adv-x="536" d="M349 507L121 216H318L349 507ZM378 140L360 -28H291L310 140H18L26 216L372 649H432L386 216H491L483 140H378Z" />
<glyph unicode="5" glyph-name="five" horiz-adv-x="536" d="M222 -34Q167 -34 108 -2T27 70L65 124Q93 87 140 59Q192 27 237 27Q303 27 352 73T407 181Q414 247 376 294T283 341Q252 341 214 323Q168 300 149 263L89 295L126 638H479L470 557H192L169 344Q208
408 299 409Q386 410 438 359T491 218Q491 106 414 36T222 -34Z" />
<glyph unicode="6" glyph-name="six" horiz-adv-x="536" d="M287 372Q216 372 165 320T113 197Q113 134 148 91Q187 42 254 42T372 102Q420 159 420 227Q420 294 383 333T287 372ZM247 -22Q152 -22 94 31Q26 93 26 215Q26 240 29 267Q46 435 129 540Q221 657 371
657Q451 657 527 619L489 558Q426 591 363 591Q272 591 203 511Q137 435 120 325Q158 383 214 413Q263 440 312 440Q387 440 440 384Q497 325 497 236Q497 130 425 54T247 -22Z" />
<glyph unicode="7" glyph-name="seven" horiz-adv-x="536" d="M501 573L152 -29L72 -7L410 574H109L115 634H507L501 573Z" />
<glyph unicode="8" glyph-name="eight" horiz-adv-x="536" d="M265 313Q183 275 162 260Q113 224 107 168Q100 100 152 62Q192 33 242 33Q303 33 346 69T397 168Q403 225 361 262Q336 283 265 313ZM293 608Q250 608 216 580Q178 550 168 498Q171 455 199 428Q220
408 267 388Q394 432 401 501Q406 547 371 579Q338 608 293 608ZM229 -28Q141 -28 84 14Q23 61 23 144Q23 215 78 273Q124 322 199 352Q138 392 120 412Q88 449 93 498Q101 576 171 624Q233 665 309 665Q380 665 428 625Q482 580 474 510Q464 418 338 356Q494 295
480 171Q471 85 409 31Q341 -28 229 -28Z" />
<glyph unicode="9" glyph-name="nine" horiz-adv-x="536" d="M290 586Q230 586 188 534Q151 489 145 428Q138 368 168 324Q201 275 261 275Q335 275 383 321T432 440Q432 501 397 541Q358 586 290 586ZM223 -36Q100 -36 31 35L68 96Q135 30 238 30Q324 30 378
130Q420 207 434 320Q392 259 359 237Q316 208 251 209Q165 210 114 266Q66 319 66 399Q66 504 128 575Q193 650 296 650Q385 650 445 596Q517 532 517 412Q517 390 514 366Q497 207 443 107Q366 -36 223 -36Z" />
<glyph unicode=":" glyph-name="colon" horiz-adv-x="244" d="M145 360Q119 360 101 381T86 433Q89 464 111 485T160 506Q187 506 205 485T220 433Q216 402 194 381T145 360ZM133 -9T106 -9T61 12T46 64Q50 95 72 116T121 137Q148 137 166 116T180 64Q177 33 155 12Z" />
<glyph unicode=";" glyph-name="semicolon" horiz-adv-x="254" d="M163 361Q135 361 117 381T102 432Q105 462 127 483T178 504Q205 504 222 484T237 432Q233 402 212 382T163 361ZM35 -72L78 -84Q181 35 191 120H94Q90 76 69 12Q50 -47 35 -72Z" />
<glyph unicode="&lt;" glyph-name="less" horiz-adv-x="366" d="M132 285L319 45L246 42L27 289L245 529L319 526L132 285Z" />
<glyph unicode="=" glyph-name="equal" horiz-adv-x="441" d="M51 287V352H389V287H51ZM51 135V200H389V135H51Z" />
<glyph unicode="&gt;" glyph-name="greater" horiz-adv-x="365" d="M99 42L25 45L212 285L24 526L99 529L316 289L99 42Z" />
<glyph unicode="?" glyph-name="question" horiz-adv-x="484" d="M347 371L294 333Q265 309 253 276Q245 257 236 238Q234 232 234 189H165Q163 266 179 304Q197 348 258 396Q308 435 317 445Q348 476 352 509Q356 555 330 582T262 609Q168 609 123 505L60 540Q132
681 267 681Q350 681 396 625Q436 574 429 508Q421 429 347 371ZM182 -13Q159 -13 145 3T132 44Q135 68 153 85T194 102Q219 102 234 85T247 44Q245 20 226 4T182 -13Z" />
<glyph unicode="@" glyph-name="at" horiz-adv-x="1010" d="M493 -232Q305 -232 178 -92Q53 44 53 238Q53 429 187 563T513 698Q702 698 816 579T930 268Q930 162 857 80Q826 45 773 18Q715 -12 669 -12Q632 -12 610 16T592 87Q517 -11 424 -11Q271 -11 271 200Q271
313 340 407Q416 512 529 512Q560 512 592 501Q633 487 650 461L653 502H726L662 94Q663 82 674 72T699 60Q714 59 748 78T799 117Q825 145 843 193Q861 237 861 268Q861 431 768 530T513 629Q351 629 237 515T122 238Q122 73 226 -44Q334 -163 493 -163Q648 -163
749 -112Q841 -65 901 32L968 -11Q893 -137 766 -189Q660 -232 493 -232ZM638 398Q625 423 586 438Q555 450 526 450Q481 450 430 407Q354 342 354 215Q354 149 366 120Q389 64 459 64Q499 64 546 110T603 205L638 398Z" />
<glyph unicode="A" glyph-name="A" horiz-adv-x="568" d="M418 -10L379 179H154L76 -10L-5 0L277 654H357L504 4L418 -10ZM305 551L182 248H366L305 551Z" />
<glyph unicode="B" glyph-name="B" horiz-adv-x="524" d="M232 0L29 2L97 641L263 644Q264 644 277 645H290Q364 645 404 611T445 514Q445 457 428 423Q412 393 390 378T321 351Q458 321 458 207Q458 196 456 184Q447 96 386 48T232 0ZM263 585Q249 585 180 582L158
375L226 374Q284 373 321 403T364 482Q374 585 263 585ZM243 312H151L125 67H219Q358 67 370 185Q376 237 342 274T243 312Z" />
<glyph unicode="C" glyph-name="C" horiz-adv-x="539" d="M276 -8Q153 -8 87 78Q29 155 29 278Q29 428 111 538Q202 659 348 660Q397 660 457 639Q504 623 533 605L486 526Q401 582 345 582Q245 582 181 487Q130 413 120 317Q118 298 118 280Q118 188 164 130T283
72Q368 72 448 115L480 50Q414 16 379 6Q334 -8 276 -8Z" />
<glyph unicode="D" glyph-name="D" horiz-adv-x="565" d="M181 -2Q152 -2 107 0T29 2L97 644Q166 647 243 647Q393 647 463 587Q537 525 537 388Q537 358 533 323Q517 169 430 85Q339 -2 181 -2ZM437 312Q441 348 441 379Q441 583 263 583Q234 583 179 581L126
74H216Q311 74 372 149Q427 215 437 312Z" />
<glyph unicode="E" glyph-name="E" horiz-adv-x="489" d="M178 568L158 375H410L402 300L150 301L126 76L393 77L385 0H29L97 640H456L448 568H178Z" />
<glyph unicode="F" glyph-name="F" horiz-adv-x="490" d="M178 568L158 375H412L404 300H150L118 0H29L97 640H457L449 568H178Z" />
<glyph unicode="G" glyph-name="G" horiz-adv-x="582" d="M491 61Q426 24 386 11Q335 -6 270 -6Q152 -6 87 81Q28 158 28 278Q28 301 31 323Q43 446 119 544Q208 660 336 660Q382 660 440 644Q504 625 532 600L487 525Q410 582 337 582Q243 582 180 485Q131 409
121 317Q119 298 119 279Q119 189 162 131T275 72Q346 72 407 103L428 301H286L294 375H524L491 61Z" />
<glyph unicode="H" glyph-name="H" horiz-adv-x="582" d="M397 0L429 300H150L118 0H29L97 640H186L158 375H437L465 640H553L485 0H397Z" />
<glyph unicode="I" glyph-name="I" horiz-adv-x="215" d="M29 0L97 642H186L118 0H29Z" />
<glyph unicode="J" glyph-name="J" horiz-adv-x="215" d="M134 69Q123 -31 74 -90Q16 -159 -90 -159Q-150 -159 -185 -109L-132 -42Q-121 -56 -101 -66T-69 -77Q29 -77 44 61L105 638H194L134 69Z" />
<glyph unicode="K" glyph-name="K" horiz-adv-x="531" d="M384 -21L194 276L140 206L118 0H29L97 640H186L152 325Q336 537 438 665L503 615L257 335Q290 271 372 160L492 2L384 -21Z" />
<glyph unicode="L" glyph-name="L" horiz-adv-x="501" d="M29 0L97 641H186L126 72H412L404 0H29Z" />
<glyph unicode="M" glyph-name="M" horiz-adv-x="793" d="M596 0L650 511L402 -1H319L177 515L122 0H40L108 642H235L378 127L636 642H753L685 0H596Z" />
<glyph unicode="N" glyph-name="N" horiz-adv-x="582" d="M421 -11Q348 151 162 464L113 1L29 0L98 644H172L423 189L471 640H553L487 11L421 -11Z" />
<glyph unicode="O" glyph-name="O" horiz-adv-x="644" d="M284 -16Q170 -16 102 55Q30 131 30 266Q30 293 33 322Q48 463 140 554T361 646Q477 646 546 569T616 368Q616 345 614 322Q597 162 500 70Q411 -16 284 -16ZM351 572Q246 572 176 475Q113 388 113 278Q113
185 162 123T292 61Q397 61 468 155Q533 242 533 349Q533 445 485 507Q434 572 351 572Z" />
<glyph unicode="P" glyph-name="P" horiz-adv-x="459" d="M238 264Q200 264 146 268L118 0H29L97 640L286 644Q359 646 401 602T443 486Q443 399 385 333Q324 264 238 264ZM268 585L180 583L153 330L231 331Q290 332 324 381Q355 424 355 485Q355 587 268 585Z" />
<glyph unicode="Q" glyph-name="Q" horiz-adv-x="658" d="M569 -70L458 37Q378 -16 286 -16Q173 -16 104 56Q32 132 32 267Q32 294 35 323Q50 464 142 555T364 646Q480 646 549 571T618 372Q618 300 594 221Q566 133 522 92L628 -11L569 -70ZM353 571Q247 571
178 476Q115 390 115 280Q115 187 163 124T291 61Q346 61 401 93L333 159L393 217L463 149Q523 222 533 316Q535 335 535 353Q535 447 487 508Q436 571 353 571Z" />
<glyph unicode="R" glyph-name="R" horiz-adv-x="530" d="M379 -10Q333 42 277 137Q241 198 193 291L149 289L118 0H29L97 641Q299 644 300 644Q456 642 456 501Q456 485 454 467Q445 394 393 348Q348 309 283 296Q310 251 376 152Q410 100 492 10L379 -10ZM267
583L180 581L156 356H221Q301 356 337 389T374 501Q374 585 267 583Z" />
<glyph unicode="S" glyph-name="S" horiz-adv-x="492" d="M203 -10Q143 -10 91 12T14 73L67 137Q120 66 214 66Q267 66 303 94Q343 126 349 183Q355 247 285 280L151 337Q77 380 77 466Q77 480 79 495Q87 569 150 618Q210 666 290 666Q382 666 452 605L404 542Q356
590 282 590Q180 590 169 489Q162 426 263 391Q360 357 391 332Q437 295 437 220Q437 204 435 185Q425 87 353 35Q291 -10 203 -10Z" />
<glyph unicode="T" glyph-name="T" horiz-adv-x="536" d="M345 572L284 0H195L256 572H58L65 639H538L531 572H345Z" />
<glyph unicode="U" glyph-name="U" horiz-adv-x="571" d="M499 230Q486 105 406 39Q337 -17 242 -17Q160 -17 109 30Q52 83 52 187Q52 207 54 230L98 640H187L143 230Q141 210 141 191Q141 58 252 58Q311 58 351 95Q400 140 409 230L453 640H543L499 230Z" />
<glyph unicode="V" glyph-name="V" horiz-adv-x="548" d="M276 -10H211L74 630L161 653L265 131L479 653L551 630L276 -10Z" />
<glyph unicode="W" glyph-name="W" horiz-adv-x="789" d="M557 -6H505L412 459L221 -6H158L48 626L137 645L217 146L403 635H467L547 147L735 645L801 626L557 -6Z" />
<glyph unicode="X" glyph-name="X" horiz-adv-x="552" d="M386 -15L260 263L92 -15L3 5L222 317L81 626L174 645L282 402L437 646L510 626L314 334L483 5L386 -15Z" />
<glyph unicode="Y" glyph-name="Y" horiz-adv-x="503" d="M290 272L262 0H172L200 272L61 627L143 650L257 353L431 650L505 627L290 272Z" />
<glyph unicode="Z" glyph-name="Z" horiz-adv-x="544" d="M135 76H452L444 0H36L37 77L412 574L107 572L114 639H507V567L135 76Z" />
<glyph unicode="[" glyph-name="bracketleft" horiz-adv-x="269" d="M11 -114L101 740H254L249 689H178L100 -44H181L174 -114H11Z" />
<glyph unicode="\" glyph-name="backslash" horiz-adv-x="385" d="M262 -170L57 687L138 704L344 -153L262 -170Z" />
<glyph unicode="]" glyph-name="bracketright" horiz-adv-x="266" d="M5 -114L12 -44H93L171 689H99L104 740H255L165 -114H5Z" />
<glyph unicode="^" glyph-name="asciicircum" horiz-adv-x="536" d="M270 592L140 453L104 505L279 678L420 505L372 453L270 592Z" />
<glyph unicode="_" glyph-name="underscore" horiz-adv-x="536" d="M2 -109L8 -50H533L527 -109H2Z" />
<glyph unicode="`" glyph-name="grave" horiz-adv-x="329" d="M258 556L58 646L112 711L312 615L258 556Z" />
<glyph unicode="a" glyph-name="a" horiz-adv-x="493" d="M365 437Q321 445 290 445Q205 445 156 370Q113 304 113 210Q113 64 203 64Q238 64 286 123T341 242L365 437ZM450 502L409 141Q407 125 407 105Q407 55 418 0H333L331 119L287 44Q244 -11 180 -11Q104
-11 63 58Q30 115 30 197Q30 325 109 416Q191 511 317 511Q349 511 384 507T450 502Z" />
<glyph unicode="b" glyph-name="b" horiz-adv-x="515" d="M234 -10Q170 -10 111 40L92 0H27L102 700H181L154 448Q229 512 286 512Q377 512 428 447Q474 389 474 296Q474 278 472 259Q458 128 392 57Q330 -10 234 -10ZM277 443Q186 443 146 371L118 108Q133 84
168 70Q200 56 233 56Q360 56 382 256Q384 275 384 293Q384 443 277 443Z" />
<glyph unicode="c" glyph-name="c" horiz-adv-x="479" d="M241 -12Q125 -12 73 67Q37 124 37 209Q37 226 38 242Q53 377 135 448Q205 508 298 507Q386 506 450 454L401 388Q366 416 345 426Q317 439 280 439Q213 439 169 378Q130 323 121 238Q119 223 119 209Q119
137 159 95Q195 57 249 57Q321 57 389 112L422 60Q341 -12 241 -12Z" />
<glyph unicode="d" glyph-name="d" horiz-adv-x="511" d="M412 0H346L338 42Q251 -13 193 -13Q112 -13 66 55Q25 115 25 206Q25 326 86 413Q155 512 270 512Q340 512 382 454L408 697H486L412 0ZM374 380Q351 417 328 430T259 443Q185 443 146 363Q115 299 115
217Q115 148 142 106Q171 61 227 61Q288 61 345 106L374 380Z" />
<glyph unicode="e" glyph-name="e" horiz-adv-x="484" d="M378 378Q378 413 356 427T283 441Q202 441 157 374Q129 332 121 285Q186 282 292 303Q379 320 378 378ZM115 227Q113 213 114 187Q115 158 129 124T182 71Q214 56 249 56Q306 56 388 120L421 64Q331 -12
234 -12Q42 -12 31 184Q24 312 91 404Q165 507 297 507Q365 507 407 475Q454 439 454 369Q454 325 413 288Q377 257 332 247Q229 224 165 224Q141 224 115 227Z" />
<glyph unicode="f" glyph-name="f" horiz-adv-x="324" d="M365 651Q322 681 283 682Q248 683 224 651Q197 617 192 558L185 495H324L317 430H178L111 -172H35L102 430H24L31 495H109L116 561Q123 630 157 679Q204 746 289 746Q333 746 356 736Q363 733 409 702L365 651Z" />
<glyph unicode="g" glyph-name="g" horiz-adv-x="511" d="M436 62Q420 -93 384 -155Q330 -249 198 -249Q83 -249 12 -155L60 -99Q115 -179 214 -179Q287 -179 318 -112Q333 -81 344 0L358 99Q304 -10 233 -10Q144 -10 93 51Q46 107 46 195Q46 221 51 248Q68 347
121 415Q192 505 307 505Q355 505 380 503T434 500H482L436 62ZM396 434Q351 442 307 442Q221 441 173 364Q132 299 132 208Q132 148 157 107Q187 60 240 60Q281 60 326 115Q363 161 366 188T396 434Z" />
<glyph unicode="h" glyph-name="h" horiz-adv-x="512" d="M334 0L369 325Q370 336 370 346Q370 395 343 421Q321 443 287 443Q242 443 193 407T141 340L105 0H26L100 696H179L152 439Q200 480 232 495T302 511Q362 511 404 470Q449 426 449 359Q449 348 448 338L412
0H334Z" />
<glyph unicode="i" glyph-name="i" horiz-adv-x="233" d="M165 602T143 602T107 617T95 657Q97 680 114 695T155 711Q176 711 190 696T202 657Q199 633 182 618ZM33 0L86 495H167L114 0H33Z" />
<glyph unicode="j" glyph-name="j" horiz-adv-x="233" d="M190 604T168 604T132 619T120 658Q122 681 139 696T179 712Q202 712 216 697T228 658Q225 635 208 620ZM20 -109Q-11 -131 -54 -143L-30 -218Q27 -197 63 -172Q122 -131 130 -65L146 90L189 495H110L56
-21Q52 -54 48 -69Q39 -96 20 -109Z" />
<glyph unicode="k" glyph-name="k" d="M357 -25L164 226L127 192L106 0H27L101 697H180L136 276L380 521L443 475L223 272L431 18L357 -25Z" />
<glyph unicode="l" glyph-name="l" horiz-adv-x="234" d="M119 0H41L115 698H193L119 0Z" />
<glyph unicode="m" glyph-name="m" horiz-adv-x="776" d="M607 0L644 346Q654 443 566 443Q538 443 493 411Q438 373 433 322L399 0H321L358 351Q363 397 340 421Q320 442 286 442Q245 442 200 405T150 331L115 0H36L88 495H167L160 425Q245 507 309 507Q347 507
378 482T422 416Q516 512 590 512Q654 512 693 460Q729 411 723 351L686 0H607Z" />
<glyph unicode="n" glyph-name="n" horiz-adv-x="512" d="M344 0L378 325Q380 336 380 346Q380 395 353 421Q331 443 297 443Q257 443 209 411Q155 374 150 328L115 0H36L88 495H167L161 439Q210 480 242 495T313 511Q371 511 413 470Q459 425 459 358Q459 348
458 338L422 0H344Z" />
<glyph unicode="o" glyph-name="o" horiz-adv-x="546" d="M247 -11Q129 -11 76 68Q37 124 37 213Q37 233 39 252Q53 381 141 453Q214 512 304 512Q385 512 442 461Q509 401 509 291Q509 272 507 252Q498 163 444 89Q370 -11 247 -11ZM302 445Q214 445 165 369Q123
304 123 213Q123 144 152 102Q186 54 250 54Q335 54 383 131Q423 196 423 286Q423 355 395 397Q363 445 302 445Z" />
<glyph unicode="p" glyph-name="p" horiz-adv-x="517" d="M240 -13Q177 -13 130 44L104 -197H25L99 495H178L173 448Q246 512 297 512Q494 512 494 315Q494 183 436 93Q367 -13 240 -13ZM288 445Q252 445 215 422T164 364L136 101Q192 54 252 54Q316 54 360 124Q396
182 403 253Q405 276 405 296Q405 445 288 445Z" />
<glyph unicode="q" glyph-name="q" horiz-adv-x="511" d="M330 -197L357 54Q257 -13 207 -13Q133 -13 89 49T45 211Q45 233 48 257Q58 358 110 426Q176 513 291 512Q322 512 356 492Q386 475 400 455L404 495H484L410 -197H330ZM390 365Q383 400 354 423T287 446Q209
446 166 368Q131 304 131 220Q131 152 163 107T247 61Q300 61 363 106L390 365Z" />
<glyph unicode="r" glyph-name="r" horiz-adv-x="342" d="M315 410Q274 422 262 422Q229 421 186 368Q148 320 146 299L115 0H36L89 495H168L156 395Q238 506 293 506Q310 506 347 490L315 410Z" />
<glyph unicode="s" glyph-name="s" horiz-adv-x="437" d="M186 -14Q83 -14 26 44L73 105Q119 55 201 55Q241 55 273 85Q302 112 305 141Q311 194 235 217Q192 227 119 255Q64 285 71 357Q79 435 136 477Q185 515 253 514T392 468L359 405Q294 450 243 450Q156
450 148 377Q144 339 183 323L322 276Q397 239 389 159Q381 75 319 28Q264 -14 186 -14Z" />
<glyph unicode="t" glyph-name="t" horiz-adv-x="351" d="M182 -8Q139 -8 111 26T83 119Q83 132 84 145L114 430H35L42 496H121L132 597H211L200 496H349L342 429L193 430L162 133Q155 66 212 66Q243 66 295 111L328 57Q265 -8 182 -8Z" />
<glyph unicode="u" glyph-name="u" horiz-adv-x="511" d="M421 0H350L344 52Q263 -18 184 -18Q130 -18 93 22Q53 64 53 134Q53 147 55 160L90 495H169L134 164Q133 152 133 141Q133 53 210 53Q257 53 306 90T360 164L395 495H473L421 0Z" />
<glyph unicode="v" glyph-name="v" horiz-adv-x="464" d="M234 -12H180L47 479L128 501L223 115L393 501L467 479L234 -12Z" />
<glyph unicode="w" glyph-name="w" horiz-adv-x="735" d="M534 -9H473L382 361L211 -9H148L52 479L131 499L200 104L364 492H434L521 105L668 499L739 479L534 -9Z" />
<glyph unicode="x" glyph-name="x" horiz-adv-x="492" d="M383 -26L242 190L58 -24L-4 21L201 246L62 464L140 508L260 310L427 507L485 472L293 251L455 20L383 -26Z" />
<glyph unicode="y" glyph-name="y" horiz-adv-x="480" d="M224 -84Q203 -127 159 -159Q109 -196 54 -196Q39 -196 -13 -178L20 -107Q45 -120 68 -121Q114 -122 156 -62Q159 -57 205 26L65 478L144 499L252 129L424 498L493 481L224 -84Z" />
<glyph unicode="z" glyph-name="z" horiz-adv-x="482" d="M27 0L34 66L294 369Q317 395 351 430H82L89 494H451L444 424L192 125Q179 110 141 70H420L413 0H27Z" />
<glyph unicode="{" glyph-name="braceleft" horiz-adv-x="536" d="M444 748Q404 761 388 761Q343 761 326 740Q306 713 296 625Q294 599 292 554T288 494Q280 422 190 348L187 323Q216 300 236 260Q261 212 261 160Q261 150 260 139Q258 116 248 58T235 -23Q229
-82 232 -97Q239 -126 275 -126Q319 -126 346 -105L358 -180Q295 -199 264 -197Q192 -193 165 -145Q144 -108 146 -36Q147 -9 154 51Q155 65 161 106T170 172Q175 214 156 257Q140 294 112 319L117 359Q160 398 173 417Q200 453 205 497Q207 521 209 567T213 633Q235
834 394 834Q419 834 466 823L444 748Z" />
<glyph unicode="|" glyph-name="bar" horiz-adv-x="229" d="M37 -220L133 686H221L125 -220H37Z" />
<glyph unicode="}" glyph-name="braceright" horiz-adv-x="536" d="M341 172Q339 148 337 107T333 51Q327 -5 322 -32Q313 -81 298 -113Q261 -193 169 -197Q138 -198 79 -180L107 -105Q130 -126 174 -126Q224 -126 231 -64Q233 -51 236 -23Q238 0 240 58T245 139Q251
197 289 252Q320 298 356 323L359 348Q285 422 293 494Q294 507 306 589Q315 647 315 685Q315 733 299 749Q286 761 249 761Q233 761 191 748L183 823Q233 834 259 834Q399 834 399 677Q399 642 390 587Q378 513 376 497Q371 453 390 417Q400 398 434 359L431 319Q351
259 341 172Z" />
<glyph unicode="~" glyph-name="asciitilde" horiz-adv-x="395" d="M273 379Q249 379 217 406T167 434Q138 434 96 381L85 453Q126 497 176 497Q211 497 255 463Q273 449 288 449Q304 449 322 469Q330 476 340 486L351 416Q310 379 273 379Z" />
<glyph unicode="&#xa0;" glyph-name="nbspace" horiz-adv-x="273" />
<glyph unicode="&#xa1;" glyph-name="exclamdown" horiz-adv-x="235" d="M89 501H173L109 -103H25L89 501ZM157 706Q182 706 196 690T209 649Q206 625 188 608T145 591T106 608T94 649Q96 673 114 689T157 706Z" />
<glyph unicode="&#xa2;" glyph-name="cent" horiz-adv-x="479" d="M197 -10Q106 4 65 79Q35 133 35 208Q35 226 37 242Q50 360 115 430Q170 490 252 504L261 590H350L341 505Q403 494 451 454L400 386Q343 435 280 435Q213 435 170 376Q131 323 122 238Q120 223
120 209Q120 137 160 97Q195 61 249 61Q324 61 389 114L423 60Q359 3 286 -9L278 -89H189L197 -10Z" />
<glyph unicode="&#xa3;" glyph-name="sterling" d="M391 -7Q340 7 264 7Q132 7 44 -14L41 54Q56 58 81 67Q87 69 99 80Q137 113 143 171Q150 236 143 301H83L90 370H143Q138 460 139 476Q148 553 194 602Q244 656 325 656Q387 656 439 624L403 563Q345 592 324
592Q278 592 247 556T210 472Q208 451 211 421Q213 395 216 370H352L345 301H226Q225 240 219 178Q211 101 178 76Q258 87 288 87Q356 87 415 70L391 -7Z" />
<glyph unicode="&#xa5;" glyph-name="yen" horiz-adv-x="531" d="M296 283L294 265H380L374 206H288L281 146H367L361 87H275L266 2H177L186 87H97L103 146H192L199 206H110L116 265H205L207 283L67 641H157L261 377L421 641H512L296 283Z" />
<glyph unicode="&#xa7;" glyph-name="section" horiz-adv-x="392" d="M157 -87Q80 -87 32 -35L69 14Q108 -31 168 -31Q195 -31 218 -11Q238 8 240 27Q242 52 223 66Q211 74 181 82Q168 85 144 92Q134 94 127 98Q65 120 71 183Q78 243 127 274Q83 298 89 351Q95
408 137 439Q174 467 222 466Q275 465 327 431L299 381Q249 415 215 415Q182 415 168 402T151 357Q149 340 175 328L237 310Q331 282 323 208Q316 147 272 117Q310 93 305 40Q299 -22 254 -56Q214 -87 157 -87ZM189 253Q139 247 133 189Q131 167 183 152L213 143Q254
160 258 195Q260 221 240 234Q227 243 189 253Z" />
<glyph unicode="&#xa8;" glyph-name="dieresis" horiz-adv-x="306" d="M273 546T249 546T214 562T205 598T221 634T261 650Q284 650 295 634T305 598Q303 578 288 562ZM39 546Q16 546 5 562T-5 598T12 634T51 650Q74 650 85 634T95 598T78 562T39 546Z" />
<glyph unicode="&#xa9;" glyph-name="copyright" horiz-adv-x="796" d="M396 102Q309 102 260 169Q217 228 217 318Q217 403 261 462Q311 529 398 530Q458 530 519 495L495 444Q436 480 401 480Q337 480 302 419Q275 371 275 310Q275 242 310 198T396 153Q449
153 498 181L523 139Q453 102 396 102ZM132 426T132 316T210 128T398 50T586 128T664 316T586 504T398 582T210 504ZM67 179T67 316T164 550T398 647T632 550T729 316T632 82T398 -15T164 82Z" />
<glyph unicode="&#xaa;" glyph-name="ordfeminine" horiz-adv-x="246" />
<glyph unicode="&#xab;" glyph-name="guillemotleft" horiz-adv-x="390" d="M240 286L371 125L300 122L147 289L300 451L371 448L240 286ZM99 286L229 125L159 122L5 289L159 451L229 448L99 286Z" />
<glyph unicode="&#xac;" glyph-name="logicalnot" horiz-adv-x="613" d="M474 28V250H88V343H558V28H474Z" />
<glyph unicode="&#xae;" glyph-name="registered" horiz-adv-x="796" d="M133 316H132Q132 206 210 128T398 50T586 128T664 316T586 504T398 582T211 504T133 316ZM67 179T67 316T164 550T398 647T632 550T729 316T632 82T398 -15T164 82ZM491 108Q457 142 415
202Q388 241 352 300L323 299V114H266V524Q363 526 395 526Q507 525 506 413Q505 322 408 304L477 211Q501 180 562 121L491 108ZM379 487L323 486V342H365Q416 342 435 361T454 420Q454 488 379 487Z" />
<glyph unicode="&#xaf;" glyph-name="overscore" horiz-adv-x="406" d="M102 594L108 659H342L336 594H102Z" />
<glyph unicode="&#xb0;" glyph-name="degree" horiz-adv-x="273" d="M152 712Q208 712 241 675T268 582T221 490T124 452T34 490T5 582T53 674T152 712ZM180 662T146 662T87 639T58 582T74 525T130 502Q163 502 187 525T215 582T200 639Z" />
<glyph unicode="&#xb1;" glyph-name="plusminus" horiz-adv-x="501" d="M279 280V95H217V279L53 280V342H217V517H279V342H446V280H279ZM66 12V66H440V12H66Z" />
<glyph unicode="&#xb4;" glyph-name="acute" horiz-adv-x="329" d="M96 557L55 616L275 712L315 647L96 557Z" />
<glyph unicode="&#xb5;" glyph-name="mu" horiz-adv-x="508" d="M422 -61Q360 -23 355 61L285 0Q256 -22 223 -22Q194 -22 168 -9Q139 5 129 29L105 -196H32L104 486H177L141 144Q131 47 247 47Q286 47 323 83Q359 116 362 149L398 487H478L439 116Q433 68 446
38Q455 15 466 7Q484 -5 491 -13L422 -61Z" />
<glyph unicode="&#xb6;" glyph-name="paragraph" horiz-adv-x="507" d="M437 0H368V642H437V0ZM297 0H228V337H203Q49 337 50 493Q50 575 89 610Q125 642 206 642H297V0Z" />
<glyph unicode="&#xb7;" glyph-name="middot" horiz-adv-x="236" d="M120 334Q92 334 75 357T61 413Q65 446 87 469T136 492Q164 492 181 469T194 413Q191 380 169 357T120 334Z" />
<glyph unicode="&#xb8;" glyph-name="cedilla" horiz-adv-x="205" d="M89 -219Q24 -219 8 -171L48 -137Q74 -169 95 -169Q131 -169 135 -135Q139 -96 105 -96Q91 -96 69 -111L25 -90L40 4L98 5L88 -47Q98 -43 114 -43Q156 -43 178 -72Q198 -97 194 -132Q191 -167
163 -193T89 -219Z" />
<glyph unicode="&#xba;" glyph-name="ordmasculine" horiz-adv-x="1061" />
<glyph unicode="&#xbb;" glyph-name="guillemotright" horiz-adv-x="393" d="M215 122L144 125L275 286L144 448L215 451L368 289L215 122ZM74 122L2 125L133 286L2 448L74 451L226 289L74 122Z" />
<glyph unicode="&#xbf;" glyph-name="questiondown" horiz-adv-x="459" d="M102 222Q160 261 184 330Q206 391 207 479H287Q288 465 288 449Q288 373 264 304Q236 224 184 183T123 133Q92 102 89 69Q84 23 110 -4T178 -31Q272 -31 317 72L381 38Q308 -103 174
-103Q91 -103 45 -47Q4 4 11 70Q21 169 102 222ZM268 681Q291 681 305 665T318 624Q315 599 297 583T255 566T216 583T203 624Q205 648 224 664T268 681Z" />
<glyph unicode="&#xc0;" glyph-name="Agrave" horiz-adv-x="580" d="M413 -10L374 179H149L72 -10L-9 0L272 654H353L499 4L413 -10ZM301 551L177 248H361L301 551ZM394 686L194 776L248 841L448 745L394 686Z" />
<glyph unicode="&#xc1;" glyph-name="Aacute" horiz-adv-x="568" d="M413 -10L374 179H149L72 -10L-9 0L272 654H353L499 4L413 -10ZM301 551L177 248H361L301 551ZM232 687L191 746L411 842L451 777L232 687Z" />
<glyph unicode="&#xc2;" glyph-name="Acircumflex" horiz-adv-x="568" d="M413 -10L374 179H149L72 -10L-9 0L272 654H353L499 4L413 -10ZM301 551L177 248H361L301 551ZM318 749L172 656L179 727L328 840L458 727L451 656L318 749Z" />
<glyph unicode="&#xc3;" glyph-name="Atilde" horiz-adv-x="580" d="M415 -10L376 179H151L74 -10L-7 0L274 654H355L501 4L415 -10ZM303 551L179 248H363L303 551ZM393 669Q365 669 323 703T265 738Q226 738 191 696L170 755Q186 776 218 790Q247 804 272 805Q300
806 339 772T398 737Q423 737 451 762L470 702Q460 691 433 680T393 669Z" />
<glyph unicode="&#xc4;" glyph-name="Adieresis" horiz-adv-x="580" d="M415 -10L376 179H151L74 -10L-7 0L275 654H356L502 4L415 -10ZM304 551L180 248H364L304 551ZM428 694Q403 694 391 711Q381 725 383 746Q385 766 400 781T439 797Q462 797 473 781T483
746Q481 726 466 710T428 694ZM218 694Q193 694 181 711Q171 725 173 746Q175 766 190 781T229 797Q252 797 263 781T273 746Q271 726 256 710T218 694Z" />
<glyph unicode="&#xc5;" glyph-name="Aring" horiz-adv-x="580" d="M412 -10L373 179H148L71 -10L-10 0L271 654H352L498 4L412 -10ZM300 551L176 248H360L300 551ZM361 686T321 686T258 710T239 773Q243 810 271 834T339 859T402 835T421 773Q417 735 389 711ZM377
816T334 816T287 773Q282 729 325 729T373 773Q377 816 334 816Z" />
<glyph unicode="&#xc6;" glyph-name="AE" horiz-adv-x="862" d="M305 551L182 248H366L305 551ZM578 568L558 375H810L802 300L550 301L526 76L793 77L785 0H415L379 179H154L76 -10L-5 0L277 654H357L453 227L497 640H856L848 568H578Z" />
<glyph unicode="&#xc7;" glyph-name="Ccedilla" horiz-adv-x="570" d="M301 -219Q237 -219 220 -171L260 -137Q285 -169 308 -169Q343 -169 346 -135Q350 -96 317 -96Q303 -96 281 -111L237 -90L251 -5Q149 8 94 91Q46 165 46 277Q46 427 128 537Q218 659 365
660Q414 660 474 639Q520 623 549 605L502 526Q417 582 361 582Q261 582 197 487Q146 413 136 317Q134 298 134 280Q134 188 180 130T299 72Q384 72 465 115L496 50Q434 19 401 8Q359 -6 308 -8L301 -47Q310 -43 326 -43Q368 -43 391 -72Q410 -97 407 -132Q403
-167 377 -192Q347 -219 301 -219Z" />
<glyph unicode="&#xc8;" glyph-name="Egrave" horiz-adv-x="489" d="M173 568L152 375H404L396 300L144 301L120 76L388 77L379 0H23L91 640H450L443 568H173ZM362 686L164 776L217 841L417 745L362 686Z" />
<glyph unicode="&#xc9;" glyph-name="Eacute" horiz-adv-x="469" d="M173 568L152 375H404L396 300L144 301L120 76L388 77L379 0H23L91 640H450L443 568H173ZM200 687L160 746L381 842L421 777L200 687Z" />
<glyph unicode="&#xca;" glyph-name="Ecircumflex" horiz-adv-x="489" d="M173 568L152 375H404L396 300L144 301L121 76L388 77L379 0H23L91 640H450L443 568H173ZM287 749L139 656L147 727L297 840L427 727L419 656L287 749Z" />
<glyph unicode="&#xcb;" glyph-name="Edieresis" horiz-adv-x="489" d="M175 568L154 375H406L398 300L147 301L123 76L390 77L382 0H26L93 640H452L445 568H175ZM420 696T396 696T361 712T352 748T368 784T407 800Q430 800 442 784T452 748Q450 728 435 712ZM187
696Q163 696 152 712T143 748T159 784T198 800Q221 800 232 784T242 748T225 712T187 696Z" />
<glyph unicode="&#xcc;" glyph-name="Igrave" horiz-adv-x="215" d="M23 0L91 642H180L112 0H23ZM226 686L27 776L81 841L280 745L226 686Z" />
<glyph unicode="&#xcd;" glyph-name="Iacute" horiz-adv-x="215" d="M23 0L91 642H180L112 0H23ZM64 687L23 746L244 842L284 777L64 687Z" />
<glyph unicode="&#xce;" glyph-name="Icircumflex" horiz-adv-x="215" d="M23 0L92 642H181L112 0H23ZM150 749L3 656L11 727L160 840L290 727L282 656L150 749Z" />
<glyph unicode="&#xcf;" glyph-name="Idieresis" horiz-adv-x="215" d="M26 0L94 642H183L115 0H26ZM273 696T249 696T214 712T205 748T221 784T260 800Q283 800 295 784T305 748Q303 728 288 712ZM40 696Q16 696 5 712T-4 748T12 784T51 800Q74 800 85 784T95
748T78 712T40 696Z" />
<glyph unicode="&#xd1;" glyph-name="Ntilde" horiz-adv-x="570" d="M418 -11Q345 151 159 464L110 1L26 0L95 644H169L420 189L468 640H550L484 11L418 -11ZM413 659Q386 659 344 693T286 728Q246 728 211 686L190 745Q207 766 239 780Q268 794 293 795Q320 796
359 762T418 727Q443 727 471 752L491 692Q481 681 454 670T413 659Z" />
<glyph unicode="&#xd2;" glyph-name="Ograve" horiz-adv-x="644" d="M279 -16Q165 -16 96 55Q24 131 24 266Q24 293 27 322Q42 463 135 554T356 646Q472 646 541 569T611 368Q611 345 608 322Q591 162 495 70Q406 -16 279 -16ZM346 572Q240 572 171 475Q108 388
108 278Q108 185 157 123T287 61Q391 61 462 155Q527 242 527 349Q527 445 478 508T346 572ZM437 686L238 776L291 841L491 745L437 686Z" />
<glyph unicode="&#xd3;" glyph-name="Oacute" horiz-adv-x="644" d="M279 -16Q165 -16 96 55Q24 131 24 266Q24 293 27 322Q42 463 135 554T356 646Q472 646 541 569T611 368Q611 345 608 322Q591 162 495 70Q406 -16 279 -16ZM346 572Q240 572 170 475Q108 388
108 278Q108 185 157 123T287 61Q391 61 462 155Q527 242 527 349Q527 445 478 508T346 572ZM275 687L234 746L454 842L495 777L275 687Z" />
<glyph unicode="&#xd4;" glyph-name="Ocircumflex" horiz-adv-x="644" d="M278 -16Q164 -16 96 55Q24 131 24 266Q24 293 27 322Q42 463 134 554T355 646Q471 646 540 569T610 368Q610 345 608 322Q591 162 495 70Q405 -16 278 -16ZM345 572Q240 572 170 475Q107
388 107 278Q107 185 156 123T286 61Q391 61 462 155Q527 242 527 349Q527 445 479 507Q428 572 345 572ZM369 759L221 666L229 737L379 850L509 737L501 666L369 759Z" />
<glyph unicode="&#xd5;" glyph-name="Otilde" horiz-adv-x="648" d="M280 -16Q167 -16 98 55Q26 131 26 266Q26 293 29 322Q44 463 136 554T358 646Q474 646 543 569T613 368Q613 345 610 322Q593 162 497 70Q408 -16 280 -16ZM348 572Q242 572 172 475Q110 388
110 278Q110 185 159 123T289 61Q393 61 464 155Q529 242 529 349Q529 445 480 508T348 572ZM414 669Q387 669 345 703T286 738Q247 738 212 696L191 755Q208 776 238 790T293 805Q321 806 360 772T419 737Q444 737 472 762L492 702Q481 691 454 680T414 669Z"
/>
<glyph unicode="&#xd6;" glyph-name="Odieresis" horiz-adv-x="648" d="M281 -16Q167 -16 99 55Q26 131 26 266Q26 293 30 322Q45 463 137 554T358 646Q474 646 543 569T613 368Q613 345 611 322Q594 162 498 70Q408 -16 281 -16ZM348 572Q242 572 173 475Q110
388 110 278Q110 185 159 123T289 61Q393 61 464 155Q530 242 530 349Q530 445 481 508T348 572ZM471 696Q447 696 436 712T427 748T443 784T482 800Q505 800 517 784T527 748Q525 728 510 712T471 696ZM261 696Q237 696 226 712T217 748T233 784T272 800Q295 800
307 784T317 748Q315 728 300 712T261 696Z" />
<glyph unicode="&#xd8;" glyph-name="Oslash" horiz-adv-x="644" d="M194 93L390 568Q374 572 352 572Q247 572 177 475Q114 388 114 279Q114 153 194 93ZM461 533L267 63Q285 61 293 61Q397 61 468 155Q534 242 534 349Q534 470 461 533ZM437 682L512 658L493
612Q617 541 617 367Q617 345 615 322Q598 162 501 70Q412 -16 285 -16Q257 -16 236 -12L213 -69L138 -45L161 12Q31 80 31 266Q31 293 34 322Q49 463 141 554T362 646Q393 646 419 640L437 682Z" />
<glyph unicode="&#xd9;" glyph-name="Ugrave" horiz-adv-x="571" d="M494 230Q480 105 400 39Q332 -17 237 -17Q154 -17 104 30Q46 83 46 187Q46 207 49 230L92 640H181L138 230Q136 210 136 191Q136 58 247 58Q305 58 346 95Q394 140 404 230L447 640H537L494
230ZM395 686L196 776L249 841L449 745L395 686Z" />
<glyph unicode="&#xda;" glyph-name="Uacute" horiz-adv-x="571" d="M494 230Q480 105 400 39Q332 -17 236 -17Q154 -17 104 30Q46 83 46 187Q46 207 49 230L92 640H181L138 230Q135 210 135 191Q135 58 247 58Q305 58 345 95Q394 140 404 230L447 640H537L494
230ZM233 687L192 746L413 842L453 777L233 687Z" />
<glyph unicode="&#xdb;" glyph-name="Ucircumflex" horiz-adv-x="571" d="M493 230Q480 105 399 39Q331 -17 236 -17Q153 -17 103 30Q46 83 46 187Q46 207 48 230L92 640H181L137 230Q135 210 135 191Q135 58 247 58Q305 58 345 95Q394 140 403 230L447 640H537L493
230ZM319 759L171 666L179 737L329 850L459 737L451 666L319 759Z" />
<glyph unicode="&#xdc;" glyph-name="Udieresis" horiz-adv-x="521" d="M496 230Q483 105 402 39Q334 -17 239 -17Q156 -17 106 30Q48 83 48 187Q48 207 51 230L94 640H183L140 230Q138 210 138 191Q138 58 250 58Q308 58 348 95Q396 140 406 230L449 640H539L496
230ZM418 696Q394 696 383 712T374 748T390 784T429 800Q452 800 464 784T474 748Q472 728 457 712T418 696ZM209 696Q185 696 174 712T165 748T181 784T220 800Q243 800 254 784T264 748T247 712T209 696Z" />
<glyph unicode="&#xdf;" glyph-name="germandbls" horiz-adv-x="549" d="M295 -15Q233 -15 195 -1Q152 16 119 58L168 123Q193 82 224 69Q248 59 298 59Q336 59 365 82T399 138Q404 190 329 216L251 241Q206 258 186 281Q160 311 165 360Q174 445 231 484Q274
514 336 514Q356 514 375 511Q383 521 391 538Q391 545 392 564Q396 601 361 625T281 649Q228 649 194 620Q156 588 150 529L94 0H16L72 529Q92 715 293 715Q376 715 423 674T471 560Q471 540 467 521Q460 481 422 428Q378 444 328 447Q296 449 271 428T243 375Q240
351 266 334Q284 323 332 307Q397 286 409 281Q453 261 469 233Q487 199 481 144Q474 79 418 32T295 -15Z" />
<glyph unicode="&#xe0;" glyph-name="agrave" horiz-adv-x="491" d="M406 556L212 646L269 711L464 615L406 556ZM365 437Q321 445 290 445Q205 445 156 370Q113 304 113 210Q113 64 203 64Q238 64 286 123T341 242L365 437ZM450 502L409 141Q407 125 407 105Q407
55 418 0H333L331 119L287 44Q244 -11 180 -11Q104 -11 63 58Q30 115 30 197Q30 325 109 416Q191 511 317 511Q349 511 384 507T450 502Z" />
<glyph unicode="&#xe1;" glyph-name="aacute" horiz-adv-x="491" d="M265 557L228 616L453 712L489 647L265 557ZM365 437Q321 445 290 445Q205 445 156 370Q113 304 113 210Q113 64 203 64Q238 64 286 123T341 242L365 437ZM450 502L409 141Q407 125 407 105Q407
55 418 0H333L331 119L287 44Q244 -11 180 -11Q104 -11 63 58Q30 115 30 197Q30 325 109 416Q191 511 317 511Q349 511 384 507T450 502Z" />
<glyph unicode="&#xe2;" glyph-name="acircumflex" horiz-adv-x="491" d="M315 619L163 526L174 597L329 710L454 597L442 526L315 619ZM365 437Q321 445 290 445Q205 445 156 370Q113 304 113 210Q113 64 203 64Q238 64 286 123T341 242L365 437ZM450 502L409
141Q407 125 407 105Q407 55 418 0H333L331 119L287 44Q244 -11 180 -11Q104 -11 63 58Q30 115 30 197Q30 325 109 416Q191 511 317 511Q349 511 384 507T450 502Z" />
<glyph unicode="&#xe3;" glyph-name="atilde" horiz-adv-x="525" d="M381 549Q353 549 312 583T256 618Q217 618 179 576L162 635Q180 656 211 670T267 685Q295 686 332 652T389 617Q413 617 443 642L460 582Q449 571 421 560T381 549ZM365 437Q321 445 290 445Q205
445 156 370Q113 304 113 210Q113 64 203 64Q238 64 286 123T341 242L365 437ZM450 502L409 141Q407 125 407 105Q407 55 418 0H333L331 119L287 44Q244 -11 180 -11Q104 -11 63 58Q30 115 30 197Q30 325 109 416Q191 511 317 511Q349 511 384 507T450 502Z" />
<glyph unicode="&#xe4;" glyph-name="adieresis" horiz-adv-x="491" d="M424 546Q400 546 390 562T382 598T400 634T440 650Q463 650 474 634T482 598Q479 578 463 562T424 546ZM214 546Q190 546 180 562T172 598T190 634T230 650T264 634T272 598Q269 578 253
562T214 546ZM365 437Q321 445 290 445Q205 445 156 370Q113 304 113 210Q113 64 203 64Q238 64 286 123T341 242L365 437ZM450 502L409 141Q407 125 407 105Q407 55 418 0H333L331 119L287 44Q244 -11 180 -11Q104 -11 63 58Q30 115 30 197Q30 325 109 416Q191
511 317 511Q349 511 384 507T450 502Z" />
<glyph unicode="&#xe5;" glyph-name="aring" horiz-adv-x="491" d="M247 566Q211 566 190 585T169 637Q169 680 199 709T274 739Q310 739 331 719T352 668Q352 625 321 596T247 566ZM267 696Q225 696 218 653Q211 609 254 609Q296 609 303 653Q310 696 267 696ZM365
437Q321 445 290 445Q205 445 156 370Q113 304 113 210Q113 64 203 64Q238 64 286 123T341 242L365 437ZM450 502L409 141Q407 125 407 105Q407 55 418 0H333L331 119L287 44Q244 -11 180 -11Q104 -11 63 58Q30 115 30 197Q30 325 109 416Q191 511 317 511Q349
511 384 507T450 502Z" />
<glyph unicode="&#xe6;" glyph-name="ae" horiz-adv-x="775" d="M667 332Q678 441 570 441Q497 441 463 405Q436 379 410 300H664L667 332ZM309 37Q291 25 253 4Q207 -16 151 -16Q97 -16 62 16T27 107Q27 117 28 127Q37 208 90 244Q123 267 215 288Q272 301 325
306L332 366Q335 399 312 420T254 441Q199 441 115 377L80 433Q115 462 176 488Q233 512 262 512Q365 512 399 429Q472 507 585 507Q651 507 697 458Q744 406 744 326Q744 312 742 298L736 237H396Q392 197 393 179Q395 156 409 125Q424 91 468 71Q504 56 541 56Q600
56 678 120L713 64Q623 -12 525 -12Q401 -12 351 73L309 37ZM317 233Q304 233 238 222T149 199Q106 177 100 126Q96 93 112 72Q129 47 169 47Q208 47 251 68Q303 93 307 132L317 233Z" />
<glyph unicode="&#xe7;" glyph-name="ccedilla" horiz-adv-x="483" d="M224 -219Q160 -219 146 -171L188 -137Q211 -169 233 -169Q270 -169 275 -135Q281 -96 248 -96Q233 -96 210 -111L168 -90L187 -6Q51 24 42 188Q35 313 103 406Q178 508 306 507Q393 507 456
454L407 388Q347 439 287 439Q207 439 160 352Q121 278 125 194Q128 129 167 91Q202 57 253 57Q325 57 392 112L426 60Q343 -12 245 -12H243L234 -47Q243 -43 259 -43Q296 -43 318 -66Q336 -87 336 -117Q336 -162 303 -190T224 -219Z" />
<glyph unicode="&#xe8;" glyph-name="egrave" horiz-adv-x="497" d="M418 556L223 646L280 711L475 615L418 556ZM378 378Q378 413 356 427T283 441Q202 441 157 374Q129 332 121 285Q186 282 292 303Q379 320 378 378ZM115 227Q113 213 114 187Q115 158 129 124T182
71Q214 56 249 56Q306 56 388 120L421 64Q331 -12 234 -12Q42 -12 31 184Q24 312 91 404Q165 507 297 507Q365 507 407 475Q454 439 454 369Q454 325 413 288Q377 257 332 247Q229 224 165 224Q141 224 115 227Z" />
<glyph unicode="&#xe9;" glyph-name="eacute" horiz-adv-x="497" d="M275 557L238 616L463 712L500 647L275 557ZM378 378Q378 413 356 427T283 441Q202 441 157 374Q129 332 121 285Q186 282 292 303Q379 320 378 378ZM115 227Q113 213 114 187Q115 158 129 124T182
71Q214 56 249 56Q306 56 388 120L421 64Q331 -12 234 -12Q42 -12 31 184Q24 312 91 404Q165 507 297 507Q365 507 407 475Q454 439 454 369Q454 325 413 288Q377 257 332 247Q229 224 165 224Q141 224 115 227Z" />
<glyph unicode="&#xea;" glyph-name="ecircumflex" horiz-adv-x="497" d="M337 619L185 526L196 597L351 710L476 597L464 526L337 619ZM378 378Q378 413 356 427T283 441Q202 441 157 374Q129 332 121 285Q186 282 292 303Q379 320 378 378ZM115 227Q113 213
114 187Q115 158 129 124T182 71Q214 56 249 56Q306 56 388 120L421 64Q331 -12 234 -12Q42 -12 31 184Q24 312 91 404Q165 507 297 507Q365 507 407 475Q454 439 454 369Q454 325 413 288Q377 257 332 247Q229 224 165 224Q141 224 115 227Z" />
<glyph unicode="&#xeb;" glyph-name="edieresis" horiz-adv-x="497" d="M445 546Q421 546 411 562T403 598T421 634T461 650Q484 650 495 634T503 598Q500 578 484 562T445 546ZM235 546Q211 546 201 562T193 598T211 634T251 650T285 634T293 598Q290 578 274
562T235 546ZM378 378Q378 413 356 427T283 441Q202 441 157 374Q129 332 121 285Q186 282 292 303Q379 320 378 378ZM115 227Q113 213 114 187Q115 158 129 124T182 71Q214 56 249 56Q306 56 388 120L421 64Q331 -12 234 -12Q42 -12 31 184Q24 312 91 404Q165
507 297 507Q365 507 407 475Q454 439 454 369Q454 325 413 288Q377 257 332 247Q229 224 165 224Q141 224 115 227Z" />
<glyph unicode="&#xec;" glyph-name="igrave" horiz-adv-x="249" d="M39 0L92 495H172L119 0H39ZM229 556L31 646L84 711L284 615L229 556Z" />
<glyph unicode="&#xed;" glyph-name="iacute" horiz-adv-x="234" d="M39 0L92 495H172L119 0H39ZM67 557L28 616L248 712L288 647L67 557Z" />
<glyph unicode="&#xee;" glyph-name="icircumflex" horiz-adv-x="210" d="M39 0L92 495H172L119 0H39ZM143 619L-4 526L4 597L153 710L283 597L275 526L143 619Z" />
<glyph unicode="&#xef;" glyph-name="idieresis" horiz-adv-x="207" d="M43 0L95 495H175L123 0H43ZM262 546T238 546T203 562T194 598T210 634T249 650Q272 650 284 634T294 598Q292 578 277 562ZM28 546Q5 546 -6 562T-15 598T1 634T39 650Q63 650 74 634T84
598T67 562T28 546Z" />
<glyph unicode="&#xf1;" glyph-name="ntilde" horiz-adv-x="486" d="M340 0L374 325Q375 336 375 346Q375 395 349 421Q326 443 293 443Q252 443 204 411Q150 374 145 328L111 0H32L84 495H163L157 439Q206 480 238 495T309 511Q367 511 410 470Q456 425 456 358Q456
348 455 338L419 0H340ZM355 549Q327 549 285 583T226 618Q187 618 152 576L132 635Q148 656 180 670Q209 684 233 685Q261 686 300 652T360 617Q383 617 413 642L432 582Q421 571 394 560T355 549Z" />
<glyph unicode="&#xf2;" glyph-name="ograve" horiz-adv-x="543" d="M242 -11Q123 -11 70 68Q32 125 32 214Q32 233 34 252Q47 381 136 453Q209 512 299 512Q380 512 437 461Q505 401 505 291Q505 272 503 252Q493 163 439 89Q365 -11 242 -11ZM296 445Q209 445
159 369Q117 304 117 213Q117 144 147 102Q180 54 245 54Q329 54 377 131Q417 196 417 286Q417 355 389 397Q357 445 296 445ZM409 556L209 646L263 711L463 615L409 556Z" />
<glyph unicode="&#xf3;" glyph-name="oacute" horiz-adv-x="543" d="M242 -11Q123 -11 70 68Q32 125 32 214Q32 233 34 252Q47 381 136 453Q209 512 299 512Q379 512 437 461Q505 401 505 291Q505 272 503 252Q493 163 439 89Q365 -11 242 -11ZM296 445Q209 445
159 369Q117 304 117 213Q117 144 147 102Q180 54 245 54Q329 54 377 131Q417 196 417 286Q417 355 389 397Q357 445 296 445ZM247 557L206 616L426 712L466 647L247 557Z" />
<glyph unicode="&#xf4;" glyph-name="ocircumflex" horiz-adv-x="543" d="M242 -11Q123 -11 70 68Q32 125 32 214Q32 233 34 252Q47 381 136 453Q209 512 299 512Q380 512 437 461Q505 401 505 291Q505 272 503 252Q493 163 439 89Q365 -11 242 -11ZM296 445Q209
445 159 369Q117 304 117 213Q117 144 147 102Q180 54 245 54Q329 54 377 131Q417 196 417 286Q417 355 389 397Q358 445 296 445ZM312 619L165 526L172 597L321 710L451 597L444 526L312 619Z" />
<glyph unicode="&#xf5;" glyph-name="otilde" horiz-adv-x="543" d="M243 -11Q125 -11 72 68Q33 125 33 214Q33 233 35 252Q49 381 137 453Q210 512 301 512Q381 512 438 461Q506 401 506 291Q506 272 504 252Q495 163 440 89Q367 -11 243 -11ZM297 445Q210 445
161 369Q119 304 119 213Q119 144 148 102Q182 54 246 54Q331 54 378 131Q419 196 419 286Q419 355 391 397Q359 445 297 445ZM386 549Q359 549 317 583T259 618Q220 618 184 576L164 635Q180 656 212 670Q241 684 266 685Q293 686 332 652T392 617Q417 617 444
642L464 582Q454 571 427 560T386 549Z" />
<glyph unicode="&#xf6;" glyph-name="odieresis" horiz-adv-x="543" d="M245 -11Q127 -11 73 68Q35 125 35 214Q35 233 37 252Q50 381 139 453Q212 512 302 512Q383 512 440 461Q508 401 508 291Q508 272 506 252Q496 163 442 89Q368 -11 245 -11ZM299 445Q212
445 163 369Q120 304 120 213Q120 144 150 102Q183 54 248 54Q333 54 380 131Q421 196 421 286Q421 355 393 397Q361 445 299 445ZM410 546Q386 546 375 562T366 598Q368 618 382 634T421 650Q444 650 456 634T466 598Q463 578 448 562T410 546ZM201 546Q177 546
166 562T157 598Q159 618 173 634T212 650Q235 650 246 634T256 598Q253 578 240 563Q224 546 201 546Z" />
<glyph unicode="&#xf7;" glyph-name="divide" horiz-adv-x="496" d="M289 397T264 397T222 416T204 463T221 510T264 529T306 510T324 463T307 416ZM53 275V345H446V275H53ZM289 93T264 93T222 112T204 159T221 206T264 225T306 206T324 159T307 112Z" />
<glyph unicode="&#xf8;" glyph-name="oslash" horiz-adv-x="546" d="M160 92L304 445H301Q214 445 165 369Q122 304 122 213Q122 135 160 92ZM378 416L230 55Q236 54 250 54Q335 54 382 131Q423 197 423 286T378 416ZM359 578L435 554L407 486Q509 429 509 292Q509
272 507 252Q497 163 443 89Q370 -11 247 -11Q223 -11 204 -8L179 -69L103 -45L129 17Q37 72 37 213Q37 233 39 252Q52 381 141 453Q214 512 303 512Q313 512 331 510L359 578Z" />
<glyph unicode="&#xf9;" glyph-name="ugrave" horiz-adv-x="482" d="M414 0H343Q342 14 339 52Q256 -18 177 -18Q123 -18 87 22Q47 64 47 134Q47 147 48 160L84 495H163L128 164Q126 152 126 141Q126 53 204 53Q251 53 300 90T354 164L389 495H467L414 0ZM377
556L179 646L232 711L432 615L377 556Z" />
<glyph unicode="&#xfa;" glyph-name="uacute" horiz-adv-x="482" d="M414 0H343Q342 14 339 52Q256 -18 177 -18Q123 -18 85 23T47 134Q47 147 48 160L84 495H163L128 164Q126 152 126 141Q126 53 204 53Q251 53 300 90T354 164L389 495H467L414 0ZM205 557L165
616L385 712L425 647L205 557Z" />
<glyph unicode="&#xfb;" glyph-name="ucircumflex" horiz-adv-x="482" d="M414 0H343Q342 14 339 52Q256 -18 177 -18Q124 -18 87 22Q47 64 47 134Q47 147 48 160L84 495H163L128 164Q126 152 126 141Q126 53 204 53Q251 53 300 90T354 164L389 495H467L414 0ZM291
619L144 526L152 597L301 710L431 597L423 526L291 619Z" />
<glyph unicode="&#xfc;" glyph-name="udieresis" horiz-adv-x="482" d="M418 0H347Q345 14 342 52Q259 -18 181 -18Q127 -18 90 22Q50 64 50 134Q50 147 51 160L87 495H166L131 164Q130 152 130 141Q130 53 207 53Q254 53 303 90T357 164L392 495H470L418 0ZM413
546T389 546T354 562T345 598T361 634T400 650Q423 650 435 634T445 598Q443 578 428 562ZM180 546Q156 546 145 562T136 598T152 634T191 650Q214 650 225 634T235 598T218 562T180 546Z" />
<glyph unicode="&#xff;" glyph-name="ydieresis" horiz-adv-x="467" d="M221 -84Q200 -127 156 -159Q106 -196 52 -196Q36 -196 -16 -178L17 -107Q42 -120 65 -121Q111 -122 156 -54L207 42L63 478L141 499L255 145L422 498L490 481L221 -84ZM377 546Q352 546
341 562T332 598T349 634T388 650Q411 650 422 634T432 598Q430 578 415 562T377 546ZM168 546Q143 546 132 562T123 598T140 634T179 650Q202 650 213 634T222 598T206 562T168 546Z" />
<glyph unicode="&#x131;" glyph-name="dotlessi" horiz-adv-x="233" d="M45 0L97 495H178L126 0H45Z" />
<glyph unicode="&#x152;" glyph-name="OE" horiz-adv-x="1028" d="M574 0L598 223Q485 -3 294 -3Q181 -3 112 71Q40 148 40 284Q40 312 43 341Q58 481 149 569T370 657Q556 657 622 449L643 649H998L990 577H725L705 384H960L952 309H694L671 84H938L929 0H574ZM361
581Q254 581 186 489Q125 405 125 296Q125 201 174 138T302 75Q406 75 477 172Q541 261 541 368Q541 462 494 520Q444 581 361 581Z" />
<glyph unicode="&#x153;" glyph-name="oe" horiz-adv-x="931" d="M302 445Q214 445 165 369Q123 304 123 213Q123 144 152 102Q186 54 250 54Q335 54 383 131Q423 196 423 286Q423 355 395 397Q363 445 302 445ZM565 257Q556 172 576 125Q590 90 630 71Q661 56
696 56Q755 56 834 120L868 64Q780 -12 682 -12Q506 -12 481 153Q408 -11 247 -11Q129 -11 76 68Q37 124 37 213Q37 233 39 252Q53 381 141 453Q214 512 304 512Q372 512 426 474Q488 430 504 348Q535 421 596 464T741 507Q810 507 854 466Q903 422 903 345Q903
332 901 318L895 257H565ZM824 332Q835 441 727 441Q676 441 645 420Q603 391 578 320H822L824 332Z" />
<glyph unicode="&#x178;" glyph-name="Ydieresis" horiz-adv-x="482" d="M287 272L259 0H170L198 272L58 627L140 650L254 353L428 650L502 627L287 272ZM431 696T407 696T372 712T363 748T379 784T418 800Q441 800 453 784T463 748Q461 728 446 712ZM221 696T197
696T162 712T153 748T169 784T208 800Q231 800 243 784T253 748Q251 728 236 712Z" />
<glyph unicode="&#x192;" glyph-name="florin" horiz-adv-x="361" d="M393 610Q349 641 310 641Q235 641 215 530L214 526Q208 496 208 489H345L332 424H197L87 -122L9 -123L118 422L38 421L51 487L130 488L138 529Q152 598 188 645Q239 710 323 711Q367 711 390
701Q398 697 441 666L393 610Z" />
<glyph unicode="&#x2c6;" glyph-name="circumflex" horiz-adv-x="337" d="M173 619L25 526L33 597L183 710L313 597L305 526L173 619Z" />
<glyph unicode="&#x2c7;" glyph-name="caron" horiz-adv-x="337" d="M178 617L325 710L317 639L168 526L37 639L45 710L178 617Z" />
<glyph unicode="&#x2d8;" glyph-name="breve" horiz-adv-x="345" d="M213 538T165 538T82 566T36 643L86 650Q106 587 169 587Q228 587 261 650L308 643Q290 594 252 566Z" />
<glyph unicode="&#x2d9;" glyph-name="dotaccent" horiz-adv-x="237" d="M146 528T123 528T87 542T75 576Q77 596 93 610T133 624T169 610T181 576Q179 557 163 543Z" />
<glyph unicode="&#x2da;" glyph-name="ring" horiz-adv-x="305" d="M203 576T163 576T100 600T81 663Q85 700 113 724T181 749T244 725T263 663Q259 625 231 601ZM220 706T177 706T129 663Q124 619 167 619T215 663Q220 706 177 706Z" />
<glyph unicode="&#x2db;" glyph-name="ogonek" horiz-adv-x="1061" />
<glyph unicode="&#x2dc;" glyph-name="tilde" horiz-adv-x="375" d="M268 549Q240 549 198 583T140 618Q101 618 65 576L45 635Q61 656 93 670Q122 684 147 685Q175 686 214 652T273 617Q296 617 326 642L345 582Q335 571 308 560T268 549Z" />
<glyph unicode="&#x2dd;" glyph-name="hungarumlaut" horiz-adv-x="362" d="M218 561H155L260 675H323L218 561ZM95 561H32L137 675H200L95 561Z" />
<glyph unicode="&#x3a9;" glyph-name="Omega" horiz-adv-x="646" d="M385 130L378 65H536L529 0H323L342 176Q403 176 454 239Q499 294 505 349Q508 373 508 395Q508 581 346 581Q253 581 196 519T127 349Q121 290 149 239Q183 176 254 176L235 0H28L35 65H190L197
129Q133 139 88 202T43 338Q43 476 129 556T353 637Q593 637 593 409Q593 385 590 359Q582 282 519 210T385 130Z" />
<glyph unicode="&#x3c0;" glyph-name="pi" horiz-adv-x="518" d="M347 0L394 442H217L170 0H82L129 442H89L96 508H489L435 0H347Z" />
<glyph unicode="&#x2013;" glyph-name="endash" horiz-adv-x="500" d="M34 292V363H466V292H34Z" />
<glyph unicode="&#x2014;" glyph-name="emdash" horiz-adv-x="1000" d="M27 292V363H973V292H27Z" />
<glyph unicode="&#x2018;" glyph-name="quoteleft" horiz-adv-x="213" d="M196 708L153 720Q49 601 39 516H136Q141 560 162 624Q181 683 196 708Z" />
<glyph unicode="&#x2019;" glyph-name="quoteright" horiz-adv-x="241" d="M37 528L80 516Q184 635 194 720H97Q92 676 71 612Q52 553 37 528Z" />
<glyph unicode="&#x201a;" glyph-name="quotesinglbase" horiz-adv-x="214" d="M85 -128L30 -132Q31 -130 63 -87Q84 -59 90 -39Q27 -36 34 33Q37 61 61 81T109 102T152 82T169 33Q164 -12 139 -54Q125 -77 85 -128Z" />
<glyph unicode="&#x201c;" glyph-name="quotedblleft" horiz-adv-x="443" d="M435 708L392 720Q288 601 278 516H375Q380 560 401 624Q420 683 435 708ZM235 708L192 720Q88 601 78 516H175Q180 560 201 624Q220 683 235 708Z" />
<glyph unicode="&#x201d;" glyph-name="quotedblright" horiz-adv-x="443" d="M21 528L64 516Q168 635 178 720H81Q76 676 55 612Q36 553 21 528ZM221 528L264 516Q368 635 378 720H281Q276 676 255 612Q236 553 221 528Z" />
<glyph unicode="&#x201e;" glyph-name="quotedblbase" horiz-adv-x="417" d="M21 -72L64 -84Q168 35 178 120H81Q76 76 55 12Q36 -47 21 -72ZM221 -72L264 -84Q368 35 378 120H281Q276 76 255 12Q236 -47 221 -72Z" />
<glyph unicode="&#x2020;" glyph-name="dagger" horiz-adv-x="221" d="M192 559H122V333H83V559H23V593H83V655H122V593H192V559Z" />
<glyph unicode="&#x2021;" glyph-name="daggerdbl" horiz-adv-x="221" d="M183 397H121V245H84V397H24V421H84V549H24V573H84V655H121V573H183V549H121V421H183V397Z" />
<glyph unicode="&#x2022;" glyph-name="bullet" horiz-adv-x="282" d="M167 190T129 190T67 218T48 291Q53 334 83 362T151 391Q188 391 212 363T231 291T197 219Z" />
<glyph unicode="&#x2026;" glyph-name="ellipsis" horiz-adv-x="621" d="M498 -16Q470 -16 453 2T438 53Q441 86 464 105Q484 122 512 122T557 104T571 53Q568 21 547 3T498 -16ZM309 -16Q281 -16 264 2T249 53Q252 86 275 105Q295 122 323 122T368 104T382 53Q379
21 358 3T309 -16ZM120 -16Q92 -16 75 2T60 53Q63 86 86 105Q106 122 134 122T179 104T193 53Q190 21 169 3T120 -16Z" />
<glyph unicode="&#x2030;" glyph-name="perthousand" horiz-adv-x="886" d="M703 -6Q607 -6 607 95Q607 104 608 115Q613 167 647 200T728 234Q775 234 801 201T823 115Q817 55 784 25T703 -6ZM142 410Q99 410 73 435T47 511Q47 520 48 531Q53 583 87 616T168
650Q214 650 241 617T263 531Q257 472 224 441T142 410ZM426 -6Q330 -6 330 95Q330 104 331 115Q336 167 370 200T451 234Q498 234 524 201T546 115Q540 55 507 25T426 -6ZM68 -78L-3 -53L446 628L512 602L68 -78ZM738 178T722 178T691 163Q673 145 670 112Q666
79 679 64T709 48Q725 48 741 63T762 112Q765 145 750 163Q738 178 722 178ZM177 594T161 594T130 579Q112 561 109 528Q105 495 120 478Q131 464 148 464T179 478Q197 495 201 528Q204 561 189 579Q177 594 161 594ZM461 178T445 178T414 163Q396 145 393 112Q389
79 402 64T432 48Q448 48 464 63T485 112Q488 145 473 163Q461 178 445 178Z" />
<glyph unicode="&#x2039;" glyph-name="guilsinglleft" horiz-adv-x="319" d="M148 286L279 125L208 122L56 289L208 451L279 448L148 286Z" />
<glyph unicode="&#x203a;" glyph-name="guilsinglright" horiz-adv-x="317" d="M118 122L47 125L177 286L47 448L118 451L271 289L118 122Z" />
<glyph unicode="&#x2044;" glyph-name="fraction" horiz-adv-x="537" d="M113 66L40 116L461 588L533 538L113 66Z" />
<glyph unicode="&#x2122;" glyph-name="trademark" horiz-adv-x="641" d="M157 315H93L122 590H27L32 642H280L275 590H186L157 315ZM559 514L462 315H408L352 516L331 315H271L305 644H383L448 415L561 644H636L602 315H538L559 514Z" />
<glyph unicode="&#x2202;" glyph-name="partialdiff" horiz-adv-x="552" d="M232 -17Q135 -17 80 51Q31 112 31 203Q31 218 32 233Q46 370 122 438Q189 498 294 498Q335 498 374 483T435 446Q435 483 423 521Q409 570 383 590Q343 621 267 621Q196 621 126 592L112
670Q184 690 255 690Q367 690 425 646Q512 579 512 400Q512 353 506 296Q490 147 433 72Q366 -17 232 -17ZM432 350Q376 440 287 440Q218 440 175 388T121 246Q120 231 120 217Q120 146 153 101Q188 52 250 52Q407 52 429 262Q434 306 432 350Z" />
<glyph unicode="&#x2206;" glyph-name="increment" horiz-adv-x="689" d="M398 565L169 56H500L398 565ZM50 0L365 657H451L607 0H50Z" />
<glyph unicode="&#x220f;" glyph-name="product" horiz-adv-x="595" d="M477 0H381L441 562H244L184 0H89L157 642H545L477 0Z" />
<glyph unicode="&#x2211;" glyph-name="summation" horiz-adv-x="491" d="M58 0L66 70L312 342L117 557L136 633H482L474 561H224L416 349L171 76L423 77L414 0H58Z" />
<glyph unicode="&#x221a;" glyph-name="radical" horiz-adv-x="503" d="M218 -10H141L55 297L130 337L173 116L280 639H359L218 -10Z" />
<glyph unicode="&#x221e;" glyph-name="infinity" horiz-adv-x="536" d="M369 264Q295 264 260 320Q211 264 138 264Q78 264 41 303T9 398T60 492T166 531Q239 531 276 476Q324 531 397 531Q456 531 494 492T526 398T474 304T369 264ZM392 482Q356 482 328 458T295
399Q291 364 314 340T374 315Q411 315 439 339T471 399T452 458T392 482ZM161 482Q125 482 97 458T64 399Q60 360 84 339T143 317Q179 317 207 338T240 399Q244 434 221 458T161 482Z" />
<glyph unicode="&#x222b;" glyph-name="integral'" horiz-adv-x="303" d="M315 611Q293 630 269 630Q227 630 204 590Q186 557 186 511T215 322T244 101Q244 76 241 53Q221 -140 58 -140Q36 -140 -22 -121L6 -39Q49 -64 82 -58Q138 -48 150 69Q155 113 124 256Q91
410 91 489Q91 589 132 646Q180 713 279 713Q292 713 320 704T361 687L315 611Z" />
<glyph unicode="&#x2248;" glyph-name="approxequal" horiz-adv-x="536" d="M327 82Q304 82 265 108T207 134Q186 134 156 118T108 79L91 142Q110 162 148 179T214 197Q247 197 286 173T340 149Q354 149 375 160T407 182L427 120Q412 106 380 94T327 82ZM349 282Q325
282 284 308T224 334Q204 334 176 318T129 279L112 342Q131 362 169 379T235 397Q268 397 307 373T361 349Q375 349 396 360T428 382L449 320Q433 306 401 294T349 282Z" />
<glyph unicode="&#x2260;" glyph-name="notequal" horiz-adv-x="441" d="M134 -15L75 6L133 135H38L45 200H162L201 287H54L61 352H231L313 534L372 513L300 352H399L392 287H270L231 200H383L376 135H202L134 -15Z" />
<glyph unicode="&#x2264;" glyph-name="lessequal" horiz-adv-x="250" d="M112 283L244 122L172 119L19 286L172 448L244 445L112 283ZM21 34V74H242V34H21Z" />
<glyph unicode="&#x2265;" glyph-name="greaterequal" horiz-adv-x="250" d="M90 119L20 122L150 283L20 445L90 448L244 286L90 119ZM21 34V74H242V34H21Z" />
<glyph unicode="&#x25ca;" glyph-name="lozenge" horiz-adv-x="576" d="M275 85L20 333L275 582L529 333L275 85ZM278 485L122 332L278 180L434 332L278 485Z" />
</font>
</defs>
</svg>
