<?xml version="1.0" standalone="no"?> <!DOCTYPE svg PUBLIC "-//W3C//DTD SVG 1.0//EN" "http://www.w3.org/TR/2001/REC-SVG-20010904/DTD/svg10.dtd" > <svg xmlns="http://www.w3.org/2000/svg" width="100%" height="100%">
<defs >
<font id="Steinem" horiz-adv-x="434" ><font-face
    font-family="Steinem"
    units-per-em="1000"
    panose-1="2 0 5 0 0 0 0 0 0 0"
    ascent="901"
    descent="-235"
    alphabetic="0" />
<missing-glyph horiz-adv-x="364" d="M33 0V666H298V0H33ZM66 33H265V633H66V33Z" />
<glyph unicode=" " glyph-name="space" horiz-adv-x="278" />
<glyph unicode="!" glyph-name="exclam" horiz-adv-x="243" d="M175 699Q175 708 166 708H94Q86 708 86 699L91 232Q91 222 99 222H161Q170 222 170 232L175 699ZM190 56Q190 84 173 104T130 125Q105 125 88 105T70 56Q70 28 88 8T130 -12Q154 -12 172 8T190 56Z" />
<glyph unicode="&quot;" glyph-name="quotedbl" horiz-adv-x="442" d="M368 701Q368 711 359 711H266Q256 711 256 701L272 479Q272 471 282 471H343Q352 471 352 479L368 701ZM204 701Q204 711 195 711H102Q92 711 92 701L108 479Q108 471 117 471H179Q188 471
188 479L204 701Z" />
<glyph unicode="#" glyph-name="numbersign" horiz-adv-x="548" d="M522 421Q532 421 532 431V491Q532 501 522 501H438L466 697Q466 708 457 708H392Q385 708 383 699L355 501H253L281 697Q281 708 271 708H207Q199 708 197 699L169 501H74Q64 501 64 491V431Q64
421 74 421H158L139 289H45Q36 289 36 279V219Q36 209 45 209H128L101 11Q101 0 111 0H175Q183 0 185 9L211 209H313L286 11Q286 0 296 0H360Q368 0 370 9L397 209H493Q503 209 503 219V279Q503 289 493 289H409L427 421H522ZM241 421H343L325 289H223L241 421Z"
/>
<glyph unicode="$" glyph-name="dollar" horiz-adv-x="545" d="M510 198Q510 243 496 276T458 333T401 372T322 403V632Q363 631 393 624T455 604Q456 604 457 604Q458 603 458 603Q465 603 467 609L487 663Q487 664 487 665Q488 666 488 667Q488 673 482 675Q454
687 410 698T322 711V778Q322 788 313 788H261Q252 788 252 778V710Q166 698 116 649T66 521Q66 479 82 448T124 394T182 358T252 329V83Q204 84 166 95T83 124L80 125Q80 125 78 126Q76 126 76 126Q67 126 67 116V46Q67 39 73 37Q111 22 156 12T252 0V-71Q252
-81 261 -81H313Q322 -81 322 -71V4Q410 17 460 68T510 198ZM413 196Q413 154 389 128T322 90V305Q368 286 390 262T413 196ZM159 532Q159 570 182 595T252 629V427Q201 448 180 472T159 532Z" />
<glyph unicode="%" glyph-name="percent" horiz-adv-x="1116" d="M1039 186Q1039 227 1024 263T982 327T918 369T840 384Q799 384 763 369T699 327T656 263T641 186Q641 145 656 109T699 46T762 3T840 -12Q881 -12 917 3T981 45T1024 109T1039 186ZM495 523Q495
564 480 600T438 664T374 706T296 721Q255 721 219 706T155 664T112 601T97 523Q97 482 112 446T154 383T218 341T296 326Q337 326 373 341T437 383T480 446T495 523ZM878 689Q881 692 881 696Q881 700 876 703L824 739Q822 741 819 741Q814 741 811 737L258 20Q256
18 256 14Q256 10 259 7L311 -29Q313 -31 317 -31Q322 -31 325 -27L878 689ZM951 186Q951 139 919 105T840 70Q795 70 763 104T730 186Q730 234 762 268T840 302Q886 302 918 268T951 186ZM406 523Q406 476 374 442T296 407Q250 407 218 441T185 523Q185 571 217
605T296 639Q341 639 373 605T406 523Z" />
<glyph unicode="&amp;" glyph-name="ampersand" horiz-adv-x="708" d="M711 57L688 90Q686 94 681 94Q678 94 675 92Q666 85 658 81T642 76Q625 76 607 94L532 172Q533 174 535 177Q537 180 538 182L537 181L540 185L542 189L620 316H667Q677 316 677 326V381Q677
390 667 390H572Q566 390 563 385L476 238Q475 238 473 234L330 383Q405 423 442 463T479 564Q479 638 428 679T299 721Q220 721 166 677T112 556Q112 511 132 476T193 396Q118 356 80 306T42 184Q42 141 59 105T108 42T177 2T256 -12Q321 -12 373 12T477 97L537
36Q560 13 576 7T610 0Q639 0 665 14T710 45L711 57ZM265 67Q213 67 175 105T136 196Q136 238 164 271T249 338L420 157Q346 67 265 67ZM392 563Q392 530 363 500T277 438L272 444Q240 477 222 503T204 558Q204 603 231 628T300 653Q340 653 366 628T392 563Z"
/>
<glyph unicode="&apos;" glyph-name="quotesingle" horiz-adv-x="237" d="M177 701Q177 711 168 711H85Q77 711 77 701L91 479Q91 471 99 471H154Q162 471 162 479L177 701Z" />
<glyph unicode="(" glyph-name="parenleft" horiz-adv-x="259" d="M258 -116Q262 -113 262 -109Q262 -107 260 -104Q200 -2 173 85T146 286Q146 392 174 490T260 672Q262 675 262 679Q262 684 258 686L202 727Q200 729 197 729Q192 729 189 725Q123 629 87 517T51
286Q51 172 86 58T189 -154Q192 -157 196 -157Q199 -157 201 -155L258 -116Z" />
<glyph unicode=")" glyph-name="parenright" horiz-adv-x="259" d="M227 286Q227 399 191 513T89 725Q86 729 82 729Q79 729 77 727L20 687Q16 685 16 680Q16 680 17 678Q17 676 17 675Q78 573 105 486T132 286Q132 179 103 81T17 -101Q17 -102 16 -104Q16 -106
16 -107Q16 -111 19 -114L76 -155Q78 -157 81 -157Q86 -157 89 -154Q155 -58 191 54T227 286Z" />
<glyph unicode="*" glyph-name="asterisk" horiz-adv-x="428" d="M410 555Q416 557 416 563Q416 564 415 565Q415 566 415 567L393 635Q391 642 384 642Q383 642 382 641Q381 641 380 641L262 594L269 720Q269 730 260 730H187Q178 730 178 720L184 594L67 641Q66
641 65 641Q64 642 63 642Q56 642 54 635L31 567Q31 566 31 565Q30 564 30 564Q30 558 37 555L159 519L81 421Q79 419 79 416Q79 411 83 408L140 364Q143 362 145 362Q150 362 153 367L223 475L297 366Q299 362 304 362Q307 362 310 364L367 408Q372 411 372 415Q372
419 369 421L287 519L410 555Z" />
<glyph unicode="+" glyph-name="plus" horiz-adv-x="549" d="M535 257Q545 257 545 267V336Q545 346 535 346H329V553Q329 562 320 562H248Q239 562 239 553V346H33Q23 346 23 336V267Q23 257 33 257H239V50Q239 40 248 40H320Q329 40 329 50V257H535Z" />
<glyph unicode="," glyph-name="comma" horiz-adv-x="254" d="M207 90L125 113Q114 113 113 105Q105 55 86 -1T47 -96Q47 -97 47 -98Q46 -100 46 -100Q46 -107 53 -109L102 -126Q110 -126 112 -124Q140 -90 169 -34T213 78L207 90Z" />
<glyph unicode="-" glyph-name="hyphen" horiz-adv-x="313" d="M279 160Q288 160 288 168V228Q288 236 279 236H53Q43 236 43 228V168Q43 160 53 160H279Z" />
<glyph unicode="." glyph-name="period" horiz-adv-x="243" d="M190 50Q190 74 173 92T130 110Q105 110 88 92T70 50Q70 25 88 8T130 -10Q154 -10 172 7T190 50Z" />
<glyph unicode="/" glyph-name="slash" horiz-adv-x="357" d="M372 689Q372 690 372 691Q373 692 373 693Q373 700 367 702L306 725Q306 725 304 725Q303 726 303 726Q297 726 294 721L4 20Q4 20 4 19Q3 17 3 17Q3 10 9 8L68 -17Q69 -17 70 -17Q71 -18 72 -18Q79
-18 81 -12L372 689Z" />
<glyph unicode="0" glyph-name="zero" horiz-adv-x="547" d="M524 354Q524 421 513 484T475 601T401 687T283 720Q214 720 166 688T91 601T53 484T42 354Q42 287 53 224T91 108T166 21T283 -12Q352 -12 400 21T475 107T513 224T524 354ZM422 354Q422 307 418 262T399
173T356 101T283 73Q239 73 211 101T168 172T149 261T144 354Q144 401 149 447T168 536T210 608T283 636Q327 636 355 608T398 537T417 447T422 354Z" />
<glyph unicode="1" glyph-name="one" horiz-adv-x="531" d="M406 0Q415 0 415 10V67Q415 77 406 77H332V698Q332 708 319 708L151 659Q144 657 144 650V590Q144 581 156 581L237 604V77H162Q153 77 153 67V10Q153 0 162 0H406Z" />
<glyph unicode="2" glyph-name="two" horiz-adv-x="547" d="M489 135L442 142Q434 142 432 134Q421 86 373 86Q358 86 333 91Q325 92 319 93L317 94Q293 99 276 101T233 104Q208 104 172 93L307 228Q387 308 432 378T477 522Q477 619 419 669T265 720Q231 720
199 712T140 690T94 663T63 637Q60 635 60 631Q60 627 62 625L94 581Q97 577 101 577Q105 577 108 580Q130 600 168 617T249 635Q313 635 344 604T375 520Q375 472 346 417T244 286L31 67Q28 64 28 60V6Q28 -4 39 -4Q49 -2 55 -1Q98 6 128 9T194 12Q219 12 270
3Q274 2 283 1Q332 -8 359 -8Q418 -8 457 27T498 126L489 135Z" />
<glyph unicode="3" glyph-name="three" horiz-adv-x="545" d="M481 202Q481 262 451 308T365 374Q410 398 435 439T461 535Q461 622 401 671T248 720Q191 720 140 699T49 651Q45 648 45 644Q45 641 47 639L77 590Q80 585 85 585Q85 585 86 586Q88 586 88 586Q89
586 91 588Q93 589 93 589Q126 609 161 623T239 637Q300 637 331 607T362 527Q362 493 350 471T318 437T275 421T227 416H203Q193 416 193 406V338Q193 328 203 328H227Q256 328 283 322T332 300T367 261T380 202Q380 144 342 108T244 72Q183 72 145 85T56 128Q54
130 51 130Q42 130 42 120V45Q42 38 48 36Q95 12 141 0T244 -12Q289 -12 332 1T408 42T461 109T481 202Z" />
<glyph unicode="4" glyph-name="four" horiz-adv-x="547" d="M509 166Q519 166 519 176V234Q519 244 509 244H436V698Q436 708 426 708H312Q307 708 304 703L33 260V176Q33 166 42 166H344V74H286Q277 74 277 64V10Q277 0 286 0H497Q506 0 506 10V64Q506 74 497
74H436V166H509ZM117 244L344 619V244H117Z" />
<glyph unicode="5" glyph-name="five" horiz-adv-x="545" d="M489 227Q489 334 428 396T262 458Q235 458 215 456T173 448L182 621H451Q461 621 461 630V699Q461 708 451 708H110Q100 708 100 699L84 344Q84 335 93 335Q94 335 96 335Q97 336 98 336Q134 355 173
365T246 375Q312 375 350 338T388 227Q388 157 352 116T244 74Q195 74 158 86T75 127Q74 127 72 128Q71 128 70 128Q60 128 60 119V44Q60 37 65 35Q102 15 146 2T252 -12Q301 -12 344 5T420 54T471 130T489 227Z" />
<glyph unicode="6" glyph-name="six" horiz-adv-x="547" d="M528 227Q528 333 467 395T307 457Q263 457 224 440T154 385Q157 454 171 503T208 582T261 625T323 639Q360 639 386 631T437 612L439 611Q441 610 444 609T450 606Q451 606 452 606Q453 605 454 605Q461
605 462 611L486 665Q486 666 486 667Q487 669 487 669Q487 676 483 677Q457 693 415 706T322 720Q259 720 207 692T128 623Q92 572 73 511T54 356Q54 269 64 215T92 123Q152 -12 301 -12Q348 -12 389 5T462 54T510 130T528 227ZM428 221Q428 157 391 114T297 70Q240
70 204 111T167 221Q167 291 203 332T297 374Q355 374 391 333T428 221Z" />
<glyph unicode="7" glyph-name="seven" horiz-adv-x="546" d="M502 644V698Q502 708 492 708H64Q55 708 55 698V631Q55 621 64 621H399L130 14Q130 13 130 12Q129 10 129 9Q129 0 139 0H217Q224 0 226 6L502 644Z" />
<glyph unicode="8" glyph-name="eight" horiz-adv-x="546" d="M508 200Q508 261 477 309T393 379Q435 400 459 442T484 531Q484 573 469 608T426 668Q369 720 282 720Q196 720 139 668Q112 643 97 608T81 531Q81 484 105 442T172 379Q119 358 88 310T56 200Q56
152 73 113T122 45Q185 -12 282 -12Q380 -12 444 45T508 200ZM411 201Q411 145 374 106T282 67Q228 67 191 106T154 201Q154 257 191 296T282 335Q337 335 374 296T411 201ZM392 533Q392 485 361 453T282 421Q235 421 204 453T173 533Q173 583 204 614T282 645Q329
645 360 614T392 533Z" />
<glyph unicode="9" glyph-name="nine" horiz-adv-x="547" d="M510 360Q510 434 499 492T471 588Q409 720 262 720Q214 720 173 703T101 655T52 580T35 485Q35 384 95 323T254 261Q300 261 340 276T409 325Q404 196 357 134T235 72Q197 72 164 81T96 105Q95 105
94 106Q92 106 92 106Q83 106 83 96V27Q83 20 88 18Q127 2 162 -5T246 -12Q307 -12 359 14T441 85Q474 134 492 202T510 360ZM398 492Q398 422 362 384T265 345Q208 345 170 387T132 492Q132 557 167 598T265 639Q323 639 360 596T398 492Z" />
<glyph unicode=":" glyph-name="colon" horiz-adv-x="243" d="M190 56Q190 83 173 103T130 123Q106 123 88 103T70 56Q70 28 88 8T130 -12Q154 -12 172 8T190 56ZM190 401Q190 429 173 448T130 468Q105 468 88 449T70 401Q70 374 88 354T130 334Q154 334 172 354T190
401Z" />
<glyph unicode=";" glyph-name="semicolon" horiz-adv-x="254" d="M207 94L125 118Q124 118 124 118Q122 119 122 119Q114 119 113 110Q105 57 86 -1T47 -101Q47 -102 47 -103Q46 -104 46 -105Q46 -112 53 -114L102 -133Q110 -133 112 -130Q140 -94 169 -35T213
81L207 94ZM205 405Q205 432 186 452T142 472Q116 472 98 452T79 405Q79 377 98 357T142 337Q167 337 186 357T205 405Z" />
<glyph unicode="&lt;" glyph-name="less" horiz-adv-x="549" d="M532 41Q533 41 534 41Q535 40 536 40Q545 40 545 50V121Q545 128 539 130L144 301L539 473Q545 475 545 482V553Q545 562 537 562Q536 562 534 562Q533 561 532 561L29 341Q23 339 23 332V271Q23
264 29 262L532 41Z" />
<glyph unicode="=" glyph-name="equal" horiz-adv-x="549" d="M535 171Q545 171 545 181V247Q545 256 535 256H33Q23 256 23 247V181Q23 171 33 171H535ZM535 321Q545 321 545 330V396Q545 405 535 405H33Q23 405 23 396V330Q23 321 33 321H535Z" />
<glyph unicode="&gt;" glyph-name="greater" horiz-adv-x="549" d="M539 262Q545 264 545 271V332Q545 339 539 341L37 561Q36 561 34 562Q33 562 32 562Q23 562 23 553V482Q23 475 29 473L423 301L29 130Q23 128 23 121V50Q23 40 33 40L35 41Q36 41 37 41L539 262Z" />
<glyph unicode="?" glyph-name="question" horiz-adv-x="465" d="M433 551Q433 635 379 680T233 726Q167 726 118 699T35 635Q33 632 33 628Q33 624 35 621L72 579Q75 576 79 576Q83 576 86 579Q111 605 146 625T224 645Q280 645 308 619T336 545Q336 510 316
481T260 414L251 405Q212 363 199 333T186 249V203Q186 193 195 193H270Q279 193 279 203V243Q279 283 289 305T325 351Q380 406 406 448T433 551ZM299 56Q299 84 280 104T232 125Q205 125 186 105T166 56Q166 28 186 8T232 -12Q259 -12 279 8T299 56Z" />
<glyph unicode="@" glyph-name="at" horiz-adv-x="784" d="M756 419Q756 485 730 541T657 639T549 703T419 726Q342 726 274 697T155 615T75 488T46 328Q46 266 65 209T121 107Q168 49 240 16T408 -18Q459 -18 506 -8T590 19T656 51T707 85Q711 88 711 93Q711
96 709 98L681 139Q678 143 674 143Q671 143 668 141Q666 140 662 137Q607 102 549 79T407 55Q337 55 281 80T189 151Q129 226 129 332Q129 400 151 459T213 562T306 630T419 654Q468 654 514 637T597 589T655 513T676 414Q676 373 666 338T637 276T596 235T549
220Q535 220 535 232Q535 241 536 243L615 532Q615 544 605 544H542Q534 544 532 538L525 513Q495 563 422 563Q375 563 332 542T256 483T205 395T186 288Q186 220 226 180T329 140Q398 140 453 192Q458 166 479 153T530 140Q568 140 608 158T681 212T735 300T756
419ZM482 348Q466 288 431 251T346 214Q313 214 295 234T277 291Q277 330 288 366T320 431T367 476T420 492Q457 492 474 472T492 413Q492 384 482 348Z" />
<glyph unicode="A" glyph-name="A" horiz-adv-x="661" d="M651 0Q661 0 661 10V67Q661 77 651 77H600L387 701Q385 708 378 708H296Q289 708 287 701L59 77H10Q1 77 1 67V10Q1 0 10 0H119Q126 0 128 7L210 240H441L518 7Q520 0 528 0H651ZM331 579L413 324H239L331 579Z" />
<glyph unicode="B" glyph-name="B" horiz-adv-x="625" d="M591 201Q591 264 554 311T457 374Q505 396 531 436T557 530Q557 578 538 612T485 667T409 698T320 708H54Q44 708 44 698V641Q44 631 54 631H102V77H54Q44 77 44 67V10Q44 0 54 0H315Q369 0 417 10T505
42T567 104T591 201ZM481 204Q481 145 440 113T331 81H200V328H333Q398 328 439 298T481 204ZM452 519Q452 487 440 466T407 432T361 414T306 409H200V627H314Q378 627 415 601T452 519Z" />
<glyph unicode="C" glyph-name="C" horiz-adv-x="608" d="M582 672Q582 673 582 674Q583 675 583 676Q583 683 577 685Q531 704 485 715T381 726Q308 726 246 700T139 624T70 505T45 354Q45 271 69 202T137 84T243 9T379 -18Q440 -18 489 -6T575 26Q580 28 580
35V108Q580 118 571 118Q570 118 568 118Q567 117 566 117Q526 95 486 83T390 71Q338 71 295 91T219 150T170 241T152 354Q152 415 168 467T214 558T288 618T386 640Q432 640 469 631T545 606Q546 606 547 606Q548 605 549 605Q556 605 558 611L582 672Z" />
<glyph unicode="D" glyph-name="D" horiz-adv-x="673" d="M641 354Q641 430 618 494T549 607T433 681T271 708H56Q46 708 46 698V641Q46 631 56 631H104V77H56Q46 77 46 67V10Q46 0 56 0H271Q363 0 433 26T549 101T618 213T641 354ZM535 354Q535 295 517 245T466
158T389 101T294 81H203V627H282Q337 627 384 607T464 551T516 464T535 354Z" />
<glyph unicode="E" glyph-name="E" horiz-adv-x="546" d="M535 0Q544 0 544 10L545 71Q545 81 536 81H202V330H475Q485 330 485 339V402Q485 411 475 411H202V627H502Q511 627 511 637V698Q511 708 502 708H56Q46 708 46 698V641Q46 631 56 631H104V77H56Q46 77
46 67V10Q46 0 56 0H535Z" />
<glyph unicode="F" glyph-name="F" horiz-adv-x="509" d="M501 627Q511 627 511 637V698Q511 708 501 708H49Q39 708 39 698V641Q39 631 49 631H97V77H49Q39 77 39 67V10Q39 0 49 0H252Q262 0 262 10V67Q262 77 252 77H194V336H435Q445 336 445 345V407Q445 417
435 417H194V627H501Z" />
<glyph unicode="G" glyph-name="G" horiz-adv-x="650" d="M612 46V367Q612 377 603 377H461Q451 377 451 367V309Q451 299 461 299H515V89Q484 79 456 75T396 70Q343 70 299 91T223 150T174 240T157 354Q157 415 173 467T219 558T292 618T388 640Q440 640 477
629T549 599Q550 599 551 598Q553 598 553 598Q561 598 563 604L589 665Q589 666 589 667Q590 668 590 669Q590 676 585 678Q546 700 496 713T379 726Q307 726 247 700T143 624T75 505T51 354Q51 271 74 203T142 85T247 9T384 -18Q504 -18 607 37L612 46Z" />
<glyph unicode="H" glyph-name="H" horiz-adv-x="726" d="M680 0Q690 0 690 10V67Q690 77 680 77H631V631H680Q690 631 690 641V698Q690 708 680 708H542Q532 708 532 698V409H195V698Q195 708 185 708H47Q38 708 38 698V641Q38 631 47 631H96V77H47Q38 77 38
67V10Q38 0 47 0H185Q195 0 195 10V328H532V10Q532 0 542 0H680Z" />
<glyph unicode="I" glyph-name="I" horiz-adv-x="273" d="M232 0Q241 0 241 10V67Q241 77 232 77H185V631H232Q241 631 241 641V698Q241 708 232 708H46Q37 708 37 698V641Q37 631 46 631H92V77H46Q37 77 37 67V10Q37 0 46 0H232Z" />
<glyph unicode="J" glyph-name="J" horiz-adv-x="350" d="M317 632Q327 632 327 641V699Q327 708 317 708H121Q112 708 112 699V641Q112 632 121 632H174V158Q174 113 159 90T105 66Q60 66 14 89Q13 89 12 89Q10 90 10 90Q1 90 1 80V14Q1 8 6 5Q33 -7 59 -12T122
-18Q192 -18 230 24T269 138V632H317Z" />
<glyph unicode="K" glyph-name="K" horiz-adv-x="662" d="M653 0Q662 0 662 10V67Q662 77 653 77H590L365 450L532 631H620Q630 631 630 641V698Q630 708 620 708H491Q487 708 484 705L200 393V698Q200 708 191 708H53Q43 708 43 698V641Q43 631 53 631H102V77H53Q43
77 43 67V10Q43 0 53 0H191Q200 0 200 10V270L295 374L515 5Q518 0 524 0H653Z" />
<glyph unicode="L" glyph-name="L" horiz-adv-x="542" d="M533 0Q542 0 542 10V71Q542 81 533 81H200V631H258Q267 631 267 641V698Q267 708 258 708H54Q44 708 44 698V641Q44 631 54 631H102V77H54Q44 77 44 67V10Q44 0 54 0H533Z" />
<glyph unicode="M" glyph-name="M" horiz-adv-x="919" d="M875 0Q885 0 885 10V67Q885 77 875 77H826V631H875Q885 631 885 641V698Q885 708 875 708H691Q685 708 683 702L463 168L239 702Q237 708 230 708H50Q40 708 40 698V641Q40 631 50 631H99V77H50Q40 77
40 67V10Q40 0 50 0H179Q188 0 188 10V576L427 6Q429 0 436 0H483Q490 0 492 6L728 575V10Q728 0 737 0H875Z" />
<glyph unicode="N" glyph-name="N" horiz-adv-x="764" d="M732 631Q742 631 742 641V698Q742 708 732 708H600Q590 708 590 698V146L221 704Q219 708 213 708H56Q47 708 47 698V641Q47 631 56 631H105V77H56Q47 77 47 67V10Q47 0 56 0H189Q198 0 198 10V563L568
4Q570 0 575 0H674Q683 0 683 10V631H732Z" />
<glyph unicode="O" glyph-name="O" horiz-adv-x="754" d="M714 354Q714 435 693 503T629 621T523 698T379 726Q299 726 236 699T130 622T66 504T44 354Q44 273 65 205T130 87T236 10T379 -18Q460 -18 523 9T628 87T692 205T714 354ZM607 354Q607 295 594 243T553
151T481 89T379 66Q321 66 278 88T207 151T166 243T152 354Q152 414 165 466T206 558T277 620T379 643Q438 643 481 621T552 558T593 466T607 354Z" />
<glyph unicode="P" glyph-name="P" horiz-adv-x="567" d="M549 499Q549 597 487 652T315 708H51Q41 708 41 698V641Q41 631 51 631H99V77H51Q41 77 41 67V10Q41 0 51 0H252Q262 0 262 10V67Q262 77 252 77H196V294H315Q426 294 487 347T549 499ZM448 499Q448 438
415 407T319 375H196V627H319Q381 627 414 594T448 499Z" />
<glyph unicode="Q" glyph-name="Q" horiz-adv-x="755" d="M757 -69L724 -42Q722 -40 719 -40Q713 -40 710 -44Q681 -82 641 -82Q626 -82 608 -76L477 -28Q463 -23 441 -16L434 -14Q573 1 648 101T723 356Q723 437 702 505T637 624T531 702T387 730Q306 730 243
703T138 625T74 506T52 356Q52 208 121 109T319 -11Q288 -21 264 -44T224 -96Q224 -97 224 -98Q223 -99 223 -100Q223 -105 228 -109L262 -131Q264 -133 267 -133Q271 -133 274 -129Q294 -105 312 -94T359 -83Q376 -83 400 -90L409 -93Q430 -99 446 -106Q448 -107
453 -109Q460 -112 465 -113L464 -112L574 -155Q599 -164 624 -164Q661 -164 696 -145T759 -82L757 -69ZM614 355Q614 295 601 243T560 151T489 89T387 66Q329 66 286 88T215 151T174 243T160 355Q160 415 173 467T214 560T285 623T387 646Q445 646 489 623T560
560T601 468T614 355Z" />
<glyph unicode="R" glyph-name="R" horiz-adv-x="604" d="M594 0Q603 0 603 10V67Q603 77 594 77H552Q525 77 511 109Q503 124 495 159Q493 168 491 177Q478 230 462 266T410 327Q436 335 455 346T491 374Q543 426 543 509Q543 602 482 655T311 708H47Q37 708
37 698V641Q37 631 47 631H95V77H47Q37 77 37 67V10Q37 0 47 0H242Q252 0 252 10V67Q252 77 242 77H193V313H301Q344 289 363 247T398 136Q406 102 412 80T429 40Q452 0 496 0H594ZM438 509Q438 395 317 395H193V627H317Q376 627 407 596T438 509Z" />
<glyph unicode="S" glyph-name="S" horiz-adv-x="499" d="M479 189Q479 238 464 273T422 334T357 376T268 412Q188 439 157 466T126 539Q126 587 164 615T265 644Q313 644 348 636T419 613Q420 613 421 613Q422 612 423 612Q430 612 432 617L454 677Q454 678 454
679Q455 680 455 681Q455 688 449 689Q421 702 367 714T266 726Q157 726 94 674T30 529Q30 482 47 447T94 389T158 351T242 318Q309 296 343 267T378 186Q378 128 339 99T226 69Q175 69 133 81T47 112Q46 112 45 113Q43 113 43 113Q34 113 34 103V30Q34 23 39 21Q80
4 128 -7T231 -18Q346 -18 412 36T479 189Z" />
<glyph unicode="T" glyph-name="T" horiz-adv-x="536" d="M527 627Q537 627 537 637V698Q537 708 527 708H12Q3 708 3 698V637Q3 627 12 627H220V77H172Q163 77 163 67V10Q163 0 172 0H367Q377 0 377 10V67Q377 77 367 77H319V627H527Z" />
<glyph unicode="U" glyph-name="U" horiz-adv-x="717" d="M676 632Q686 632 686 641V699Q686 709 676 709H542Q532 709 532 699V253Q532 154 492 110T364 66Q274 66 234 110T193 253V699Q193 709 183 709H42Q33 709 33 699V641Q33 632 42 632H91V237Q91 114 157
48T363 -18Q499 -18 563 48T628 237V632H676Z" />
<glyph unicode="V" glyph-name="V" horiz-adv-x="662" d="M651 631Q661 631 661 641V698Q661 708 651 708H538Q532 708 530 701L336 141L144 701Q142 708 136 708H10Q1 708 1 698V641Q1 631 10 631H62L280 7Q282 0 289 0H371Q378 0 380 7L599 631H651Z" />
<glyph unicode="W" glyph-name="W" horiz-adv-x="999" d="M988 631Q998 631 998 641V698Q998 708 988 708H870Q863 708 861 701L706 154L553 701Q551 708 543 708H455Q447 708 445 701L290 152L137 701Q135 708 127 708H11Q1 708 1 698V641Q1 631 11 631H54L229
7Q231 0 239 0H328Q336 0 338 7L492 541L646 7Q648 0 656 0H745Q753 0 755 7L941 631H988Z" />
<glyph unicode="X" glyph-name="X" horiz-adv-x="644" d="M633 0Q643 0 643 10V67Q643 77 633 77H572L374 374L545 631H612Q621 631 621 641V698Q621 708 612 708H501Q495 708 493 704L324 450L154 704Q152 708 146 708H26Q16 708 16 698V641Q16 631 26 631H86L266
362L76 77H10Q1 77 1 67V10Q1 0 10 0H120Q126 0 128 4L316 286L504 4Q506 0 512 0H633Z" />
<glyph unicode="Y" glyph-name="Y" horiz-adv-x="585" d="M575 631Q585 631 585 641V698Q585 708 575 708H482Q476 708 473 703L303 406L118 703Q116 708 110 708H9Q0 708 0 698V641Q0 631 9 631H52L251 313V77H203Q193 77 193 67V10Q193 0 203 0H398Q408 0 408
10V67Q408 77 398 77H350V316L530 631H575Z" />
<glyph unicode="Z" glyph-name="Z" horiz-adv-x="541" d="M531 0Q541 0 541 10V73Q541 83 531 83H139L536 627V698Q536 708 526 708H40Q31 708 31 698V635Q31 625 40 625H420L25 84V10Q25 0 34 0H531Z" />
<glyph unicode="[" glyph-name="bracketleft" horiz-adv-x="236" d="M217 -140Q226 -140 226 -130V-69Q226 -60 217 -60H143V631H217Q226 631 226 641V702Q226 711 217 711H70Q61 711 61 702V-130Q61 -140 70 -140H217Z" />
<glyph unicode="\" glyph-name="backslash" horiz-adv-x="357" d="M367 8Q373 10 373 17Q373 17 372 19Q372 20 372 20L82 721Q80 726 73 726Q72 726 71 725Q70 725 69 725L9 702Q3 700 3 693Q3 692 4 691Q4 690 4 689L295 -12Q297 -18 304 -18Q304 -18 306 -17Q307
-17 307 -17L367 8Z" />
<glyph unicode="]" glyph-name="bracketright" horiz-adv-x="236" d="M185 -140Q194 -140 194 -130V702Q194 711 185 711H37Q29 711 29 702V641Q29 631 37 631H111V-60H37Q29 -60 29 -69V-130Q29 -140 37 -140H185Z" />
<glyph unicode="^" glyph-name="asciicircum" horiz-adv-x="646" d="M580 280Q586 282 586 290Q586 291 586 292Q585 293 585 294L370 692Q368 697 362 697H304Q297 697 295 692L83 294Q83 293 82 292Q82 291 82 290Q82 282 88 280L146 254Q147 254 149 254Q151
253 151 253Q157 253 159 257L331 580L505 256Q507 251 513 251Q514 251 515 252Q517 252 517 252L580 280Z" />
<glyph unicode="_" glyph-name="underscore" horiz-adv-x="500" d="M490 -121Q500 -121 500 -113V-57Q500 -49 490 -49H10Q0 -49 0 -57V-113Q0 -121 10 -121H490Z" />
<glyph unicode="`" glyph-name="grave" horiz-adv-x="480" d="M353 489Q362 489 362 498Q362 501 360 504L230 677Q228 681 222 681H147Q137 681 137 673Q137 670 140 667L280 493Q282 489 287 489H353Z" />
<glyph unicode="a" glyph-name="a" horiz-adv-x="518" d="M516 50L495 85Q492 89 487 89Q484 89 481 87L476 84Q457 74 448 74Q440 74 437 79T433 101V300Q433 387 386 433T242 480Q158 480 94 445Q89 443 89 436Q89 435 90 434Q90 433 90 432L110 383Q112 378
119 378Q119 378 121 378Q122 379 123 379Q174 404 230 404Q339 404 339 311V281Q317 299 284 311T212 323Q128 323 79 277T29 156Q29 77 75 33T206 -12Q253 -12 289 4T345 45Q359 0 418 0Q442 0 467 10T513 37L516 50ZM340 158Q340 115 307 89T225 62Q176 62 150
87T124 156Q124 198 149 224T222 250Q278 250 309 224T340 158Z" />
<glyph unicode="b" glyph-name="b" horiz-adv-x="570" d="M541 238Q541 350 484 418T318 487Q275 487 236 471T169 425L168 682Q168 719 148 743T87 768Q65 768 40 758T-8 731Q-12 728 -12 723Q-12 722 -12 721Q-11 719 -11 719L10 684Q13 680 18 680Q21 680 24
682Q42 694 57 694Q74 694 74 666V10Q74 0 84 0H159Q169 0 169 10V57Q193 26 233 7T325 -12Q425 -12 483 58T541 238ZM441 238Q441 164 410 117T315 69Q248 69 209 118T169 238Q169 309 208 358T315 408Q379 408 410 360T441 238Z" />
<glyph unicode="c" glyph-name="c" horiz-adv-x="437" d="M423 434Q423 445 418 447L415 448Q381 462 348 471T274 480Q222 480 178 462T102 411T53 332T36 234Q36 124 99 56T273 -12Q312 -12 350 -2T416 20Q422 22 422 29V92Q422 102 412 102Q411 102 410 102Q408
101 407 101Q372 82 341 74T278 66Q210 66 172 112T133 234Q133 305 169 352T275 400Q310 400 337 393T388 376Q389 376 390 376Q391 375 392 375Q399 375 401 381L423 434Z" />
<glyph unicode="d" glyph-name="d" horiz-adv-x="583" d="M593 51L572 86Q569 91 563 91Q560 91 558 89Q549 83 541 79T525 75Q516 75 513 80T509 102V682Q509 719 489 743T428 768Q406 768 381 758T333 731Q329 728 329 723Q329 722 329 721Q329 721 330 719L350
684Q353 680 359 680Q362 680 365 682Q372 687 381 690T397 694Q415 694 415 666V425Q361 487 261 487Q164 487 105 416Q78 383 63 337T48 238Q48 126 105 57T267 -12Q310 -12 351 5T419 53Q425 27 443 14T495 0Q519 0 543 10T590 38L593 51ZM415 238Q415 167 377
118T273 68Q211 68 180 116T149 238Q149 312 181 360T275 408Q339 408 377 359T415 238Z" />
<glyph unicode="e" glyph-name="e" horiz-adv-x="500" d="M466 198Q476 198 476 208V240Q476 356 423 418T270 480Q168 480 108 413T48 234Q48 127 108 58T279 -12Q335 -12 370 -4T436 20Q441 22 441 29V91Q441 101 432 101Q432 101 430 101Q428 100 427 100Q399
85 365 76T289 66Q255 66 230 77T186 109Q154 144 147 198H466ZM267 406Q320 406 347 372T377 272H148Q157 337 186 371T267 406Z" />
<glyph unicode="f" glyph-name="f" horiz-adv-x="296" d="M341 727Q341 738 337 740Q312 755 291 761T242 768Q202 768 173 754T126 716T100 663T92 603V476H17Q8 476 8 466V412Q8 403 17 403H92V10Q92 0 101 0H175Q184 0 184 10V403H282Q292 403 292 412V466Q292
476 282 476H184V576Q184 629 197 658T249 688Q263 688 279 683T308 672Q309 672 310 671Q312 671 313 671Q319 671 321 676L341 727Z" />
<glyph unicode="g" glyph-name="g" horiz-adv-x="567" d="M512 25V465Q512 475 502 475H428Q418 475 418 465V424Q364 486 264 486Q164 486 106 417T48 237Q48 125 105 57T269 -12Q311 -12 351 4T418 49V19Q418 -16 412 -46T389 -100T342 -139T268 -154Q223 -154
188 -146T122 -123Q121 -123 120 -123Q118 -122 117 -122Q108 -122 108 -131V-196Q108 -202 114 -204Q148 -218 186 -226T273 -234Q392 -234 452 -165T512 25ZM418 237Q418 167 379 118T273 68Q210 68 179 115T148 237Q148 311 179 359T273 407Q339 407 378 358T418
237Z" />
<glyph unicode="h" glyph-name="h" horiz-adv-x="548" d="M562 45L541 80Q538 85 533 85Q530 85 527 83Q518 77 510 73T494 69Q486 69 482 73T478 92V315Q478 396 435 441T301 487Q260 487 226 471T168 428V681Q168 719 149 743T88 768Q66 768 40 758T-8 731Q-12
728 -12 723Q-12 722 -12 720Q-11 719 -11 718L10 684Q13 679 18 679Q22 679 24 681Q41 694 57 694Q74 694 74 666V10Q74 0 84 0H158Q168 0 168 10V232Q168 307 199 356T295 406Q340 406 361 378T383 302V295L382 94V90Q382 43 401 19T464 -6Q488 -6 513 4T560
32L562 45Z" />
<glyph unicode="i" glyph-name="i" horiz-adv-x="248" d="M261 45L241 80Q238 85 233 85Q230 85 227 83Q220 78 212 74T196 69Q188 69 184 74T180 96L181 388V391Q181 427 162 451T103 475Q82 475 58 465T11 438Q7 435 7 430Q7 428 8 427Q8 427 8 425L28 391Q31
386 36 386Q40 386 42 388Q57 401 73 401Q90 401 90 373L89 93V89Q89 42 107 18T167 -6Q190 -6 214 4T259 32L261 45ZM182 643Q182 668 165 686T122 705Q97 705 80 687T63 643Q63 616 80 599T122 581Q148 581 165 598T182 643Z" />
<glyph unicode="j" glyph-name="j" horiz-adv-x="232" d="M179 -70V391Q179 429 160 453T102 478Q82 478 58 468T11 441Q7 438 7 433Q7 431 8 430Q8 430 8 428L28 394Q30 389 36 389Q39 389 41 391Q56 403 73 403Q89 403 89 375V-62Q89 -112 78 -135T26 -159Q6
-159 -8 -154T-38 -140Q-39 -140 -40 -139Q-42 -139 -43 -139Q-52 -139 -52 -149V-206Q-52 -212 -46 -214Q-44 -215 -43 -215Q-42 -215 -41 -216Q-21 -225 -3 -230T40 -235Q114 -235 146 -193T179 -70ZM178 647Q178 674 160 693T116 713Q90 713 72 694T54 647Q54
619 71 601T116 582Q143 582 160 600T178 647Z" />
<glyph unicode="k" glyph-name="k" horiz-adv-x="501" d="M537 58L514 91Q512 95 507 95Q504 95 501 93Q491 86 483 81T468 76Q459 76 454 80T441 98L328 311L479 412Q482 415 482 419Q482 420 482 422Q481 424 481 425L448 477Q445 481 439 481Q439 481 437 481Q434
480 434 480L169 293V683Q169 720 149 744T88 768Q66 768 41 758T-8 731Q-12 728 -12 723Q-12 722 -12 720Q-11 719 -11 718L10 684Q13 679 18 679Q22 679 24 681Q41 694 57 694Q74 694 74 666V10Q74 0 84 0H159Q169 0 169 10V202L249 256L350 55Q379 0 431 0Q466
0 491 13T537 44V58Z" />
<glyph unicode="l" glyph-name="l" horiz-adv-x="234" d="M244 45L224 80Q221 85 215 85Q212 85 210 83L209 82Q200 76 192 73T178 69Q170 69 166 74T162 97V681Q162 719 143 743T84 768Q63 768 39 758T-7 731Q-11 728 -11 723Q-11 722 -11 720Q-10 719 -10 718L9
684Q12 679 18 679Q21 679 23 681Q40 694 55 694Q71 694 71 666V94Q71 44 88 19T149 -6Q172 -6 196 4T241 32L244 45Z" />
<glyph unicode="m" glyph-name="m" horiz-adv-x="852" d="M867 44L845 79Q842 84 837 84Q834 84 831 82Q822 76 813 72T797 68Q789 68 786 73T782 95V311Q782 392 741 436T610 480Q561 480 523 459T464 400Q445 439 409 459T315 480Q270 480 235 462T180 417Q174
441 156 455T107 469Q85 469 60 459T12 432Q8 429 8 424Q8 423 8 422Q8 422 9 420L29 386Q32 381 38 381Q42 381 44 383Q61 396 77 396Q95 396 95 368V10Q95 0 105 0H180Q190 0 190 10V229Q190 265 196 295T215 349T252 386T308 400Q352 400 370 369T388 279V10Q388
0 398 0H476Q486 0 486 10V229Q486 265 492 295T511 349T547 386T603 400Q647 400 665 372T684 293V88Q684 42 703 18T767 -6Q791 -6 816 4T864 32L867 44Z" />
<glyph unicode="n" glyph-name="n" horiz-adv-x="567" d="M583 44L562 79Q559 84 553 84Q550 84 547 82H546Q536 75 529 72T514 68Q506 68 503 72T499 90V95L498 310Q498 390 454 435T321 480Q275 480 239 461T180 412Q173 438 156 453T105 469Q84 469 60 459T12
432Q8 429 8 424Q8 423 8 422Q8 422 9 420L29 386Q32 381 38 381Q41 381 43 383Q60 396 76 396Q94 396 94 368V10Q94 0 103 0H178Q187 0 187 10V229Q187 303 218 351T314 400Q359 400 380 371T402 291V88Q402 42 421 18T484 -6Q508 -6 533 4T580 32L583 44Z" />
<glyph unicode="o" glyph-name="o" horiz-adv-x="519" d="M490 234Q490 346 429 413T260 480Q153 480 92 413T30 234Q30 123 91 56T260 -12Q367 -12 428 55T490 234ZM392 234Q392 162 358 113T260 64Q196 64 162 113T128 234Q128 307 162 356T260 405Q324 405
358 356T392 234Z" />
<glyph unicode="p" glyph-name="p" horiz-adv-x="584" d="M555 237Q555 349 499 417T336 486Q292 486 251 469T182 418Q176 444 158 459T105 475Q84 475 60 465T12 438Q8 435 8 430Q8 429 8 427Q9 426 9 425L29 391Q32 386 38 386Q41 386 43 388Q60 401 76 401Q94
401 94 372V-213Q94 -223 103 -223H178Q188 -223 188 -213V50Q241 -12 344 -12Q392 -12 431 6T498 59T540 138T555 237ZM454 237Q454 164 422 116T328 68Q264 68 226 117T188 237Q188 308 227 357T330 407Q392 407 423 359T454 237Z" />
<glyph unicode="q" glyph-name="q" horiz-adv-x="567" d="M502 -223Q512 -223 512 -213V465Q512 475 502 475H428Q418 475 418 465V424Q366 486 262 486Q163 486 106 416T48 237Q48 125 105 57T269 -12Q310 -12 350 4T418 49V-213Q418 -223 428 -223H502ZM418
237Q418 167 379 118T273 68Q210 68 179 115T148 237Q148 311 179 359T273 407Q339 407 378 358T418 237Z" />
<glyph unicode="r" glyph-name="r" horiz-adv-x="376" d="M389 439Q389 440 389 441Q390 442 390 442Q390 448 385 450Q370 461 350 467T300 474Q263 474 230 454T176 396Q167 468 104 468Q82 468 58 459T11 432Q8 429 8 424Q8 423 8 421Q9 420 9 419L29 386Q31
381 37 381Q41 381 43 383Q57 395 75 395Q92 395 92 367V10Q92 0 102 0H175Q184 0 184 10V193Q184 237 195 279T227 352Q254 392 296 392Q315 392 329 387T353 374Q355 372 359 372Q365 372 367 379L389 439Z" />
<glyph unicode="s" glyph-name="s" horiz-adv-x="390" d="M378 139Q378 202 341 233T228 282Q176 294 150 309T123 347Q123 375 145 390T211 406Q244 406 270 399T320 381Q322 380 323 380Q324 379 324 379Q327 377 331 377Q337 377 340 382L361 430Q361 430 362
432Q362 433 362 434Q362 440 358 442Q321 462 283 471T211 480Q135 480 84 443T33 338Q33 305 45 283T79 245T126 221T194 200Q244 187 265 173T286 130Q286 98 259 82T194 65Q150 65 114 78T44 112Q41 114 38 114Q29 114 29 105V37Q29 31 35 29Q70 12 108 0T201
-12Q235 -12 266 -4T322 23T363 71T378 139Z" />
<glyph unicode="t" glyph-name="t" horiz-adv-x="308" d="M323 28V83Q323 93 314 93Q311 93 308 91Q296 83 274 77T232 70Q202 70 193 84T183 137V400H294Q304 400 304 410V463Q304 472 294 472H183V592Q183 601 174 601H101Q91 601 91 592V472H17Q8 472 8 463V410Q8
400 17 400H91V126Q91 56 122 25T218 -7Q244 -7 272 1T318 19L323 28Z" />
<glyph unicode="u" glyph-name="u" horiz-adv-x="566" d="M577 50L556 84Q553 89 547 89Q544 89 541 87L536 84Q517 74 508 74Q500 74 497 79T493 101V459Q493 468 483 468H409Q399 468 399 459V240Q399 166 368 118T272 69Q227 69 206 98T185 178V386Q185 422
165 445T103 468Q81 468 56 458T8 432Q4 429 4 424Q4 423 4 422Q4 422 5 420L25 386Q28 381 34 381Q37 381 39 383Q56 396 72 396Q89 396 89 372V158Q89 78 132 33T266 -12Q311 -12 347 6T406 56Q412 30 430 15T478 0Q502 0 527 10T574 37L577 50Z" />
<glyph unicode="v" glyph-name="v" horiz-adv-x="502" d="M502 437V438Q503 439 503 440Q503 446 497 449L434 472Q433 472 432 472Q431 473 430 473Q424 473 422 467L275 111L184 365Q184 366 182 371L181 374Q165 421 147 444T90 468Q44 468 -5 431Q-9 428 -9
423Q-9 421 -8 420Q-8 418 -8 418L12 385Q14 380 20 380Q21 380 23 380Q24 381 25 381Q45 392 58 392Q72 392 88 353L219 6Q221 0 228 0H311Q318 0 320 6L502 437Z" />
<glyph unicode="w" glyph-name="w" horiz-adv-x="765" d="M765 438Q765 438 765 439Q766 440 766 441Q766 447 759 450L696 472Q695 472 694 472Q693 473 693 473Q687 473 684 466L553 117L476 364Q459 418 440 443T379 468Q333 468 284 431Q280 428 280 423Q280
420 282 418L303 386Q306 381 311 381Q314 381 317 383Q332 394 348 394Q361 394 368 387T385 356V357L387 350L268 106L187 365Q171 417 152 442T91 468Q44 468 -5 431Q-9 428 -9 423Q-9 420 -7 418L15 386Q18 381 23 381Q25 381 28 383Q40 392 58 392Q79 392
92 354L204 7Q206 0 213 0H297Q304 0 306 6L420 238L495 7Q497 0 505 0H589Q596 0 598 6L765 438Z" />
<glyph unicode="x" glyph-name="x" horiz-adv-x="483" d="M493 63L470 95Q467 100 463 100Q459 100 456 97Q440 82 421 82Q405 82 384 114L301 241L462 420Q465 423 465 427Q465 431 462 433L421 477Q418 479 414 479Q410 479 407 477L257 310L187 419L186 421Q170
444 155 456T112 469Q88 469 63 455T15 418Q13 416 13 411Q13 410 13 408Q14 406 14 405L37 374Q40 370 45 370Q48 370 51 372Q69 387 86 387Q95 387 103 381T122 357L196 242L21 48Q18 45 18 41Q18 37 21 35L62 -9Q65 -11 69 -11Q73 -11 76 -9L240 173L319 49Q333
26 349 13T395 0Q419 0 444 14T492 51L493 63Z" />
<glyph unicode="y" glyph-name="y" horiz-adv-x="544" d="M490 27V465Q490 475 480 475H406Q397 475 397 465V236Q395 164 364 117T271 70Q226 70 205 99T184 180V391Q184 427 164 451T103 475Q81 475 56 465T8 438Q4 435 4 430Q4 429 4 427Q5 426 5 425L25 391Q28
386 33 386Q37 386 39 388Q56 401 72 401Q88 401 88 376V160Q88 79 131 34T264 -12Q307 -12 342 6T401 53V18Q401 -22 395 -53T373 -106T329 -141T257 -154Q215 -154 181 -146T119 -124Q118 -124 116 -123Q115 -123 114 -123Q106 -123 106 -132V-196Q106 -203 111
-205Q142 -218 179 -225T262 -233Q378 -233 434 -167T490 27Z" />
<glyph unicode="z" glyph-name="z" horiz-adv-x="433" d="M429 131L386 135Q377 135 375 128Q365 80 323 80Q304 80 279 87Q261 92 245 95T203 98Q182 98 154 90L422 408V459Q422 468 412 468H53Q44 468 44 459V398Q44 389 53 389H294L15 58V6Q15 -4 27 -4Q53
3 89 7T163 12Q188 12 235 2L242 1Q282 -8 308 -8Q364 -8 400 25T437 121L429 131Z" />
<glyph unicode="{" glyph-name="braceleft" horiz-adv-x="294" d="M278 -140Q287 -140 287 -130V-69Q287 -60 278 -60H228Q207 -60 199 -42T191 6V158Q191 209 173 241T128 286Q154 302 172 332T191 411V566Q191 596 199 613T228 631H278Q287 631 287 641V702Q287
711 278 711H213Q173 711 140 675T106 579V425Q106 381 85 353T35 324Q26 324 26 315V256Q26 246 35 246Q63 246 84 219T106 145V-8Q106 -68 139 -104T213 -140H278Z" />
<glyph unicode="|" glyph-name="bar" horiz-adv-x="176" d="M122 -18Q130 -18 130 -8V717Q130 726 122 726H70Q62 726 62 717V-8Q62 -18 70 -18H122Z" />
<glyph unicode="}" glyph-name="braceright" horiz-adv-x="294" d="M287 256V315Q287 324 278 324Q250 324 229 352T207 425V579Q207 639 174 675T100 711H35Q26 711 26 702V641Q26 631 35 631H85Q106 631 114 614T122 566V411Q122 363 140 333T185 286Q159 273
141 241T122 158V6Q122 -24 114 -42T85 -60H35Q26 -60 26 -69V-130Q26 -140 35 -140H100Q142 -140 174 -104T207 -8V145Q207 191 228 218T278 246L287 256Z" />
<glyph unicode="~" glyph-name="asciitilde" horiz-adv-x="645" d="M566 307L525 337Q525 337 523 338Q521 338 520 338Q513 338 510 333Q510 332 509 330Q507 329 507 328L508 329Q493 308 479 297T439 286Q418 286 399 292T353 309Q352 309 345 313Q337 317
333 318Q328 320 325 321Q295 333 275 339T231 345Q188 345 160 324T98 258Q96 256 96 253Q96 248 100 246L141 216Q144 214 147 214Q153 214 155 219Q156 220 157 222Q159 223 159 224L158 223Q173 244 187 255T224 266Q244 266 262 261T308 243L310 242Q314 241
322 237Q329 233 330 233Q362 220 384 213T432 206Q478 206 507 228T568 295L566 307Z" />
<glyph unicode="&#xa1;" glyph-name="exclamdown" horiz-adv-x="243" d="M166 -223Q175 -223 175 -213L170 249Q170 259 161 259H99Q91 259 91 249L86 -213Q86 -223 94 -223H166ZM190 418Q190 445 172 465T130 486Q106 486 88 466T70 418Q70 390 87 370T130 350Q155
350 172 370T190 418Z" />
<glyph unicode="&#xa2;" glyph-name="cent" horiz-adv-x="541" d="M470 552Q470 553 470 554Q471 555 471 556Q471 563 465 565Q438 577 409 586T342 597V694Q342 704 332 704H283Q274 704 274 694V593Q190 576 141 511T91 354Q91 259 139 195T274 114V9Q274 -1
283 -1H332Q342 -1 342 9V110Q377 112 408 121T464 141Q469 144 469 150V213Q469 223 460 223Q460 223 458 223Q456 222 455 222Q423 204 396 197T342 188V517Q396 513 437 494Q438 494 439 494Q440 493 441 493Q447 493 449 499L470 552ZM186 354Q186 409 208
451T274 508V198Q232 215 209 256T186 354Z" />
<glyph unicode="&#xa3;" glyph-name="sterling" horiz-adv-x="541" d="M524 135L477 142Q468 142 467 135Q460 109 444 98T401 86Q380 86 340 96L334 98Q313 103 297 106T259 109Q231 109 202 103Q217 135 227 174T238 262Q238 279 237 288L234 324H396Q406 324
406 334V394Q406 404 396 404H229L226 472Q226 477 226 483Q225 491 225 492Q225 560 252 598T343 637Q381 637 411 627T479 595Q480 595 481 594Q483 594 484 594Q489 594 492 598L523 645Q525 647 525 651Q525 656 521 659Q482 687 441 703T343 720Q301 720 263
708T195 669T147 601T129 507V491L133 404H35Q25 404 25 394V334Q25 324 35 324H137L140 281V273Q140 269 141 248Q141 228 141 223Q141 192 137 168T118 125Q105 105 86 93T35 69Q28 67 28 60V6Q28 -4 40 -4Q92 11 125 17T202 24Q223 24 247 20T298 7Q352 -8 382
-8Q448 -8 490 27T533 126L524 135Z" />
<glyph unicode="&#xa5;" glyph-name="yen" horiz-adv-x="550" d="M553 631Q563 631 563 641V698Q563 708 553 708H462Q456 708 454 703L296 398L124 703Q122 708 115 708H16Q7 708 7 698V641Q7 631 16 631H58L208 373H100Q91 373 91 364V312Q91 302 100 302H246V243H100Q91
243 91 233V182Q91 172 100 172H246V77H198Q188 77 188 67V10Q188 0 198 0H389Q399 0 399 10V67Q399 77 389 77H341V172H488Q498 172 498 182V233Q498 243 488 243H341V302H488Q498 302 498 312V364Q498 373 488 373H375L508 631H553Z" />
<glyph unicode="&#xa7;" glyph-name="section" horiz-adv-x="529" d="M473 289Q473 348 444 385T357 454L237 520Q214 533 201 547T187 582Q187 618 213 635T284 652Q319 652 355 642T428 613Q429 613 430 613Q431 612 432 612Q439 612 441 618L465 668Q465 669
466 670Q466 672 466 672Q466 677 461 680Q426 700 382 714T281 729Q203 729 149 691T94 582Q94 533 114 504T179 446Q128 422 102 385T75 303Q75 245 103 209T184 144L301 79Q333 62 348 45T364 3Q364 -30 336 -46T262 -62Q216 -62 178 -51T91 -16Q91 -16 89 -16Q87
-15 87 -15Q78 -15 78 -24V-93Q78 -100 84 -102Q131 -122 170 -131T268 -141Q345 -141 400 -101T456 9Q456 57 436 87T369 147Q421 172 447 208T473 289ZM381 283Q381 250 358 226T294 190L263 207Q209 237 189 257T169 310Q169 343 192 367T251 405L288 385Q341
356 361 336T381 283Z" />
<glyph unicode="&#xa8;" glyph-name="dieresis" horiz-adv-x="491" d="M408 586Q408 608 391 624T348 640Q323 640 306 624T288 586Q288 563 305 548T348 532Q373 532 390 547T408 586ZM222 586Q222 608 205 624T162 640Q137 640 120 624T102 586Q102 564 119
548T162 532Q187 532 204 547T222 586Z" />
<glyph unicode="&#xa9;" glyph-name="copyright" horiz-adv-x="785" d="M774 354Q774 432 745 500T664 619T545 698T402 726Q327 726 260 698T140 620T59 501T30 354Q30 276 59 208T140 89T259 10T402 -18Q477 -18 544 10T664 88T745 207T774 354ZM690 354Q690
292 668 237T606 141T514 78T402 55Q343 55 291 77T198 141T136 237T114 354Q114 417 136 472T198 568T290 631T402 654Q461 654 513 632T606 568T668 472T690 354ZM544 547Q544 548 544 549Q545 550 545 551Q545 558 539 560Q512 572 481 579T410 587Q361 587
320 571T249 523T203 449T186 354Q186 250 248 186T409 122Q449 122 480 129T538 149Q543 152 543 158V215Q543 225 535 225Q535 225 533 225Q531 224 530 224Q502 210 477 203T417 196Q356 196 317 237T278 353Q278 423 313 468T414 513Q437 513 459 509T511 494Q512
494 513 494Q514 493 515 493Q522 493 524 499L544 547Z" />
<glyph unicode="&#xaa;" glyph-name="ordfeminine" horiz-adv-x="352" d="M346 444L333 465Q330 469 325 469Q322 469 320 467Q318 466 316 465Q309 460 305 460Q304 462 304 472V588Q304 641 273 670T176 699Q123 699 79 678Q73 676 73 671Q73 670 74 669Q74
668 74 667L86 632Q88 626 95 626Q95 626 97 626Q98 627 99 627Q125 639 164 639Q197 639 213 626T230 591V585Q200 605 153 605Q98 605 67 577T35 504Q35 457 65 430T152 403Q182 403 204 412T241 434Q252 409 286 409Q302 409 317 415T345 433L346 444ZM230 505Q230
484 215 472T170 459Q139 459 125 471T110 504Q110 525 124 537T167 550Q200 550 215 538T230 505Z" />
<glyph unicode="&#xab;" glyph-name="guillemotleft" horiz-adv-x="481" d="M437 61Q442 64 442 69Q442 71 440 74L332 239L440 404Q442 407 442 410Q442 414 437 417L385 451Q382 453 379 453Q375 453 373 449L237 245Q237 244 236 243Q236 240 236 239Q236 238
236 235Q237 234 237 233L373 29Q375 25 379 25Q382 25 385 27L437 61ZM260 61Q265 64 265 69Q265 71 263 74L155 239L263 404Q265 407 265 410Q265 414 260 417L208 451Q205 453 202 453Q198 453 196 449L60 245Q60 244 59 243Q59 240 59 239Q59 238 59 235Q60
234 60 233L196 29Q198 25 202 25Q205 25 208 27L260 61Z" />
<glyph unicode="&#xac;" glyph-name="logicalnot" horiz-adv-x="549" d="M525 172Q535 172 535 181V396Q535 405 525 405H23Q13 405 13 396V330Q13 320 23 320H445V181Q445 172 454 172H525Z" />
<glyph unicode="&#xae;" glyph-name="registered" horiz-adv-x="785" d="M774 354Q774 432 745 500T664 619T545 698T402 726Q327 726 260 698T140 620T59 501T30 354Q30 276 59 208T140 89T259 10T402 -18Q477 -18 544 10T664 88T745 207T774 354ZM529 133H599Q559
96 509 76T402 55Q343 55 291 77T198 141T136 237T114 354Q114 417 136 472T198 568T290 631T402 654Q461 654 513 632T606 568T668 472T690 354Q690 292 668 237T607 141V186Q607 196 597 196H577Q562 196 555 207T541 245L540 247Q540 248 539 251Q530 282 521
302T491 336Q519 346 540 365Q575 398 575 450Q575 511 534 544T414 577H223Q213 577 213 567V524Q213 514 223 514H253V196H223Q213 196 213 186V143Q213 133 223 133H363Q373 133 373 143V186Q373 196 363 196H334V323H395Q422 310 435 285T458 220Q469 176 482
155T529 133ZM485 453Q485 388 407 388H334V512H407Q485 512 485 453Z" />
<glyph unicode="&#xaf;" glyph-name="overscore" horiz-adv-x="493" d="M413 443Q423 443 423 451V498Q423 505 413 505H98Q89 505 89 498V451Q89 443 98 443H413Z" />
<glyph unicode="&#xb0;" glyph-name="degree" horiz-adv-x="379" d="M342 593Q342 654 301 695T199 736Q139 736 98 695T56 593Q56 533 97 492T199 450Q259 450 300 491T342 593ZM267 593Q267 563 247 542T199 521Q171 521 151 542T131 593Q131 624 151 645T199
666Q227 666 247 645T267 593Z" />
<glyph unicode="&#xb1;" glyph-name="plusminus" horiz-adv-x="549" d="M535 292Q545 292 545 301V371Q545 381 535 381H329V554Q329 564 320 564H248Q239 564 239 554V381H33Q23 381 23 371V301Q23 292 33 292H239V118Q239 108 248 108H320Q329 108 329 118V292H535ZM535
0Q545 0 545 10V79Q545 89 535 89H33Q23 89 23 79V10Q23 0 33 0H535Z" />
<glyph unicode="&#xb4;" glyph-name="acute" horiz-adv-x="480" d="M359 667Q361 670 361 673Q361 681 352 681H276Q271 681 269 677L139 504Q137 501 137 498Q137 489 146 489H211Q218 489 218 493L359 667Z" />
<glyph unicode="&#xb5;" glyph-name="mu" horiz-adv-x="566" d="M577 51L556 86Q553 90 548 90Q544 90 541 88L536 85Q517 75 508 75Q500 75 497 80T493 102V465Q493 474 483 474H409Q399 474 399 465V243Q399 168 369 119T274 70Q229 70 208 100T187 180V388Q187
425 167 449T105 474Q83 474 58 464T10 438Q6 435 6 430Q6 429 6 427Q7 426 7 425L27 391Q30 386 36 386Q40 386 42 388Q57 401 74 401Q91 401 91 372V-218Q91 -228 100 -228H171Q181 -228 181 -218V26Q199 9 224 -1T286 -12Q325 -12 355 6T406 54Q412 29 430 15T478
0Q502 0 527 10T574 38L577 51Z" />
<glyph unicode="&#xb6;" glyph-name="paragraph" horiz-adv-x="621" d="M620 -88L599 -48Q596 -43 590 -43Q587 -43 584 -45Q576 -50 566 -54T549 -59Q540 -59 536 -54T532 -31V636H580Q590 636 590 645V703Q590 713 580 713H314Q184 713 109 628T34 403Q34 346
51 295T98 206T169 144T257 115V-135Q257 -186 274 -210T336 -234Q360 -234 384 -224T431 -196Q435 -193 435 -188Q435 -186 435 -185Q434 -183 434 -183L413 -143Q410 -138 404 -138Q401 -138 398 -140Q392 -145 382 -149T364 -154Q354 -154 350 -149T346 -126V633H441V-40Q441
-90 458 -114T521 -139Q545 -139 569 -129T617 -101L620 -88Z" />
<glyph unicode="&#xb7;" glyph-name="middot" horiz-adv-x="243" d="M190 273Q190 249 172 231T130 213T88 231T70 273Q70 298 87 315T130 333T172 316T190 273Z" />
<glyph unicode="&#xb8;" glyph-name="cedilla" horiz-adv-x="481" d="M365 -110Q365 -73 338 -53T277 -33H261L292 4Q294 7 294 10Q294 18 284 18H243Q239 18 236 15L171 -67Q169 -70 169 -73Q169 -77 172 -79L192 -98Q195 -101 199 -101Q200 -101 201 -100Q202
-100 202 -100Q226 -88 248 -88Q264 -88 275 -93T286 -112Q286 -126 272 -131T232 -136Q212 -136 189 -131T147 -117Q147 -117 145 -117Q143 -116 143 -116Q134 -116 134 -125V-170Q134 -177 141 -179Q170 -189 194 -194T245 -199Q297 -199 331 -178T365 -110Z"
/>
<glyph unicode="&#xba;" glyph-name="ordmasculine" horiz-adv-x="351" d="M339 551Q339 617 298 658T185 699Q114 699 73 658T31 551Q31 485 72 444T185 403Q256 403 297 444T339 551ZM261 551Q261 511 243 487T185 463Q145 463 127 487T109 551Q109 590 127
615T185 640Q225 640 243 615T261 551Z" />
<glyph unicode="&#xbb;" glyph-name="guillemotright" horiz-adv-x="481" d="M263 233Q263 234 264 235Q265 238 265 239Q265 240 264 243Q263 244 263 245L127 449Q125 453 121 453Q118 453 115 451L63 417Q58 414 58 410Q58 407 60 404L167 239L60 74Q58 71
58 69Q58 64 63 61L115 27Q118 25 121 25Q125 25 127 29L263 233ZM440 233Q440 234 441 235Q442 238 442 239Q442 240 441 243Q440 244 440 245L304 449Q302 453 298 453Q295 453 292 451L240 417Q235 414 235 410Q235 407 237 404L344 239L237 74Q235 71 235 69Q235
64 240 61L292 27Q295 25 298 25Q302 25 304 29L440 233Z" />
<glyph unicode="&#xbf;" glyph-name="questiondown" horiz-adv-x="465" d="M468 -128L431 -87Q428 -84 424 -84Q420 -84 417 -87Q392 -112 357 -132T279 -152Q223 -152 195 -127T167 -54Q167 -20 185 7T239 71L251 84Q290 124 303 155T317 234V281Q317 291 308
291H233Q224 291 224 281V240Q224 206 213 183T178 137Q124 87 97 44T70 -60Q70 -144 124 -189T270 -234Q336 -234 385 -207T468 -142V-128ZM337 418Q337 445 317 465T271 486Q245 486 225 466T204 418Q204 389 223 370T271 350Q298 350 317 370T337 418Z" />
<glyph unicode="&#xc0;" glyph-name="Agrave" horiz-adv-x="660" d="M650 0Q660 0 660 10V67Q660 77 650 77H599L386 705Q384 712 377 712H295Q288 712 286 705L58 77H9Q0 77 0 67V10Q0 0 9 0H118Q125 0 127 7L209 242H440L517 7Q519 0 527 0H650ZM448 741Q460
741 460 751V808Q460 815 452 817L149 880Q137 880 137 870V799Q137 791 145 789L448 741ZM330 582L412 326H238L330 582Z" />
<glyph unicode="&#xc1;" glyph-name="Aacute" horiz-adv-x="660" d="M650 0Q660 0 660 10V67Q660 77 650 77H599L386 705Q384 712 377 712H295Q288 712 286 705L58 77H9Q0 77 0 67V10Q0 0 9 0H118Q125 0 127 7L209 242H440L517 7Q519 0 527 0H650ZM503 789Q511
791 511 799V870Q511 880 500 880L197 817Q189 815 189 808V751Q189 741 201 741L503 789ZM330 582L412 326H238L330 582Z" />
<glyph unicode="&#xc2;" glyph-name="Acircumflex" horiz-adv-x="660" d="M650 0Q660 0 660 10V68Q660 77 650 77H599L386 705Q384 712 377 712H295Q288 712 286 705L58 77H9Q0 77 0 68V10Q0 0 9 0H118Q125 0 127 7L209 242H440L517 7Q519 0 527 0H650ZM523 744Q535
744 535 753V808Q535 815 530 817L337 900Q337 900 335 900Q334 901 334 901Q333 901 332 900Q330 900 330 900L139 817Q134 815 134 808V753Q134 744 146 744L334 810L523 744ZM330 582L412 326H238L330 582Z" />
<glyph unicode="&#xc3;" glyph-name="Atilde" horiz-adv-x="660" d="M650 0Q660 0 660 10V67Q660 77 650 77H599L386 705Q384 712 377 712H295Q288 712 286 705L58 77H9Q0 77 0 67V10Q0 0 9 0H118Q125 0 127 7L209 242H440L517 7Q519 0 527 0H650ZM514 886H464Q456
886 454 878Q450 861 441 850T416 838Q399 838 385 841T346 852H345V851L336 854Q313 862 294 865T247 869Q196 869 167 834T134 751Q134 740 143 740H194Q203 740 203 748Q207 765 216 776T245 788Q267 788 301 778L304 777L303 778Q309 776 318 774L321 773Q322
773 327 772Q331 770 332 770H333Q358 763 376 760T419 757Q467 757 493 792T524 875L514 886ZM330 582L412 326H238L330 582Z" />
<glyph unicode="&#xc4;" glyph-name="Adieresis" horiz-adv-x="660" d="M650 0Q660 0 660 10V67Q660 77 650 77H599L386 705Q384 712 377 712H295Q288 712 286 705L58 77H9Q0 77 0 67V10Q0 0 9 0H118Q125 0 127 7L209 241H440L517 7Q519 0 527 0H650ZM330 582L412
325H238L330 582ZM276 803Q276 829 258 847T214 866Q188 866 170 848T152 803Q152 777 170 759T214 741Q240 741 258 759T276 803ZM514 803Q514 829 496 847T452 866Q426 866 408 848T390 803Q390 777 408 759T452 741Q478 741 496 759T514 803Z" />
<glyph unicode="&#xc5;" glyph-name="Aring" horiz-adv-x="662" d="M651 0Q661 0 661 10V67Q661 77 651 77H600L400 667Q423 682 436 707T449 762Q449 808 417 841T336 875Q288 875 256 842T224 762Q224 732 237 708T273 668L59 77H10Q1 77 1 67V10Q1 0 10 0H119Q126
0 128 7L210 241H441L518 7Q520 0 528 0H651ZM331 582L413 326H239L331 582ZM387 762Q387 741 373 728T341 712H333Q314 713 300 727T286 762Q286 783 301 797T336 812Q356 812 371 798T387 762Z" />
<glyph unicode="&#xc6;" glyph-name="AE" horiz-adv-x="927" d="M915 0Q925 0 925 10V71Q925 81 915 81H601V330H854Q864 330 864 339V402Q864 411 854 411H601V627H882Q892 627 892 637V698Q892 708 882 708H350Q341 708 341 698V644Q341 634 350 634H404L63
77H13Q3 77 3 67V10Q3 0 13 0H112Q118 0 120 5L240 202H504V77H454Q444 77 444 67V10Q444 0 454 0H915ZM498 631H504V285H290L498 631Z" />
<glyph unicode="&#xc7;" glyph-name="Ccedilla" horiz-adv-x="608" d="M588 676Q588 677 588 678Q589 679 589 680Q589 687 583 688Q537 708 491 719T387 731Q314 731 252 704T145 627T76 508T51 356Q51 209 121 112T310 -11L256 -69Q254 -71 254 -74Q254 -78
256 -82L277 -105Q279 -107 286 -107Q289 -106 295 -105Q301 -103 304 -102L303 -103H305Q333 -94 349 -94Q368 -94 381 -100T395 -121Q395 -137 377 -142T331 -148Q308 -148 283 -142T229 -127Q216 -127 216 -137V-188Q216 -196 223 -198Q258 -208 287 -213T349
-218Q405 -218 445 -194T486 -120Q486 -81 455 -58T385 -35H362L385 -18Q446 -18 495 -6T581 26Q586 28 586 35V109Q586 119 576 119Q576 119 574 119Q572 118 572 118Q531 96 491 84T396 71Q345 71 301 92T225 151T176 241T158 356Q158 417 174 469T220 561T294
621T392 643Q439 643 476 634T551 609Q552 609 553 609Q554 608 555 608Q562 608 564 614L588 676Z" />
<glyph unicode="&#xc8;" glyph-name="Egrave" horiz-adv-x="546" d="M535 0Q544 0 544 10V71Q544 81 535 81H202V331H475Q485 331 485 341V404Q485 414 475 414H202V631H502Q511 631 511 640V702Q511 712 502 712H56Q46 712 46 702V644Q46 635 56 635H104V77H56Q46
77 46 67V10Q46 0 56 0H535ZM454 741Q465 741 465 751V808Q465 815 458 817L158 880Q146 880 146 870V799Q146 791 154 789L454 741Z" />
<glyph unicode="&#xc9;" glyph-name="Eacute" horiz-adv-x="546" d="M535 0Q544 0 544 10V71Q544 81 535 81H202V331H475Q485 331 485 341V404Q485 414 475 414H202V631H502Q511 631 511 640V702Q511 712 502 712H56Q46 712 46 702V644Q46 635 56 635H104V77H56Q46
77 46 67V10Q46 0 56 0H535ZM461 789Q468 791 468 799V870Q468 880 457 880L157 817Q149 815 149 808V751Q149 741 161 741L461 789Z" />
<glyph unicode="&#xca;" glyph-name="Ecircumflex" horiz-adv-x="546" d="M535 0Q544 0 544 10V71Q544 81 535 81H202V332H475Q485 332 485 341V404Q485 414 475 414H202V631H502Q511 631 511 641V702Q511 712 502 712H56Q46 712 46 702V645Q46 635 56 635H104V77H56Q46
77 46 68V10Q46 0 56 0H535ZM484 744Q496 744 496 753V808Q496 815 490 817L300 900Q299 900 298 900Q297 901 296 901Q295 901 294 900Q293 900 292 900L104 817Q98 815 98 808V753Q98 744 111 744L296 810L484 744Z" />
<glyph unicode="&#xcb;" glyph-name="Edieresis" horiz-adv-x="546" d="M535 0Q544 0 544 10V71Q544 81 535 81H202V331H475Q485 331 485 341V404Q485 413 475 413H202V630H502Q511 630 511 640V702Q511 712 502 712H56Q46 712 46 702V644Q46 634 56 634H104V77H56Q46
77 46 67V10Q46 0 56 0H535ZM245 803Q245 829 227 847T184 866Q158 866 140 848T122 803Q122 777 140 759T184 741Q210 741 227 759T245 803ZM481 803Q481 829 463 847T419 866Q394 866 376 848T358 803Q358 777 376 759T419 741Q445 741 463 759T481 803Z" />
<glyph unicode="&#xcc;" glyph-name="Igrave" horiz-adv-x="282" d="M246 0Q256 0 256 10V67Q256 77 246 77H198V635H246Q256 635 256 644V702Q256 712 246 712H55Q45 712 45 702V644Q45 635 55 635H102V77H55Q45 77 45 67V10Q45 0 55 0H246ZM267 741Q278 741
278 751V808Q278 815 271 817L-23 880Q-34 880 -34 870V799Q-34 791 -26 789L267 741Z" />
<glyph unicode="&#xcd;" glyph-name="Iacute" horiz-adv-x="282" d="M246 0Q256 0 256 10V67Q256 77 246 77H198V635H246Q256 635 256 644V702Q256 712 246 712H55Q45 712 45 702V644Q45 635 55 635H102V77H55Q45 77 45 67V10Q45 0 55 0H246ZM304 789Q311 791
311 799V870Q311 880 300 880L7 817Q-1 815 -1 808V751Q-1 741 10 741L304 789Z" />
<glyph unicode="&#xce;" glyph-name="Icircumflex" horiz-adv-x="286" d="M249 0Q259 0 259 10V68Q259 77 249 77H201V635H249Q259 635 259 645V702Q259 712 249 712H55Q46 712 46 702V645Q46 635 55 635H104V77H55Q46 77 46 68V10Q46 0 55 0H249ZM339 744Q351
744 351 753V808Q351 815 345 817L157 900Q156 900 155 900Q154 901 153 901Q152 901 151 900Q150 900 149 900L-37 817Q-43 815 -43 808V753Q-43 744 -30 744L153 810L339 744Z" />
<glyph unicode="&#xcf;" glyph-name="Idieresis" horiz-adv-x="284" d="M248 0Q257 0 257 10V67Q257 77 248 77H200V634H248Q257 634 257 644V702Q257 712 248 712H55Q45 712 45 702V644Q45 634 55 634H103V77H55Q45 77 45 67V10Q45 0 55 0H248ZM97 803Q97 829
79 847T36 866Q11 866 -7 848T-25 803Q-25 777 -7 759T36 741Q62 741 79 759T97 803ZM328 803Q328 829 311 847T268 866Q243 866 225 848T207 803Q207 777 225 759T268 741Q293 741 310 759T328 803Z" />
<glyph unicode="&#xd1;" glyph-name="Ntilde" horiz-adv-x="764" d="M722 635Q732 635 732 644V702Q732 712 722 712H590Q580 712 580 702V147L211 708Q209 712 203 712H46Q37 712 37 702V644Q37 635 46 635H95V77H46Q37 77 37 67V10Q37 0 46 0H179Q188 0 188
10V566L558 4Q560 0 565 0H664Q673 0 673 10V635H722ZM580 886H529Q522 886 520 878Q516 861 507 850T482 838Q464 838 449 841T410 852Q408 853 405 854Q401 855 399 856H400Q380 863 362 866T313 869Q263 869 234 834T199 751Q199 740 209 740H259Q267 740 269
748Q273 765 282 776T311 788Q332 788 369 777H370L369 778Q375 776 384 774L387 773Q393 771 397 770L400 769Q423 763 442 760T485 757Q533 757 559 792T590 875L580 886Z" />
<glyph unicode="&#xd2;" glyph-name="Ograve" horiz-adv-x="754" d="M721 356Q721 437 700 505T636 624T530 702T386 730Q306 730 243 703T138 625T73 506T51 356Q51 275 73 207T137 88T243 10T386 -18Q467 -18 530 9T635 87T699 206T721 356ZM614 356Q614 296
601 244T560 152T489 90T386 67Q328 67 285 89T214 152T173 244T159 356Q159 416 172 468T213 561T284 623T386 646Q445 646 488 624T559 561T600 469T614 356ZM518 741Q529 741 529 751V808Q529 816 521 818L218 880Q207 880 207 871V799Q207 791 215 789L518
741Z" />
<glyph unicode="&#xd3;" glyph-name="Oacute" horiz-adv-x="754" d="M721 356Q721 437 700 505T636 624T530 702T386 730Q306 730 243 703T138 625T73 506T51 356Q51 275 73 207T137 88T243 10T386 -18Q467 -18 530 9T635 87T699 206T721 356ZM614 356Q614 296
601 244T560 152T489 90T386 67Q328 67 285 89T214 152T173 244T159 356Q159 416 172 468T213 561T284 623T386 646Q445 646 488 624T559 561T600 469T614 356ZM559 789Q567 791 567 799V871Q567 880 555 880L252 818Q245 816 245 808V751Q245 741 256 741L559
789Z" />
<glyph unicode="&#xd4;" glyph-name="Ocircumflex" horiz-adv-x="754" d="M721 356Q721 438 700 506T636 624T530 702T386 730Q306 730 243 703T137 625T73 506T51 356Q51 275 73 207T137 88T243 10T386 -18Q467 -18 530 9T635 87T699 206T721 356ZM614 356Q614
296 601 244T560 152T489 90T386 67Q328 67 285 89T214 152T173 244T159 356Q159 416 172 468T213 561T284 623T386 646Q445 646 488 624T559 561T600 469T614 356ZM577 745Q577 745 579 745Q580 745 581 745Q589 745 589 754V808Q589 815 584 817L391 900Q390
900 389 900Q388 901 387 901Q386 901 385 900H384L193 817Q187 815 187 808V754Q187 745 197 745Q197 745 198 745Q200 745 200 745L387 810L577 745Z" />
<glyph unicode="&#xd5;" glyph-name="Otilde" horiz-adv-x="754" d="M721 356Q721 437 700 505T636 624T530 702T386 730Q306 730 243 703T138 625T73 506T51 356Q51 275 73 207T137 88T243 10T386 -18Q467 -18 530 9T635 87T699 206T721 356ZM614 356Q614 296
601 244T560 152T489 90T386 67Q328 67 285 89T214 152T173 244T159 356Q159 416 172 468T213 561T284 623T386 646Q445 646 488 624T559 561T600 469T614 356ZM583 886H532Q524 886 522 879Q519 862 511 850T485 838Q466 838 451 841T413 852Q411 853 408 854Q404
855 402 856H403Q382 863 363 866T316 870Q266 870 237 834T202 751Q202 741 212 741H262Q270 741 272 748Q276 766 285 777T314 789Q333 789 368 779L373 778L372 779Q382 775 389 773Q390 773 395 772Q399 770 400 770Q425 764 443 761T487 757Q535 757 561 792T592
876L583 886Z" />
<glyph unicode="&#xd6;" glyph-name="Odieresis" horiz-adv-x="754" d="M721 356Q721 437 700 505T636 624T530 701T386 729Q306 729 243 702T137 624T73 506T51 356Q51 275 73 207T137 88T243 10T386 -18Q467 -18 530 9T635 87T699 206T721 356ZM614 356Q614
296 601 244T560 151T489 89T386 66Q328 66 285 88T214 151T173 243T159 356Q159 416 172 468T213 560T284 622T386 645Q445 645 488 623T559 560T600 468T614 356ZM571 804Q571 829 553 847T509 866Q483 866 465 848T447 804Q447 778 465 760T509 741Q535 741
553 759T571 804ZM333 804Q333 829 315 847T271 866Q245 866 227 848T209 804Q209 778 227 760T271 741Q297 741 315 759T333 804Z" />
<glyph unicode="&#xd8;" glyph-name="Oslash" horiz-adv-x="754" d="M721 355Q721 509 648 606L713 683Q715 685 715 688Q715 693 711 697L668 733Q666 735 663 735Q658 735 654 731L595 661Q512 727 386 727Q306 727 243 700T137 622T73 504T51 355Q51 280 70
216T125 103L61 27Q59 24 59 21Q59 18 62 15L103 -22Q106 -25 109 -25Q114 -25 117 -21L177 50Q262 -18 386 -18Q467 -18 530 9T635 87T699 206T721 355ZM614 355Q614 295 601 243T560 151T489 89T386 66Q296 66 238 121L579 525Q614 449 614 355ZM159 355Q159
415 172 467T213 558T284 620T386 643Q477 643 534 588L194 184Q159 256 159 355Z" />
<glyph unicode="&#xd9;" glyph-name="Ugrave" horiz-adv-x="717" d="M677 635Q687 635 687 645V702Q687 712 677 712H543Q533 712 533 702V254Q533 155 493 111T365 67Q275 67 235 110T194 254V702Q194 712 184 712H43Q34 712 34 702V645Q34 635 43 635H92V239Q92
114 158 48T364 -19Q500 -19 564 47T629 239V635H677ZM500 742Q512 742 512 751V808Q512 816 504 818L202 880Q190 880 190 871V799Q190 791 198 789L500 742Z" />
<glyph unicode="&#xda;" glyph-name="Uacute" horiz-adv-x="717" d="M685 635Q695 635 695 645V702Q695 712 685 712H551Q541 712 541 702V254Q541 155 501 111T373 67Q283 67 243 110T202 254V702Q202 712 192 712H51Q42 712 42 702V645Q42 635 51 635H100V239Q100
114 166 48T372 -19Q508 -19 572 47T637 239V635H685ZM573 789Q581 791 581 799V871Q581 880 570 880L267 818Q259 816 259 808V751Q259 742 271 742L573 789Z" />
<glyph unicode="&#xdb;" glyph-name="Ucircumflex" horiz-adv-x="717" d="M679 635Q689 635 689 645V703Q689 713 679 713H545Q535 713 535 703V254Q535 155 495 111T367 67Q277 67 237 110T196 254V703Q196 713 186 713H45Q36 713 36 703V645Q36 635 45 635H94V239Q94
114 160 48T366 -19Q502 -19 566 47T631 239V635H679ZM557 745Q557 745 559 745Q560 745 561 745Q569 745 569 754V808Q569 815 564 817L371 900Q371 900 369 900Q368 901 368 901Q367 901 366 900Q364 900 364 900L174 817Q168 815 168 808V754Q168 745 177 745Q177
745 178 745Q179 745 180 745L368 810L557 745Z" />
<glyph unicode="&#xdc;" glyph-name="Udieresis" horiz-adv-x="717" d="M685 635Q695 635 695 644V702Q695 712 685 712H551Q541 712 541 702V254Q541 155 501 111T373 66Q283 66 243 110T202 254V702Q202 712 192 712H51Q42 712 42 702V644Q42 635 51 635H100V239Q100
114 166 48T372 -19Q508 -19 572 47T637 239V635H685ZM315 804Q315 829 297 847T253 866Q227 866 209 848T191 804Q191 778 209 760T253 741Q279 741 297 759T315 804ZM553 804Q553 829 535 847T491 866Q465 866 447 848T429 804Q429 778 447 760T491 741Q517 741
535 759T553 804Z" />
<glyph unicode="&#xdf;" glyph-name="germandbls" horiz-adv-x="570" d="M541 225Q541 399 398 439Q437 459 460 500T483 595Q483 674 429 721T291 768Q233 768 192 751T124 702T86 628T74 536V10Q74 0 83 0H158Q168 0 168 10V539Q168 570 174 597T193 646T230
680T287 693Q333 693 360 666T387 587Q387 536 358 506T280 476H259Q249 476 249 466V402Q249 392 259 392H281Q354 392 397 351T440 232Q440 152 403 111T301 69Q283 69 269 71T231 80Q219 80 219 70V10Q219 2 225 0Q249 -7 267 -9T309 -12Q412 -12 476 49T541
225Z" />
<glyph unicode="&#xe0;" glyph-name="agrave" horiz-adv-x="539" d="M516 50L495 85Q492 89 487 89Q484 89 481 87L476 84Q457 74 448 74Q440 74 437 79T433 101V300Q433 387 386 433T242 480Q158 480 94 445Q89 443 89 436Q89 435 90 434Q90 433 90 432L110 383Q112
378 119 378Q119 378 121 378Q122 379 123 379Q174 404 230 404Q339 404 339 311V281Q317 299 284 311T212 323Q128 323 79 277T29 156Q29 77 75 33T206 -12Q253 -12 289 4T345 45Q359 0 418 0Q442 0 467 10T513 37L516 50ZM340 158Q340 115 307 89T225 62Q176
62 150 87T124 156Q124 198 149 224T222 250Q278 250 309 224T340 158ZM328 489Q337 489 337 498Q337 501 335 504L205 677Q203 681 197 681H122Q112 681 112 673Q112 670 115 667L255 493Q257 489 262 489H328Z" />
<glyph unicode="&#xe1;" glyph-name="aacute" horiz-adv-x="539" d="M516 50L495 85Q492 89 487 89Q484 89 481 87L476 84Q457 74 448 74Q440 74 437 79T433 101V300Q433 387 386 433T242 480Q158 480 94 445Q89 443 89 436Q89 435 90 434Q90 433 90 432L110 383Q112
378 119 378Q119 378 121 378Q122 379 123 379Q174 404 230 404Q339 404 339 311V281Q317 299 284 311T212 323Q128 323 79 277T29 156Q29 77 75 33T206 -12Q253 -12 289 4T345 45Q359 0 418 0Q442 0 467 10T513 37L516 50ZM340 158Q340 115 307 89T225 62Q176
62 150 87T124 156Q124 198 149 224T222 250Q278 250 309 224T340 158ZM402 674Q404 677 404 680Q404 688 395 688H319Q314 688 312 684L182 511Q180 508 180 505Q180 496 189 496H254Q261 496 261 500L402 674Z" />
<glyph unicode="&#xe2;" glyph-name="acircumflex" horiz-adv-x="539" d="M516 50L495 85Q492 89 487 89Q484 89 481 87L476 84Q457 74 448 74Q440 74 437 79T433 101V300Q433 387 386 433T242 480Q158 480 94 445Q89 443 89 436Q89 435 90 434Q90 433 90 432L110
383Q112 378 119 378Q119 378 121 378Q122 379 123 379Q174 404 230 404Q339 404 339 311V281Q317 299 284 311T212 323Q128 323 79 277T29 156Q29 77 75 33T206 -12Q253 -12 289 4T345 45Q359 0 418 0Q442 0 467 10T513 37L516 50ZM340 158Q340 115 307 89T225
62Q176 62 150 87T124 156Q124 198 149 224T222 250Q278 250 309 224T340 158ZM408 487Q418 487 418 496Q418 497 418 498Q417 499 417 500L310 684Q308 689 301 689H219Q214 689 211 684L105 500Q105 499 104 498Q104 496 104 496Q104 487 113 487H172Q177 487
181 491L256 622L337 491Q341 487 345 487H408Z" />
<glyph unicode="&#xe3;" glyph-name="atilde" horiz-adv-x="539" d="M516 50L495 85Q492 89 487 89Q484 89 481 87L476 84Q457 74 448 74Q440 74 437 79T433 101V300Q433 387 386 433T242 480Q158 480 94 445Q89 443 89 436Q89 435 90 434Q90 433 90 432L110 383Q112
378 119 378Q119 378 121 378Q122 379 123 379Q174 404 230 404Q339 404 339 311V281Q317 299 284 311T212 323Q128 323 79 277T29 156Q29 77 75 33T206 -12Q253 -12 289 4T345 45Q359 0 418 0Q442 0 467 10T513 37L516 50ZM340 158Q340 115 307 89T225 62Q176
62 150 87T124 156Q124 198 149 224T222 250Q278 250 309 224T340 158ZM410 634H359Q350 634 350 626Q348 608 339 596T314 584Q304 584 286 589Q281 591 276 592L277 591Q277 591 278 591Q278 591 278 590Q278 590 276 591Q272 593 270 593Q246 601 232 603T197
606Q150 606 122 573T91 497Q91 488 101 488H152Q159 488 161 495Q166 514 174 526T199 538Q216 538 245 529Q246 529 247 529Q247 529 248 529Q248 528 248 528Q249 528 250 528L259 525Q265 524 266 523Q280 520 291 519T321 517Q365 517 392 550T419 625L410
634Z" />
<glyph unicode="&#xe4;" glyph-name="adieresis" horiz-adv-x="539" d="M516 50L495 85Q492 89 487 89Q484 89 481 87L476 84Q457 74 448 74Q440 74 437 79T433 101V300Q433 387 386 433T242 480Q158 480 94 445Q89 443 89 436Q89 435 90 434Q90 433 90 432L110
383Q112 378 119 378Q119 378 121 378Q122 379 123 379Q174 404 230 404Q339 404 339 311V281Q317 299 284 311T212 323Q128 323 79 277T29 156Q29 77 75 33T206 -12Q253 -12 289 4T345 45Q359 0 418 0Q442 0 467 10T513 37L516 50ZM340 158Q340 115 307 89T225
62Q176 62 150 87T124 156Q124 198 149 224T222 250Q278 250 309 224T340 158ZM405 532Q405 554 388 570T345 586Q320 586 303 570T285 532Q285 509 302 494T345 478Q370 478 387 493T405 532ZM219 532Q219 554 202 570T159 586Q134 586 117 570T99 532Q99 510
116 494T159 478Q184 478 201 493T219 532Z" />
<glyph unicode="&#xe5;" glyph-name="aring" horiz-adv-x="539" d="M516 50L495 85Q492 89 487 89Q484 89 481 87L476 84Q457 74 448 74Q440 74 437 79T433 101V300Q433 387 386 433T242 480Q158 480 94 445Q89 443 89 436Q89 435 90 434Q90 433 90 432L110 383Q112
378 119 378Q119 378 121 378Q122 379 123 379Q174 404 230 404Q339 404 339 311V281Q317 299 284 311T212 323Q128 323 79 277T29 156Q29 77 75 33T206 -12Q253 -12 289 4T345 45Q359 0 418 0Q442 0 467 10T513 37L516 50ZM356 594Q356 637 326 668T250 700Q205
700 175 669T144 594Q144 549 174 519T250 489Q296 489 326 519T356 594ZM340 158Q340 115 307 89T225 62Q176 62 150 87T124 156Q124 198 149 224T222 250Q278 250 309 224T340 158ZM297 594Q297 574 283 561T250 547Q231 547 217 560T202 594Q202 613 217 627T250
641Q268 641 282 627T297 594Z" />
<glyph unicode="&#xe6;" glyph-name="ae" horiz-adv-x="789" d="M755 198Q764 198 764 208V240Q764 357 712 418T558 480Q513 480 472 461T407 409Q383 447 342 463T242 480Q200 480 162 471T92 445Q88 443 88 436Q88 436 89 434Q89 433 89 432L109 383Q111 378
118 378Q119 378 121 378Q123 379 123 379Q174 404 231 404Q341 404 341 311V282Q318 300 287 311T212 323Q127 323 77 277T27 156Q27 77 74 33T215 -12Q273 -12 315 12T384 70Q406 38 451 13T567 -12Q625 -12 662 -3T724 20Q729 23 729 29V91Q729 101 720 101Q719
101 717 101Q716 100 715 100Q690 85 655 76T576 66Q542 66 517 77T473 109Q441 144 434 198H755ZM340 158Q340 115 308 89T226 62Q176 62 150 87T124 156Q124 198 149 224T223 250Q279 250 309 224T340 158ZM555 406Q609 406 634 372T664 272H435Q440 332 470
369T555 406Z" />
<glyph unicode="&#xe7;" glyph-name="ccedilla" horiz-adv-x="437" d="M435 439Q435 450 430 452Q396 467 362 476T286 486Q234 486 190 468T114 416T65 336T48 237Q48 142 94 77T227 -6L177 -71Q175 -74 175 -77Q175 -82 178 -84L199 -104Q202 -107 206 -107Q206
-107 207 -107Q209 -106 209 -106Q235 -93 256 -93Q273 -93 284 -99T296 -119Q296 -134 281 -139T240 -144Q218 -144 194 -138T152 -124Q151 -124 150 -124Q148 -123 148 -123Q139 -123 139 -133V-181Q139 -187 145 -190Q176 -201 200 -206T253 -211Q308 -211 343
-189T378 -117Q378 -78 350 -57T286 -35H270L289 -12Q326 -11 362 -2T428 20Q434 22 434 29V93Q434 103 424 103Q423 103 422 103Q420 102 419 102Q384 83 353 75T290 67Q222 67 184 114T145 237Q145 309 181 356T287 404Q323 404 351 397T400 380Q401 380 402
380Q403 379 404 379Q411 379 413 385L435 439Z" />
<glyph unicode="&#xe8;" glyph-name="egrave" horiz-adv-x="523" d="M466 198Q476 198 476 208V240Q476 356 423 418T270 480Q168 480 108 413T48 234Q48 127 108 58T279 -12Q335 -12 370 -4T436 20Q441 22 441 29V91Q441 101 432 101Q432 101 430 101Q428 100
427 100Q399 85 365 76T289 66Q255 66 230 77T186 109Q154 144 147 198H466ZM267 406Q320 406 347 372T377 272H148Q157 337 186 371T267 406ZM343 501Q352 501 352 510Q352 513 350 516L220 689Q218 693 212 693H137Q127 693 127 685Q127 682 130 679L270 505Q272
501 277 501H343Z" />
<glyph unicode="&#xe9;" glyph-name="eacute" horiz-adv-x="523" d="M466 198Q476 198 476 208V240Q476 356 423 418T270 480Q168 480 108 413T48 234Q48 127 108 58T279 -12Q335 -12 370 -4T436 20Q441 22 441 29V91Q441 101 432 101Q432 101 430 101Q428 100
427 100Q399 85 365 76T289 66Q255 66 230 77T186 109Q154 144 147 198H466ZM267 406Q320 406 347 372T377 272H148Q157 337 186 371T267 406ZM407 679Q409 682 409 685Q409 693 400 693H324Q319 693 317 689L187 516Q185 513 185 510Q185 501 194 501H259Q266
501 266 505L407 679Z" />
<glyph unicode="&#xea;" glyph-name="ecircumflex" horiz-adv-x="523" d="M466 198Q476 198 476 208V240Q476 356 423 418T270 480Q168 480 108 413T48 234Q48 127 108 58T279 -12Q335 -12 370 -4T436 20Q441 22 441 29V91Q441 101 432 101Q432 101 430 101Q428
100 427 100Q399 85 365 76T289 66Q255 66 230 77T186 109Q154 144 147 198H466ZM423 502Q433 502 433 511Q433 512 433 513Q432 514 432 515L325 699Q323 704 316 704H234Q229 704 226 699L120 515Q120 514 119 513Q119 511 119 511Q119 502 128 502H187Q192 502
196 506L271 637L352 506Q356 502 360 502H423ZM267 406Q320 406 347 372T377 272H148Q157 337 186 371T267 406Z" />
<glyph unicode="&#xeb;" glyph-name="edieresis" horiz-adv-x="523" d="M466 198Q476 198 476 208V240Q476 356 423 418T270 480Q168 480 108 413T48 234Q48 127 108 58T279 -12Q335 -12 370 -4T436 20Q441 22 441 29V91Q441 101 432 101Q432 101 430 101Q428
100 427 100Q399 85 365 76T289 66Q255 66 230 77T186 109Q154 144 147 198H466ZM267 406Q320 406 347 372T377 272H148Q157 337 186 371T267 406ZM421 550Q421 572 404 588T361 604Q336 604 319 588T301 550Q301 527 318 512T361 496Q386 496 403 511T421 550ZM235
550Q235 572 218 588T175 604Q150 604 133 588T115 550Q115 528 132 512T175 496Q200 496 217 511T235 550Z" />
<glyph unicode="&#xec;" glyph-name="igrave" horiz-adv-x="268" d="M258 44L238 79Q235 83 229 83Q229 83 227 83Q224 82 224 82Q217 77 209 73T193 68Q185 68 181 73T177 95V386Q177 422 158 445T99 468Q78 468 54 458T7 432Q3 429 3 424Q3 422 4 421Q4 419
4 419L24 386Q27 381 32 381Q36 381 38 383Q52 395 69 395Q86 395 86 367V88Q86 42 104 18T164 -6Q187 -6 211 4T256 32L258 44ZM211 489Q220 489 220 498Q220 501 218 504L88 677Q86 681 80 681H5Q-5 681 -5 673Q-5 670 -2 667L138 493Q140 489 145 489H211Z"
/>
<glyph unicode="&#xed;" glyph-name="iacute" horiz-adv-x="268" d="M258 44L238 79Q235 83 229 83Q229 83 227 83Q224 82 224 82Q217 77 209 73T193 68Q185 68 181 73T177 95V386Q177 422 158 445T99 468Q78 468 54 458T7 432Q3 429 3 424Q3 422 4 421Q4 419
4 419L24 386Q27 381 32 381Q36 381 38 383Q52 395 69 395Q86 395 86 367V88Q86 42 104 18T164 -6Q187 -6 211 4T256 32L258 44ZM236 667Q238 670 238 673Q238 681 229 681H153Q148 681 146 677L16 504Q14 501 14 498Q14 489 23 489H88Q95 489 95 493L236 667Z"
/>
<glyph unicode="&#xee;" glyph-name="icircumflex" horiz-adv-x="268" d="M258 44L238 79Q235 83 229 83Q229 83 227 83Q224 82 224 82Q217 77 209 73T193 68Q185 68 181 73T177 95V386Q177 422 158 445T99 468Q78 468 54 458T7 432Q3 429 3 424Q3 422 4 421Q4
419 4 419L24 386Q27 381 32 381Q36 381 38 383Q52 395 69 395Q86 395 86 367V88Q86 42 104 18T164 -6Q187 -6 211 4T256 32L258 44ZM270 487Q280 487 280 496Q280 497 280 498Q279 499 279 500L172 684Q170 689 163 689H81Q76 689 73 684L-33 500Q-33 499 -34
498Q-34 496 -34 496Q-34 487 -25 487H34Q39 487 43 491L118 622L199 491Q203 487 207 487H270Z" />
<glyph unicode="&#xef;" glyph-name="idieresis" horiz-adv-x="268" d="M258 44L238 79Q235 83 229 83Q229 83 227 83Q224 82 224 82Q217 77 209 73T193 68Q185 68 181 73T177 95V386Q177 422 158 445T99 468Q78 468 54 458T7 432Q3 429 3 424Q3 422 4 421Q4 421
4 419L24 386Q27 381 32 381Q36 381 38 383Q52 395 69 395Q86 395 86 367V88Q86 42 104 18T164 -6Q187 -6 211 4T256 32L258 44ZM270 548Q270 570 253 586T210 602Q185 602 168 586T150 548Q150 525 167 510T210 494Q235 494 252 509T270 548ZM84 548Q84 570 67
586T24 602Q-1 602 -18 586T-36 548Q-36 526 -19 510T24 494Q49 494 66 509T84 548Z" />
<glyph unicode="&#xf1;" glyph-name="ntilde" horiz-adv-x="587" d="M583 44L562 79Q559 84 553 84Q550 84 547 82H546Q536 75 529 72T514 68Q506 68 503 72T499 90V95L498 310Q498 390 454 435T321 480Q275 480 239 461T180 412Q173 438 156 453T105 469Q84 469
60 459T12 432Q8 429 8 424Q8 423 8 422Q8 422 9 420L29 386Q32 381 38 381Q41 381 43 383Q60 396 76 396Q94 396 94 368V10Q94 0 103 0H178Q187 0 187 10V229Q187 303 218 351T314 400Q359 400 380 371T402 291V88Q402 42 421 18T484 -6Q508 -6 533 4T580 32L583
44ZM448 634H397Q388 634 388 626Q386 608 377 596T352 584Q342 584 324 589Q319 591 314 592L315 591Q315 591 316 591Q316 591 316 590Q316 590 314 591Q310 593 308 593Q284 601 270 603T235 606Q188 606 160 573T129 497Q129 488 139 488H190Q197 488 199 495Q204
514 212 526T237 538Q254 538 283 529Q284 529 285 529Q285 529 286 529Q286 528 286 528Q287 528 288 528L297 525Q303 524 304 523Q318 520 329 519T359 517Q403 517 430 550T457 625L448 634Z" />
<glyph unicode="&#xf2;" glyph-name="ograve" horiz-adv-x="560" d="M508 234Q508 346 447 413T278 480Q171 480 110 413T48 234Q48 123 109 56T278 -12Q385 -12 446 55T508 234ZM410 234Q410 162 376 113T278 64Q214 64 180 113T146 234Q146 307 180 356T278
405Q342 405 376 356T410 234ZM377 489Q386 489 386 498Q386 501 384 504L254 677Q252 681 246 681H171Q161 681 161 673Q161 670 164 667L304 493Q306 489 311 489H377Z" />
<glyph unicode="&#xf3;" glyph-name="oacute" horiz-adv-x="560" d="M508 234Q508 346 447 413T278 480Q171 480 110 413T48 234Q48 123 109 56T278 -12Q385 -12 446 55T508 234ZM410 234Q410 162 376 113T278 64Q214 64 180 113T146 234Q146 307 180 356T278
405Q342 405 376 356T410 234ZM421 667Q423 670 423 673Q423 681 414 681H338Q333 681 331 677L201 504Q199 501 199 498Q199 489 208 489H273Q280 489 280 493L421 667Z" />
<glyph unicode="&#xf4;" glyph-name="ocircumflex" horiz-adv-x="560" d="M508 234Q508 346 447 413T278 480Q171 480 110 413T48 234Q48 123 109 56T278 -12Q385 -12 446 55T508 234ZM410 234Q410 162 376 113T278 64Q214 64 180 113T146 234Q146 307 180 356T278
405Q342 405 376 356T410 234ZM432 487Q442 487 442 496Q442 497 442 498Q441 499 441 500L334 684Q332 689 325 689H243Q238 689 235 684L129 500Q129 499 128 498Q128 496 128 496Q128 487 137 487H196Q201 487 205 491L280 622L361 491Q365 487 369 487H432Z"
/>
<glyph unicode="&#xf5;" glyph-name="otilde" horiz-adv-x="560" d="M508 234Q508 346 447 413T278 480Q171 480 110 413T48 234Q48 123 109 56T278 -12Q385 -12 446 55T508 234ZM410 234Q410 162 376 113T278 64Q214 64 180 113T146 234Q146 307 180 356T278
405Q342 405 376 356T410 234ZM433 634H382Q373 634 373 626Q371 608 362 596T337 584Q327 584 309 589Q304 591 299 592L300 591Q300 591 301 591Q301 591 301 590Q301 590 299 591Q295 593 293 593Q269 601 255 603T220 606Q173 606 145 573T114 497Q114 488
124 488H175Q182 488 184 495Q189 514 197 526T222 538Q239 538 268 529Q269 529 270 529Q270 529 271 529Q271 528 271 528Q272 528 273 528L282 525Q288 524 289 523Q303 520 314 519T344 517Q388 517 415 550T442 625L433 634Z" />
<glyph unicode="&#xf6;" glyph-name="odieresis" horiz-adv-x="560" d="M508 234Q508 346 447 413T278 480Q171 480 110 413T48 234Q48 123 109 56T278 -12Q385 -12 446 55T508 234ZM410 234Q410 162 376 113T278 64Q214 64 180 113T146 234Q146 307 180 356T278
405Q342 405 376 356T410 234ZM427 532Q427 554 410 570T367 586Q342 586 325 570T307 532Q307 509 324 494T367 478Q392 478 409 493T427 532ZM241 532Q241 554 224 570T181 586Q156 586 139 570T121 532Q121 510 138 494T181 478Q206 478 223 493T241 532Z" />
<glyph unicode="&#xf7;" glyph-name="divide" horiz-adv-x="549" d="M535 255Q545 255 545 265V334Q545 344 535 344H33Q23 344 23 334V265Q23 255 33 255H535ZM349 457Q349 483 330 502T284 522Q258 522 239 504T220 457Q220 431 239 412T284 393Q311 393 330
411T349 457ZM349 142Q349 168 330 187T284 206Q258 206 239 188T220 142Q220 116 239 97T284 78Q311 78 330 96T349 142Z" />
<glyph unicode="&#xf8;" glyph-name="oslash" horiz-adv-x="537" d="M508 235Q508 333 459 397L498 443Q501 445 501 448Q501 453 497 456L464 486Q461 489 457 489Q452 489 449 486L412 443Q355 481 278 481Q171 481 110 414T48 235Q48 137 97 71L57 25Q57 24
56 23Q56 21 56 20Q56 16 59 12L94 -17Q96 -19 99 -19Q103 -19 107 -15L143 27Q202 -12 278 -12Q385 -12 446 56T508 235ZM410 235Q410 162 376 113T278 64Q230 64 198 91L394 321Q410 279 410 235ZM146 235Q146 307 180 356T278 405Q324 405 357 377L161 147Q146
183 146 235Z" />
<glyph unicode="&#xf9;" glyph-name="ugrave" horiz-adv-x="586" d="M577 50L556 84Q553 89 547 89Q544 89 541 87L536 84Q517 74 508 74Q500 74 497 79T493 101V459Q493 468 483 468H409Q399 468 399 459V240Q399 166 368 118T272 69Q227 69 206 98T185 178V386Q185
422 165 445T103 468Q81 468 56 458T8 432Q4 429 4 424Q4 423 4 422Q4 422 5 420L25 386Q28 381 34 381Q37 381 39 383Q56 396 72 396Q89 396 89 372V158Q89 78 132 33T266 -12Q311 -12 347 6T406 56Q412 30 430 15T478 0Q502 0 527 10T574 37L577 50ZM347 489Q356
489 356 498Q356 501 354 504L224 677Q222 681 216 681H141Q131 681 131 673Q131 670 134 667L274 493Q276 489 281 489H347Z" />
<glyph unicode="&#xfa;" glyph-name="uacute" horiz-adv-x="586" d="M577 50L556 84Q553 89 547 89Q544 89 541 87L536 84Q517 74 508 74Q500 74 497 79T493 101V459Q493 468 483 468H409Q399 468 399 459V240Q399 166 368 118T272 69Q227 69 206 98T185 178V386Q185
422 165 445T103 468Q81 468 56 458T8 432Q4 429 4 424Q4 423 4 422Q4 422 5 420L25 386Q28 381 34 381Q37 381 39 383Q56 396 72 396Q89 396 89 372V158Q89 78 132 33T266 -12Q311 -12 347 6T406 56Q412 30 430 15T478 0Q502 0 527 10T574 37L577 50ZM421 667Q423
670 423 673Q423 681 414 681H338Q333 681 331 677L201 504Q199 501 199 498Q199 489 208 489H273Q280 489 280 493L421 667Z" />
<glyph unicode="&#xfb;" glyph-name="ucircumflex" horiz-adv-x="586" d="M577 50L556 84Q553 89 547 89Q544 89 541 87L536 84Q517 74 508 74Q500 74 497 79T493 101V459Q493 468 483 468H409Q399 468 399 459V240Q399 166 368 118T272 69Q227 69 206 98T185
178V386Q185 422 165 445T103 468Q81 468 56 458T8 432Q4 429 4 424Q4 423 4 422Q4 422 5 420L25 386Q28 381 34 381Q37 381 39 383Q56 396 72 396Q89 396 89 372V158Q89 78 132 33T266 -12Q311 -12 347 6T406 56Q412 30 430 15T478 0Q502 0 527 10T574 37L577
50ZM423 487Q433 487 433 496Q433 497 433 498Q432 499 432 500L325 684Q323 689 316 689H234Q229 689 226 684L120 500Q120 499 119 498Q119 496 119 496Q119 487 128 487H187Q192 487 196 491L271 622L352 491Q356 487 360 487H423Z" />
<glyph unicode="&#xfc;" glyph-name="udieresis" horiz-adv-x="586" d="M577 50L556 84Q553 89 547 89Q544 89 541 87L536 84Q517 74 508 74Q500 74 497 79T493 101V459Q493 468 483 468H409Q399 468 399 459V240Q399 166 368 118T272 69Q227 69 206 98T185 178V386Q185
422 165 445T103 468Q81 468 56 458T8 432Q4 429 4 424Q4 423 4 422Q4 422 5 420L25 386Q28 381 34 381Q37 381 39 383Q56 396 72 396Q89 396 89 372V158Q89 78 132 33T266 -12Q311 -12 347 6T406 56Q412 30 430 15T478 0Q502 0 527 10T574 37L577 50ZM433 532Q433
554 416 570T373 586Q348 586 331 570T313 532Q313 509 330 494T373 478Q398 478 415 493T433 532ZM247 532Q247 554 230 570T187 586Q162 586 145 570T127 532Q127 510 144 494T187 478Q212 478 229 493T247 532Z" />
<glyph unicode="&#xff;" glyph-name="ydieresis" horiz-adv-x="567" d="M490 27V465Q490 475 480 475H406Q397 475 397 465V236Q395 164 364 117T271 70Q226 70 205 99T184 180V391Q184 427 164 451T103 475Q81 475 56 465T8 438Q4 435 4 430Q4 429 4 427Q5 426
5 425L25 391Q28 386 33 386Q37 386 39 388Q56 401 72 401Q88 401 88 376V160Q88 79 131 34T264 -12Q307 -12 342 6T401 53V18Q401 -22 395 -53T373 -106T329 -141T257 -154Q215 -154 181 -146T119 -124Q118 -124 116 -123Q115 -123 114 -123Q106 -123 106 -132V-196Q106
-203 111 -205Q142 -218 179 -225T262 -233Q378 -233 434 -167T490 27ZM430 532Q430 554 413 570T370 586Q345 586 328 570T310 532Q310 509 327 494T370 478Q395 478 412 493T430 532ZM244 532Q244 554 227 570T184 586Q159 586 142 570T124 532Q124 510 141 494T184
478Q209 478 226 493T244 532Z" />
<glyph unicode="&#x152;" glyph-name="OE" horiz-adv-x="906" d="M885 0Q895 0 895 10V71Q895 81 885 81H571V330H824Q834 330 834 340V402Q834 412 824 412H571V628H852Q862 628 862 637V699Q862 708 852 708H622Q545 708 455 714Q406 717 366 717Q206 717 125
619T43 354Q43 187 124 89T366 -9Q390 -9 442 -6L451 -5Q465 -4 471 -4Q543 0 588 0H885ZM468 80Q446 78 420 77T366 75Q308 75 266 96T199 155T163 243T151 354Q151 414 162 464T199 553T265 612T366 634Q411 634 473 629V80H468Z" />
<glyph unicode="&#x153;" glyph-name="oe" horiz-adv-x="854" d="M820 198Q830 198 830 208V240Q830 357 778 418T623 480Q568 480 527 458T456 393Q424 435 379 457T277 480Q172 480 111 413T49 234Q49 123 110 56T277 -12Q334 -12 376 10T450 75Q475 36 520
12T632 -12Q690 -12 726 -4T790 20Q795 22 795 29V91Q795 101 785 101Q784 101 783 101Q781 100 780 100Q754 85 720 76T642 66Q608 66 582 77T539 108T513 150T500 198H820ZM406 234Q406 161 374 113T277 64Q215 64 182 113T148 234Q148 307 181 356T277 405Q342
405 374 357T406 234ZM620 406Q674 406 699 372T729 272H501Q509 337 538 371T620 406Z" />
<glyph unicode="&#x178;" glyph-name="Ydieresis" horiz-adv-x="587" d="M576 634Q586 634 586 644V702Q586 712 576 712H483Q477 712 474 707L304 408L119 707Q117 712 111 712H10Q1 712 1 702V644Q1 634 10 634H53L252 315V77H204Q194 77 194 67V10Q194 0 204
0H399Q409 0 409 10V67Q409 77 399 77H351V318L531 634H576ZM479 803Q479 829 461 847T417 866Q392 866 374 848T356 803Q356 777 374 759T417 741Q443 741 461 759T479 803ZM242 803Q242 829 224 847T180 866Q155 866 137 848T119 803Q119 777 137 759T180 741Q206
741 224 759T242 803Z" />
<glyph unicode="&#x192;" glyph-name="florin" horiz-adv-x="550" d="M555 677V679Q556 680 556 681Q556 686 552 689Q533 703 505 713T447 723Q374 723 330 681T272 560L248 429H141Q131 429 131 419V366Q131 356 141 356H235L179 53Q175 29 170 10T156 -25T132
-50T95 -60Q79 -60 61 -56T37 -47Q34 -45 30 -45Q23 -45 22 -53L14 -109Q14 -117 19 -120Q35 -127 60 -134T112 -141Q181 -141 219 -100T273 26L332 356H447Q456 356 456 366V419Q456 429 447 429H345L364 529Q373 582 393 612T454 642Q468 642 485 637T518 624Q519
624 520 623Q522 623 522 623Q527 623 531 628L555 677Z" />
<glyph unicode="&#x2c6;" glyph-name="circumflex" horiz-adv-x="492" d="M403 487Q413 487 413 496Q413 497 413 498Q412 499 412 500L305 684Q303 689 296 689H214Q209 689 206 684L100 500Q100 499 99 498Q99 496 99 496Q99 487 108 487H167Q172 487 176 491L251
622L332 491Q336 487 340 487H403Z" />
<glyph unicode="&#x2dc;" glyph-name="tilde" horiz-adv-x="493" d="M411 634H360Q351 634 351 626Q349 608 340 596T315 584Q305 584 287 589Q282 591 277 592L278 591Q278 591 279 591Q279 591 279 590Q279 590 277 591Q273 593 271 593Q247 601 233 603T198
606Q151 606 123 573T92 497Q92 488 102 488H153Q160 488 162 495Q167 514 175 526T200 538Q217 538 246 529Q247 529 248 529Q248 529 249 529Q249 528 249 528Q250 528 251 528L260 525Q266 524 267 523Q281 520 292 519T322 517Q366 517 393 550T420 625L411
634Z" />
<glyph unicode="&#x2013;" glyph-name="endash" horiz-adv-x="500" d="M490 160Q500 160 500 167V224Q500 232 490 232H10Q0 232 0 224V167Q0 160 10 160H490Z" />
<glyph unicode="&#x2014;" glyph-name="emdash" horiz-adv-x="1000" d="M990 160Q1000 160 1000 167V224Q1000 232 990 232H10Q0 232 0 224V167Q0 160 10 160H990Z" />
<glyph unicode="&#x2018;" glyph-name="quoteleft" horiz-adv-x="254" d="M221 709L172 726Q164 726 163 724Q135 690 106 634T61 522Q61 522 61 521Q61 520 61 520Q61 512 67 510L149 487Q160 487 161 495Q169 546 188 602T227 696L221 709Z" />
<glyph unicode="&#x2019;" glyph-name="quoteright" horiz-adv-x="254" d="M214 704L132 727Q132 727 131 727Q130 728 129 728Q121 728 121 720Q112 669 94 614T54 519Q54 518 54 517Q53 515 53 515Q53 508 60 506L109 488Q117 488 119 491Q147 525 176 581T221
692L214 704Z" />
<glyph unicode="&#x201a;" glyph-name="quotesinglbase" horiz-adv-x="254" d="M207 90L125 113Q114 113 113 105Q105 55 86 -1T47 -96Q47 -97 47 -98Q46 -100 46 -100Q46 -107 53 -109L102 -126Q110 -126 112 -124Q140 -90 169 -34T213 78L207 90Z" />
<glyph unicode="&#x201c;" glyph-name="quotedblleft" horiz-adv-x="449" d="M235 709L183 726Q174 726 172 724Q143 689 112 633T64 522Q64 522 64 521Q64 520 64 520Q64 512 71 510L158 487Q170 487 170 495Q180 546 199 602T241 696L235 709ZM415 709L363 726Q354
726 352 724Q323 689 292 633T244 522Q244 522 244 521Q244 520 244 520Q244 512 251 510L338 487Q349 487 350 495Q359 546 379 602T420 696L415 709Z" />
<glyph unicode="&#x201d;" glyph-name="quotedblright" horiz-adv-x="449" d="M407 704L320 727Q319 727 318 727L316 728Q309 728 308 720Q299 669 279 613T238 519Q238 518 237 517Q237 515 237 514Q237 508 243 506L295 488Q304 488 306 491Q336 526 367 582T414
692L407 704ZM227 704L140 727Q139 727 138 727L136 728Q129 728 128 720Q120 670 100 614T58 519Q58 518 57 517Q57 515 57 514Q57 508 63 506L116 488Q124 488 126 491Q156 526 187 582T234 692L227 704Z" />
<glyph unicode="&#x201e;" glyph-name="quotedblbase" horiz-adv-x="449" d="M217 90L130 113Q118 113 117 105Q108 54 89 -2T47 -96Q47 -97 47 -98Q46 -100 46 -100Q46 -107 53 -109L105 -126Q114 -126 116 -124Q146 -89 177 -33T223 78L217 90ZM397 90L310 113Q298
113 297 105Q288 54 269 -2T227 -96Q227 -97 226 -99Q226 -100 226 -101Q226 -107 233 -109L285 -126Q294 -126 295 -124Q325 -89 356 -33T403 78L397 90Z" />
<glyph unicode="&#x2020;" glyph-name="dagger" horiz-adv-x="539" d="M502 456Q512 456 512 466V540Q512 550 502 550L324 544L331 744Q331 753 321 753H237Q227 753 227 744L233 544L56 550Q46 550 46 540V466Q46 456 56 456L234 461L230 -149Q230 -159 240
-159H318Q328 -159 328 -149L324 461L502 456Z" />
<glyph unicode="&#x2021;" glyph-name="daggerdbl" horiz-adv-x="538" d="M496 34Q506 34 506 44V118Q506 128 496 128L324 122V472L496 467Q506 467 506 477V551Q506 561 496 561L324 555L330 744Q330 753 321 753H237Q227 753 227 744L233 555L61 561Q52 561
52 551V477Q52 467 61 467L234 472V122L61 128Q52 128 52 118V44Q52 34 61 34L233 39L227 -149Q227 -159 237 -159H321Q330 -159 330 -149L324 39L496 34Z" />
<glyph unicode="&#x2022;" glyph-name="bullet" horiz-adv-x="478" d="M416 344Q416 378 403 409T367 463T314 499T248 512Q214 512 183 499T129 463T93 409T80 344Q80 309 93 279T129 225T183 189T248 176Q283 176 313 189T367 225T403 278T416 344Z" />
<glyph unicode="&#x2026;" glyph-name="ellipsis" horiz-adv-x="975" d="M241 50Q241 74 221 92T173 110Q145 110 125 92T104 50Q104 25 125 8T173 -10Q200 -10 220 7T241 50ZM566 50Q566 74 546 92T497 110Q469 110 449 92T429 50Q429 25 449 8T497 -10Q524 -10
545 7T566 50ZM890 50Q890 74 870 92T822 110Q794 110 774 92T754 50Q754 25 774 8T822 -10Q849 -10 869 7T890 50Z" />
<glyph unicode="&#x2030;" glyph-name="perthousand" horiz-adv-x="1393" d="M1373 186Q1373 227 1358 263T1316 326T1251 369T1173 384Q1132 384 1095 369T1031 327T988 263T973 186Q973 145 988 109T1030 46T1095 3T1173 -12Q1214 -12 1251 3T1315 45T1358 109T1373
186ZM913 186Q913 227 898 263T856 326T791 369T713 384Q672 384 635 369T571 327T528 263T513 186Q513 145 528 109T570 46T635 3T713 -12Q754 -12 791 3T855 45T898 109T913 186ZM439 523Q439 564 424 600T382 664T318 706T239 721Q198 721 161 706T97 664T55
601T39 523Q39 482 54 446T96 383T161 341T239 326Q281 326 317 341T381 383T424 446T439 523ZM788 689Q791 692 791 696Q791 700 786 703L734 739Q732 741 728 741Q723 741 720 737L164 20Q162 18 162 14Q162 10 166 7L218 -29Q220 -31 224 -31Q229 -31 232 -27L788
689ZM351 523Q351 476 318 442T239 407Q193 407 161 441T128 523Q128 571 160 605T239 639Q285 639 318 605T351 523ZM1285 186Q1285 139 1252 105T1173 70Q1127 70 1095 104T1062 186Q1062 234 1094 268T1173 302Q1219 302 1252 268T1285 186ZM825 186Q825 139
792 105T713 70Q667 70 635 104T602 186Q602 234 634 268T713 302Q759 302 792 268T825 186Z" />
<glyph unicode="&#x2039;" glyph-name="guilsinglleft" horiz-adv-x="291" d="M249 61Q253 64 253 69Q253 70 253 72Q252 73 252 74L148 239L252 404Q252 405 253 407Q253 409 253 409Q253 414 249 417L199 451Q196 453 193 453Q189 453 187 449L57 245Q57 244
56 243Q56 240 56 239Q56 238 56 235Q57 234 57 233L187 29Q189 25 193 25Q196 25 199 27L249 61Z" />
<glyph unicode="&#x203a;" glyph-name="guilsinglright" horiz-adv-x="291" d="M252 233Q252 234 252 235Q253 238 253 239Q253 240 252 243Q252 244 252 245L122 449Q120 453 116 453Q113 453 110 451L60 417Q55 414 55 410Q55 407 57 404L160 239L57 74Q55 71
55 69Q55 64 60 61L110 27Q113 25 116 25Q120 25 122 29L252 233Z" />
<glyph unicode="&#x20ac;" glyph-name="currency" horiz-adv-x="608" d="M511 236Q521 236 521 246V312Q521 321 511 321H153Q152 331 152 354Q152 375 153 386H511Q521 386 521 395V461Q521 470 511 470H169Q194 548 250 594T386 640Q432 640 469 631T545 606Q546
606 547 606Q548 605 549 605Q556 605 558 611L582 672Q582 673 582 674Q583 675 583 676Q583 683 577 685Q531 704 485 715T381 726Q261 726 175 657T59 470H9Q-1 470 -1 461V395Q-1 386 9 386H46Q45 375 45 354Q45 332 46 321H9Q-1 321 -1 312V246Q-1 236 9 236H59Q88
118 173 50T379 -18Q440 -18 489 -6T575 26Q580 28 580 35V108Q580 118 571 118Q570 118 568 118Q567 117 566 117Q526 95 486 83T390 71Q313 71 256 115T171 236H511Z" />
<glyph unicode="&#x2122;" glyph-name="trademark" horiz-adv-x="974" d="M911 282Q920 282 920 292V334Q920 343 911 343H881V633H911Q920 633 920 643V685Q920 694 911 694H787Q782 694 779 689L661 409L542 689Q540 694 533 694H410Q400 694 400 685V643Q400
633 410 633H439V343H410Q400 343 400 334V292Q400 282 410 282H502Q512 282 512 292V566L630 288Q632 282 639 282H678Q685 282 687 288L803 564V292Q803 282 813 282H911ZM354 628Q364 628 364 637V685Q364 694 354 694H38Q28 694 28 685V637Q28 628 38 628H156V343H125Q116
343 116 334V292Q116 282 125 282H267Q277 282 277 292V334Q277 343 267 343H237V628H354Z" />
</font>
</defs>
</svg>
