<?xml version="1.0" standalone="no"?> <!DOCTYPE svg PUBLIC "-//W3C//DTD SVG 1.0//EN" "http://www.w3.org/TR/2001/REC-SVG-20010904/DTD/svg10.dtd" > <svg xmlns="http://www.w3.org/2000/svg" width="100%" height="100%">
<defs >
<font id="Steinem-Bold" horiz-adv-x="434" ><font-face
    font-family="Steinem"
    units-per-em="1000"
    panose-1="2 0 8 0 0 0 0 0 0 0"
    ascent="931"
    descent="-235"
    alphabetic="0" />
<missing-glyph horiz-adv-x="364" d="M33 0V666H298V0H33ZM66 33H265V633H66V33Z" />
<glyph unicode=" " glyph-name="space" horiz-adv-x="278" />
<glyph unicode="!" glyph-name="exclam" horiz-adv-x="243" d="M190 714Q190 724 183 731T166 738H94Q84 738 78 731T71 714L76 247Q76 237 83 230T99 222H161Q170 222 177 230T185 247L190 714ZM205 71Q205 105 183 130T130 155Q99 155 77 130T55 71Q55 37 77
13T130 -12Q160 -12 182 12T205 71Z" />
<glyph unicode="&quot;" glyph-name="quotedbl" horiz-adv-x="442" d="M383 715Q383 726 377 733T359 741H266Q255 741 248 733T241 715L257 493Q257 483 264 477T282 471H343Q365 471 367 493L383 715ZM219 715Q219 725 212 733T195 741H102Q91 741 84 733T77
715L93 493Q93 483 100 477T117 471H179Q201 471 203 493L219 715Z" />
<glyph unicode="#" glyph-name="numbersign" horiz-adv-x="548" d="M522 421Q547 421 547 446V506Q547 531 522 531H455L481 710V714Q481 724 474 731T457 738H392Q372 738 368 716L342 531H270L296 710V714Q296 724 288 731T271 738H207Q198 738 191 732T182
716L156 531H74Q49 531 49 506V446Q49 421 74 421H140L126 319H45Q21 319 21 294V234Q21 209 45 209H110L86 28V24Q86 14 93 7T111 0H175Q197 0 200 21L224 209H295L271 28V24Q271 14 278 7T296 0H360Q382 0 385 21L410 209H493Q518 209 518 234V294Q518 319 493
319H426L440 421H522ZM254 421H325L312 319H240L254 421Z" />
<glyph unicode="$" glyph-name="dollar" horiz-adv-x="545" d="M525 213Q525 260 512 295T473 354T415 396T337 428V631Q394 627 445 606Q450 603 458 603Q465 603 472 607T482 620L481 619L499 668Q503 673 503 682Q503 700 486 705Q458 716 418 726T337 740V793Q337
818 313 818H261Q237 818 237 793V738Q150 723 101 671T51 536Q51 492 66 459T108 403T166 363T237 333V113Q197 116 164 125T90 151L89 152Q84 156 76 156Q66 156 59 149T52 131V61Q52 55 56 48T67 38Q102 24 145 14T237 1V-56Q237 -81 261 -81H313Q337 -81 337
-56V6Q425 22 475 76T525 213ZM398 211Q398 149 337 126V296Q367 281 382 261T398 211ZM174 547Q174 606 237 625V465Q203 481 189 500T174 547Z" />
<glyph unicode="%" glyph-name="percent" horiz-adv-x="1116" d="M1054 201Q1054 245 1038 284T992 352T924 397T840 414Q796 414 757 398T689 352T643 284T626 201Q626 157 642 118T688 50T757 5T840 -12Q884 -12 923 4T992 50T1037 118T1054 201ZM510 538Q510
582 494 621T448 689T379 735T296 751Q252 751 213 735T144 690T99 621T82 538Q82 494 98 455T144 387T212 342T296 326Q340 326 379 342T447 387T493 455T510 538ZM890 695L889 693Q895 699 895 710Q895 723 884 730H885L833 766L835 765Q829 771 819 771Q808
771 802 765L246 44L247 46Q240 39 240 29Q240 17 247 12L302 -26Q310 -31 317 -31Q328 -31 334 -25L890 695ZM936 201Q936 160 908 130T840 100Q800 100 773 130T745 201Q745 243 772 272T840 302Q880 302 908 273T936 201ZM391 538Q391 497 363 467T296 437Q256
437 228 467T200 538Q200 580 228 609T296 639Q335 639 363 610T391 538Z" />
<glyph unicode="&amp;" glyph-name="ampersand" horiz-adv-x="708" d="M726 76L700 114V113Q698 117 692 120T681 124Q677 124 670 121Q670 121 666 119Q660 114 654 110T642 106Q632 106 618 120V119L550 189Q552 191 555 197V196L628 316H667Q692 316 692 341V396Q692
406 685 413T667 420H572Q567 420 560 416T550 407V408L470 273L354 394Q425 434 459 475T494 579Q494 660 438 705T299 751Q214 751 156 703T97 571Q97 526 115 490T169 415Q98 375 63 323T27 199Q27 152 46 113T97 46T171 3T256 -12Q321 -12 373 10T477 89L526
40V41Q552 15 571 8T610 0Q643 0 673 16T725 53L726 76ZM265 97Q219 97 185 130T151 211Q151 246 175 275T246 334L399 172Q334 97 265 97ZM377 578Q377 551 352 524T280 471Q252 501 236 525T219 573Q219 611 241 632T300 653Q333 653 355 632T377 578Z" />
<glyph unicode="&apos;" glyph-name="quotesingle" horiz-adv-x="237" d="M192 715Q192 725 185 733T168 741H85Q75 741 69 733T62 715L76 493Q76 471 99 471H154Q162 471 169 477T177 493L192 715Z" />
<glyph unicode="(" glyph-name="parenleft" horiz-adv-x="259" d="M272 -109Q277 -104 277 -94Q277 -88 275 -85Q273 -83 273 -82Q214 18 188 104T161 301Q161 405 189 502T274 682L275 684Q277 691 277 694Q277 706 266 713H267L211 754Q209 755 207 756Q202
759 197 759Q186 759 179 752Q111 653 74 538T36 301Q36 184 73 67T181 -153Q185 -157 196 -157Q202 -157 205 -155L206 -154L272 -109Z" />
<glyph unicode=")" glyph-name="parenright" horiz-adv-x="259" d="M242 301Q242 416 204 534T97 754Q96 754 96 755Q91 759 82 759Q72 759 66 753L68 754L12 715Q1 709 1 695Q1 688 4 682Q64 583 90 497T117 301Q117 87 3 -81Q1 -85 1 -92Q1 -103 6 -108L67 -152L65
-151Q71 -157 81 -157Q93 -157 97 -153Q166 -52 204 64T242 301Z" />
<glyph unicode="*" glyph-name="asterisk" horiz-adv-x="428" d="M414 556V555Q431 559 431 578Q431 586 427 591L407 655Q398 672 384 672H381L377 671L278 632L284 734Q284 746 277 753T260 760H187Q177 760 170 753T163 734L168 632L71 671L67 672H63Q55 672
48 667T39 654L40 655L16 584Q16 584 16 582Q15 579 15 579Q15 566 31 557L133 526L69 445L70 447Q66 443 65 440T64 431Q64 420 70 414L131 367L134 365Q139 362 145 362Q156 362 165 374L223 463L283 376Q288 362 304 362Q315 362 321 368L319 367L376 411H375Q386
418 386 430Q386 440 381 446L313 526L414 556Z" />
<glyph unicode="+" glyph-name="plus" horiz-adv-x="549" d="M535 257Q560 257 560 282V351Q560 376 535 376H344V568Q344 592 320 592H248Q224 592 224 568V376H33Q8 376 8 351V282Q8 257 33 257H224V65Q224 54 231 47T248 40H320Q344 40 344 65V257H535Z" />
<glyph unicode="," glyph-name="comma" horiz-adv-x="254" d="M217 117L125 143H123Q101 143 98 122Q90 73 72 18T34 -74Q31 -80 31 -85Q31 -93 35 -100T50 -109L48 -108L100 -126H104Q117 -126 120 -123Q150 -86 181 -25T229 95L217 117Z" />
<glyph unicode="-" glyph-name="hyphen" horiz-adv-x="313" d="M279 160Q303 160 303 183V243Q303 266 279 266H53Q28 266 28 243V183Q28 160 53 160H279Z" />
<glyph unicode="." glyph-name="period" horiz-adv-x="243" d="M205 65Q205 95 183 117T130 140Q99 140 77 118T55 65Q55 34 77 12T130 -10Q160 -10 182 12T205 65Z" />
<glyph unicode="/" glyph-name="slash" horiz-adv-x="357" d="M388 708Q388 727 371 732L372 731L316 751Q311 756 302 756Q285 756 280 741V742L-8 44Q-12 40 -12 32Q-12 25 -8 18T5 8L3 9L59 -14Q64 -18 72 -18Q91 -18 96 -1L95 -3L385 695Q388 699 388 708Z" />
<glyph unicode="0" glyph-name="zero" horiz-adv-x="547" d="M539 369Q539 439 527 504T487 626T408 716T283 750Q209 750 159 716T80 626T39 505T27 369Q27 300 39 234T79 112T158 22T283 -12Q357 -12 407 22T487 112T527 234T539 369ZM407 369Q407 325 403 282T386
197T348 130T283 103Q244 103 219 129T181 197T164 281T159 369Q159 414 163 457T180 542T218 609T283 636Q322 636 347 610T385 542T402 458T407 369Z" />
<glyph unicode="1" glyph-name="one" horiz-adv-x="531" d="M406 0Q430 0 430 25V82Q430 107 406 107H347V713Q347 738 322 738H318L147 688V689Q129 684 129 665V605Q129 595 136 588T153 581H156L222 599V107H162Q138 107 138 82V25Q138 0 162 0H406Z" />
<glyph unicode="2" glyph-name="two" horiz-adv-x="547" d="M497 164L444 172H440Q431 172 425 166T417 152Q409 116 373 116Q364 116 344 120Q342 120 336 121Q333 122 329 122Q325 122 322 123L320 124Q296 129 278 131T233 134Q224 134 219 133L318 232Q401
314 446 387T492 537Q492 641 430 695T265 750Q230 750 197 742T136 720T88 692T54 664Q45 660 45 646Q45 639 50 631L82 587V588Q89 577 101 577Q112 577 119 584H118Q138 603 174 619T249 635Q305 635 332 609T360 535Q360 490 332 437T233 311L20 92V93Q18 91
16 85T13 75V21Q13 11 20 4T38 -4H42L47 -3Q51 -2 57 -1Q99 5 129 8T194 12Q212 12 254 5Q263 4 268 3H266Q269 2 273 2Q276 2 279 1Q328 -8 359 -8Q425 -8 468 32T513 148L497 164Z" />
<glyph unicode="3" glyph-name="three" horiz-adv-x="545" d="M496 217Q496 274 470 320T397 391Q435 418 455 459T476 550Q476 644 412 697T248 750Q188 750 134 728T37 676Q30 669 30 659Q30 654 35 645Q36 643 37 642L64 597L63 600Q68 585 85 585Q90 585 92
586Q96 586 98 588Q100 589 103 592Q134 611 167 624T239 637Q293 637 320 611T347 542Q347 512 337 493T308 464T270 450T227 446H203Q178 446 178 421V353Q178 328 203 328H227Q253 328 277 322T322 303T353 269T365 217Q365 165 331 134T244 102Q185 102 148
115T63 156Q62 156 60 158Q57 160 51 160Q41 160 34 153T27 135V60Q27 54 32 47T43 37Q92 13 140 1T244 -12Q292 -12 337 2T419 46T475 118T496 217Z" />
<glyph unicode="4" glyph-name="four" horiz-adv-x="547" d="M509 166Q534 166 534 191V249Q534 274 509 274H451V713Q451 738 426 738H312Q306 738 300 734T291 725V726L18 280V191Q18 166 42 166H329V104H286Q262 104 262 79V25Q262 0 286 0H497Q507 0 514 7T521
25V79Q521 90 514 97T497 104H451V166H509ZM144 274L329 579V274H144Z" />
<glyph unicode="5" glyph-name="five" horiz-adv-x="545" d="M504 242Q504 356 439 422T262 488Q221 488 189 482L196 621H451Q462 621 469 628T476 645V714Q476 724 469 731T451 738H110Q100 738 93 731T85 715L69 359Q69 349 76 342T93 335Q104 335 109 340L105
338Q139 356 177 365T246 375Q306 375 339 342T373 242Q373 179 340 142T244 104Q198 104 164 115T87 152Q80 156 77 157T70 158Q60 158 53 151T45 134V59Q45 44 58 37Q95 17 141 3T252 -12Q305 -12 351 6T431 58T485 139T504 242Z" />
<glyph unicode="6" glyph-name="six" horiz-adv-x="547" d="M543 242Q543 355 478 421T307 487Q230 487 172 439Q183 544 224 591T323 639Q359 639 384 631T433 612Q438 609 440 609Q445 605 454 605Q472 605 477 622L476 620L498 670Q502 675 502 684Q502 699
490 705H491Q464 722 420 736T322 750Q255 750 200 719T116 646V647Q78 593 59 530T39 371Q39 281 49 226T78 132Q143 -12 301 -12Q351 -12 395 6T472 58T524 139T543 242ZM413 236Q413 179 380 140T297 100Q247 100 215 137T182 236Q182 299 214 336T297 374Q348
374 380 337T413 236Z" />
<glyph unicode="7" glyph-name="seven" horiz-adv-x="546" d="M517 655V713Q517 738 492 738H64Q40 738 40 713V646Q40 621 64 621H375L116 35L117 36Q114 30 114 24Q114 14 121 7T139 0H217Q223 0 230 5T240 16V15L517 655Z" />
<glyph unicode="8" glyph-name="eight" horiz-adv-x="546" d="M523 215Q523 272 497 320T424 395Q459 421 479 461T499 546Q499 591 483 628T437 694Q376 750 282 750Q236 750 197 736T128 694T83 629T66 546Q66 502 85 462T141 395Q94 369 68 321T41 215Q41 163
59 121T111 49T188 4T282 -12Q333 -12 377 3T453 48T504 120T523 215ZM396 216Q396 166 363 132T282 97Q234 97 202 131T169 216Q169 266 201 300T282 335Q331 335 363 301T396 216ZM377 548Q377 507 350 479T282 451Q242 451 215 479T188 548Q188 591 215 618T282
645Q323 645 350 618T377 548Z" />
<glyph unicode="9" glyph-name="nine" horiz-adv-x="547" d="M525 375Q525 451 514 510T485 609Q419 750 262 750Q211 750 167 732T90 681T39 601T20 500Q20 392 85 327T254 261Q293 261 328 270T391 302Q381 200 339 151T235 102Q198 102 167 110T102 134L103
133Q97 136 91 136Q68 136 68 111V42Q68 36 72 29T83 19H82Q122 3 158 -4T246 -12Q309 -12 365 16T453 92Q488 143 506 212T525 375ZM383 507Q383 444 351 410T265 375Q215 375 181 413T147 507Q147 565 178 602T265 639Q316 639 349 600T383 507Z" />
<glyph unicode=":" glyph-name="colon" horiz-adv-x="243" d="M205 71Q205 104 183 128T130 153Q99 153 77 129T55 71Q55 37 77 13T130 -12Q160 -12 182 12T205 71ZM205 416Q205 450 183 474T130 498Q99 498 77 474T55 416Q55 383 77 359T130 334Q160 334 182
358T205 416Z" />
<glyph unicode=";" glyph-name="semicolon" horiz-adv-x="254" d="M218 121L126 148Q126 148 124 149Q122 149 122 149Q114 149 107 143T98 127Q90 75 72 18T34 -79L36 -75Q31 -80 31 -90Q31 -98 35 -105T50 -114L48 -113L100 -133H104Q116 -133 121 -128Q151
-90 182 -27T229 97L218 121ZM220 420Q220 453 197 477T142 502Q110 502 87 478T64 420Q64 386 87 362T142 337Q173 337 196 361T220 420Z" />
<glyph unicode="&lt;" glyph-name="less" horiz-adv-x="549" d="M528 41H532L536 40Q546 40 553 47T560 65V136Q560 142 555 149T544 159H545L182 316L545 474Q550 476 555 483T560 497V568Q560 579 553 585T537 592Q531 592 525 589L526 590L23 370H24Q18 368
13 361T8 347V286Q8 280 12 273T23 263L528 41Z" />
<glyph unicode="=" glyph-name="equal" horiz-adv-x="549" d="M535 171Q560 171 560 196V262Q560 272 553 279T535 286H33Q22 286 15 279T8 262V196Q8 171 33 171H535ZM535 321Q560 321 560 345V411Q560 435 535 435H33Q8 435 8 411V345Q8 321 33 321H535Z" />
<glyph unicode="&gt;" glyph-name="greater" horiz-adv-x="549" d="M545 263Q550 265 555 272T560 286V347Q560 353 555 360T544 370H545L43 590L44 589Q38 592 32 592Q8 592 8 568V497Q8 491 12 484T23 474L385 316L23 159H24Q18 157 13 150T8 136V65Q8 54 15
47T33 40L37 41H41L545 263Z" />
<glyph unicode="?" glyph-name="question" horiz-adv-x="465" d="M448 566Q448 658 390 707T233 756Q164 756 112 728T24 660V661Q18 655 18 643Q18 631 24 625V626L61 583Q68 576 79 576Q90 576 97 583Q119 607 151 626T224 645Q272 645 296 623T321 560Q321
529 302 502T249 439V440L240 430Q199 385 185 353T171 264V218Q171 207 178 200T195 193H270Q280 193 287 200T294 218V258Q294 295 303 315T335 355Q393 413 420 457T448 566ZM314 71Q314 105 290 130T232 155Q198 155 175 130T151 71Q151 37 175 13T232 -12Q265
-12 289 12T314 71Z" />
<glyph unicode="@" glyph-name="at" horiz-adv-x="784" d="M771 434Q771 503 744 562T667 665T554 732T419 756Q340 756 269 726T145 641T61 509T31 343Q31 208 109 112V113Q159 52 234 17T408 -18Q461 -18 509 -7T598 21T667 56T720 91Q726 97 726 108Q726 114
724 116Q723 117 723 118L689 168Q688 168 688 169Q683 173 674 173Q668 173 656 167Q656 167 651 164Q599 130 543 108T407 85Q341 85 288 109T201 175Q144 246 144 347Q144 412 165 468T224 566T312 631T419 654Q473 654 522 633T606 574H542Q536 574 529 570T519
559Q482 593 422 593Q372 593 327 571T246 509T191 416T171 303Q171 228 215 184T329 140Q392 140 446 181Q457 160 479 150T530 140Q571 140 613 159T691 216T749 309T771 434ZM468 367Q454 312 423 278T346 244Q321 244 307 261T292 306Q292 342 302 376T331
436T373 477T420 492Q449 492 463 476T477 428Q477 400 468 367ZM661 429Q661 392 652 359T626 301Q593 251 550 250L549 252L629 543Q661 492 661 429Z" />
<glyph unicode="A" glyph-name="A" horiz-adv-x="661" d="M651 0Q676 0 676 25V82Q676 107 651 107H610L401 721L402 720Q397 738 378 738H296Q289 738 283 733T273 721L48 107H10Q0 107 -7 100T-14 82V25Q-14 14 -7 7T10 0H119Q126 0 133 5T142 17L220 240H430L504
17L503 18Q505 11 512 6T528 0H651ZM330 548L392 354H260L330 548Z" />
<glyph unicode="B" glyph-name="B" horiz-adv-x="625" d="M606 216Q606 274 575 321T493 392Q572 446 572 545Q572 597 552 634T496 694T415 727T320 738H54Q29 738 29 713V656Q29 631 54 631H87V107H54Q29 107 29 82V25Q29 0 54 0H315Q372 0 423 10T515 45T581
112T606 216ZM466 219Q466 167 429 139T331 111H215V328H333Q391 328 428 302T466 219ZM437 534Q437 506 426 488T397 459T355 444T306 439H215V627H314Q371 627 404 605T437 534Z" />
<glyph unicode="C" glyph-name="C" horiz-adv-x="608" d="M598 691Q598 710 581 715L583 714Q537 733 490 744T381 756Q304 756 240 729T128 649T56 526T30 369Q30 282 55 211T126 88T236 10T379 -18Q441 -18 492 -5T582 28Q595 35 595 50V123Q595 134 588 141T571
148Q560 148 555 143L559 145Q521 124 482 113T390 101Q342 101 301 120T230 176T184 261T167 369Q167 427 182 476T225 562T294 619T386 640Q428 640 462 632T536 608Q539 605 549 605Q568 605 573 622L572 621L594 677Q598 682 598 691Z" />
<glyph unicode="D" glyph-name="D" horiz-adv-x="673" d="M656 369Q656 448 632 515T560 633T439 710T271 738H56Q31 738 31 713V656Q31 631 56 631H89V107H56Q31 107 31 82V25Q31 0 56 0H271Q366 0 439 27T560 105T632 222T656 369ZM520 369Q520 313 503 266T455
183T383 130T294 111H218V627H282Q334 627 378 608T453 555T502 473T520 369Z" />
<glyph unicode="E" glyph-name="E" horiz-adv-x="546" d="M535 0Q545 0 552 7T559 25L560 86Q560 97 553 104T536 111H217V330H475Q486 330 493 337T500 354V417Q500 427 493 434T475 441H217V627H502Q526 627 526 652V713Q526 738 502 738H56Q31 738 31 713V656Q31
631 56 631H89V107H56Q31 107 31 82V25Q31 0 56 0H535Z" />
<glyph unicode="F" glyph-name="F" horiz-adv-x="509" d="M501 627Q526 627 526 652V713Q526 738 501 738H49Q24 738 24 713V656Q24 631 49 631H82V107H49Q24 107 24 82V25Q24 0 49 0H252Q277 0 277 25V82Q277 107 252 107H209V336H435Q460 336 460 360V422Q460
447 435 447H209V627H501Z" />
<glyph unicode="G" glyph-name="G" horiz-adv-x="650" d="M627 58V382Q627 393 620 400T603 407H461Q436 407 436 382V324Q436 299 461 299H500V115Q451 100 396 100Q346 100 305 119T234 175T188 261T172 369Q172 427 187 476T230 562T298 619T388 640Q437 640
473 630T542 601L538 603Q543 598 553 598Q573 598 578 615L577 613L601 671Q605 676 605 684Q605 702 590 707Q548 729 497 742T379 756Q304 756 241 729T132 649T61 526T36 369Q36 283 60 212T131 89T241 10T384 -18Q448 -18 506 -3T618 41L627 58Z" />
<glyph unicode="H" glyph-name="H" horiz-adv-x="726" d="M680 0Q705 0 705 25V82Q705 107 680 107H646V631H680Q705 631 705 656V713Q705 738 680 738H542Q517 738 517 713V439H210V713Q210 738 185 738H47Q23 738 23 713V656Q23 631 47 631H81V107H47Q23 107
23 82V25Q23 0 47 0H185Q210 0 210 25V328H517V25Q517 0 542 0H680Z" />
<glyph unicode="I" glyph-name="I" horiz-adv-x="273" d="M232 0Q242 0 249 7T256 25V82Q256 93 249 100T232 107H200V631H232Q242 631 249 638T256 656V713Q256 724 249 731T232 738H46Q22 738 22 713V656Q22 631 46 631H77V107H46Q22 107 22 82V25Q22 0 46 0H232Z" />
<glyph unicode="J" glyph-name="J" horiz-adv-x="350" d="M317 632Q342 632 342 656V714Q342 738 317 738H121Q97 738 97 714V656Q97 632 121 632H159V173Q159 136 147 116T105 96Q63 96 17 119L14 120H10Q0 120 -7 113T-14 95V29Q-14 24 -10 16T-1 6Q27 -6 56
-12T122 -18Q200 -18 242 28T284 153V632H317Z" />
<glyph unicode="K" glyph-name="K" horiz-adv-x="662" d="M653 0Q677 0 677 25V82Q677 107 653 107H599L384 463L538 631H620Q645 631 645 656V713Q645 738 620 738H491Q488 738 482 736T473 730L215 446V713Q215 738 191 738H53Q28 738 28 713V656Q28 631 53
631H87V107H53Q28 107 28 82V25Q28 0 53 0H191Q215 0 215 25V279L292 364L502 12V13Q504 9 511 5T524 0H653Z" />
<glyph unicode="L" glyph-name="L" horiz-adv-x="542" d="M533 0Q543 0 550 7T557 25V86Q557 97 550 104T533 111H215V631H258Q268 631 275 638T282 656V713Q282 724 275 731T258 738H54Q29 738 29 713V656Q29 631 54 631H87V107H54Q29 107 29 82V25Q29 0 54 0H533Z" />
<glyph unicode="M" glyph-name="M" horiz-adv-x="919" d="M875 0Q900 0 900 25V82Q900 107 875 107H841V631H875Q900 631 900 656V713Q900 738 875 738H691Q686 738 678 733T669 723L463 222L253 723V722Q251 728 244 733T230 738H50Q25 738 25 713V656Q25 631
50 631H84V107H50Q25 107 25 82V25Q25 0 50 0H179Q189 0 196 7T203 25V516L413 15Q415 10 422 5T436 0H483Q489 0 496 5T506 16V15L713 514V25Q713 14 720 7T737 0H875Z" />
<glyph unicode="N" glyph-name="N" horiz-adv-x="764" d="M732 631Q757 631 757 656V713Q757 738 732 738H600Q575 738 575 713V211L234 727V726Q232 730 225 734T213 738H56Q46 738 39 731T32 713V656Q32 645 39 638T56 631H90V107H56Q46 107 39 100T32 82V25Q32
14 39 7T56 0H189Q199 0 206 7T213 25V527L555 11V12Q557 8 564 4T575 0H674Q684 0 691 7T698 25V631H732Z" />
<glyph unicode="O" glyph-name="O" horiz-adv-x="754" d="M729 369Q729 453 707 524T640 647T529 727T379 756Q295 756 229 728T119 647T52 524T29 369Q29 285 51 214T118 91T229 11T379 -18Q464 -18 529 10T639 91T706 214T729 369ZM592 369Q592 313 580 264T541
177T474 118T379 96Q325 96 285 117T218 176T180 263T167 369Q167 425 179 474T218 562T284 621T379 643Q433 643 474 622T541 562T579 475T592 369Z" />
<glyph unicode="P" glyph-name="P" horiz-adv-x="567" d="M564 514Q564 619 498 678T315 738H51Q26 738 26 713V656Q26 631 51 631H84V107H51Q26 107 26 82V25Q26 0 51 0H252Q277 0 277 25V82Q277 107 252 107H211V294H315Q432 294 498 351T564 514ZM433 514Q433
460 404 433T319 405H211V627H319Q373 627 403 598T433 514Z" />
<glyph unicode="Q" glyph-name="Q" horiz-adv-x="755" d="M771 -46L733 -15L735 -16Q729 -10 718 -10Q707 -10 701 -16Q674 -52 641 -52Q630 -52 613 -47L493 -3Q612 29 675 128T738 371Q738 455 716 526T649 650T538 731T387 760Q303 760 237 732T127 651T60
527T37 371Q37 230 98 131T274 -1Q235 -29 212 -71L213 -70Q208 -75 208 -85Q208 -98 220 -107L251 -127Q252 -127 255 -129Q261 -133 267 -133Q277 -133 286 -124Q303 -103 319 -93T359 -83Q375 -83 396 -89H395L404 -92Q415 -95 440 -105L439 -104Q440 -104 443
-106Q446 -107 446 -107Q448 -108 460 -112L468 -114L569 -154Q596 -164 624 -164Q665 -164 703 -143T775 -71L771 -46ZM599 370Q599 313 587 264T549 177T482 118T387 96Q333 96 293 117T226 176T188 264T175 370Q175 427 187 477T226 565T292 624T387 646Q442
646 482 625T548 565T586 477T599 370Z" />
<glyph unicode="R" glyph-name="R" horiz-adv-x="604" d="M594 0Q604 0 611 7T618 25V82Q618 93 611 100T594 107H552Q534 107 524 130Q518 141 510 177V179Q508 189 505 197L506 196Q494 242 480 275T439 336Q475 351 502 378Q558 434 558 524Q558 624 493 681T311
738H47Q22 738 22 713V656Q22 631 47 631H80V107H47Q22 107 22 82V25Q22 0 47 0H242Q267 0 267 25V82Q267 107 242 107H208V313H297Q334 291 351 252T383 148Q392 110 399 86T418 42T449 11T496 0H594ZM423 524Q423 425 317 425H208V627H317Q368 627 395 600T423
524Z" />
<glyph unicode="S" glyph-name="S" horiz-adv-x="499" d="M494 204Q494 256 479 294T434 358T367 404T273 441Q198 466 170 490T141 554Q141 596 175 620T265 644Q309 644 342 637T409 616Q414 612 423 612Q441 612 446 627L466 682Q470 687 470 696Q470 714 453
719L455 718Q425 731 370 743T266 756Q150 756 83 701T15 544Q15 493 33 456T82 395T149 354T237 319Q299 298 331 272T363 201Q363 150 328 125T226 99Q178 99 136 110T53 141L54 140Q48 143 42 143Q19 143 19 118V45Q19 39 23 32T34 22H33Q74 5 124 -6T231 -18Q353
-18 423 39T494 204Z" />
<glyph unicode="T" glyph-name="T" horiz-adv-x="536" d="M527 627Q552 627 552 652V713Q552 738 527 738H12Q-12 738 -12 713V652Q-12 627 12 627H205V107H172Q148 107 148 82V25Q148 0 172 0H367Q392 0 392 25V82Q392 107 367 107H334V627H527Z" />
<glyph unicode="U" glyph-name="U" horiz-adv-x="717" d="M676 632Q687 632 694 639T701 656V714Q701 739 676 739H542Q517 739 517 714V268Q517 177 480 137T364 96Q282 96 245 136T208 268V714Q208 739 183 739H42Q32 739 25 732T18 714V656Q18 646 25 639T42
632H76V252Q76 122 145 52T363 -18Q507 -18 575 52T643 252V632H676Z" />
<glyph unicode="V" glyph-name="V" horiz-adv-x="662" d="M651 631Q676 631 676 656V713Q676 738 651 738H538Q519 738 515 720L516 721L336 201L158 721L159 720Q157 728 150 733T136 738H10Q0 738 -7 731T-14 713V656Q-14 645 -7 638T10 631H51L266 17Q269 11
275 6T289 0H371Q378 0 385 5T394 17L609 631H651Z" />
<glyph unicode="W" glyph-name="W" horiz-adv-x="999" d="M988 631Q1013 631 1013 656V713Q1013 738 988 738H870Q862 738 855 733T846 720H847L706 222L567 720H568Q566 728 559 733T543 738H455Q447 738 440 733T430 720H431L290 221L151 720H152Q150 728 143
733T127 738H11Q-14 738 -14 713V656Q-14 631 11 631H43L215 18H214Q216 11 223 6T239 0H328Q336 0 343 5T353 18H352L492 503L632 18H631Q633 11 640 6T656 0H745Q753 0 760 5T770 18H769L951 631H988Z" />
<glyph unicode="X" glyph-name="X" horiz-adv-x="644" d="M633 0Q658 0 658 25V82Q658 107 633 107H579L391 389L552 631H612Q622 631 629 638T636 656V713Q636 724 629 731T612 738H501Q497 738 490 734T480 726L481 727L324 491L166 727L167 726Q165 730 158
734T146 738H26Q1 738 1 713V656Q1 631 26 631H78L248 377L68 107H10Q0 107 -7 100T-14 82V25Q-14 14 -7 7T10 0H120Q124 0 131 4T141 12L140 11L316 275L492 11L491 12Q493 8 500 4T512 0H633Z" />
<glyph unicode="Y" glyph-name="Y" horiz-adv-x="585" d="M575 631Q600 631 600 656V713Q600 738 575 738H482Q477 738 470 734T460 725L302 450L131 726V725Q128 729 122 733T110 738H9Q-1 738 -8 731T-15 713V656Q-15 645 -8 638T9 631H43L236 323V107H203Q178
107 178 82V25Q178 0 203 0H398Q423 0 423 25V82Q423 107 398 107H365V327L538 631H575Z" />
<glyph unicode="Z" glyph-name="Z" horiz-adv-x="541" d="M531 0Q556 0 556 25V88Q556 113 531 113H168L551 637V713Q551 738 526 738H40Q16 738 16 713V650Q16 625 40 625H390L10 104V25Q10 14 17 7T34 0H531Z" />
<glyph unicode="[" glyph-name="bracketleft" horiz-adv-x="236" d="M217 -140Q227 -140 234 -133T241 -115V-54Q241 -44 234 -37T217 -30H158V631H217Q227 631 234 638T241 656V717Q241 727 234 734T217 741H70Q46 741 46 717V-115Q46 -140 70 -140H217Z" />
<glyph unicode="\" glyph-name="backslash" horiz-adv-x="357" d="M373 9L371 8Q379 10 383 17T388 32Q388 40 384 44L96 742V741Q91 756 73 756Q64 756 59 752L4 731L5 732Q-12 728 -12 708Q-12 699 -9 695L281 -3L280 -1Q282 -9 289 -13T304 -18Q312 -18 316
-14L373 9Z" />
<glyph unicode="]" glyph-name="bracketright" horiz-adv-x="236" d="M185 -140Q195 -140 202 -133T209 -115V717Q209 727 202 734T185 741H37Q27 741 21 734T14 717V656Q14 631 37 631H96V-30H37Q27 -30 21 -37T14 -54V-115Q14 -140 37 -140H185Z" />
<glyph unicode="^" glyph-name="asciicircum" horiz-adv-x="646" d="M586 281L584 280Q592 282 596 289T601 305Q601 315 596 320L598 316L383 714L384 712Q382 719 375 723T362 727H304Q298 727 291 723T281 712L282 714L70 316L72 320Q67 315 67 305Q67 297
71 290T84 280L82 281L140 255L139 256Q145 253 151 253Q157 253 163 256T173 266L331 563L492 264Q497 251 513 251Q521 251 526 254L586 281Z" />
<glyph unicode="_" glyph-name="underscore" horiz-adv-x="500" d="M490 -121Q515 -121 515 -98V-42Q515 -19 490 -19H10Q-15 -19 -15 -42V-98Q-15 -121 10 -121H490Z" />
<glyph unicode="`" glyph-name="grave" horiz-adv-x="480" d="M353 489Q377 489 377 513Q377 517 374 524Q374 524 372 528L242 701L243 699Q241 703 234 707T222 711H147Q136 711 129 704T122 688Q122 678 129 671L128 673L268 499L267 501Q269 497 276 493T287
489H353Z" />
<glyph unicode="a" glyph-name="a" horiz-adv-x="518" d="M532 68L506 111Q498 119 487 119Q482 119 474 115Q474 115 472 114Q470 112 469 112Q468 112 467 111Q454 104 448 104V315Q448 409 397 459T242 510Q157 510 88 474Q74 469 74 451Q74 441 77 438L96
392V393Q101 378 118 378Q129 378 134 383L130 381Q176 404 230 404Q324 404 324 326V324Q301 337 272 345T212 353Q121 353 68 302T14 171Q14 86 64 37T206 -12Q248 -12 282 1T340 34Q362 0 418 0Q445 0 473 12T527 44L532 68ZM325 173Q325 137 297 115T225 92Q183
92 161 113T139 171Q139 206 160 228T222 250Q271 250 298 229T325 173Z" />
<glyph unicode="b" glyph-name="b" horiz-adv-x="570" d="M556 253Q556 372 495 444T318 517Q281 517 247 506T184 473L183 697Q183 741 160 769T87 798Q63 798 35 787T-17 758H-16Q-27 751 -27 738Q-27 728 -22 723L-1 688Q7 680 18 680Q29 680 35 686L32 685Q46
694 57 694Q59 694 59 681V25Q59 0 84 0H159Q184 0 184 25V35Q211 14 247 1T325 -12Q433 -12 494 62T556 253ZM426 253Q426 186 399 143T315 99Q255 99 220 143T184 253Q184 318 219 363T315 408Q371 408 398 365T426 253Z" />
<glyph unicode="c" glyph-name="c" horiz-adv-x="437" d="M438 445V452Q438 468 419 478Q385 492 352 501T274 510Q218 510 172 491T91 437T39 353T21 249Q21 132 88 60T273 -12Q313 -12 352 -2T422 21Q427 23 432 30T437 44V107Q437 118 430 125T412 132Q406
132 400 129Q367 111 338 104T278 96Q217 96 183 138T148 249Q148 314 180 357T275 400Q306 400 331 394T378 379Q383 375 392 375Q411 375 416 392L415 390L438 445Z" />
<glyph unicode="d" glyph-name="d" horiz-adv-x="583" d="M609 69L584 109Q575 121 563 121Q554 121 549 116H548Q539 110 534 108T525 105Q524 105 524 117V697Q524 741 501 769T428 798Q404 798 376 787T324 758H325Q314 751 314 738Q314 728 319 723L317 727L340
687Q345 680 359 680Q370 680 376 686L374 685Q388 694 397 694Q400 694 400 681V474Q345 517 261 517Q209 517 167 498T95 443T49 359T33 253Q33 134 93 61T267 -12Q306 -12 344 2T412 41Q434 0 495 0Q521 0 549 12T604 45L609 69ZM400 253Q400 188 366 143T273
98Q218 98 191 142T164 253Q164 320 192 364T275 408Q332 408 366 363T400 253Z" />
<glyph unicode="e" glyph-name="e" horiz-adv-x="500" d="M466 198Q491 198 491 223V255Q491 379 434 444T270 510Q162 510 98 438T33 249Q33 135 96 62T279 -12Q337 -12 373 -3T443 22Q456 29 456 44V106Q456 117 449 124T432 131Q426 131 420 128Q393 114 361
105T289 96Q236 96 205 125T165 198H466ZM267 406Q309 406 332 379T360 302H165Q175 353 200 379T267 406Z" />
<glyph unicode="f" glyph-name="f" horiz-adv-x="296" d="M356 740V745Q356 760 345 767Q317 784 294 791T242 798Q198 798 166 783T115 741T86 684T77 618V506H17Q-7 506 -7 481V427Q-7 403 17 403H77V25Q77 0 101 0H175Q185 0 192 7T199 25V403H282Q307 403
307 427V481Q307 506 282 506H199V591Q199 637 209 662T249 688Q260 688 271 685T297 676Q302 671 313 671Q319 671 326 675T335 686L356 740Z" />
<glyph unicode="g" glyph-name="g" horiz-adv-x="567" d="M527 40V480Q527 505 502 505H428Q403 505 403 480V473Q344 516 264 516Q157 516 95 442T33 252Q33 133 94 61T269 -12Q304 -12 339 -1T403 31Q403 0 397 -27T376 -76T334 -111T268 -124Q225 -124 192
-116T128 -94L129 -95Q123 -92 117 -92Q107 -92 100 -99T93 -116V-181Q93 -188 98 -195T109 -203H108Q143 -218 183 -226T273 -234Q399 -234 463 -161T527 40ZM403 252Q403 188 368 143T273 98Q217 98 190 141T163 252Q163 320 190 363T273 407Q333 407 368 362T403
252Z" />
<glyph unicode="h" glyph-name="h" horiz-adv-x="548" d="M578 63L553 103Q544 115 533 115Q527 115 515 109Q509 105 503 102T494 99Q493 99 493 107V330Q493 418 446 467T301 517Q234 517 183 478V696Q183 741 160 769T88 798Q63 798 35 787T-17 758H-16Q-27
751 -27 737Q-27 727 -22 722L-3 691Q6 679 18 679Q25 679 33 684Q47 694 57 694Q59 694 59 681V25Q59 0 84 0H158Q183 0 183 25V247Q183 316 211 361T295 406Q332 406 350 382T368 317V310L367 109V105Q367 50 389 22T464 -6Q490 -6 519 6T574 39L578 63Z" />
<glyph unicode="i" glyph-name="i" horiz-adv-x="248" d="M277 62L253 102Q243 115 233 115Q229 115 222 112Q222 112 218 110Q213 106 207 103T196 99Q195 99 195 111L196 403V406Q196 449 173 477T103 505Q80 505 53 494T2 465H3Q-8 458 -8 444Q-8 434 -3 429L15
398Q24 386 36 386Q43 386 51 391Q63 401 73 401Q75 401 75 388L74 108V104Q74 50 95 22T167 -6Q192 -6 220 6T273 39L277 62ZM197 658Q197 689 175 712T122 735Q92 735 70 712T48 658Q48 624 69 603T122 581Q155 581 176 602T197 658Z" />
<glyph unicode="j" glyph-name="j" horiz-adv-x="232" d="M194 -55V406Q194 450 172 479T102 508Q80 508 53 497T2 468H3Q-8 461 -8 447Q-8 437 -3 432L15 401L14 404Q19 389 36 389Q46 389 52 395L50 394Q63 403 73 403Q74 403 74 390V-47Q74 -89 66 -109T26
-129Q9 -129 -3 -125T-30 -112H-31L-27 -114Q-32 -109 -43 -109Q-53 -109 -60 -116T-67 -134V-191Q-67 -200 -57 -210Q-52 -215 -47 -215Q-24 -225 -6 -230T40 -235Q121 -235 157 -189T194 -55ZM193 662Q193 695 171 719T116 743Q84 743 62 719T39 662Q39 627 60
605T116 582Q150 582 171 604T193 662ZM-44 -215Q-44 -215 -42 -216Q-42 -216 -41 -216L-47 -215H-44Z" />
<glyph unicode="k" glyph-name="k" horiz-adv-x="501" d="M552 78L526 115V114Q519 125 507 125Q503 125 496 122Q496 122 492 120Q486 115 479 111T468 106Q464 106 461 109T454 120L347 321L493 419Q497 423 497 434Q497 442 492 452L460 500Q453 511 439 511Q433
511 425 507L184 337V698Q184 741 161 769T88 798Q64 798 36 787T-17 758H-16Q-27 751 -27 737Q-27 727 -22 722L-3 691Q6 679 18 679Q25 679 33 684Q47 694 57 694Q59 694 59 681V25Q59 0 84 0H159Q184 0 184 25V209L243 249L337 63Q370 0 431 0Q470 0 499 15T552
52V78Z" />
<glyph unicode="l" glyph-name="l" horiz-adv-x="234" d="M260 62L236 102Q226 115 215 115Q206 115 201 110L197 108Q183 99 178 99Q177 99 177 112V696Q177 741 155 769T84 798Q61 798 34 787T-16 758H-15Q-26 751 -26 737Q-26 727 -21 722L-23 726L-4 691Q5
679 18 679Q28 679 34 685L32 684Q46 694 55 694Q56 694 56 681V109Q56 51 77 23T149 -6Q175 -6 202 6T255 39L260 62Z" />
<glyph unicode="m" glyph-name="m" horiz-adv-x="852" d="M884 61L857 102Q848 114 837 114Q831 114 819 108Q814 105 807 102T797 98V326Q797 414 752 462T610 510Q564 510 526 493T464 443Q442 475 405 492T315 510Q275 510 242 497T184 459Q174 478 155 488T107
499Q82 499 55 488T3 459H4Q-7 452 -7 439Q-7 429 -2 424L16 393Q25 381 38 381Q45 381 53 386Q67 396 77 396Q80 396 80 383V25Q80 0 105 0H180Q205 0 205 25V244Q205 313 229 356T308 400Q344 400 358 372T373 294V25Q373 0 398 0H476Q501 0 501 25V244Q501 313
524 356T603 400Q639 400 654 376T669 308V103Q669 50 692 22T767 -6Q793 -6 823 6T878 39L884 61Z" />
<glyph unicode="n" glyph-name="n" horiz-adv-x="567" d="M600 61L574 102Q565 114 553 114Q547 114 535 108Q529 104 523 101T514 98V110L513 325Q513 412 466 461T321 510Q280 510 246 496T185 456Q175 476 156 487T105 499Q81 499 55 488T3 459H4Q-7 452 -7
439Q-7 429 -2 424L16 393Q25 381 38 381Q48 381 54 387L52 386Q66 396 76 396Q79 396 79 383V25Q79 14 86 7T103 0H178Q202 0 202 25V244Q202 311 230 355T314 400Q351 400 369 375T387 306V103Q387 50 409 22T484 -6Q510 -6 539 6T594 39L600 61Z" />
<glyph unicode="o" glyph-name="o" horiz-adv-x="519" d="M505 249Q505 367 440 438T260 510Q146 510 81 439T15 249Q15 131 81 60T260 -12Q374 -12 439 59T505 249ZM377 249Q377 183 347 139T260 94Q203 94 173 138T143 249Q143 315 173 360T260 405Q317 405
347 360T377 249Z" />
<glyph unicode="p" glyph-name="p" horiz-adv-x="584" d="M570 252Q570 371 510 443T336 516Q295 516 257 502T188 460Q166 505 105 505Q81 505 55 494T3 465H4Q-7 458 -7 444Q-7 434 -2 429L16 398Q25 386 38 386Q48 386 54 392L52 391Q66 401 76 401Q79 401
79 387V-198Q79 -223 103 -223H178Q203 -223 203 -198V30Q257 -12 344 -12Q395 -12 437 7T509 63T554 147T570 252ZM439 252Q439 185 411 142T328 98Q271 98 237 143T203 252Q203 317 237 362T330 407Q385 407 412 363T439 252Z" />
<glyph unicode="q" glyph-name="q" horiz-adv-x="567" d="M502 -223Q527 -223 527 -198V480Q527 505 502 505H428Q403 505 403 480V475Q347 516 262 516Q209 516 167 497T94 441T49 357T33 252Q33 133 94 61T269 -12Q304 -12 339 -1T403 31V-198Q403 -223 428
-223H502ZM403 252Q403 188 368 143T273 98Q217 98 190 141T163 252Q163 320 190 363T273 407Q333 407 368 362T403 252Z" />
<glyph unicode="r" glyph-name="r" horiz-adv-x="376" d="M405 457Q405 463 401 470T390 479L393 477Q375 489 354 496T300 504Q231 504 183 447Q166 498 104 498Q80 498 53 487T-2 456Q-7 451 -7 439Q-7 428 -2 423L16 393L15 396Q20 381 37 381Q44 381 52 386Q63
395 75 395Q77 395 77 382V25Q77 0 102 0H175Q199 0 199 25V208Q199 251 209 291T239 359Q261 392 296 392Q311 392 323 388T344 377Q352 372 359 372Q378 372 382 391L381 389L401 444Q405 449 405 457Z" />
<glyph unicode="s" glyph-name="s" horiz-adv-x="390" d="M393 154Q393 224 353 258T231 312Q185 322 162 334T138 362Q138 406 211 406Q239 406 263 400T310 384Q312 381 315 381Q320 377 331 377Q347 377 353 390L373 435Q377 439 377 449Q377 455 374 461T363
471L365 470Q327 491 287 500T211 510Q129 510 74 469T18 353Q18 316 31 291T67 249T118 222T190 200V201Q233 190 252 179T271 145Q271 120 249 108T194 95Q153 95 119 107T56 137Q53 138 50 140Q41 144 38 144Q28 144 21 137T14 120V52Q14 47 19 39T30 30Q63
13 104 1T201 -12Q238 -12 272 -3T333 27T377 79T393 154ZM335 405L316 386L308 395Q308 400 310 407T319 415Q325 415 335 405Z" />
<glyph unicode="t" glyph-name="t" horiz-adv-x="308" d="M338 40V98Q338 109 331 116T314 123Q308 123 296 117Q287 111 268 106T232 100Q212 100 205 111T198 152V400H294Q319 400 319 425V478Q319 502 294 502H198V607Q198 631 174 631H101Q90 631 83 624T76
607V502H17Q-7 502 -7 478V425Q-7 400 17 400H76V141Q76 62 111 28T218 -7Q245 -7 276 2T329 23L338 40Z" />
<glyph unicode="u" glyph-name="u" horiz-adv-x="566" d="M593 68L568 107Q559 119 547 119Q542 119 534 115Q534 115 532 114Q530 112 529 112Q528 112 527 111Q514 104 508 104V474Q508 498 483 498H409Q384 498 384 474V255Q384 188 357 144T272 99Q235 99
218 124T200 193V401Q200 443 176 470T103 498Q79 498 51 488T-1 459H0Q-11 452 -11 439Q-11 429 -6 424L12 393Q21 381 34 381Q44 381 50 387L48 386Q62 396 72 396Q74 396 74 387V173Q74 86 121 37T266 -12Q307 -12 340 2T400 41Q421 0 478 0Q505 0 534 12T588
44L593 68Z" />
<glyph unicode="v" glyph-name="v" horiz-adv-x="502" d="M517 448L518 452V455Q518 466 502 478L443 499Q438 503 430 503Q411 503 407 486L408 488L276 168L196 390V391Q178 444 157 471T90 498Q38 498 -14 458H-13Q-24 451 -24 437Q-24 427 -19 422L-1 392L-2
395Q3 380 20 380Q26 380 32 383Q48 392 58 392Q61 392 71 370L74 362V363L205 16Q207 10 214 5T228 0H311Q317 0 324 5T334 16V15L517 448ZM195 393L196 390Q196 390 195 393Z" />
<glyph unicode="w" glyph-name="w" horiz-adv-x="765" d="M780 451Q780 451 781 454Q781 456 781 456Q781 470 764 479L698 502Q698 502 696 503Q693 503 693 503Q679 503 670 486L554 177L490 383Q480 413 473 431T454 464T424 489T379 498Q352 498 326 487T271
455Q265 449 265 438Q265 432 269 426Q271 423 271 422L290 393Q299 381 311 381Q318 381 326 386Q338 394 348 394Q354 394 358 389T371 366L271 160L201 384Q183 441 161 469T91 498Q41 498 -18 455Q-24 449 -24 438Q-24 432 -22 430L-21 428L3 393Q12 381 22
381Q29 381 37 386Q45 392 58 392Q68 392 78 364L190 17L189 18Q191 11 198 6T213 0H297Q302 0 309 5T319 15L417 213L481 17L480 18Q482 11 489 6T505 0H589Q596 0 603 5T612 16L780 451Z" />
<glyph unicode="x" glyph-name="x" horiz-adv-x="483" d="M508 82L482 119V118Q475 129 462 129Q451 129 445 123H446Q433 112 421 112Q412 112 397 137L320 255L473 425V424Q480 431 480 442Q480 449 473 458L472 459L430 504L429 505Q417 509 414 509Q409 509
401 506Q399 504 398 504L259 349L199 442L198 443Q180 470 162 484T112 499Q84 499 57 484T4 444Q-2 438 -2 426Q-2 419 2 411L25 380V381Q32 370 45 370Q56 370 62 376L60 375Q75 387 86 387Q91 387 96 382T109 364L177 258L10 73V74Q3 67 3 56Q3 45 11 38H12L51
-5Q57 -11 69 -11Q81 -11 87 -5L237 163L306 56Q322 30 341 15T395 0Q423 0 451 16T507 59L508 82Z" />
<glyph unicode="y" glyph-name="y" horiz-adv-x="544" d="M505 42V480Q505 505 480 505H406Q382 505 382 480V251Q380 185 353 143T271 100Q234 100 217 125T199 195V406Q199 449 175 477T103 505Q79 505 51 494T-1 465H0Q-11 458 -11 444Q-11 434 -6 429L12 398Q21
386 33 386Q40 386 48 391Q62 401 72 401Q73 401 73 391V175Q73 87 120 38T264 -12Q299 -12 330 0T386 32Q386 -43 359 -83T257 -124Q217 -124 184 -116T125 -95L126 -96Q120 -93 114 -93Q91 -93 91 -117V-181Q91 -199 106 -204H105Q136 -217 175 -225T262 -233Q385
-233 445 -163T505 42Z" />
<glyph unicode="z" glyph-name="z" horiz-adv-x="433" d="M437 160L387 165H384Q365 165 360 146Q353 110 323 110Q307 110 283 116Q265 122 247 125T203 128Q196 128 192 127L437 418V474Q437 484 430 491T412 498H53Q43 498 36 491T29 474V413Q29 403 36 396T53
389H262L0 78V21Q0 10 7 3T24 -4H31Q57 3 92 7T163 12Q186 12 232 2Q237 2 239 1Q279 -8 308 -8Q370 -8 410 30T452 141L437 160Z" />
<glyph unicode="{" glyph-name="braceleft" horiz-adv-x="294" d="M278 -140Q288 -140 295 -133T302 -115V-54Q302 -44 295 -37T278 -30H228Q216 -30 211 -16T206 21V173Q206 219 192 250T154 301Q177 320 191 351T206 426V581Q206 604 211 617T228 631H278Q288
631 295 638T302 656V717Q302 727 295 734T278 741H213Q167 741 129 701T91 594V440Q91 402 74 378T35 354Q25 354 18 347T11 330V271Q11 260 18 253T35 246Q57 246 74 223T91 160V7Q91 -60 128 -100T213 -140H278Z" />
<glyph unicode="|" glyph-name="bar" horiz-adv-x="176" d="M122 -18Q145 -18 145 7V732Q145 756 122 756H70Q47 756 47 732V7Q47 -18 70 -18H122Z" />
<glyph unicode="}" glyph-name="braceright" horiz-adv-x="294" d="M302 265V330Q302 340 295 347T278 354Q256 354 239 378T222 440V594Q222 661 184 701T100 741H35Q25 741 18 734T11 717V656Q11 645 18 638T35 631H85Q98 631 102 618T107 581V426Q107 382 121
351T158 301Q136 282 122 251T107 173V21Q107 -2 103 -16T85 -30H35Q25 -30 18 -37T11 -54V-115Q11 -126 18 -133T35 -140H100Q148 -140 185 -100T222 7V160Q222 198 240 222T284 246L302 265Z" />
<glyph unicode="~" glyph-name="asciitilde" horiz-adv-x="645" d="M580 330L534 364Q526 368 520 368Q507 368 496 353Q495 352 495 351Q495 352 496 354Q496 355 496 355Q493 352 492 348Q480 332 469 324T439 316Q420 316 404 321T363 336Q361 337 358 338T352
341Q350 342 344 345Q338 348 337 348L338 347Q336 348 334 349Q332 349 330 350H331L323 353Q293 364 274 369T231 375Q182 375 151 352T86 282L84 279Q81 274 81 268Q81 255 92 248L91 249L132 219Q140 214 147 214Q162 214 169 229Q169 231 170 232Q170 231
169 229H170L171 230Q184 248 195 257T224 266Q242 266 259 261T304 243L307 242Q311 241 315 239L325 234H324L326 233Q360 219 383 213T432 206Q484 206 516 231T584 306L580 330ZM168 226Q169 226 169 227Q169 227 170 228H169Q169 226 168 226Z" />
<glyph unicode="&#xa1;" glyph-name="exclamdown" horiz-adv-x="243" d="M166 -223Q176 -223 183 -216T190 -198L185 264Q185 273 177 281T161 289H99Q90 289 83 281T76 264L71 -198Q71 -223 94 -223H166ZM205 433Q205 467 183 491T130 516Q101 516 78 492T55
433Q55 399 77 375T130 350Q161 350 183 374T205 433Z" />
<glyph unicode="&#xa2;" glyph-name="cent" horiz-adv-x="541" d="M486 571Q486 590 469 595L471 594Q448 605 420 614T357 626V709Q357 734 332 734H283Q259 734 259 709V620Q175 598 126 530T76 369Q76 271 123 204T259 116V24Q259 -1 283 -1H332Q357 -1 357
24V111Q390 115 418 123T470 142Q474 144 479 152T484 165V228Q484 239 477 246T460 253Q454 253 448 250Q422 236 401 229T357 219V516Q395 511 427 497Q432 493 441 493Q459 493 464 510L463 508L483 558Q486 562 486 571ZM201 369Q201 412 215 446T259 499V238Q231
257 216 291T201 369Z" />
<glyph unicode="&#xa3;" glyph-name="sterling" horiz-adv-x="541" d="M532 164L479 172H475Q456 172 452 154H453Q442 116 401 116Q384 116 344 126L347 124Q346 125 344 125Q341 125 340 126Q294 139 259 139Q249 139 229 137H226Q238 169 245 203T253 277Q253
296 252 305V304L250 324H396Q421 324 421 349V409Q421 434 396 434H243L241 488Q241 489 241 493Q241 493 240 498V507Q240 568 264 602T343 637Q379 637 408 627T472 597L468 599Q473 594 483 594Q497 594 504 605L534 649Q540 661 540 666Q540 677 534 683Q491
714 447 732T343 750Q298 750 257 737T184 695T133 623T114 522V505L117 434H35Q10 434 10 409V349Q10 324 35 324H123L125 295V263Q125 261 126 251Q126 240 126 238Q126 210 122 187T105 148Q93 130 77 120T30 98Q24 96 19 89T13 75V21Q13 10 20 3T37 -4H41Q93
11 126 17T202 24Q236 24 294 8Q349 -8 382 -8Q454 -8 500 32T548 148L532 164Z" />
<glyph unicode="&#xa5;" glyph-name="yen" horiz-adv-x="550" d="M553 631Q578 631 578 656V713Q578 738 553 738H462Q446 738 441 725L295 444L137 725Q135 729 128 733T115 738H16Q6 738 -1 731T-8 713V656Q-8 645 -1 638T16 631H49L181 403H100Q76 403 76 379V327Q76
316 83 309T100 302H231V273H100Q90 273 83 266T76 248V197Q76 186 83 179T100 172H231V107H198Q173 107 173 82V25Q173 0 198 0H389Q414 0 414 25V82Q414 107 389 107H356V172H488Q513 172 513 197V248Q513 273 488 273H356V302H488Q513 302 513 327V379Q513 403
488 403H399L517 631H553Z" />
<glyph unicode="&#xa7;" glyph-name="section" horiz-adv-x="529" d="M488 304Q488 369 457 409T364 482L244 548Q224 559 213 570T202 597Q202 625 224 638T284 652Q344 652 417 617Q422 612 432 612Q451 612 456 629L455 627L479 677L478 676Q481 682 481 687Q481
697 468 707Q431 728 385 743T281 759Q197 759 138 717T79 597Q79 549 95 519T149 462Q60 408 60 318Q60 255 91 216T177 146L294 81Q323 65 336 52T349 18Q349 -7 325 -19T262 -32Q219 -32 183 -21T100 12Q95 15 87 15Q77 15 70 8T63 -9V-78Q63 -84 67 -91T78
-101Q127 -122 167 -131T268 -141Q308 -141 344 -130T409 -98T454 -45T471 24Q471 71 454 102T398 160Q488 215 488 304ZM366 298Q366 270 348 251T296 221L270 235Q221 262 203 280T184 325Q184 352 202 371T250 403L281 387Q330 360 348 343T366 298Z" />
<glyph unicode="&#xa8;" glyph-name="dieresis" horiz-adv-x="491" d="M423 601Q423 629 401 649T348 670Q316 670 295 650T273 601Q273 572 294 552T348 532Q379 532 401 552T423 601ZM237 601Q237 629 215 649T162 670Q131 670 109 650T87 601Q87 573 109 553T162
532Q193 532 215 552T237 601Z" />
<glyph unicode="&#xa9;" glyph-name="copyright" horiz-adv-x="785" d="M789 369Q789 451 759 522T675 645T551 727T402 756Q324 756 254 727T130 646T46 522T15 369Q15 288 45 217T129 93T253 11T402 -18Q480 -18 550 11T674 93T758 217T789 369ZM675 369Q675
310 654 258T596 167T508 107T402 85Q346 85 296 106T209 167T150 258T129 369Q129 428 150 480T208 572T296 632T402 654Q458 654 508 633T595 572T654 481T675 369ZM560 566Q560 585 543 590L545 589Q516 602 483 609T410 617Q358 617 314 600T238 549T189 470T171
369Q171 314 188 269T238 190T313 140T409 122Q451 122 484 130T544 150Q548 152 553 160T558 173V230Q558 255 535 255Q529 255 523 252Q497 239 473 233T417 226Q363 226 328 263T293 368Q293 431 324 472T414 513Q435 513 454 510T501 496Q506 493 515 493Q534
493 539 510L538 508L556 553Q560 558 560 566Z" />
<glyph unicode="&#xaa;" glyph-name="ordfeminine" horiz-adv-x="352" d="M361 463L344 491Q336 499 325 499H319V603Q319 663 284 696T176 729Q117 729 73 707Q58 703 58 686Q58 677 61 672L72 642L71 643Q75 626 94 626Q58 613 39 585T20 519Q20 464 54 434T152
403Q202 403 237 427Q254 409 286 409Q305 409 324 417T359 441L361 463ZM215 520Q215 489 170 489Q147 489 136 497T125 519Q125 550 167 550Q192 550 203 542T215 520ZM164 639Q192 639 206 627Q180 635 153 635Q132 635 112 630Q134 639 164 639Z" />
<glyph unicode="&#xab;" glyph-name="guillemotleft" horiz-adv-x="481" d="M445 63Q457 72 457 83Q457 88 451 100L350 254L451 408Q457 420 457 425Q457 435 445 444L396 477Q384 483 379 483Q373 483 368 480T359 469L223 265Q220 261 220 254Q220 243 226
237L225 240L359 39Q362 32 367 29T379 25Q384 25 396 31L445 63ZM268 63Q280 72 280 83Q280 88 274 100L173 254L274 408Q280 420 280 425Q280 435 268 444L219 477Q207 483 202 483Q191 483 184 472L46 265Q43 261 43 254Q43 243 49 237L48 240L184 36Q191 25
202 25Q207 25 219 31L268 63Z" />
<glyph unicode="&#xac;" glyph-name="logicalnot" horiz-adv-x="549" d="M525 172Q536 172 543 179T550 196V411Q550 435 525 435H23Q-2 435 -2 411V345Q-2 320 23 320H430V196Q430 172 454 172H525Z" />
<glyph unicode="&#xae;" glyph-name="registered" horiz-adv-x="785" d="M789 369Q789 451 759 522T675 645T551 727T402 756Q324 756 254 727T130 646T46 522T15 369Q15 288 45 217T129 93T253 11T402 -18Q480 -18 550 11T674 93T758 217T789 369ZM402 654Q458
654 508 633T595 572T654 481T675 369Q675 321 662 278T622 198V201Q622 226 597 226H577Q569 226 565 234T555 262L554 266L553 271Q545 297 538 314T518 346Q540 359 550 369Q590 407 590 465Q590 533 546 570T414 607H250Q317 654 402 654ZM129 369Q129 424
147 473T198 560V539Q198 514 223 514H238V226H223Q198 226 198 201V178Q165 216 147 265T129 369ZM529 133H556Q488 85 402 85Q315 85 248 133H363Q388 133 388 158V201Q388 226 363 226H349V323H391Q412 312 423 289T443 231V232Q456 181 472 157T529 133ZM470
468Q470 418 407 418H349V512H407Q470 512 470 468Z" />
<glyph unicode="&#xaf;" glyph-name="overscore" horiz-adv-x="493" d="M413 443Q438 443 438 466V513Q438 535 413 535H98Q74 535 74 513V466Q74 443 98 443H413Z" />
<glyph unicode="&#xb0;" glyph-name="degree" horiz-adv-x="379" d="M357 608Q357 675 311 720T199 766Q133 766 87 721T41 608Q41 576 53 547T87 496T138 462T199 450Q231 450 260 462T311 496T345 547T357 608ZM252 608Q252 584 237 568T199 551Q177 551 162
567T146 608Q146 633 161 649T199 666Q221 666 236 650T252 608Z" />
<glyph unicode="&#xb1;" glyph-name="plusminus" horiz-adv-x="549" d="M535 0Q560 0 560 25V94Q560 119 535 119H341Q344 125 344 133V292H535Q546 292 553 299T560 316V386Q560 411 535 411H344V569Q344 594 320 594H248Q238 594 231 587T224 569V411H33Q8 411
8 386V316Q8 306 15 299T33 292H224V133Q224 125 227 119H33Q8 119 8 94V25Q8 0 33 0H535Z" />
<glyph unicode="&#xb4;" glyph-name="acute" horiz-adv-x="480" d="M371 673L370 671Q376 677 376 688Q376 697 370 704T352 711H276Q272 711 266 708T256 700L257 701L127 528L128 530Q122 524 122 513Q122 489 146 489H211Q215 489 221 492T230 501V499L371 673Z" />
<glyph unicode="&#xb5;" glyph-name="mu" horiz-adv-x="566" d="M593 69L567 112Q559 120 547 120Q542 120 534 116Q534 116 532 115Q530 113 529 113Q528 113 527 112Q514 105 508 105V480Q508 504 483 504H409Q384 504 384 480V258Q384 190 357 145T274 100Q237
100 220 126T202 195V403Q202 447 179 475T105 504Q81 504 53 494T1 465H2Q-9 458 -9 444Q-9 434 -4 429L14 398Q23 386 36 386Q43 386 51 391Q63 401 74 401Q76 401 76 387V-203Q76 -214 83 -221T100 -228H171Q196 -228 196 -203V11Q233 -12 286 -12Q321 -12 350
2T401 39Q425 0 478 0Q504 0 533 12T588 45L593 69Z" />
<glyph unicode="&#xb6;" glyph-name="paragraph" horiz-adv-x="621" d="M636 -72L613 -28Q603 -13 590 -13Q584 -13 572 -19Q566 -23 560 -26T549 -29Q547 -29 547 -16V636H580Q605 636 605 660V718Q605 743 580 743H314Q245 743 191 720T98 653T39 550T19 418Q19
360 36 308T83 216T154 150T242 117V-120Q242 -178 262 -206T336 -234Q363 -234 389 -223T440 -193H439Q450 -186 450 -172Q450 -162 445 -157L427 -123Q417 -108 404 -108Q400 -108 393 -111Q393 -112 389 -113Q384 -117 377 -120T364 -124Q361 -124 361 -111V633H426V-25Q426
-83 446 -111T521 -139Q548 -139 576 -127T631 -94L636 -72Z" />
<glyph unicode="&#xb7;" glyph-name="middot" horiz-adv-x="243" d="M205 288Q205 258 183 236T130 213Q101 213 78 235T55 288Q55 319 77 341T130 363T183 341T205 288Z" />
<glyph unicode="&#xb8;" glyph-name="cedilla" horiz-adv-x="481" d="M380 -95Q380 -55 354 -32T292 -4L304 10Q306 14 306 14Q309 21 309 25Q309 34 302 41T284 48H243Q239 48 234 47T228 44L159 -43Q154 -51 154 -58Q154 -68 161 -75L182 -94H181Q188 -101 199
-101Q208 -101 213 -96Q231 -88 248 -88Q258 -88 264 -90T271 -97Q271 -102 261 -104T232 -106Q213 -106 193 -101T156 -89Q151 -86 143 -86Q133 -86 126 -93T119 -110V-155Q119 -162 124 -169T136 -178Q167 -189 191 -194T245 -199Q304 -199 342 -174T380 -95Z"
/>
<glyph unicode="&#xba;" glyph-name="ordmasculine" horiz-adv-x="351" d="M354 566Q354 639 309 684T185 729Q107 729 62 684T16 566Q16 493 61 448T185 403Q263 403 308 448T354 566ZM246 566Q246 533 232 513T185 493Q153 493 139 513T124 566Q124 599 138
619T185 640Q217 640 231 620T246 566Z" />
<glyph unicode="&#xbb;" glyph-name="guillemotright" horiz-adv-x="481" d="M275 240L274 237Q279 242 279 254Q279 261 277 265L141 469Q138 477 133 480T121 483Q116 483 104 477L55 444Q43 435 43 425Q43 420 49 408L149 254L49 100Q43 88 43 83Q43 72 55
63L104 31Q116 25 121 25Q127 25 132 28T141 39L275 240ZM452 240L451 237Q456 242 456 254Q456 261 454 265L316 472Q309 483 298 483Q293 483 281 477L232 444Q220 435 220 425Q220 420 226 408L326 254L226 100Q220 88 220 83Q220 72 232 63L281 31Q293 25 298
25Q309 25 316 36L452 240Z" />
<glyph unicode="&#xbf;" glyph-name="questiondown" horiz-adv-x="465" d="M483 -107L442 -62Q434 -54 424 -54Q413 -54 406 -61Q382 -85 351 -103T279 -122Q231 -122 207 -101T182 -39Q182 -9 199 16T250 76L262 89Q303 131 317 164T332 249V296Q332 307 325
314T308 321H233Q223 321 216 314T209 296V255Q209 225 199 204T168 163Q111 111 83 66T55 -45Q55 -137 113 -185T270 -234Q340 -234 394 -204T483 -133V-107ZM352 433Q352 466 328 491T271 516Q239 516 214 492T189 433Q189 398 212 374T271 350Q304 350 328 374T352
433Z" />
<glyph unicode="&#xc0;" glyph-name="Agrave" horiz-adv-x="660" d="M650 0Q675 0 675 25V82Q675 107 650 107H609L400 725L401 724Q396 742 377 742H295Q288 742 282 737T272 725L47 107H9Q-1 107 -8 100T-15 82V25Q-15 14 -8 7T9 0H118Q125 0 132 5T141 17L219
242H429L503 17L502 18Q504 11 511 6T527 0H650ZM446 741H450Q459 741 467 748T475 766V823Q475 831 469 838T455 847L152 910H147Q137 910 130 903T122 885V814Q122 792 142 789L446 741ZM329 551L391 356H259L329 551Z" />
<glyph unicode="&#xc1;" glyph-name="Aacute" horiz-adv-x="660" d="M650 0Q675 0 675 25V82Q675 107 650 107H609L400 725L401 724Q396 742 377 742H295Q288 742 282 737T272 725L47 107H9Q-1 107 -8 100T-15 82V25Q-15 14 -8 7T9 0H118Q125 0 132 5T141 17L219
242H429L503 17L502 18Q504 11 511 6T527 0H650ZM505 789Q526 792 526 814V885Q526 896 519 903T502 910H497L193 847Q185 845 180 838T174 823V766Q174 756 181 749T199 741H203L505 789ZM329 551L391 356H259L329 551Z" />
<glyph unicode="&#xc2;" glyph-name="Acircumflex" horiz-adv-x="660" d="M650 0Q675 0 675 25V83Q675 93 668 100T650 107H609L400 725L401 724Q396 742 377 742H295Q288 742 282 737T272 725L47 107H9Q-1 107 -8 100T-15 83V25Q-15 14 -8 7T9 0H118Q125 0 132
5T141 17L219 242H429L503 17L502 18Q504 11 511 6T527 0H650ZM521 744H526Q550 744 550 768V823Q550 830 546 837T535 846H536L341 930L337 931H333H330L326 930L132 845Q128 843 124 836T119 823V768Q119 744 143 744H148L334 809L521 744ZM329 551L391 356H259L329
551Z" />
<glyph unicode="&#xc3;" glyph-name="Atilde" horiz-adv-x="660" d="M650 0Q675 0 675 25V82Q675 107 650 107H609L400 725L401 724Q396 742 377 742H295Q288 742 282 737T272 725L47 107H9Q-1 107 -8 100T-15 82V25Q-15 14 -8 7T9 0H118Q125 0 132 5T141 17L219
242H429L503 17L502 18Q504 11 511 6T527 0H650ZM520 916H464Q456 916 449 910T439 896Q436 884 431 876T416 868Q400 868 382 872T331 887H330Q310 893 291 896T247 899Q190 899 157 860T119 767V764Q119 754 126 747T143 740H194Q202 740 209 746T218 762Q221
773 227 780T245 788Q268 788 300 778H321L341 777L314 804L297 779Q306 775 311 775Q313 774 314 774H315L316 773Q320 771 323 771Q325 770 328 770H329Q355 763 373 760T419 757Q448 757 470 769T506 801T529 845T540 895L520 916ZM329 551L391 356H259L329
551Z" />
<glyph unicode="&#xc4;" glyph-name="Adieresis" horiz-adv-x="660" d="M650 0Q675 0 675 25V82Q675 107 650 107H609L400 725L401 724Q396 742 377 742H295Q288 742 282 737T272 725L47 107H9Q-1 107 -8 100T-15 82V25Q-15 14 -8 7T9 0H118Q125 0 132 5T141 17L219
241H429L503 17L502 18Q504 11 511 6T527 0H650ZM291 818Q291 850 269 873T214 896Q182 896 160 873T137 818Q137 786 159 764T214 741Q246 741 268 763T291 818ZM529 818Q529 850 507 873T452 896Q420 896 398 873T375 818Q375 786 397 764T452 741Q484 741 506
763T529 818ZM329 550L391 355H259L329 550Z" />
<glyph unicode="&#xc5;" glyph-name="Aring" horiz-adv-x="662" d="M651 0Q676 0 676 25V82Q676 107 651 107H610L417 677Q439 695 451 721T464 777Q464 829 428 867T336 905Q282 905 246 867T209 777Q209 747 221 722T255 678L48 107H10Q0 107 -7 100T-14 82V25Q-14
14 -7 7T10 0H119Q126 0 133 5T142 17L220 241H430L504 17L503 18Q505 11 512 6T528 0H651ZM330 551L392 356H260L330 551ZM372 777Q372 763 363 753T340 742H333Q319 743 310 752T301 777Q301 792 311 802T336 812Q350 812 361 802T372 777Z" />
<glyph unicode="&#xc6;" glyph-name="AE" horiz-adv-x="927" d="M915 0Q940 0 940 25V86Q940 111 915 111H616V330H854Q865 330 872 337T879 354V417Q879 427 872 434T854 441H616V627H882Q907 627 907 652V713Q907 738 882 738H350Q340 738 333 731T326 713V659Q326
648 333 641T350 634H377L54 107H13Q-12 107 -12 82V25Q-12 0 13 0H112Q118 0 124 4T133 13V12L248 202H489V107H454Q429 107 429 82V25Q429 0 454 0H915ZM317 315L489 601V315H317Z" />
<glyph unicode="&#xc7;" glyph-name="Ccedilla" horiz-adv-x="608" d="M604 695Q604 713 587 718L589 717Q543 737 495 749T387 761Q310 761 246 733T134 653T62 529T36 371Q36 226 101 128T281 -4L245 -44V-43Q239 -49 239 -59Q239 -68 244 -76L266 -101Q272
-107 283 -107H288Q289 -107 294 -106Q299 -104 300 -104Q305 -103 311 -101Q336 -94 349 -94Q362 -94 371 -97T380 -106Q380 -113 366 -115T331 -118Q309 -118 284 -112T231 -97H226Q201 -97 201 -122V-173Q201 -181 206 -189T219 -198V-197Q255 -208 285 -213T349
-218Q378 -218 405 -212T453 -192Q501 -162 501 -105Q501 -73 484 -50T438 -15Q483 -11 520 1T588 28Q601 35 601 50V124Q601 135 594 142T576 149Q566 149 561 144L565 146Q527 125 488 113T396 101Q348 101 307 121T236 177T190 263T173 371Q173 429 188 478T231
565T301 622T392 643Q435 643 469 635T542 611Q545 608 555 608Q574 608 579 625L578 624L600 681Q604 686 604 695Z" />
<glyph unicode="&#xc8;" glyph-name="Egrave" horiz-adv-x="546" d="M535 0Q545 0 552 7T559 25V86Q559 97 552 104T535 111H217V331H475Q500 331 500 356V419Q500 444 475 444H217V631H502Q526 631 526 655V717Q526 742 502 742H463Q470 744 475 751T480 766V823Q480
830 473 838T458 848L161 910H156Q146 910 139 903T131 885V814Q131 792 151 789L445 742H56Q31 742 31 717V659Q31 635 56 635H89V107H56Q31 107 31 82V25Q31 0 56 0H535Z" />
<glyph unicode="&#xc9;" glyph-name="Eacute" horiz-adv-x="546" d="M469 790Q483 794 483 814V885Q483 896 476 903T459 910H454L153 847Q145 845 140 838T134 823V766Q134 747 152 742H56Q31 742 31 717V659Q31 635 56 635H89V107H56Q31 107 31 82V25Q31 0 56
0H535Q545 0 552 7T559 25V86Q559 97 552 104T535 111H217V331H475Q500 331 500 356V419Q500 444 475 444H217V631H502Q526 631 526 655V717Q526 742 502 742H169L469 790Z" />
<glyph unicode="&#xca;" glyph-name="Ecircumflex" horiz-adv-x="546" d="M535 0Q545 0 552 7T559 25V86Q559 97 552 104T535 111H217V332H475Q486 332 493 339T500 356V419Q500 444 475 444H217V631H502Q526 631 526 656V717Q526 742 502 742H56Q31 742 31 717V660Q31
635 56 635H89V107H56Q45 107 38 100T31 83V25Q31 0 56 0H535ZM482 744H486Q496 744 503 750T511 768V823Q511 829 506 836T495 846H496L304 930L300 931H296Q294 931 291 930Q288 930 288 930L98 846H99Q93 844 88 837T83 823V768Q83 744 108 744H113L296 809L482
744Z" />
<glyph unicode="&#xcb;" glyph-name="Edieresis" horiz-adv-x="546" d="M496 818Q496 850 474 873T419 896Q388 896 366 873T343 818Q343 789 361 768T406 742H196Q224 747 242 768T260 818Q260 850 238 873T184 896Q152 896 130 873T107 818Q107 789 125 768T171
742H56Q31 742 31 717V659Q31 634 56 634H89V107H56Q31 107 31 82V25Q31 0 56 0H535Q545 0 552 7T559 25V86Q559 97 552 104T535 111H217V331H475Q500 331 500 356V419Q500 443 475 443H217V630H502Q526 630 526 655V717Q526 742 502 742H431Q459 747 477 768T496
818Z" />
<glyph unicode="&#xcc;" glyph-name="Igrave" horiz-adv-x="282" d="M246 0Q271 0 271 25V82Q271 107 246 107H213V635H246Q271 635 271 659V717Q271 742 246 742H55Q30 742 30 717V659Q30 635 55 635H87V107H55Q30 107 30 82V25Q30 0 55 0H246ZM265 741H269Q279
741 286 748T293 766V823Q293 830 286 838T271 848L-20 910H-25Q-35 910 -42 903T-49 885V814Q-49 792 -29 789L265 741Z" />
<glyph unicode="&#xcd;" glyph-name="Iacute" horiz-adv-x="282" d="M246 0Q271 0 271 25V82Q271 107 246 107H213V635H246Q271 635 271 659V717Q271 742 246 742H55Q30 742 30 717V659Q30 635 55 635H87V107H55Q30 107 30 82V25Q30 0 55 0H246ZM312 790Q326 794
326 814V885Q326 896 319 903T302 910H297L3 847Q-5 845 -10 838T-16 823V766Q-16 756 -9 749T9 741H12L312 790Z" />
<glyph unicode="&#xce;" glyph-name="Icircumflex" horiz-adv-x="286" d="M249 0Q274 0 274 25V83Q274 93 267 100T249 107H216V635H249Q274 635 274 660V717Q274 742 249 742H55Q31 742 31 717V660Q31 635 55 635H89V107H55Q31 107 31 83V25Q31 0 55 0H249ZM337
744H341Q351 744 358 750T366 768V823Q366 829 361 836T350 846H351L161 930L157 931H153Q151 931 148 930Q145 930 145 930L-43 846H-42Q-48 844 -53 837T-58 823V768Q-58 744 -33 744H-28L153 809L337 744Z" />
<glyph unicode="&#xcf;" glyph-name="Idieresis" horiz-adv-x="284" d="M248 0Q272 0 272 25V82Q272 107 248 107H215V634H248Q272 634 272 659V717Q272 742 248 742H55Q30 742 30 717V659Q30 634 55 634H88V107H55Q30 107 30 82V25Q30 0 55 0H248ZM112 818Q112
850 90 873T36 896Q5 896 -17 873T-40 818Q-40 786 -18 764T36 741Q68 741 90 763T112 818ZM343 818Q343 850 321 873T268 896Q237 896 215 873T192 818Q192 786 214 764T268 741Q299 741 321 763T343 818Z" />
<glyph unicode="&#xd1;" glyph-name="Ntilde" horiz-adv-x="764" d="M586 916H529Q523 916 515 910T505 896Q502 884 497 876T482 868Q465 868 450 871T412 882H410V884Q386 892 365 895T313 899Q256 899 223 860T184 768V764Q184 749 199 742H46Q36 742 29 735T22
717V659Q22 649 29 642T46 635H80V107H46Q36 107 29 100T22 82V25Q22 14 29 7T46 0H179Q189 0 196 7T203 25V530L545 11V12Q547 8 554 4T565 0H664Q674 0 681 7T688 25V635H722Q733 635 740 642T747 659V717Q747 742 722 742H590Q565 742 565 717V212L224 731V730Q222
734 210 740H259Q267 740 274 746T284 759Q287 772 293 780T311 788Q332 788 363 779Q372 775 377 775Q379 774 380 774Q382 773 384 773Q384 773 387 772Q391 770 393 770L396 769Q421 763 439 760T485 757Q514 757 536 769T572 801T595 845T606 895L586 916Z"
/>
<glyph unicode="&#xd2;" glyph-name="Ograve" horiz-adv-x="754" d="M516 741Q526 741 535 748T544 766V823Q544 831 538 838T524 848L221 910H216Q206 910 199 903T192 886V814Q192 792 212 789L398 759Q397 759 392 760Q387 760 386 760Q302 760 236 732T126
651T59 527T36 371Q36 287 58 216T125 92T236 11T386 -18Q471 -18 536 10T646 91T713 215T736 371Q736 510 677 608T505 742L516 741ZM599 371Q599 315 587 266T548 178T481 119T386 97Q332 97 292 118T225 177T187 265T174 371Q174 428 186 477T225 565T291 624T386
646Q440 646 481 625T548 565T586 478T599 371Z" />
<glyph unicode="&#xd3;" glyph-name="Oacute" horiz-adv-x="754" d="M561 789Q582 792 582 814V886Q582 896 574 903T557 910H552L252 849Q244 847 237 839T230 823V766Q230 755 239 748T258 741L265 742Q154 706 95 608T36 371Q36 287 58 216T125 92T236 11T386
-18Q471 -18 536 10T646 91T713 215T736 371Q736 455 714 526T647 650T537 731T386 760Q386 760 381 760Q377 759 376 759L561 789ZM599 371Q599 315 587 266T548 178T481 119T386 97Q332 97 292 118T225 177T187 265T174 371Q174 428 186 477T225 565T291 624T386
646Q440 646 481 625T548 565T586 478T599 371Z" />
<glyph unicode="&#xd4;" glyph-name="Ocircumflex" horiz-adv-x="754" d="M736 371Q736 456 714 527T647 650T537 731T386 760Q302 760 236 732T126 651T59 527T36 371Q36 287 58 216T125 92T236 11T386 -18Q471 -18 536 10T646 91T713 215T736 371ZM599 371Q599
315 587 266T548 178T481 119T386 97Q332 97 292 118T225 177T187 265T174 371Q174 428 186 477T225 565T291 624T386 646Q440 646 481 625T548 565T586 478T599 371ZM575 745Q575 745 578 745Q580 744 580 744Q590 744 597 751T604 769V823Q604 828 599 835T590
845L395 930L391 931H387Q384 931 383 931T377 928L378 929L187 846H188Q182 844 177 837T172 823V769Q172 758 179 751T196 744Q196 744 199 745Q202 745 202 745L387 809L575 745Z" />
<glyph unicode="&#xd5;" glyph-name="Otilde" horiz-adv-x="754" d="M589 916H532Q525 916 517 910T507 896Q505 884 500 876T485 868Q467 868 453 871T415 882H413V884Q389 892 368 896T316 900Q258 900 225 860T187 768V765Q187 755 194 748T212 741H261Q152
704 94 606T36 371Q36 287 58 216T125 92T236 11T386 -18Q471 -18 536 10T646 91T713 215T736 371Q736 455 714 526T647 650T537 731T386 760Q328 760 272 744Q285 754 288 763Q291 775 296 782T314 789Q335 789 367 779H368Q375 776 384 773L382 775L384 774Q387
771 391 771Q393 770 396 770Q420 764 440 761T487 757Q516 757 538 769T574 801T597 845T608 896L589 916ZM599 371Q599 315 587 266T548 178T481 119T386 97Q332 97 292 118T225 177T187 265T174 371Q174 428 186 477T225 565T291 624T386 646Q440 646 481 625T548
565T586 478T599 371Z" />
<glyph unicode="&#xd6;" glyph-name="Odieresis" horiz-adv-x="754" d="M586 819Q586 850 564 873T509 896Q477 896 455 873T432 819Q432 797 442 779T471 750Q432 759 386 759Q352 759 312 752Q329 763 338 780T348 819Q348 850 326 873T271 896Q239 896 217
873T194 819Q194 788 214 766T265 741Q154 706 95 608T36 371Q36 287 58 216T125 92T236 11T386 -18Q471 -18 536 10T646 91T713 215T736 371Q736 509 677 607T507 741H509Q541 741 563 764T586 819ZM599 371Q599 314 587 265T548 177T481 118T386 96Q332 96 292
117T225 177T187 264T174 371Q174 427 186 476T225 564T291 623T386 645Q440 645 481 624T548 564T586 477T599 371Z" />
<glyph unicode="&#xd8;" glyph-name="Oslash" horiz-adv-x="754" d="M736 370Q736 519 667 620L724 688V687Q728 691 729 694T730 703Q730 713 721 724L678 760Q672 765 663 765Q651 765 648 762L593 696Q509 757 386 757Q302 757 236 729T126 648T59 525T36 370Q36
218 106 118L49 51Q44 43 44 36Q44 26 51 19L93 -18H92Q99 -25 109 -25Q120 -25 123 -22L179 44Q220 14 273 -2T386 -18Q471 -18 536 10T646 91T713 215T736 370ZM174 370Q174 426 186 475T225 563T291 622T386 643Q463 643 513 601L198 226Q174 285 174 370ZM599
370Q599 314 587 265T548 177T481 118T386 96Q309 96 258 137L574 511Q599 444 599 370Z" />
<glyph unicode="&#xd9;" glyph-name="Ugrave" horiz-adv-x="717" d="M677 635Q702 635 702 660V717Q702 742 677 742H543Q518 742 518 717V269Q518 178 481 138T365 97Q283 97 246 137T209 269V717Q209 742 184 742H43Q33 742 26 735T19 717V660Q19 649 26 642T43
635H77V254Q77 122 146 52T364 -19Q508 -19 576 51T644 254V635H677ZM498 742H502Q511 742 519 749T527 766V823Q527 831 521 838T507 848L205 910H200Q190 910 183 903T175 886V814Q175 792 195 789L498 742Z" />
<glyph unicode="&#xda;" glyph-name="Uacute" horiz-adv-x="717" d="M685 635Q710 635 710 660V717Q710 742 685 742H551Q526 742 526 717V269Q526 178 489 138T373 97Q291 97 254 137T217 269V717Q217 742 192 742H51Q41 742 34 735T27 717V660Q27 649 34 642T51
635H85V254Q85 122 154 52T372 -19Q516 -19 584 51T652 254V635H685ZM575 789Q596 792 596 814V886Q596 896 589 903T572 910H567L263 848Q256 846 250 839T244 823V766Q244 756 251 749T269 742H273L575 789Z" />
<glyph unicode="&#xdb;" glyph-name="Ucircumflex" horiz-adv-x="717" d="M679 635Q704 635 704 660V718Q704 743 679 743H545Q520 743 520 718V269Q520 178 483 138T367 97Q285 97 248 137T211 269V718Q211 743 186 743H45Q35 743 28 736T21 718V660Q21 649 28
642T45 635H79V254Q79 122 148 52T366 -19Q510 -19 578 51T646 254V635H679ZM555 745Q555 745 558 745Q560 744 560 744Q570 744 577 751T584 769V823Q584 828 579 835T570 845L375 930L371 931H367H364L360 930L168 846H169Q163 844 158 837T153 823V769Q153 758
160 751T177 744Q177 744 180 745Q182 745 182 745L368 809L555 745Z" />
<glyph unicode="&#xdc;" glyph-name="Udieresis" horiz-adv-x="717" d="M685 635Q696 635 703 642T710 659V717Q710 742 685 742H551Q526 742 526 717V269Q526 178 489 137T373 96Q291 96 254 136T217 269V717Q217 742 192 742H51Q41 742 34 735T27 717V659Q27
649 34 642T51 635H85V254Q85 122 154 52T372 -19Q516 -19 584 51T652 254V635H685ZM330 819Q330 850 308 873T253 896Q221 896 199 873T176 819Q176 787 198 764T253 741Q285 741 307 764T330 819ZM568 819Q568 850 546 873T491 896Q459 896 437 873T414 819Q414
787 436 764T491 741Q523 741 545 764T568 819Z" />
<glyph unicode="&#xdf;" glyph-name="germandbls" horiz-adv-x="570" d="M556 240Q556 406 431 458Q462 483 480 522T498 610Q498 696 440 747T291 798Q229 798 185 780T113 728T72 649T59 551V25Q59 14 66 7T83 0H158Q183 0 183 25V554Q183 582 188 606T205 650T237
681T287 693Q326 693 349 669T372 602Q372 558 347 532T280 506H259Q234 506 234 481V417Q234 392 259 392H281Q347 392 386 355T425 247Q425 174 392 137T301 99Q284 99 270 101T232 110H228Q218 110 211 103T204 85V25Q204 18 209 11T220 1Q246 -7 265 -9T309
-12Q418 -12 487 53T556 240Z" />
<glyph unicode="&#xe0;" glyph-name="agrave" horiz-adv-x="539" d="M532 68L506 111Q498 119 487 119Q482 119 474 115Q474 115 472 114Q470 112 469 112Q468 112 467 111Q454 104 448 104V315Q448 452 343 493Q352 501 352 513Q352 517 349 524Q349 524 347
528L217 701L218 699Q216 703 209 707T197 711H122Q111 711 104 704T97 688Q97 678 104 671L103 673L234 510Q194 509 157 500T88 474Q74 469 74 451Q74 441 77 438L96 392V393Q101 378 118 378Q129 378 134 383L130 381Q176 404 230 404Q324 404 324 326V324Q301
337 272 345T212 353Q121 353 68 302T14 171Q14 86 64 37T206 -12Q248 -12 282 1T340 34Q362 0 418 0Q445 0 473 12T527 44L532 68ZM325 173Q325 137 297 115T225 92Q183 92 161 113T139 171Q139 206 160 228T222 250Q271 250 298 229T325 173Z" />
<glyph unicode="&#xe1;" glyph-name="aacute" horiz-adv-x="539" d="M414 680L413 678Q419 684 419 695Q419 704 413 711T395 718H319Q315 718 309 715T299 707L300 708L170 535L171 537Q165 531 165 520Q165 509 171 503Q125 494 88 474Q74 469 74 451Q74 441
77 438L96 392V393Q101 378 118 378Q129 378 134 383L130 381Q176 404 230 404Q324 404 324 326V324Q301 337 272 345T212 353Q121 353 68 302T14 171Q14 86 64 37T206 -12Q248 -12 282 1T340 34Q362 0 418 0Q445 0 473 12T527 44L532 68L506 111Q498 119 487 119Q482
119 474 115Q474 115 472 114Q470 112 469 112Q468 112 467 111Q454 104 448 104V315Q448 401 405 451T275 509L414 680ZM325 173Q325 137 297 115T225 92Q183 92 161 113T139 171Q139 206 160 228T222 250Q271 250 298 229T325 173Z" />
<glyph unicode="&#xe2;" glyph-name="acircumflex" horiz-adv-x="539" d="M408 487Q419 487 426 494T433 511Q433 520 428 525L323 707V706Q321 710 314 714T301 719H219Q215 719 208 715T198 706L92 522L94 526Q89 521 89 511Q89 501 96 494T113 487H117Q97 479
88 474Q74 469 74 451Q74 441 77 438L96 392V393Q101 378 118 378Q129 378 134 383L130 381Q176 404 230 404Q324 404 324 326V324Q301 337 272 345T212 353Q121 353 68 302T14 171Q14 86 64 37T206 -12Q248 -12 282 1T340 34Q362 0 418 0Q445 0 473 12T527 44L532
68L506 111Q498 119 487 119Q482 119 474 115Q474 115 472 114Q470 112 469 112Q468 112 467 111Q454 104 448 104V315Q448 442 357 487H408ZM325 173Q325 137 297 115T225 92Q183 92 161 113T139 171Q139 206 160 228T222 250Q271 250 298 229T325 173ZM242 510Q219
510 198 507L256 607L323 500Q283 510 242 510Z" />
<glyph unicode="&#xe3;" glyph-name="atilde" horiz-adv-x="539" d="M417 664H359Q349 664 342 658T335 641Q330 614 314 614Q305 614 293 617Q291 618 290 618H291Q291 618 283 621Q283 621 275 623L274 622Q274 622 273 623Q271 623 271 623Q247 630 232 633T197
636Q143 636 111 598T76 512Q76 502 83 495T101 488H119Q108 484 88 474Q74 469 74 451Q74 441 77 438L96 392V393Q101 378 118 378Q129 378 134 383L130 381Q176 404 230 404Q324 404 324 326V324Q301 337 272 345T212 353Q121 353 68 302T14 171Q14 86 64 37T206
-12Q248 -12 282 1T340 34Q362 0 418 0Q445 0 473 12T527 44L532 68L506 111Q498 119 487 119Q482 119 474 115Q474 115 472 114Q470 112 469 112Q468 112 467 111Q454 104 448 104V315Q448 409 397 459T242 510Q206 510 174 504L177 510Q180 522 185 530T199 538Q213
538 241 530L238 531L244 528H248L263 523H264Q278 520 289 519T321 517Q372 517 403 556T434 647L417 664ZM325 173Q325 137 297 115T225 92Q183 92 161 113T139 171Q139 206 160 228T222 250Q271 250 298 229T325 173Z" />
<glyph unicode="&#xe4;" glyph-name="adieresis" horiz-adv-x="539" d="M420 547Q420 575 398 595T345 616Q313 616 292 596T270 547Q270 525 282 508Q258 510 242 510Q229 510 222 509Q234 526 234 547Q234 575 212 595T159 616Q128 616 106 596T84 547Q84 529
93 513T120 488Q118 487 106 482Q96 478 88 474Q74 469 74 451Q74 441 77 438L96 392V393Q101 378 118 378Q129 378 134 383L130 381Q176 404 230 404Q324 404 324 326V324Q301 337 272 345T212 353Q121 353 68 302T14 171Q14 86 64 37T206 -12Q248 -12 282 1T340
34Q362 0 418 0Q445 0 473 12T527 44L532 68L506 111Q498 119 487 119Q482 119 474 115Q474 115 472 114Q470 112 469 112Q468 112 467 111Q454 104 448 104V315Q448 434 368 481Q391 488 405 506T420 547ZM325 173Q325 137 297 115T225 92Q183 92 161 113T139
171Q139 206 160 228T222 250Q271 250 298 229T325 173Z" />
<glyph unicode="&#xe5;" glyph-name="aring" horiz-adv-x="539" d="M371 609Q371 658 337 694T250 730Q198 730 164 694T129 609Q129 576 144 549T186 506Q131 497 88 474Q74 469 74 451Q74 441 77 438L96 392V393Q101 378 118 378Q129 378 134 383L130 381Q176
404 230 404Q324 404 324 326V324Q301 337 272 345T212 353Q121 353 68 302T14 171Q14 86 64 37T206 -12Q248 -12 282 1T340 34Q362 0 418 0Q445 0 473 12T527 44L532 68L506 111Q498 119 487 119Q482 119 474 115Q474 115 472 114Q470 112 469 112Q468 112 467
111Q454 104 448 104V315Q448 392 414 440T309 503Q338 518 354 546T371 609ZM325 173Q325 137 297 115T225 92Q183 92 161 113T139 171Q139 206 160 228T222 250Q271 250 298 229T325 173ZM282 609Q282 595 273 586T250 577Q237 577 227 586T217 609Q217 622 227
631T250 641Q263 641 272 632T282 609Z" />
<glyph unicode="&#xe6;" glyph-name="ae" horiz-adv-x="789" d="M755 198Q765 198 772 205T779 223V255Q779 379 723 444T558 510Q514 510 474 494T407 449Q380 482 339 496T242 510Q199 510 159 500T85 473Q80 471 77 464T73 451Q73 441 76 438L95 392V393Q100
378 118 378Q124 378 130 381Q176 404 231 404Q326 404 326 326V325Q303 338 275 345T212 353Q120 353 66 302T12 171Q12 85 63 37T215 -12Q270 -12 313 8T384 61Q411 30 456 9T567 -12Q627 -12 665 -3T731 22Q735 24 739 31T744 44V106Q744 117 737 124T720 131Q709
131 704 126Q680 113 648 105T576 96Q523 96 492 125T452 198H755ZM325 173Q325 137 297 115T226 92Q183 92 161 113T139 171Q139 207 160 228T223 250Q272 250 298 229T325 173ZM555 406Q598 406 620 380T647 302H451Q458 349 485 377T555 406Z" />
<glyph unicode="&#xe7;" glyph-name="ccedilla" horiz-adv-x="437" d="M450 450V457Q450 474 436 480Q401 496 365 506T286 516Q230 516 184 497T103 442T51 358T33 252Q33 158 76 91T201 0L165 -47Q160 -55 160 -62Q160 -73 167 -80L189 -100H188Q195 -107 206
-107Q215 -107 220 -102Q240 -93 256 -93Q266 -93 273 -95T281 -104Q281 -110 270 -112T240 -114Q220 -114 197 -108T156 -94H152L148 -93Q138 -93 131 -100T124 -118V-166Q124 -173 129 -179T140 -189Q171 -200 197 -205T253 -211Q314 -211 353 -185T393 -102Q393
-66 372 -43T320 -10Q352 -6 380 2T434 21Q439 23 444 30T449 44V108Q449 119 442 126T424 133Q418 133 412 130Q379 112 350 105T290 97Q229 97 195 140T160 252Q160 318 192 361T287 404Q318 404 343 398T390 383Q395 379 404 379Q423 379 428 396L427 394L450
450Z" />
<glyph unicode="&#xe8;" glyph-name="egrave" horiz-adv-x="523" d="M343 501Q367 501 367 525Q367 529 364 536Q364 536 362 540L232 713L233 711Q231 715 224 719T212 723H137Q126 723 119 716T112 700Q112 690 119 683L118 685L258 511Q258 510 259 510Q155
506 94 435T33 249Q33 135 96 62T279 -12Q337 -12 373 -3T443 22Q456 29 456 44V106Q456 117 449 124T432 131Q426 131 420 128Q393 114 361 105T289 96Q236 96 205 125T165 198H466Q491 198 491 223V255Q491 355 453 418T342 501H343ZM267 406Q309 406 332 379T360
302H165Q175 353 200 379T267 406Z" />
<glyph unicode="&#xe9;" glyph-name="eacute" horiz-adv-x="523" d="M419 685L418 683Q424 689 424 700Q424 709 418 716T400 723H324Q320 723 314 720T304 712L305 713L175 540L176 542Q170 536 170 525Q170 501 194 501H200Q121 479 77 412T33 249Q33 135 96
62T279 -12Q337 -12 373 -3T443 22Q456 29 456 44V106Q456 117 449 124T432 131Q426 131 420 128Q393 114 361 105T289 96Q236 96 205 125T165 198H466Q491 198 491 223V255Q491 376 436 442T276 510Q278 512 278 513V511L419 685ZM267 406Q309 406 332 379T360
302H165Q175 353 200 379T267 406Z" />
<glyph unicode="&#xea;" glyph-name="ecircumflex" horiz-adv-x="523" d="M466 198Q491 198 491 223V255Q491 379 434 444T270 510Q162 510 98 438T33 249Q33 135 96 62T279 -12Q337 -12 373 -3T443 22Q456 29 456 44V106Q456 117 449 124T432 131Q426 131 420
128Q393 114 361 105T289 96Q236 96 205 125T165 198H466ZM423 502Q434 502 441 509T448 526Q448 535 443 540L338 722V721Q336 725 329 729T316 734H234Q230 734 223 730T213 721L107 537L109 541Q104 536 104 526Q104 516 111 509T128 502H187Q192 502 198 504T206
509L271 622L341 510Q343 508 349 505T360 502H423ZM267 406Q309 406 332 379T360 302H165Q175 353 200 379T267 406Z" />
<glyph unicode="&#xeb;" glyph-name="edieresis" horiz-adv-x="523" d="M436 565Q436 593 414 613T361 634Q329 634 308 614T286 565Q286 525 322 505Q295 510 270 510Q241 510 208 503Q227 511 238 528T250 565Q250 593 228 613T175 634Q144 634 122 614T100
565Q100 537 122 517T175 496Q184 496 188 497Q115 472 74 407T33 249Q33 135 96 62T279 -12Q337 -12 373 -3T443 22Q456 29 456 44V106Q456 117 449 124T432 131Q426 131 420 128Q393 114 361 105T289 96Q236 96 205 125T165 198H466Q491 198 491 223V255Q491
350 457 411T357 496H361Q392 496 414 516T436 565ZM267 406Q309 406 332 379T360 302H165Q175 353 200 379T267 406Z" />
<glyph unicode="&#xec;" glyph-name="igrave" horiz-adv-x="268" d="M211 489Q235 489 235 513Q235 517 232 524Q232 524 230 528L100 701L101 699Q99 703 92 707T80 711H5Q-6 711 -13 704T-20 688Q-20 678 -13 671L-14 673L125 500Q129 495 134 492Q114 498 99
498Q75 498 48 487T-2 459H-1Q-12 452 -12 438Q-12 428 -7 423L11 393Q20 381 32 381Q39 381 47 386Q58 395 69 395Q71 395 71 382V103Q71 50 92 22T164 -6Q189 -6 217 6T270 39L274 61L250 101Q242 113 229 113Q223 113 215 109Q210 105 204 102T193 98Q192 98
192 110V401Q192 431 180 454T144 489H211Z" />
<glyph unicode="&#xed;" glyph-name="iacute" horiz-adv-x="268" d="M248 673L247 671Q253 677 253 688Q253 697 247 704T229 711H153Q149 711 143 708T133 700L134 701L4 528L5 530Q-1 524 -1 513Q-1 489 23 489H53Q25 479 -2 459H-1Q-12 452 -12 438Q-12 428
-7 423L11 393Q20 381 32 381Q39 381 47 386Q58 395 69 395Q71 395 71 382V103Q71 50 92 22T164 -6Q189 -6 217 6T270 39L274 61L250 101Q242 113 229 113Q223 113 215 109Q210 105 204 102T193 98Q192 98 192 110V401Q192 441 170 468T105 498Q107 500 107 501V499L248
673Z" />
<glyph unicode="&#xee;" glyph-name="icircumflex" horiz-adv-x="268" d="M274 61L250 101Q242 113 229 113Q223 113 215 109Q210 105 204 102T193 98Q192 98 192 110V401Q192 443 169 470T99 498Q75 498 48 487T-2 459H-1Q-12 452 -12 438Q-12 428 -7 423L11
393Q20 381 32 381Q39 381 47 386Q58 395 69 395Q71 395 71 382V103Q71 50 92 22T164 -6Q189 -6 217 6T270 39L274 61ZM270 487Q281 487 288 494T295 511Q295 520 290 525L185 707V706Q183 710 176 714T163 719H81Q77 719 70 715T60 706L-46 522L-44 526Q-49 521
-49 511Q-49 501 -42 494T-25 487H34Q39 487 45 489T53 494L118 607L188 495Q190 493 196 490T207 487H270Z" />
<glyph unicode="&#xef;" glyph-name="idieresis" horiz-adv-x="268" d="M274 61L250 101Q242 113 229 113Q223 113 215 109Q210 105 204 102T193 98Q192 98 192 110V401Q192 443 169 470T99 498Q75 498 48 487T-2 459H-1Q-12 452 -12 438Q-12 428 -7 423L11 393Q20
381 32 381Q39 381 47 386Q58 395 69 395Q71 395 71 382V103Q71 50 92 22T164 -6Q189 -6 217 6T270 39L274 61ZM285 563Q285 591 263 611T210 632Q178 632 157 612T135 563Q135 534 156 514T210 494Q241 494 263 514T285 563ZM99 563Q99 591 77 611T24 632Q-7 632
-29 612T-51 563Q-51 535 -29 515T24 494Q55 494 77 514T99 563Z" />
<glyph unicode="&#xf1;" glyph-name="ntilde" horiz-adv-x="587" d="M455 664H397Q375 664 373 643V641Q368 614 352 614Q343 614 331 617Q329 618 328 618H329Q329 618 321 621Q321 621 313 623L312 622Q312 622 311 623Q309 623 309 623Q285 630 270 633T235
636Q181 636 149 598T114 512Q114 503 118 498Q114 499 105 499Q81 499 55 488T3 459H4Q-7 452 -7 439Q-7 429 -2 424L16 393Q25 381 38 381Q48 381 54 387L52 386Q66 396 76 396Q79 396 79 383V25Q79 14 86 7T103 0H178Q202 0 202 25V244Q202 311 230 355T314
400Q351 400 369 375T387 306V103Q387 50 409 22T484 -6Q510 -6 539 6T594 39L600 61L574 102Q565 114 553 114Q547 114 535 108Q529 104 523 101T514 98V110L513 325Q513 412 466 461T321 510Q280 510 246 496T185 456Q174 477 154 488H190Q196 488 204 495T215
510Q218 522 223 530T237 538Q251 538 279 530L276 531L282 528H286L301 523H302Q316 520 327 519T359 517Q410 517 441 556T472 647L455 664Z" />
<glyph unicode="&#xf2;" glyph-name="ograve" horiz-adv-x="560" d="M523 249Q523 335 487 398T384 490Q401 495 401 513Q401 517 398 524Q398 524 396 528L266 701L267 699Q265 703 258 707T246 711H171Q160 711 153 704T146 688Q146 678 153 671L152 673L283
510H278Q164 510 99 439T33 249Q33 131 99 60T278 -12Q392 -12 457 59T523 249ZM395 249Q395 183 365 139T278 94Q221 94 191 138T161 249Q161 315 191 360T278 405Q335 405 365 360T395 249Z" />
<glyph unicode="&#xf3;" glyph-name="oacute" horiz-adv-x="560" d="M433 673L432 671Q438 677 438 688Q438 697 432 704T414 711H338Q334 711 328 708T318 700L319 701L189 528L190 530Q184 524 184 513Q184 502 189 496Q115 471 74 406T33 249Q33 131 99 60T278
-12Q392 -12 457 59T523 249Q523 361 464 431T300 509L433 673ZM395 249Q395 183 365 139T278 94Q221 94 191 138T161 249Q161 315 191 360T278 405Q335 405 365 360T395 249Z" />
<glyph unicode="&#xf4;" glyph-name="ocircumflex" horiz-adv-x="560" d="M432 487Q443 487 450 494T457 511Q457 520 452 525L347 707V706Q345 710 338 714T325 719H243Q239 719 232 715T222 706L116 522L118 526Q113 521 113 511Q113 501 120 494T137 487H165Q102
458 68 396T33 249Q33 131 99 60T278 -12Q392 -12 457 59T523 249Q523 333 489 395T390 487H432ZM395 249Q395 183 365 139T278 94Q221 94 191 138T161 249Q161 315 191 360T278 405Q335 405 365 360T395 249ZM278 510Q248 510 221 504L280 607L345 502Q311 510
278 510Z" />
<glyph unicode="&#xf5;" glyph-name="otilde" horiz-adv-x="560" d="M440 664H382Q360 664 358 643V642Q356 630 351 622T337 614Q328 614 316 617Q314 618 313 618H314Q314 618 306 621Q306 621 298 623L297 622Q297 622 296 623Q294 623 294 623Q270 630 255
633T220 636Q166 636 134 598T99 512Q99 502 106 495T124 488H167Q103 459 68 397T33 249Q33 131 99 60T278 -12Q392 -12 457 59T523 249Q523 367 458 438T278 510Q233 510 191 497Q197 503 200 510Q203 522 208 530T222 538Q236 538 264 530L261 531L267 528H271L286
523H287Q301 520 312 519T344 517Q395 517 426 556T457 647L440 664ZM395 249Q395 183 365 139T278 94Q221 94 191 138T161 249Q161 315 191 360T278 405Q335 405 365 360T395 249Z" />
<glyph unicode="&#xf6;" glyph-name="odieresis" horiz-adv-x="560" d="M442 547Q442 575 420 595T367 616Q335 616 314 596T292 547Q292 526 304 509Q302 509 291 510Q281 510 278 510Q265 510 243 508Q256 526 256 547Q256 575 234 595T181 616Q150 616 128
596T106 547Q106 525 120 507T156 482Q97 451 65 391T33 249Q33 131 99 60T278 -12Q392 -12 457 59T523 249Q523 331 490 392T397 483Q417 492 429 509T442 547ZM395 249Q395 183 365 139T278 94Q221 94 191 138T161 249Q161 315 191 360T278 405Q335 405 365 360T395
249Z" />
<glyph unicode="&#xf7;" glyph-name="divide" horiz-adv-x="549" d="M535 255Q560 255 560 280V349Q560 374 535 374H33Q8 374 8 349V280Q8 255 33 255H535ZM364 472Q364 504 340 528T284 552Q252 552 229 529T205 472Q205 440 228 417T284 393Q317 393 340 416T364
472ZM364 157Q364 189 340 212T284 236Q252 236 229 213T205 157Q205 125 228 102T284 78Q317 78 340 100T364 157Z" />
<glyph unicode="&#xf8;" glyph-name="oslash" horiz-adv-x="537" d="M523 250Q523 344 478 411L508 446Q516 451 516 463Q516 471 507 482L474 512H475Q468 519 456 519Q446 519 438 511L409 477Q349 511 278 511Q165 511 99 440T33 250Q33 153 78 87L46 50V51Q41
46 41 35Q41 23 49 15L84 -14Q89 -19 99 -19Q110 -19 118 -11L146 23Q205 -12 278 -12Q391 -12 457 60T523 250ZM395 250Q395 184 365 139T278 94Q244 94 219 108L387 305Q395 278 395 250ZM161 250Q161 316 191 360T278 405Q313 405 335 390L167 192Q161 214 161
250Z" />
<glyph unicode="&#xf9;" glyph-name="ugrave" horiz-adv-x="586" d="M593 68L568 107Q559 119 547 119Q542 119 534 115Q534 115 532 114Q530 112 529 112Q528 112 527 111Q514 104 508 104V474Q508 498 483 498H409Q384 498 384 474V255Q384 188 357 144T272
99Q235 99 218 124T200 193V401Q200 443 176 470T103 498Q79 498 51 488T-1 459H0Q-11 452 -11 439Q-11 429 -6 424L12 393Q21 381 34 381Q44 381 50 387L48 386Q62 396 72 396Q74 396 74 387V173Q74 86 121 37T266 -12Q307 -12 340 2T400 41Q421 0 478 0Q505 0
534 12T588 44L593 68ZM347 489Q371 489 371 513Q371 517 368 524Q368 524 366 528L236 701L237 699Q235 703 228 707T216 711H141Q130 711 123 704T116 688Q116 678 123 671L122 673L262 499L261 501Q263 497 270 493T281 489H347Z" />
<glyph unicode="&#xfa;" glyph-name="uacute" horiz-adv-x="586" d="M593 68L568 107Q559 119 547 119Q542 119 534 115Q534 115 532 114Q530 112 529 112Q528 112 527 111Q514 104 508 104V474Q508 498 483 498H409Q384 498 384 474V255Q384 188 357 144T272
99Q235 99 218 124T200 193V401Q200 443 176 470T103 498Q79 498 51 488T-1 459H0Q-11 452 -11 439Q-11 429 -6 424L12 393Q21 381 34 381Q44 381 50 387L48 386Q62 396 72 396Q74 396 74 387V173Q74 86 121 37T266 -12Q307 -12 340 2T400 41Q421 0 478 0Q505 0
534 12T588 44L593 68ZM433 673L432 671Q438 677 438 688Q438 697 432 704T414 711H338Q334 711 328 708T318 700L319 701L189 528L190 530Q184 524 184 513Q184 489 208 489H273Q277 489 283 492T292 501V499L433 673Z" />
<glyph unicode="&#xfb;" glyph-name="ucircumflex" horiz-adv-x="586" d="M593 68L568 107Q559 119 547 119Q542 119 534 115Q534 115 532 114Q530 112 529 112Q528 112 527 111Q514 104 508 104V474Q508 498 483 498H444Q448 502 448 511Q448 520 443 525L338
707V706Q336 710 329 714T316 719H234Q230 719 223 715T213 706L107 522L109 526Q104 521 104 511Q104 502 108 498H103Q79 498 51 488T-1 459H0Q-11 452 -11 439Q-11 429 -6 424L12 393Q21 381 34 381Q44 381 50 387L48 386Q62 396 72 396Q74 396 74 387V173Q74
86 121 37T266 -12Q307 -12 340 2T400 41Q421 0 478 0Q505 0 534 12T588 44L593 68ZM384 474V255Q384 188 357 144T272 99Q235 99 218 124T200 193V401Q200 429 189 452T154 487H187Q192 487 198 489T206 494L271 607L341 495Q343 493 349 490T360 487H387Q384
481 384 474Z" />
<glyph unicode="&#xfc;" glyph-name="udieresis" horiz-adv-x="586" d="M448 547Q448 575 426 595T373 616Q341 616 320 596T298 547Q298 518 319 498T373 478Q380 478 384 479V255Q384 188 357 144T272 99Q235 99 218 124T200 193V401Q200 456 163 481Q174 478
187 478Q218 478 240 498T262 547Q262 575 240 595T187 616Q156 616 134 596T112 547Q112 512 142 492Q126 498 103 498Q79 498 51 488T-1 459H0Q-11 452 -11 439Q-11 429 -6 424L12 393Q21 381 34 381Q44 381 50 387L48 386Q62 396 72 396Q74 396 74 387V173Q74
86 121 37T266 -12Q307 -12 340 2T400 41Q421 0 478 0Q505 0 534 12T588 44L593 68L568 107Q559 119 547 119Q542 119 534 115Q534 115 532 114Q530 112 529 112Q528 112 527 111Q514 104 508 104V474Q508 498 483 498H426Q448 517 448 547Z" />
<glyph unicode="&#xff;" glyph-name="ydieresis" horiz-adv-x="567" d="M445 547Q445 575 423 595T370 616Q338 616 317 596T295 547Q295 518 316 498T370 478Q378 478 382 479V251Q380 185 353 143T271 100Q234 100 217 125T199 195V406Q199 452 173 479Q176
478 184 478Q215 478 237 498T259 547Q259 575 237 595T184 616Q153 616 131 596T109 547Q109 522 126 503Q112 505 103 505Q79 505 51 494T-1 465H0Q-11 458 -11 444Q-11 434 -6 429L12 398Q21 386 33 386Q40 386 48 391Q62 401 72 401Q73 401 73 391V175Q73 87
120 38T264 -12Q299 -12 330 0T386 32Q386 -43 359 -83T257 -124Q217 -124 184 -116T125 -95L126 -96Q120 -93 114 -93Q91 -93 91 -117V-181Q91 -199 106 -204H105Q136 -217 175 -225T262 -233Q385 -233 445 -163T505 42V480Q505 505 480 505H430Q445 523 445 547Z"
/>
<glyph unicode="&#x152;" glyph-name="OE" horiz-adv-x="906" d="M885 0Q910 0 910 25V86Q910 111 885 111H586V330H824Q849 330 849 355V417Q849 442 824 442H586V628H852Q863 628 870 635T877 652V714Q877 738 852 738H622Q577 738 538 739T456 744Q407 747
366 747Q281 747 217 720T111 643T49 523T28 369Q28 285 48 216T111 96T217 18T366 -9Q401 -9 443 -6Q444 -6 446 -6Q449 -5 451 -5Q452 -5 460 -5Q466 -4 471 -4Q539 0 588 0H885ZM366 105Q312 105 273 125T211 181T177 264T166 369Q166 426 176 473T210 557T272
614T366 634Q415 634 458 630V109Q412 105 366 105Z" />
<glyph unicode="&#x153;" glyph-name="oe" horiz-adv-x="854" d="M820 198Q845 198 845 223V255Q845 379 789 444T623 510Q568 510 527 490T455 432Q422 469 377 489T277 510Q165 510 100 439T34 249Q34 132 99 60T277 -12Q332 -12 374 7T449 65Q476 30 522 9T632
-12Q693 -12 730 -3T797 22Q810 29 810 44V106Q810 117 803 124T785 131Q779 131 773 128Q748 114 716 105T642 96Q589 96 558 125T518 198H820ZM391 249Q391 182 363 138T277 94Q222 94 193 138T163 249Q163 315 192 360T277 405Q334 405 362 361T391 249ZM620
406Q663 406 685 380T712 302H518Q527 352 552 379T620 406Z" />
<glyph unicode="&#x178;" glyph-name="Ydieresis" horiz-adv-x="587" d="M576 634Q601 634 601 659V717Q601 742 576 742H483Q478 742 471 738T461 729L303 452L132 730V729Q129 733 123 737T111 742H10Q0 742 -7 735T-14 717V659Q-14 648 -7 641T10 634H44L237
325V107H204Q179 107 179 82V25Q179 0 204 0H399Q424 0 424 25V82Q424 107 399 107H366V329L539 634H576ZM257 818Q257 850 235 873T180 896Q149 896 127 873T104 818Q104 786 126 764T180 741Q212 741 234 763T257 818ZM494 818Q494 850 472 873T417 896Q386 896
364 873T341 818Q341 786 363 764T417 741Q449 741 471 763T494 818Z" />
<glyph unicode="&#x192;" glyph-name="florin" horiz-adv-x="550" d="M570 689L571 693V696Q571 709 560 716H561Q540 731 509 742T447 753Q368 753 320 707T257 578L235 459H141Q116 459 116 434V381Q116 356 141 356H216L164 70Q156 22 143 -4T95 -30Q80 -30
64 -26T42 -18H41Q33 -15 30 -15Q10 -15 7 -36L-1 -92V-96Q-1 -110 16 -121Q30 -128 56 -134T112 -141Q188 -141 230 -97T288 38L345 356H447Q457 356 464 363T471 381V434Q471 445 464 452T447 459H363L379 541Q387 588 404 615T454 642Q467 642 482 638T511 626L507
628Q512 623 522 623Q527 623 534 627T545 638L570 689Z" />
<glyph unicode="&#x2c6;" glyph-name="circumflex" horiz-adv-x="492" d="M403 487Q414 487 421 494T428 511Q428 520 423 525L318 707V706Q316 710 309 714T296 719H214Q210 719 203 715T193 706L87 522L89 526Q84 521 84 511Q84 501 91 494T108 487H167Q172
487 178 489T186 494L251 607L321 495Q323 493 329 490T340 487H403Z" />
<glyph unicode="&#x2dc;" glyph-name="tilde" horiz-adv-x="493" d="M418 664H360Q350 664 343 658T336 642Q334 630 329 622T315 614Q306 614 294 617Q292 618 291 618H292Q292 618 284 621Q284 621 276 623L275 622Q275 622 274 623Q272 623 272 623Q248 630
233 633T198 636Q144 636 112 598T77 512Q77 502 84 495T102 488H153Q159 488 167 495T178 510Q181 522 186 530T200 538Q214 538 242 530L239 531L245 528H249L264 523H265Q279 520 290 519T322 517Q373 517 404 556T435 647L418 664Z" />
<glyph unicode="&#x2013;" glyph-name="endash" horiz-adv-x="500" d="M490 160Q515 160 515 182V239Q515 262 490 262H10Q-15 262 -15 239V182Q-15 160 10 160H490Z" />
<glyph unicode="&#x2014;" glyph-name="emdash" horiz-adv-x="1000" d="M990 160Q1015 160 1015 182V239Q1015 262 990 262H10Q-15 262 -15 239V182Q-15 160 10 160H990Z" />
<glyph unicode="&#x2018;" glyph-name="quoteleft" horiz-adv-x="254" d="M232 736L174 756H170Q165 756 159 754T151 749Q122 714 92 656T46 537Q46 537 46 536Q45 536 45 535Q45 529 51 521T62 511L149 487H151Q173 487 176 507Q184 556 203 613T244 711L232 736Z" />
<glyph unicode="&#x2019;" glyph-name="quoteright" horiz-adv-x="254" d="M225 731L132 757Q132 757 131 758Q129 758 129 758Q120 758 113 752T106 735V738Q97 687 79 633T41 541Q38 535 38 530Q38 522 42 515T57 506L55 507L107 488H112Q123 488 127 492Q157
529 188 589T237 710L225 731Z" />
<glyph unicode="&#x201a;" glyph-name="quotesinglbase" horiz-adv-x="254" d="M217 117L125 143H123Q101 143 98 122Q90 73 72 18T34 -74Q31 -80 31 -85Q31 -93 35 -100T50 -109L48 -108L100 -126H104Q117 -126 120 -123Q150 -86 181 -25T229 95L217 117Z" />
<glyph unicode="&#x201c;" glyph-name="quotedblleft" horiz-adv-x="449" d="M246 736L185 756H180Q176 756 170 754T161 749Q131 714 99 655T49 538Q49 538 49 537Q48 535 48 535Q48 527 54 519T67 510L154 487H160Q169 487 176 492T185 507Q195 558 215 615T258
711L246 736ZM426 736L365 756H360Q356 756 350 754T341 749Q311 714 279 655T229 538Q229 538 229 537Q228 535 228 535Q228 527 234 519T247 510L334 487H340Q362 487 365 507Q375 558 394 615T436 710L426 736Z" />
<glyph unicode="&#x201d;" glyph-name="quotedblright" horiz-adv-x="449" d="M417 732L324 757L320 758H316Q296 758 293 738Q284 688 265 633T225 541Q222 535 222 529Q222 510 239 506L238 507L293 488H298Q310 488 317 495Q347 530 380 590T430 710L417 732ZM237
732L144 757L140 758H136Q116 758 113 738Q105 689 86 634T45 541Q42 535 42 529Q42 510 59 506L58 507L114 488H118Q130 488 137 495Q167 530 200 590T250 710L237 732Z" />
<glyph unicode="&#x201e;" glyph-name="quotedblbase" horiz-adv-x="449" d="M227 118L134 143H128Q119 143 112 138T102 123Q93 73 74 18T34 -74Q31 -80 31 -85Q31 -93 35 -100T50 -109L48 -108L103 -126H108Q112 -126 118 -124T127 -120Q157 -85 189 -25T239
95L227 118ZM407 118L314 143H308Q299 143 292 138T282 123Q273 73 254 18T214 -74Q211 -80 211 -86Q211 -105 229 -109L228 -108L283 -126H288Q300 -126 306 -120Q337 -84 369 -25T419 95L407 118Z" />
<glyph unicode="&#x2020;" glyph-name="dagger" horiz-adv-x="539" d="M502 456Q527 456 527 481V555Q527 580 501 580L339 574L346 758Q346 783 321 783H237Q212 783 212 759L217 574L56 580Q31 580 31 555V481Q31 456 56 456L219 460L215 -134Q215 -159 240
-159H318Q343 -159 343 -134L339 460L502 456Z" />
<glyph unicode="&#x2021;" glyph-name="daggerdbl" horiz-adv-x="538" d="M496 34Q521 34 521 59V133Q521 158 495 158L339 152V471L496 467Q521 467 521 492V566Q521 591 495 591L339 585L345 759Q345 783 321 783H237Q212 783 212 759L217 585L61 591Q51 591
44 584T37 566V492Q37 481 44 474T61 467L219 471V152L61 158Q51 158 44 151T37 133V59Q37 48 44 41T61 34L217 38L212 -134Q212 -159 237 -159H321Q345 -159 345 -134L339 38L496 34Z" />
<glyph unicode="&#x2022;" glyph-name="bullet" horiz-adv-x="478" d="M431 359Q431 396 417 429T378 488T320 528T248 542Q211 542 178 528T119 489T79 430T65 359Q65 322 79 288T118 229T177 190T248 176Q286 176 319 190T378 229T417 287T431 359Z" />
<glyph unicode="&#x2026;" glyph-name="ellipsis" horiz-adv-x="975" d="M581 65Q581 95 556 117T497 140Q463 140 439 118T414 65Q414 34 439 12T497 -10Q530 -10 555 12T581 65ZM256 65Q256 95 232 117T173 140Q139 140 114 118T89 65Q89 34 114 12T173 -10Q206
-10 231 12T256 65ZM905 65Q905 95 881 117T822 140Q788 140 764 118T739 65Q739 34 764 12T822 -10Q855 -10 880 12T905 65Z" />
<glyph unicode="&#x2030;" glyph-name="perthousand" horiz-adv-x="1393" d="M1388 201Q1388 245 1372 284T1326 352T1258 397T1173 414Q1129 414 1090 398T1021 352T975 284T958 201Q958 157 974 118T1020 50T1089 5T1173 -12Q1218 -12 1257 4T1326 50T1371 118T1388
201ZM928 201Q928 245 912 284T866 352T798 397T713 414Q669 414 630 398T561 352T515 284T498 201Q498 157 514 118T560 50T629 5T713 -12Q758 -12 797 4T866 50T911 118T928 201ZM454 538Q454 582 438 621T392 689T323 735T239 751Q195 751 156 735T87 690T41
621T24 538Q24 494 40 456T86 388T155 342T239 326Q284 326 323 342T392 387T437 455T454 538ZM800 695L799 693Q805 699 805 710Q805 723 794 730H795L743 766Q739 768 739 768Q732 771 728 771Q717 771 711 765L152 44L153 46Q147 40 147 29Q147 17 158 10H157L209
-26Q217 -31 224 -31Q235 -31 241 -25L800 695ZM336 538Q336 497 308 467T239 437Q199 437 171 467T143 538Q143 580 171 609T239 639Q279 639 307 610T336 538ZM1270 201Q1270 160 1242 130T1173 100Q1133 100 1105 130T1077 201Q1077 243 1105 272T1173 302Q1213
302 1241 273T1270 201ZM810 201Q810 160 782 130T713 100Q673 100 645 130T617 201Q617 243 645 272T713 302Q753 302 781 273T810 201Z" />
<glyph unicode="&#x2039;" glyph-name="guilsinglleft" horiz-adv-x="291" d="M257 64Q268 71 268 84Q268 88 268 91T263 101L166 254L263 407Q267 414 267 417T268 424Q268 437 257 444L204 480L202 481Q197 483 193 483Q181 483 174 472L46 272Q40 260 40 254Q40
243 46 237L174 36Q181 25 193 25Q200 25 204 28L257 64Z" />
<glyph unicode="&#x203a;" glyph-name="guilsinglright" horiz-adv-x="291" d="M267 243Q267 243 267 247Q268 252 268 254Q268 254 268 260Q267 265 267 265L134 472Q127 483 116 483Q112 483 107 481L105 480L52 444Q40 435 40 425Q40 419 47 407L142 254L47
101Q40 89 40 83Q40 73 52 64L105 28Q110 25 116 25Q127 25 134 36L267 243Z" />
<glyph unicode="&#x20ac;" glyph-name="currency" horiz-adv-x="608" d="M511 236Q536 236 536 261V327Q536 337 529 344T511 351H167V386H511Q536 386 536 410V476Q536 500 511 500H190Q216 565 266 602T386 640Q428 640 462 632T536 608Q539 605 549 605Q568
605 573 622L572 621L594 677Q598 682 598 691Q598 710 581 715L583 714Q537 733 490 744T381 756Q259 756 169 687T46 500H9Q-16 500 -16 476V410Q-16 386 9 386H30V351H9Q-2 351 -9 344T-16 327V261Q-16 236 9 236H46Q79 117 167 50T379 -18Q441 -18 492 -5T582
28Q595 35 595 50V123Q595 134 588 141T571 148Q560 148 555 143L559 145Q521 124 482 113T390 101Q323 101 271 136T192 236H511Z" />
<glyph unicode="&#x2122;" glyph-name="trademark" horiz-adv-x="974" d="M911 282Q935 282 935 307V349Q935 373 911 373H896V633H911Q935 633 935 658V700Q935 724 911 724H787Q783 724 775 719T765 710L661 463L555 710Q553 714 546 719T533 724H410Q399 724
392 717T385 700V658Q385 633 410 633H424V373H410Q385 373 385 349V307Q385 282 410 282H502Q527 282 527 307V506L616 297Q618 291 625 287T639 282H678Q684 282 691 287T701 298V297L788 504V307Q788 282 813 282H911ZM354 628Q379 628 379 652V700Q379 710
372 717T354 724H38Q27 724 20 717T13 700V652Q13 628 38 628H141V373H125Q101 373 101 349V307Q101 282 125 282H267Q292 282 292 307V349Q292 373 267 373H252V628H354Z" />
</font>
</defs>
</svg>
