<?xml version="1.0" standalone="no"?> <!DOCTYPE svg PUBLIC "-//W3C//DTD SVG 1.0//EN" "http://www.w3.org/TR/2001/REC-SVG-20010904/DTD/svg10.dtd" > <svg xmlns="http://www.w3.org/2000/svg" width="100%" height="100%">
<defs >
<font id="Steinem-BoldItalic" horiz-adv-x="434" ><font-face
    font-family="Steinem"
    units-per-em="1000"
    panose-1="2 0 8 0 0 0 0 0 0 0"
    ascent="931"
    descent="-235"
    alphabetic="0" />
<missing-glyph horiz-adv-x="364" d="M33 0V666H298V0H33ZM66 33H265V633H66V33Z" />
<glyph unicode=" " glyph-name="space" horiz-adv-x="278" />
<glyph unicode="!" glyph-name="exclam" horiz-adv-x="243" d="M316 714Q316 738 296 738H224Q214 738 207 731T197 714L120 247Q120 246 120 244Q119 242 119 242Q119 234 124 228T138 222H200Q208 222 217 229T229 247L316 714ZM218 71Q218 73 219 78Q219 82
219 85Q219 115 202 135T157 155Q126 155 100 130T68 71Q66 63 66 55Q66 26 84 7T128 -12Q158 -12 184 12T218 71Z" />
<glyph unicode="&quot;" glyph-name="quotedbl" horiz-adv-x="442" d="M509 715Q509 741 490 741H397Q386 741 378 733T367 715L344 493Q344 493 344 491Q344 489 344 489Q344 471 365 471H426Q448 471 454 493L509 715ZM345 715Q345 741 326 741H233Q222 741
214 733T203 715L180 493Q180 493 180 491Q180 489 180 489Q180 481 186 476T200 471H262Q284 471 290 493L345 715Z" />
<glyph unicode="#" glyph-name="numbersign" horiz-adv-x="548" d="M596 421Q621 421 626 446L636 506Q636 508 636 509L637 512Q637 531 616 531H549L606 710L607 714Q607 738 587 738H522Q501 738 494 716L436 531H364L421 710L422 714Q422 725 416 731T401
738H337Q327 738 319 732T308 716L250 531H168Q143 531 138 506L128 446Q128 444 128 443L127 440Q127 421 148 421H214L182 319H101Q76 319 73 294L62 234Q62 209 82 209H147L91 28L90 24Q90 0 111 0H175Q185 0 193 6T204 21L261 209H332L276 28L275 24Q275 0
296 0H360Q370 0 378 6T389 21L447 209H530Q556 209 559 234L570 294Q570 319 549 319H482L514 421H596ZM328 421H399L368 319H296L328 421Z" />
<glyph unicode="$" glyph-name="dollar" horiz-adv-x="545" d="M563 213Q567 237 567 257Q567 325 528 363T412 428L448 631Q480 629 504 623T552 606Q556 603 564 603Q571 603 579 607T591 620L590 619L617 668Q623 674 623 682Q623 683 624 686Q624 688 624
689Q624 701 610 705Q583 716 545 726T467 740L477 793Q477 818 457 818H405Q380 818 377 793L367 738Q278 723 219 671T146 536Q143 516 143 499Q143 465 155 438T189 392T236 360T296 333L257 113Q218 116 186 125T117 151L116 152Q112 156 104 156Q94 156 86
149T75 131L63 61Q63 41 74 38Q107 24 148 14T237 1L227 -56Q227 -57 227 -59Q226 -61 226 -62Q226 -81 247 -81H299Q322 -81 327 -56L338 6Q429 22 488 76T563 213ZM435 211Q425 149 359 126L389 296Q413 283 425 267T437 229Q437 221 435 211ZM270 547Q281 606
347 625L319 465Q269 492 269 532Q269 533 269 539Q270 544 270 547Z" />
<glyph unicode="%" glyph-name="percent" horiz-adv-x="1116" d="M1089 201Q1092 221 1092 240Q1092 315 1042 364T913 414Q869 414 827 398T750 352T692 284T661 201Q658 182 658 163Q658 87 708 38T838 -12Q882 -12 924 4T1000 50T1058 118T1089 201ZM605 538Q608
557 608 576Q608 652 558 701T428 751Q384 751 342 735T266 690T208 622T177 538Q174 519 174 500Q174 424 224 375T353 326Q397 326 439 342T516 387T574 455T605 538ZM1013 695L1011 693Q1018 699 1020 710Q1020 711 1020 713Q1021 714 1021 716Q1021 725 1013
730H1014L968 766L970 765Q964 771 955 771Q943 771 937 765L254 44L255 46Q246 39 245 29Q245 27 245 26L244 23Q244 17 249 12L297 -26Q305 -31 312 -31Q322 -31 330 -25L1013 695ZM971 201Q964 160 931 130T858 100Q823 100 801 124T779 184Q779 185 779 192Q780
197 780 201Q788 243 820 272T893 302Q928 302 950 279T973 220Q973 210 971 201ZM486 538Q479 497 446 467T373 437Q338 437 316 460T293 519Q293 529 295 538Q303 580 336 609T409 639Q443 639 465 616T488 557Q488 547 486 538Z" />
<glyph unicode="&amp;" glyph-name="ampersand" horiz-adv-x="708" d="M739 76L720 114V113Q718 117 713 120T703 124Q699 124 690 120Q689 120 687 119Q680 114 673 110T661 106Q651 106 639 120V119L583 189Q586 190 590 197V196L684 316H723Q747 316 752 341L762
396Q762 420 741 420H646Q641 420 633 416T622 407V408L518 273L423 394Q501 434 543 475T596 579Q599 596 599 613Q599 679 552 715T431 751Q346 751 279 703T198 571Q195 554 195 537Q195 504 207 475T242 415Q164 375 120 323T62 199Q59 181 59 164Q59 124 74
92T117 36T179 1T254 -12Q319 -12 375 10T493 89L533 40V41Q554 15 572 8T610 0Q643 0 676 17T734 53L739 76ZM282 97Q241 97 214 124T186 192Q186 201 188 211Q200 277 305 334L429 172Q351 97 282 97ZM479 578Q474 551 444 524T363 471Q342 498 331 519T319 562Q319
563 320 568Q320 571 320 573Q327 611 353 632T415 653Q444 653 462 636T480 591Q480 588 480 585Q479 580 479 578Z" />
<glyph unicode="&apos;" glyph-name="quotesingle" horiz-adv-x="237" d="M318 715Q318 741 299 741H216Q206 741 198 733T188 715L163 493Q163 493 163 491Q163 489 163 488Q163 471 182 471H237Q245 471 253 477T264 493L318 715Z" />
<glyph unicode="(" glyph-name="parenleft" horiz-adv-x="259" d="M253 -109H254Q259 -103 260 -94Q260 -92 261 -90Q261 -89 261 -89Q261 -87 260 -85Q259 -84 259 -82Q230 -12 216 47T202 171Q202 231 214 301Q232 404 277 501T394 682Q399 690 399 694Q399
695 399 697Q400 699 400 700Q400 708 392 713H393L344 754Q342 755 340 756Q337 759 331 759Q319 759 312 752Q226 653 168 538T89 301Q78 237 78 172Q78 86 97 4T154 -153Q157 -157 168 -157Q174 -157 177 -155Q178 -155 179 -154L253 -109Z" />
<glyph unicode=")" glyph-name="parenright" horiz-adv-x="259" d="M295 301Q306 363 306 427Q306 513 287 596T230 754Q229 755 228 755Q224 759 216 759Q205 759 199 753L201 754L138 715Q126 709 124 695Q124 694 123 691Q123 689 123 688Q123 687 123 686Q124
683 124 682Q154 613 168 553T182 430Q182 371 170 301Q152 197 106 100T-11 -81Q-15 -86 -15 -92Q-15 -94 -16 -96Q-16 -98 -16 -99Q-16 -105 -13 -108L40 -152L38 -151Q44 -157 53 -157Q65 -157 70 -153Q157 -51 215 64T295 301Z" />
<glyph unicode="*" glyph-name="asterisk" horiz-adv-x="428" d="M512 556V555Q530 559 533 578Q533 588 531 591L522 655Q516 672 502 672H499L495 671L389 632L413 734Q413 736 413 737L414 740Q414 760 394 760H321Q311 760 303 753T292 734L279 632L189 671L185
672H181Q173 672 165 667T154 654L155 655L119 584Q119 584 118 582Q117 580 117 579Q117 565 129 557L226 526L147 445L149 447Q144 443 143 440T140 431Q140 419 143 414L196 367L198 366Q202 362 209 362Q221 362 231 374L305 463L349 376Q350 368 355 365T368
362Q379 362 386 368L384 367L448 411H447Q459 418 462 430Q462 431 462 433Q463 435 463 436Q463 442 460 446L406 526L512 556Z" />
<glyph unicode="+" glyph-name="plus" horiz-adv-x="549" d="M580 257Q605 257 610 282L622 351Q622 353 622 354Q623 357 623 357Q623 376 601 376H410L444 568Q444 569 444 572Q445 573 445 575Q445 592 424 592H352Q329 592 324 568L290 376H99Q75 376 70 351L58
282Q58 280 58 279L57 276Q57 257 78 257H269L235 65Q235 40 255 40H327Q352 40 355 65L389 257H580Z" />
<glyph unicode="," glyph-name="comma" horiz-adv-x="254" d="M238 117L150 143H148Q127 143 120 122Q103 72 75 18T21 -74Q16 -82 16 -85Q16 -86 16 -88Q15 -89 15 -91Q15 -106 31 -109L29 -108L78 -126H82Q95 -126 98 -123Q115 -105 134 -82T174 -29Q220 36
246 95L238 117Z" />
<glyph unicode="-" glyph-name="hyphen" horiz-adv-x="313" d="M307 160Q332 160 335 183L346 243Q346 266 326 266H100Q74 266 71 243L60 183Q60 160 81 160H307Z" />
<glyph unicode="." glyph-name="period" horiz-adv-x="243" d="M216 65Q216 68 217 72Q217 77 217 79Q217 104 200 122T155 140Q125 140 99 118T66 65Q66 62 66 59Q65 54 65 53Q65 26 83 8T128 -10Q158 -10 184 12T216 65Z" />
<glyph unicode="/" glyph-name="slash" horiz-adv-x="357" d="M513 708Q513 708 513 711Q514 713 514 713Q514 728 500 732L501 731L448 751Q444 756 435 756Q418 756 411 741V742L0 44Q-6 39 -6 32V30Q-7 28 -7 27Q-7 11 6 8L5 9L57 -14Q61 -18 69 -18Q88 -18
96 -1L94 -3L508 695Q510 698 512 705L513 708Z" />
<glyph unicode="0" glyph-name="zero" horiz-adv-x="547" d="M604 369Q616 437 616 498Q616 550 606 595T573 675T511 730T415 750Q341 750 285 716T190 626T128 505T92 369Q80 301 80 242Q80 189 90 144T123 64T185 9T281 -12Q355 -12 411 22T506 112T568 233T604
369ZM472 369Q465 326 453 283T421 198T371 130T301 103Q252 103 232 142T212 246Q212 275 215 307T224 369Q232 413 244 457T276 542T326 609T395 636Q444 636 464 597T485 492Q485 462 481 430T472 369Z" />
<glyph unicode="1" glyph-name="one" horiz-adv-x="531" d="M406 0Q431 0 434 25L444 82Q444 83 444 86Q445 87 445 89Q445 107 425 107H366L473 713Q473 738 452 738H448L268 688V689Q260 687 254 680T246 665L236 605Q236 604 236 602Q235 600 235 600Q235 581
255 581H258L328 599L241 107H181Q157 107 152 82L142 25Q142 0 162 0H406Z" />
<glyph unicode="2" glyph-name="two" horiz-adv-x="547" d="M526 164L474 172H470Q461 172 454 166T444 152Q429 116 393 116Q385 116 366 120Q357 121 357 121Q356 121 351 122Q347 122 344 123H342Q320 129 302 131T257 134Q248 134 242 133L359 232Q456 313
514 386T587 537Q591 563 591 585Q591 666 539 708T397 750Q362 750 327 742T263 720T210 692T171 664Q160 659 159 646Q159 636 161 631L186 587V588Q190 577 203 577Q214 577 222 584H221Q245 603 283 619T361 635Q409 635 432 615T456 559Q456 548 454 535Q446
490 409 437T288 311L36 92V93Q34 91 31 85T26 75L17 21Q17 21 17 19Q17 17 17 16Q17 8 23 2T37 -4H41Q51 -2 57 -1Q100 5 131 8T196 12Q213 12 253 6Q258 5 269 3H267Q268 3 273 2Q277 2 279 1Q326 -8 358 -8Q424 -8 474 32T539 148L526 164Z" />
<glyph unicode="3" glyph-name="three" horiz-adv-x="545" d="M534 217Q537 237 537 256Q537 300 519 335T466 391Q509 418 536 459T573 550Q577 571 577 590Q577 666 523 708T380 750Q320 750 262 728T156 676Q148 670 146 659Q146 651 150 642L169 597V600Q171
585 188 585Q193 585 195 586Q200 586 202 588Q204 589 207 592Q242 611 277 624T351 637Q398 637 421 617T445 562Q445 553 443 542Q438 513 424 494T390 464T350 450T306 446H282Q257 446 252 421L240 353Q240 328 261 328H285Q336 328 370 307T405 240Q405 229
403 217Q394 165 355 134T262 102Q203 102 168 115T91 156Q90 157 88 158Q85 160 79 160Q69 160 61 153T51 135L38 60Q38 40 50 37Q93 13 139 1T242 -12Q290 -12 338 2T427 46T496 118T534 217Z" />
<glyph unicode="4" glyph-name="four" horiz-adv-x="547" d="M538 166Q563 166 568 191L578 249Q578 251 578 252Q579 255 579 255Q579 274 557 274H499L577 713Q577 738 556 738H442Q436 738 429 734T419 725V726L67 280L52 191Q52 190 52 187Q51 186 51 184Q51
166 71 166H358L347 104H304Q281 104 276 79L266 25Q266 0 286 0H497Q507 0 515 7T525 25L535 79Q535 79 535 82Q536 83 536 84Q536 104 515 104H469L480 166H538ZM192 274L431 579L377 274H192Z" />
<glyph unicode="5" glyph-name="five" horiz-adv-x="545" d="M547 242Q552 271 552 298Q552 388 499 438T348 488Q307 488 274 482L305 621H560Q571 621 579 628T590 645L602 714Q602 738 581 738H240Q231 738 222 731T211 715L132 359Q132 335 152 335Q163 335
169 340L165 338Q202 356 241 365T312 375Q363 375 391 351T419 277Q419 261 416 242Q404 179 365 142T262 104Q216 104 184 115T114 152Q107 156 104 157T98 158Q88 158 80 151T69 134L55 59Q55 42 65 37Q97 17 141 3T250 -12Q302 -12 351 6T441 58T509 139T547
242Z" />
<glyph unicode="6" glyph-name="six" horiz-adv-x="547" d="M586 242Q591 271 591 297Q591 386 538 436T393 487Q316 487 249 439Q279 544 328 591T436 639Q472 639 496 631T541 612Q546 609 547 609Q552 605 561 605Q579 605 587 622L585 620L616 670Q620 674
623 682V684Q623 701 614 705H615Q591 722 549 736T454 750Q387 750 327 720T230 646V647Q183 593 152 530T104 371Q89 287 89 226Q89 174 101 132Q141 -12 299 -12Q349 -12 396 6T483 58T549 139T586 242ZM455 236Q444 178 405 139T315 100Q272 100 247 127T221
203Q221 219 224 236Q235 299 273 336T363 374Q407 374 432 346T458 270Q458 254 455 236Z" />
<glyph unicode="7" glyph-name="seven" horiz-adv-x="546" d="M632 655L643 713Q643 738 622 738H194Q169 738 166 713L154 646Q154 645 154 642Q153 641 153 639Q153 621 173 621H484L122 35L123 36Q120 32 119 26Q118 24 118 24Q118 0 139 0H217Q223 0 231 5T243
16V15L632 655Z" />
<glyph unicode="8" glyph-name="eight" horiz-adv-x="546" d="M561 215Q564 234 564 253Q564 298 546 335T494 395Q533 421 560 461T595 546Q599 566 599 586Q599 660 548 705T414 750Q368 750 326 736T250 694T193 629T162 546Q159 530 159 514Q159 478 172 447T211
395Q159 369 125 321T79 215Q75 192 75 170Q75 86 132 37T280 -12Q331 -12 377 3T462 48T526 120T561 215ZM434 216Q425 166 386 132T299 97Q257 97 231 124T205 193Q205 204 207 216Q216 266 254 300T341 335Q384 335 410 308T436 239Q436 228 434 216ZM474 548Q467
507 435 479T362 451Q327 451 305 473T283 529Q283 539 285 548Q292 591 324 618T396 645Q432 645 454 624T476 568Q476 558 474 548Z" />
<glyph unicode="9" glyph-name="nine" horiz-adv-x="547" d="M591 375Q604 448 604 509Q604 568 592 609Q551 750 394 750Q344 750 296 732T210 681T145 601T108 500Q103 473 103 449Q103 363 156 312T300 261Q339 261 375 270T444 302Q416 200 366 151T253 102Q216
102 186 110T126 134V133Q121 136 115 136Q91 136 88 111L75 42Q75 23 86 19H85Q123 3 158 -4T244 -12Q307 -12 368 16T469 92Q513 143 544 213T591 375ZM472 507Q461 444 423 410T331 375Q287 375 261 404T234 480Q234 493 236 507Q247 565 285 602T378 639Q422
639 448 609T475 534Q475 521 472 507Z" />
<glyph unicode=":" glyph-name="colon" horiz-adv-x="243" d="M218 71Q218 73 219 78Q219 82 219 85Q219 114 202 133T157 153Q126 153 100 129T68 71Q66 63 66 55Q66 26 84 7T128 -12Q158 -12 184 12T218 71ZM278 416Q278 419 279 424Q279 430 279 432Q279 460
262 479T218 498Q187 498 161 474T128 416Q128 414 127 409Q127 404 127 402Q127 373 145 354T189 334Q219 334 245 358T278 416Z" />
<glyph unicode=";" glyph-name="semicolon" horiz-adv-x="254" d="M239 121L152 148Q152 148 150 149Q148 149 148 149Q140 149 132 143T120 127Q103 75 75 18T20 -79L23 -75Q18 -79 16 -88L15 -90Q15 -91 15 -93Q14 -94 14 -96Q14 -111 30 -114L28 -113L77 -133H81Q93
-133 98 -128Q135 -91 177 -28T246 97L239 121ZM294 420Q294 422 295 427Q295 432 295 435Q295 463 277 482T231 502Q199 502 172 478T138 420Q138 418 137 413Q137 408 137 406Q137 377 155 357T201 337Q232 337 260 361T294 420Z" />
<glyph unicode="&lt;" glyph-name="less" horiz-adv-x="549" d="M535 41H539L543 40Q553 40 561 47T571 65L584 136Q584 155 572 159H573L238 316L629 474Q634 476 640 483T648 497L660 568Q660 568 660 571Q661 572 661 573Q661 592 641 592Q635 592 629 589L630
590L88 370H89Q83 368 77 361T69 347L58 286Q58 278 61 271T69 263L535 41Z" />
<glyph unicode="=" glyph-name="equal" horiz-adv-x="549" d="M565 171Q590 171 595 196L606 262Q606 286 585 286H83Q72 286 64 279T54 262L43 196Q43 194 43 193L42 190Q42 171 63 171H565ZM592 321Q617 321 621 345L632 411Q632 413 632 414L633 417Q633 435
612 435H110Q85 435 80 411L69 345Q69 343 69 342Q68 339 68 339Q68 321 90 321H592Z" />
<glyph unicode="&gt;" glyph-name="greater" horiz-adv-x="549" d="M591 263Q597 265 603 272T610 286L621 347Q621 366 609 370H610L147 590L148 589Q142 592 136 592Q113 592 108 568L96 497Q96 477 107 474L441 316L51 159H52Q46 157 40 150T32 136L19 65Q19
40 40 40L44 41H48L591 263Z" />
<glyph unicode="?" glyph-name="question" horiz-adv-x="465" d="M548 566Q552 587 552 607Q552 679 502 717T366 756Q297 756 239 727T140 660L141 661Q134 655 131 644V643Q131 641 131 639Q130 636 130 635Q130 630 134 625V626L164 583Q170 576 181 576Q192
576 200 583Q226 607 262 626T338 645Q380 645 401 628T422 579Q422 570 420 560Q415 529 391 502T326 439L327 440L316 430Q289 405 274 389T248 355T230 316T218 264L209 218Q209 193 229 193H304Q314 193 322 200T332 218L339 258Q346 295 359 315T398 355Q466
413 501 457T548 566ZM327 71Q327 74 328 78Q328 83 328 84Q328 114 309 134T259 155Q225 155 197 130T164 71Q164 68 163 63Q163 59 163 56Q163 27 182 8T230 -12Q263 -12 291 12T327 71Z" />
<glyph unicode="@" glyph-name="at" horiz-adv-x="784" d="M848 434Q853 462 853 489Q853 548 831 597T767 682T671 737T552 756Q473 756 397 726T258 641T151 509T91 343Q85 307 85 273Q85 181 129 112V113Q168 52 237 17T405 -18Q458 -18 508 -7T602 21T677
56T736 91Q744 97 745 108Q745 113 744 116Q744 117 744 118L719 168Q718 169 717 169Q713 173 705 173Q699 173 685 167L681 165Q623 131 563 108T422 85Q356 85 307 109T232 175Q200 225 200 293Q200 319 205 347Q216 412 247 468T323 566T422 631T534 654Q587
654 633 633T707 574H643Q637 574 630 570T618 559Q586 593 527 593Q477 593 428 571T336 509T264 416T224 303Q221 285 221 268Q221 208 257 174T354 140Q417 140 478 181Q485 160 505 150T555 140Q596 140 641 159T729 215T803 308T848 434ZM533 367Q509 312
472 278T389 244Q344 244 344 289Q344 297 346 306Q352 342 368 376T408 436T457 477T507 492Q554 492 554 447Q554 439 552 428Q547 399 533 367ZM737 429Q730 392 715 359T680 302T637 265T594 250L593 252L725 543Q740 509 740 467Q740 448 737 429Z" />
<glyph unicode="A" glyph-name="A" horiz-adv-x="661" d="M651 0Q677 0 680 25L690 82Q690 84 690 85L691 88Q691 107 670 107H629L528 721L529 720Q527 738 508 738H426Q419 738 411 733T400 721L67 107H29Q19 107 11 100T0 82L-10 25Q-10 0 10 0H119Q126 0 134
5T145 17L262 240H472L507 17L506 18Q506 11 513 6T528 0H651ZM427 548L454 354H322L427 548Z" />
<glyph unicode="B" glyph-name="B" horiz-adv-x="625" d="M644 216Q647 234 647 251Q647 298 625 335T562 392Q651 446 668 545Q671 565 671 582Q671 624 654 654T605 702T535 729T450 738H184Q158 738 155 713L145 656Q145 654 145 653L144 650Q144 631 165 631H198L106
107H73Q48 107 43 82L33 25Q33 0 54 0H315Q372 0 425 10T523 45T601 112T644 216ZM505 219Q496 167 454 139T351 111H235L273 328H391Q443 328 475 308T507 242Q507 231 505 219ZM531 534Q526 506 512 488T478 459T433 444T383 439H292L326 627H425Q476 627 504
610T533 554Q533 544 531 534Z" />
<glyph unicode="C" glyph-name="C" horiz-adv-x="608" d="M720 691Q720 691 720 694Q721 696 721 696Q721 711 707 715L709 714Q667 733 621 744T514 756Q438 756 368 729T242 650T148 527T95 369Q87 322 87 278Q87 142 164 62T376 -18Q438 -18 491 -5T587 28Q600
34 604 50L617 123Q617 148 597 148Q586 148 580 143L585 145Q544 124 502 113T408 101Q324 101 275 157T226 306Q226 337 232 369Q242 426 265 476T324 562T403 619T499 640Q541 640 574 632T643 608Q646 605 656 605Q675 605 683 622L681 621L713 677Q717 681
720 689V691Z" />
<glyph unicode="D" glyph-name="D" horiz-adv-x="673" d="M721 369Q729 412 729 451Q729 582 646 660T401 738H186Q160 738 157 713L147 656Q147 654 147 653L146 650Q146 631 167 631H200L108 107H75Q50 107 45 82L35 25Q35 0 56 0H271Q366 0 444 27T578 105T671
222T721 369ZM585 369Q575 313 550 266T487 183T406 130T314 111H238L329 627H393Q484 627 537 572T590 426Q590 399 585 369Z" />
<glyph unicode="E" glyph-name="E" horiz-adv-x="546" d="M535 0Q545 0 553 7T563 25L575 86Q575 88 575 89Q576 92 576 92Q576 111 556 111H237L275 330H533Q544 330 552 337T562 354L574 417Q574 441 553 441H295L328 627H613Q636 627 641 652L652 713Q652 738
632 738H186Q160 738 157 713L147 656Q147 654 147 653L146 650Q146 631 167 631H200L108 107H75Q50 107 45 82L35 25Q35 0 56 0H535Z" />
<glyph unicode="F" glyph-name="F" horiz-adv-x="509" d="M612 627Q636 627 641 652L652 713Q652 738 631 738H179Q153 738 150 713L140 656Q140 654 140 653L139 650Q139 631 160 631H193L101 107H68Q43 107 38 82L28 25Q28 0 49 0H252Q278 0 281 25L291 82Q291
84 291 85L292 88Q292 107 271 107H228L268 336H494Q520 336 523 360L534 422Q534 424 534 425L535 428Q535 447 514 447H288L320 627H612Z" />
<glyph unicode="G" glyph-name="G" horiz-adv-x="650" d="M637 58L694 382Q694 384 694 385Q695 388 695 388Q695 407 675 407H533Q508 407 503 382L493 324Q493 322 493 321Q492 318 492 318Q492 299 514 299H553L520 115Q469 100 414 100Q328 100 280 155T231
304Q231 335 237 369Q247 426 270 476T329 562T407 619T501 640Q550 640 584 630T648 601L644 603Q648 598 658 598Q666 598 674 602T686 615L685 613L719 671Q723 675 726 683V684Q726 703 715 707Q677 729 628 742T512 756Q437 756 369 729T246 650T154 527T101
369Q93 322 93 277Q93 141 169 62T381 -18Q504 -18 625 41L637 58Z" />
<glyph unicode="H" glyph-name="H" horiz-adv-x="726" d="M680 0Q706 0 709 25L719 82Q719 84 719 85L720 88Q720 107 699 107H665L757 631H791Q816 631 821 656L831 713Q831 738 810 738H672Q646 738 643 713L594 439H287L336 713Q336 738 315 738H177Q152 738
149 713L139 656Q139 655 139 652Q138 651 138 649Q138 631 158 631H192L100 107H66Q42 107 37 82L27 25Q27 0 47 0H185Q211 0 214 25L268 328H575L521 25Q521 0 542 0H680Z" />
<glyph unicode="I" glyph-name="I" horiz-adv-x="273" d="M232 0Q242 0 250 7T260 25L270 82Q270 84 270 85Q271 88 271 88Q271 107 251 107H219L311 631H343Q353 631 361 638T372 656L382 713Q382 738 362 738H176Q151 738 148 713L138 656Q138 655 138 652Q137
651 137 649Q137 631 157 631H188L96 107H65Q41 107 36 82L26 25Q26 0 46 0H232Z" />
<glyph unicode="J" glyph-name="J" horiz-adv-x="350" d="M428 632Q454 632 458 656L468 714Q468 716 468 717Q469 720 469 720Q469 738 447 738H251Q228 738 223 714L213 656Q213 654 213 653Q212 650 212 650Q212 632 232 632H270L190 173Q183 135 168 116T122
96Q98 96 78 102T38 119L35 120H31Q21 120 13 113T3 95L-9 29Q-9 22 -6 15T0 6Q26 -6 53 -12T119 -18Q197 -18 247 28T311 153L395 632H428Z" />
<glyph unicode="K" glyph-name="K" horiz-adv-x="662" d="M653 0Q678 0 681 25L691 82Q691 83 691 86Q692 87 692 89Q692 107 672 107H618L466 463L649 631H731Q756 631 761 656L771 713Q771 738 750 738H621Q618 738 611 735T602 730L294 446L341 713Q341 738
321 738H183Q157 738 154 713L144 656Q144 654 144 653L143 650Q143 631 164 631H198L106 107H72Q47 107 42 82L32 25Q32 0 53 0H191Q216 0 219 25L264 279L356 364L504 12V13Q505 9 512 5T524 0H653Z" />
<glyph unicode="L" glyph-name="L" horiz-adv-x="542" d="M533 0Q543 0 551 7T561 25L572 86Q572 88 572 89Q573 92 573 92Q573 111 553 111H235L326 631H369Q379 631 387 638T398 656L408 713Q408 738 388 738H184Q158 738 155 713L145 656Q145 654 145 653L144
650Q144 631 165 631H198L106 107H73Q48 107 43 82L33 25Q33 0 54 0H533Z" />
<glyph unicode="M" glyph-name="M" horiz-adv-x="919" d="M875 0Q901 0 904 25L914 82Q914 84 914 85L915 88Q915 107 894 107H860L952 631H986Q1011 631 1016 656L1026 713Q1026 738 1005 738H821Q816 738 808 733T796 723L502 222L380 723V722Q379 728 373 733T360
738H180Q154 738 151 713L141 656Q141 654 141 653L140 650Q140 631 161 631H195L103 107H69Q44 107 39 82L29 25Q29 0 50 0H179Q189 0 197 7T207 25L294 516L416 15Q416 10 423 5T436 0H483Q489 0 497 5T509 16V15L804 514L717 25Q717 0 737 0H875Z" />
<glyph unicode="N" glyph-name="N" horiz-adv-x="764" d="M843 631Q868 631 873 656L883 713Q883 738 862 738H730Q704 738 701 713L612 211L362 727V726Q361 730 354 734T343 738H186Q176 738 168 731T158 713L148 656Q148 654 148 653Q147 650 147 650Q147 631
167 631H201L109 107H75Q65 107 57 100T46 82L36 25Q36 0 56 0H189Q199 0 207 7T217 25L306 527L557 11V12Q559 8 565 4T575 0H674Q684 0 692 7T702 25L809 631H843Z" />
<glyph unicode="O" glyph-name="O" horiz-adv-x="754" d="M794 369Q803 420 803 466Q803 600 729 678T512 756Q428 756 358 728T233 648T144 525T94 369Q85 319 85 274Q85 140 159 61T376 -18Q461 -18 531 10T656 91T744 214T794 369ZM657 369Q647 313 626 264T572
177T495 118T396 96Q309 96 267 149T225 291Q225 328 232 369Q242 426 263 475T317 562T393 621T492 643Q580 643 622 590T664 447Q664 410 657 369Z" />
<glyph unicode="P" glyph-name="P" horiz-adv-x="567" d="M655 514Q659 539 659 561Q659 645 603 691T445 738H181Q155 738 152 713L142 656Q142 654 142 653L141 650Q141 631 162 631H195L103 107H70Q45 107 40 82L30 25Q30 0 51 0H252Q278 0 281 25L291 82Q291
84 291 85L292 88Q292 107 271 107H230L263 294H367Q484 294 560 351T655 514ZM524 514Q514 460 480 433T390 405H282L322 627H430Q526 627 526 541Q526 528 524 514Z" />
<glyph unicode="Q" glyph-name="Q" horiz-adv-x="755" d="M763 -46L730 -15L732 -16Q727 -10 716 -10Q706 -10 698 -16Q664 -52 632 -52Q620 -52 605 -47L492 -3Q616 29 697 128T803 371Q812 422 812 468Q812 602 738 681T521 760Q436 760 365 732T241 651T152
527T102 371Q93 321 93 275Q93 170 139 98T274 -1Q231 -28 199 -71L201 -70Q196 -74 194 -83L193 -85Q193 -100 201 -107L229 -127Q229 -127 232 -129Q238 -133 244 -133Q253 -133 263 -125Q264 -124 264 -124Q286 -103 303 -93T344 -83Q361 -83 380 -89H379L388
-92Q401 -96 421 -105V-104Q422 -105 425 -106L427 -107Q431 -109 445 -113L448 -114L542 -154Q567 -164 595 -164Q636 -164 678 -143T762 -71L763 -46ZM664 370Q654 313 633 264T580 177T503 118T404 96Q317 96 275 149T233 292Q233 329 240 370Q250 427 271 476T325
564T402 624T501 646Q588 646 630 593T672 451Q672 413 664 370Z" />
<glyph unicode="R" glyph-name="R" horiz-adv-x="604" d="M594 0Q604 0 612 7T622 25L632 82Q632 84 632 85Q633 88 633 88Q633 107 613 107H571Q552 107 547 130Q543 140 541 177Q541 188 540 197L541 196Q537 242 529 275T498 336Q536 351 569 378Q634 434 650
524Q654 548 654 569Q654 649 599 693T441 738H177Q151 738 148 713L138 656Q138 654 138 653L137 650Q137 631 158 631H191L99 107H66Q41 107 36 82L26 25Q26 0 47 0H242Q268 0 271 25L281 82Q281 84 281 85L282 88Q282 107 261 107H227L263 313H352Q385 291 395
251T409 148Q411 110 414 86T426 42T451 11T496 0H594ZM515 524Q498 425 392 425H283L319 627H428Q518 627 518 550Q518 538 515 524Z" />
<glyph unicode="S" glyph-name="S" horiz-adv-x="499" d="M530 204Q535 230 535 252Q535 291 522 320T485 371T429 408T351 441Q289 463 263 484T237 536Q237 544 239 554Q246 595 285 619T379 644Q423 644 455 637T518 616Q522 612 531 612Q549 612 557 627L586
682Q590 686 593 694V696Q593 715 580 719L582 718Q553 731 500 743T399 756Q283 756 206 701T111 544Q107 523 107 504Q107 464 122 435T164 384T219 349T293 319Q345 301 372 279T400 220Q400 211 398 201Q389 150 349 125T243 99Q195 99 156 110T78 141L79 140Q73
143 67 143Q43 143 40 118L27 45Q27 26 38 22H37Q74 5 123 -6T228 -18Q350 -18 430 39T530 204Z" />
<glyph unicode="T" glyph-name="T" horiz-adv-x="536" d="M638 627Q662 627 667 652L678 713Q678 738 657 738H142Q117 738 114 713L103 652Q103 651 103 649Q102 647 102 646Q102 627 123 627H316L224 107H191Q167 107 162 82L152 25Q152 0 172 0H367Q393 0 396
25L406 82Q406 84 406 85L407 88Q407 107 386 107H353L445 627H638Z" />
<glyph unicode="U" glyph-name="U" horiz-adv-x="717" d="M787 632Q798 632 806 639T817 656L827 714Q827 716 827 717Q828 720 828 720Q828 739 806 739H672Q648 739 643 714L564 268Q548 178 504 137T381 96Q313 96 282 123T250 211Q250 236 255 268L334 714Q334
716 334 717Q335 720 335 720Q335 739 313 739H172Q162 739 154 732T144 714L134 656Q134 655 134 653Q133 651 133 651Q133 632 153 632H187L120 252Q114 215 114 182Q114 85 174 34T360 -18Q504 -18 584 52T687 252L754 632H787Z" />
<glyph unicode="V" glyph-name="V" horiz-adv-x="662" d="M762 631Q787 631 792 656L802 713Q802 738 781 738H668Q649 738 642 720L643 721L371 201L285 721L286 720Q285 728 279 733T266 738H140Q130 738 122 731T112 713L102 656Q102 654 102 653Q101 650 101
650Q101 631 121 631H162L269 17Q271 11 276 6T289 0H371Q378 0 386 5T397 17L720 631H762Z" />
<glyph unicode="W" glyph-name="W" horiz-adv-x="999" d="M1099 631Q1124 631 1129 656L1139 713Q1139 738 1118 738H1000Q992 738 984 733T973 720H974L745 222L694 720H695Q694 727 688 732T673 738H585Q577 738 569 733T557 720H558L329 221L278 720H279Q278
727 272 732T257 738H141Q115 738 112 713L102 656Q102 654 102 653L101 650Q101 631 122 631H154L218 18H217Q217 11 224 6T239 0H328Q336 0 344 5T356 18H355L581 503L635 18H634Q634 11 641 6T656 0H745Q753 0 761 5T773 18H772L1062 631H1099Z" />
<glyph unicode="X" glyph-name="X" horiz-adv-x="644" d="M633 0Q659 0 662 25L672 82Q672 84 672 85L673 88Q673 107 652 107H598L460 389L663 631H723Q733 631 741 638T752 656L762 713Q762 738 742 738H631Q627 738 619 734T608 726L609 727L411 491L294 727L295
726Q294 730 287 734T276 738H156Q130 738 127 713L117 656Q117 654 117 653L116 650Q116 631 137 631H189L314 377L87 107H29Q19 107 11 100T0 82L-10 25Q-10 0 10 0H120Q124 0 132 4T143 12L142 11L364 275L494 11L493 12Q494 8 501 4T512 0H633Z" />
<glyph unicode="Y" glyph-name="Y" horiz-adv-x="585" d="M686 631Q711 631 716 656L726 713Q726 738 705 738H612Q607 738 599 734T588 725L381 450L259 726V725Q257 729 252 733T240 738H139Q129 738 121 731T111 713L101 656Q101 654 101 653Q100 650 100 650Q100
631 120 631H154L293 323L255 107H222Q197 107 192 82L182 25Q182 0 203 0H398Q424 0 427 25L437 82Q437 84 437 85L438 88Q438 107 417 107H384L423 327L649 631H686Z" />
<glyph unicode="Z" glyph-name="Z" horiz-adv-x="541" d="M531 0Q557 0 560 25L572 88Q572 113 551 113H188L663 637L677 713Q677 738 656 738H170Q145 738 142 713L131 650Q131 649 131 646Q130 645 130 643Q130 625 150 625H500L28 104L14 25Q14 0 34 0H531Z" />
<glyph unicode="[" glyph-name="bracketleft" horiz-adv-x="236" d="M192 -140Q202 -140 210 -133T221 -115L231 -54Q231 -53 231 -51Q232 -49 232 -49Q232 -30 212 -30H153L269 631H328Q338 631 346 638T357 656L367 717Q367 718 367 720Q368 722 368 722Q368
741 348 741H201Q178 741 172 717L26 -115Q26 -116 26 -119Q25 -120 25 -122Q25 -140 45 -140H192Z" />
<glyph unicode="\" glyph-name="backslash" horiz-adv-x="357" d="M375 9L372 8Q381 10 386 17T394 32Q394 41 392 44L227 742V741Q224 756 206 756Q197 756 192 752L133 731L134 732Q117 728 113 708Q113 707 113 706Q112 703 112 702Q112 698 114 695L280 -3V-1Q281
-9 287 -13T301 -18Q309 -18 314 -14L375 9Z" />
<glyph unicode="]" glyph-name="bracketright" horiz-adv-x="236" d="M160 -140Q170 -140 178 -133T189 -115L335 717Q335 718 335 720Q336 722 336 722Q336 741 316 741H168Q158 741 150 734T140 717L130 656Q130 655 130 653Q129 651 129 650Q129 631 148 631H207L91
-30H32Q22 -30 14 -37T4 -54L-6 -115Q-6 -116 -6 -119Q-7 -120 -7 -122Q-7 -140 12 -140H160Z" />
<glyph unicode="^" glyph-name="asciicircum" horiz-adv-x="646" d="M636 281L633 280Q642 282 647 289T655 305Q655 306 656 309Q656 311 656 312Q656 316 652 320L654 316L509 714L510 712Q509 719 503 723T490 727H432Q426 727 418 723T407 712L408 714L126
316L128 320Q122 314 121 305V302Q120 301 120 300Q120 283 133 280L132 281L185 255L184 256Q190 253 196 253Q202 253 209 256T220 266L430 563L539 264Q541 251 557 251Q565 251 571 254L636 281Z" />
<glyph unicode="_" glyph-name="underscore" horiz-adv-x="500" d="M469 -121Q493 -121 498 -98L508 -42Q508 -19 487 -19H7Q-19 -19 -22 -42L-32 -98Q-32 -99 -32 -101Q-33 -103 -33 -103Q-33 -121 -11 -121H469Z" />
<glyph unicode="`" glyph-name="grave" horiz-adv-x="480" d="M439 489Q463 489 467 513Q467 517 466 523Q465 527 465 528L366 701V699Q365 703 358 707T347 711H272Q261 711 253 704T243 688Q243 676 247 671V673L356 499L355 501Q356 497 363 493T373 489H439Z" />
<glyph unicode="a" glyph-name="a" horiz-adv-x="518" d="M544 68L526 111Q518 119 508 119Q504 119 496 116L494 115Q494 115 492 114Q490 112 489 112Q488 112 485 110Q471 104 466 104L504 315Q509 341 509 364Q509 435 465 472T332 510Q290 510 249 501T172
474Q156 469 154 451Q154 451 153 448Q152 445 152 443Q152 440 154 438L165 392V393Q168 378 185 378Q196 378 202 383L197 381Q247 404 301 404Q383 404 383 343Q383 335 381 326V324Q360 337 333 345T274 353Q183 353 121 302T44 171Q40 149 40 129Q40 62 82
25T204 -12Q246 -12 282 1T346 34Q362 0 418 0Q445 0 476 12T535 44L544 68ZM356 173Q349 137 317 115T241 92Q204 92 186 108T167 154Q167 162 169 171Q175 207 200 228T266 250Q310 250 333 232T357 185Q357 184 357 179Q356 176 356 173Z" />
<glyph unicode="b" glyph-name="b" horiz-adv-x="570" d="M601 253Q607 289 607 320Q607 411 557 464T409 517Q372 517 336 506T267 473L306 697Q308 710 308 722Q308 756 289 777T228 798Q203 798 174 787T117 758H118Q106 752 103 738Q103 737 103 736Q103 732
103 731Q103 726 105 723L120 688Q128 680 138 680Q149 680 156 686L153 685Q167 694 179 694Q180 693 180 690Q180 690 180 687Q179 683 179 681L63 25Q63 0 84 0H159Q185 0 188 25L190 35Q213 14 247 1T323 -12Q377 -12 423 8T506 64T567 148T601 253ZM471 253Q459
186 424 143T332 99Q281 99 254 132T226 217Q226 235 229 253Q240 318 283 363T387 408Q432 408 453 379T475 300Q475 278 471 253Z" />
<glyph unicode="c" glyph-name="c" horiz-adv-x="437" d="M516 445L518 452Q518 469 503 478L502 479Q470 493 439 501T364 510Q308 510 258 491T168 437T102 354T65 249Q60 218 60 189Q60 96 114 42T271 -12Q311 -12 352 -2T426 21Q431 23 437 30T445 44L456
107Q456 107 456 109Q457 111 457 112Q457 120 451 126T435 132Q429 132 423 129Q386 111 356 104T295 96Q244 96 216 127T188 210Q188 229 192 249Q203 314 243 357T346 400Q377 400 401 394T445 379Q449 375 458 375Q477 375 485 392L484 390L516 445Z" />
<glyph unicode="d" glyph-name="d" horiz-adv-x="583" d="M621 69L603 109Q596 121 584 121Q576 121 569 116Q561 111 554 108T544 105Q543 105 543 107Q543 109 545 117L647 697Q649 710 649 722Q649 756 630 777T569 798Q544 798 515 787T458 758H459Q447 752
444 738Q444 737 444 736Q444 732 444 731Q444 726 446 723L445 727L461 687Q465 680 479 680Q490 680 497 686L495 685Q509 694 519 694Q521 694 521 690Q521 689 521 687Q520 683 520 681L484 474Q436 517 352 517Q300 517 254 498T172 442T112 358T78 253Q72
217 72 185Q72 94 121 41T265 -12Q304 -12 345 2T419 41Q435 0 495 0Q521 0 551 12T612 45L621 69ZM445 253Q433 188 391 143T290 98Q246 98 225 127T204 204Q204 227 209 253Q220 320 256 364T347 408Q396 408 422 375T448 289Q448 271 445 253Z" />
<glyph unicode="e" glyph-name="e" horiz-adv-x="500" d="M501 198Q527 198 530 223L536 255Q543 294 543 328Q543 417 496 463T360 510Q306 510 259 491T174 438T112 355T77 249Q72 217 72 189Q72 98 123 43T277 -12Q335 -12 373 -3T447 22Q460 28 464 44L475
106Q475 131 455 131Q449 131 443 128Q414 114 380 105T306 96Q253 96 228 125T200 198H501ZM339 406Q377 406 395 384T414 319Q414 315 413 311Q413 305 413 302H218Q238 353 267 379T339 406Z" />
<glyph unicode="f" glyph-name="f" horiz-adv-x="296" d="M486 740L487 745Q487 746 487 748Q488 750 488 751Q488 762 480 767Q455 784 433 791T383 798Q339 798 304 783T245 741T207 684T186 618L166 506H106Q81 506 78 481L68 427Q68 426 68 423Q67 422 67
420Q67 403 88 403H148L81 25Q81 0 101 0H175Q185 0 193 7T203 25L270 403H353Q378 403 382 427L392 481Q392 506 371 506H288L303 591Q311 636 325 662T370 688Q381 688 392 685T416 676Q420 671 431 671Q437 671 444 675T456 686L486 740Z" />
<glyph unicode="g" glyph-name="g" horiz-adv-x="567" d="M534 40L612 480Q612 505 591 505H517Q491 505 488 480L486 473Q435 516 355 516Q301 516 255 497T172 441T111 357T77 252Q71 217 71 185Q71 94 120 41T267 -12Q302 -12 339 -1T408 31Q402 0 392 -27T362
-76T314 -111T246 -124Q203 -124 171 -116T111 -94L112 -95Q107 -92 101 -92Q91 -92 83 -99T73 -116L61 -181Q61 -200 73 -203H72Q104 -217 143 -225T232 -234Q358 -234 435 -161T534 40ZM447 252Q436 188 393 143T290 98Q245 98 224 127T203 204Q203 227 207 252Q219
320 254 363T345 407Q396 407 423 374T450 289Q450 271 447 252Z" />
<glyph unicode="h" glyph-name="h" horiz-adv-x="548" d="M589 63L571 103Q564 115 553 115Q548 115 537 110L534 109Q529 106 522 103T511 99Q511 99 511 100Q512 104 512 107L551 330Q556 356 556 379Q556 445 516 481T392 517Q357 517 326 507T267 478L306
696Q308 710 308 722Q308 757 289 777T229 798Q204 798 174 787T117 758H118Q105 751 103 737Q103 736 103 733Q102 730 102 730Q102 726 105 722L119 691Q126 679 138 679Q144 679 154 684Q168 694 179 694Q180 693 180 690Q180 690 180 687Q179 683 179 681L63
25Q63 0 84 0H158Q184 0 187 25L227 247Q238 316 274 361T367 406Q397 406 412 390T427 343Q427 332 424 317L423 310L386 109V105Q382 84 382 68Q382 32 401 13T463 -6Q489 -6 520 6T581 39L589 63Z" />
<glyph unicode="i" glyph-name="i" horiz-adv-x="248" d="M288 62L271 102Q263 115 253 115Q250 115 243 112Q239 111 237 110Q233 106 225 103T213 99Q213 101 215 111L267 403L268 406Q270 418 270 430Q270 464 251 484T192 505Q169 505 140 494T84 465H85Q74
459 70 444Q70 442 70 441L69 438Q69 433 73 429L85 398Q92 386 104 386Q110 386 120 391Q134 401 144 401Q145 401 145 399Q145 396 143 388L93 108L92 104Q88 84 88 67Q88 31 106 13T166 -6Q191 -6 221 6T280 39L288 62ZM313 658Q313 660 314 665Q314 669 314
671Q314 698 297 716T252 735Q221 735 195 712T164 658Q164 655 163 650Q163 645 163 642Q163 615 179 598T224 581Q257 581 282 602T313 658Z" />
<glyph unicode="j" glyph-name="j" horiz-adv-x="232" d="M184 -55L266 406Q268 420 268 432Q268 467 250 487T192 508Q170 508 141 497T85 468H86Q73 461 71 447Q71 446 71 443Q70 440 70 440Q70 436 73 432L86 401L85 404Q88 389 105 389Q114 389 122 395L119
394Q133 403 144 403Q145 403 145 401Q145 398 143 390L66 -47Q58 -90 46 -109T3 -129Q-14 -129 -26 -125T-49 -113L-51 -112L-47 -114Q-51 -109 -62 -109Q-72 -109 -80 -116T-91 -134L-101 -191Q-101 -201 -94 -210Q-90 -215 -85 -215Q-64 -225 -47 -230T-1 -235Q80
-235 124 -189T184 -55ZM310 662Q310 664 311 669Q311 673 311 676Q311 704 293 723T247 743Q215 743 188 719T156 662Q154 653 154 645Q154 616 172 599T219 582Q253 582 278 604T310 662ZM-82 -215Q-82 -215 -80 -216Q-80 -216 -79 -216L-85 -215H-82Z" />
<glyph unicode="k" glyph-name="k" horiz-adv-x="501" d="M566 78L546 115V114Q542 125 529 125Q526 125 519 122Q515 121 513 120Q506 115 499 111T487 106Q480 106 475 120L404 321L567 419Q571 423 574 434Q574 445 572 452L548 500Q544 511 529 511Q526 511
523 511T514 507L243 337L307 698Q309 711 309 722Q309 756 290 777T229 798Q205 798 175 787T117 758H118Q105 751 103 737Q103 736 103 733Q102 730 102 730Q102 726 105 722L119 691Q126 679 138 679Q144 679 154 684Q168 694 179 694Q180 693 180 690Q180 690
180 687Q179 683 179 681L63 25Q63 0 84 0H159Q185 0 188 25L221 209L287 249L348 63Q359 31 380 16T431 0Q470 0 502 15T561 52L566 78Z" />
<glyph unicode="l" glyph-name="l" horiz-adv-x="234" d="M271 62L254 102Q246 115 235 115Q227 115 220 110Q212 105 205 102T195 99Q195 101 197 112L300 696Q302 710 302 722Q302 757 284 777T225 798Q202 798 173 787T118 758H119Q106 751 104 737Q104 736
104 733Q103 730 103 730Q103 726 106 722L105 726L118 691Q125 679 138 679Q147 679 155 685L153 684Q167 694 177 694Q178 694 178 692Q178 689 176 681L75 109Q71 85 71 68Q71 31 89 13T148 -6Q174 -6 203 6T262 39L271 62Z" />
<glyph unicode="m" glyph-name="m" horiz-adv-x="852" d="M895 61L875 102Q868 114 857 114Q852 114 841 109L838 108Q832 104 825 101T814 98L854 326Q859 354 859 377Q859 441 821 475T700 510Q654 510 613 493T542 443Q526 475 492 492T405 510Q365 510 329
496T265 459Q258 478 241 488T195 499Q170 499 141 488T84 459H85Q73 453 70 439Q70 428 73 424L85 393Q92 381 105 381Q113 381 121 386Q137 396 147 396Q149 396 149 392L148 389Q148 386 148 383L84 25Q84 0 105 0H180Q206 0 209 25L248 244Q260 313 292 356T379
400Q406 400 418 384T430 339Q430 320 425 294L377 25Q377 0 398 0H476Q502 0 505 25L544 244Q556 313 587 356T674 400Q702 400 714 386T727 343Q727 328 723 308L687 103Q684 85 684 69Q684 33 703 14T766 -6Q792 -6 823 6T885 39L895 61Z" />
<glyph unicode="n" glyph-name="n" horiz-adv-x="567" d="M611 61L592 102Q585 114 573 114Q568 114 557 109L554 108Q547 104 541 101T531 98L533 110L570 325Q575 350 575 372Q575 438 535 474T411 510Q370 510 333 496T265 456Q259 476 242 487T193 499Q169
499 141 488T84 459H85Q73 453 70 439Q70 428 73 424L85 393Q92 381 105 381Q116 381 122 387L120 386Q136 396 146 396Q148 396 148 392L147 389Q147 386 147 383L83 25Q83 0 103 0H178Q203 0 206 25L245 244Q256 311 292 355T385 400Q415 400 429 384T444 337Q444
323 441 306L405 103Q402 84 402 68Q402 32 421 13T483 -6Q509 -6 540 6T601 39L611 61Z" />
<glyph unicode="o" glyph-name="o" horiz-adv-x="519" d="M549 249Q555 281 555 310Q555 403 502 456T350 510Q236 510 158 439T59 249Q54 218 54 188Q54 96 107 42T258 -12Q315 -12 364 7T451 60Q529 132 549 249ZM421 249Q410 184 372 139T277 94Q230 94 207
125T183 207Q183 227 187 249Q198 315 236 360T331 405Q378 405 401 374T425 291Q425 271 421 249Z" />
<glyph unicode="p" glyph-name="p" horiz-adv-x="584" d="M614 252Q620 288 620 320Q620 411 571 463T427 516Q386 516 346 502T269 460Q256 505 194 505Q170 505 142 494T85 465H86Q75 459 71 444Q71 442 71 441L70 438Q70 433 74 429L86 398Q93 386 106 386Q117
386 123 392L121 391Q137 401 147 401Q149 400 149 398Q149 397 148 395Q147 390 147 387L44 -198Q44 -199 44 -201Q43 -203 43 -204Q43 -223 64 -223H139Q163 -223 168 -198L208 30Q256 -12 342 -12Q393 -12 438 7T520 63T580 147T614 252ZM483 252Q472 185 436
142T345 98Q296 98 270 131T244 216Q244 234 247 252Q259 317 301 362T402 407Q446 407 467 379T488 301Q488 278 483 252Z" />
<glyph unicode="q" glyph-name="q" horiz-adv-x="567" d="M463 -223Q487 -223 492 -198L612 480Q612 505 591 505H517Q491 505 488 480L487 475Q438 516 353 516Q300 516 254 497T172 442T112 358T77 252Q71 217 71 185Q71 94 120 41T267 -12Q302 -12 339 -1T408
31L368 -198Q368 -200 368 -201Q367 -204 367 -204Q367 -223 389 -223H463ZM447 252Q436 188 393 143T290 98Q245 98 224 127T203 204Q203 227 207 252Q219 320 254 363T345 407Q396 407 423 374T450 289Q450 271 447 252Z" />
<glyph unicode="r" glyph-name="r" horiz-adv-x="376" d="M486 457Q486 475 474 479L477 477Q461 489 441 496T389 504Q321 504 262 447Q253 498 192 498Q168 498 139 487T78 456Q74 452 70 439Q70 438 70 435Q69 433 69 432Q69 427 73 423L85 393V396Q87 381
104 381Q112 381 120 386Q133 395 145 395Q146 395 146 393Q146 390 144 382L81 25Q81 0 102 0H175Q200 0 203 25L236 208Q244 251 261 291T302 359Q330 392 365 392Q380 392 391 387T410 377Q418 372 425 372Q443 372 451 391L450 389L479 444Q485 450 486 457Z"
/>
<glyph unicode="s" glyph-name="s" horiz-adv-x="390" d="M420 154Q423 172 423 188Q423 240 389 267T286 312Q245 322 224 333T202 362Q210 406 283 406Q311 406 333 400T378 384Q378 381 382 381Q386 377 397 377Q413 377 422 390L450 435Q454 439 456 449Q456
467 446 471L448 470Q413 491 375 500T301 510Q219 510 157 469T80 353Q77 337 77 324Q77 296 88 276T119 243T163 220T225 200V201Q263 191 280 181T298 152Q298 151 297 149Q297 145 297 145Q292 120 267 108T211 95Q170 95 138 107T80 137L77 139Q66 144 63
144Q53 144 45 137T35 120L23 52Q23 46 26 39T35 30Q66 13 105 1T199 -12Q236 -12 271 -3T338 27T390 79T420 154ZM406 405L384 386L378 395Q379 400 382 407T392 415Q398 415 406 405Z" />
<glyph unicode="t" glyph-name="t" horiz-adv-x="308" d="M345 40L355 98Q355 100 355 101Q356 104 356 104Q356 123 336 123Q329 123 317 117Q306 111 287 106T250 100Q222 100 222 126Q222 136 225 152L269 400H365Q389 400 394 425L403 478Q403 480 403 481L404
484Q404 502 383 502H287L305 607Q305 631 285 631H212Q201 631 193 624T183 607L165 502H106Q82 502 77 478L68 425Q68 424 68 422Q67 420 67 419Q67 400 88 400H147L101 141Q97 115 97 95Q97 41 127 17T217 -7Q244 -7 276 2T333 23L345 40Z" />
<glyph unicode="u" glyph-name="u" horiz-adv-x="566" d="M605 68L587 107Q580 119 568 119Q564 119 556 116L554 115Q554 115 552 114Q550 112 549 112Q548 112 545 110Q531 104 526 104L592 474Q592 498 571 498H497Q471 498 468 474L429 255Q418 188 382 144T289
99Q259 99 245 115T231 162Q231 176 234 193L271 401Q273 413 273 424Q273 457 253 477T191 498Q167 498 137 487T80 459H81Q69 453 66 439Q66 428 69 424L81 393Q88 381 101 381Q112 381 118 387L116 386Q132 396 142 396Q143 396 143 394V392Q142 389 142 387L105
173Q100 147 100 125Q100 60 140 24T264 -12Q305 -12 341 2T407 41Q422 0 478 0Q505 0 536 12T596 44L605 68Z" />
<glyph unicode="v" glyph-name="v" horiz-adv-x="502" d="M596 448Q596 449 597 452Q598 455 598 455Q598 468 586 478L531 499Q527 503 519 503Q500 503 493 486L494 488L306 168L265 390V391Q257 444 240 471T178 498Q125 498 67 458H68Q55 451 53 437Q53 436
53 433Q52 430 52 430Q52 426 55 422L68 392V395Q70 380 87 380Q93 380 100 383Q116 392 127 392Q129 392 135 374Q137 365 138 362V363L208 16Q208 10 214 5T228 0H311Q317 0 325 5T337 16V15L596 448ZM264 393L265 390Q265 390 264 393Z" />
<glyph unicode="w" glyph-name="w" horiz-adv-x="765" d="M860 451Q860 451 861 454Q861 456 861 456Q861 472 848 479L787 502Q787 502 785 503Q782 503 782 503Q766 503 756 486L585 177L558 383V385Q553 414 549 432T535 465T510 489T467 498Q440 498 412 487T351
455Q345 449 342 438Q342 430 344 424Q344 424 345 422L359 393Q366 381 378 381Q386 381 394 386Q408 394 417 394Q423 394 427 389T436 366L299 160L269 384Q265 411 261 430T247 464T221 489T179 498Q129 498 62 455Q56 449 53 438Q53 433 54 430Q54 429 54
428L72 393Q79 381 89 381Q97 381 105 386Q114 392 127 392Q138 392 142 364L193 17L192 18Q192 11 199 6T213 0H297Q302 0 310 5T322 15L455 213L484 17L483 18Q483 11 490 6T505 0H589Q596 0 603 5T615 16L860 451Z" />
<glyph unicode="x" glyph-name="x" horiz-adv-x="483" d="M522 82L503 119V118Q498 129 485 129Q474 129 467 123H468Q452 112 441 112Q432 112 421 137L365 255L548 425V424Q557 431 558 442Q558 451 554 458L553 459L519 504Q518 504 516 505Q507 509 504 509Q499
509 490 505Q489 505 487 504L321 349L277 442L276 444Q263 470 248 484T200 499Q172 499 142 484T82 444Q75 438 73 426Q73 425 73 424Q72 422 72 421Q72 418 74 411L92 380V381Q98 370 110 370Q121 370 128 376L126 375Q143 387 154 387Q163 387 173 364L222
258L23 73V74Q14 67 13 56Q13 43 18 38H19L50 -5Q55 -11 67 -11Q79 -11 86 -5L266 163L316 56Q327 31 344 16T395 0Q423 0 454 16T517 59L522 82Z" />
<glyph unicode="y" glyph-name="y" horiz-adv-x="544" d="M512 42L590 480Q590 505 569 505H495Q470 505 467 480L426 251Q413 185 378 143T289 100Q259 100 245 117T230 165Q230 179 233 195L271 406Q273 418 273 429Q273 463 253 484T192 505Q168 505 138 494T81
465H82Q71 459 67 444Q67 442 67 441L66 438Q66 433 70 429L82 398Q89 386 101 386Q107 386 117 391Q133 401 143 401Q143 400 143 399Q142 395 142 391L104 175Q100 150 100 127Q100 61 140 25T262 -12Q297 -12 330 0T392 32Q379 -43 344 -83T235 -124Q195 -124
164 -116T108 -95L109 -96Q104 -93 98 -93Q75 -93 70 -117L59 -181Q59 -200 70 -204H69Q98 -217 135 -225T221 -233Q344 -233 416 -163T512 42Z" />
<glyph unicode="z" glyph-name="z" horiz-adv-x="433" d="M465 160L416 165H413Q395 165 386 146Q372 110 342 110Q327 110 305 116H303Q287 122 270 125T226 128Q219 128 214 127L511 418L521 474Q521 498 500 498H141Q131 498 123 491T113 474L102 413Q102 389
122 389H331L14 78L4 21Q4 19 4 18Q3 15 3 15Q3 -4 23 -4H30Q58 3 94 7T165 12Q188 12 232 2Q237 2 239 1Q277 -8 307 -8Q369 -8 416 30T477 141L465 160Z" />
<glyph unicode="{" glyph-name="braceleft" horiz-adv-x="294" d="M253 -140Q263 -140 271 -133T282 -115L292 -54Q292 -53 292 -51Q293 -49 293 -49Q293 -30 273 -30H223Q207 -30 207 -5Q207 6 210 21L237 173Q240 192 240 210Q240 241 231 263T207 301Q233 320
253 351T281 426L308 581Q313 604 320 617T339 631H389Q399 631 407 638T418 656L428 717Q428 718 428 720Q429 722 429 722Q429 741 409 741H344Q298 741 253 701T196 594L169 440Q162 402 141 378T97 354Q87 354 79 347T69 330L59 271Q59 269 59 268Q58 265 58
265Q58 246 78 246Q96 246 108 230T121 185Q121 173 119 160L92 7Q89 -11 89 -27Q89 -79 118 -109T188 -140H253Z" />
<glyph unicode="|" glyph-name="bar" horiz-adv-x="176" d="M119 -18Q143 -18 146 7L274 732Q274 734 274 736L275 738Q275 756 255 756H203Q181 756 176 732L48 7Q48 -18 67 -18H119Z" />
<glyph unicode="}" glyph-name="braceright" horiz-adv-x="294" d="M349 265L360 330Q360 354 340 354Q322 354 310 370T298 415Q298 427 300 440L327 594Q330 610 330 626Q330 679 300 710T231 741H166Q156 741 148 734T137 717L127 656Q127 654 127 653Q126
650 126 650Q126 631 146 631H196Q212 631 212 606Q212 596 209 581L182 426Q179 407 179 389Q179 359 188 338T211 301Q185 282 166 251T138 173L111 21Q107 -2 100 -16T80 -30H30Q20 -30 12 -37T1 -54L-9 -115Q-9 -117 -9 -118Q-10 -121 -10 -121Q-10 -140 10
-140H75Q122 -140 166 -100T223 7L250 160Q257 199 279 222T327 246L349 265Z" />
<glyph unicode="~" glyph-name="asciitilde" horiz-adv-x="645" d="M638 330L598 364Q591 368 585 368Q572 368 558 353Q557 352 557 351Q557 353 559 355Q555 353 553 348Q540 333 527 325T495 316Q476 316 460 321T422 336Q420 337 412 341Q411 342 406 344Q399
348 398 348L399 347Q398 348 396 349Q394 350 392 350H393L386 353Q358 364 339 369T297 375Q249 375 214 352T136 282Q135 281 134 280Q130 275 128 268Q128 253 136 248L135 249L171 219Q178 214 185 214Q200 214 209 229Q210 230 210 231Q210 231 211 232Q211
231 209 229H210L213 232Q229 249 241 257T271 266Q289 266 305 261T347 243L350 242Q353 241 357 239L366 234H365L369 232Q400 219 421 213T468 206Q519 206 556 231T638 306V330ZM208 226Q209 226 209 227Q210 228 210 228H209Q209 226 208 226Z" />
<glyph unicode="&#xa1;" glyph-name="exclamdown" horiz-adv-x="243" d="M127 -223Q137 -223 145 -216T155 -198L232 264Q232 274 226 281T212 289H150Q141 289 133 281T123 264L36 -198Q36 -200 36 -201L35 -204Q35 -223 55 -223H127ZM281 433Q281 435 282 441Q282
445 282 448Q282 477 265 496T221 516Q191 516 164 491T131 433Q131 430 130 425Q130 419 130 418Q130 389 147 370T192 350Q223 350 249 374T281 433Z" />
<glyph unicode="&#xa2;" glyph-name="cent" horiz-adv-x="541" d="M587 571Q587 591 574 595L576 594Q555 605 528 614T467 626L482 709Q482 711 482 712Q483 715 483 715Q483 734 461 734H412Q389 734 384 709L368 620Q280 598 219 531T141 369Q135 337 135 308Q135
233 172 183T279 116L263 24Q263 -1 283 -1H332Q358 -1 361 24L377 111Q409 114 439 123T495 142Q500 144 506 152T513 165L524 228Q524 230 524 231Q525 234 525 234Q525 253 505 253Q499 253 492 250Q465 236 442 229T396 219L448 516Q485 511 515 497Q519 493
528 493Q546 493 554 510L553 508L581 558Q584 561 586 569Q587 570 587 571ZM266 369Q274 412 294 446T347 499L301 238Q263 267 263 331Q263 349 266 369Z" />
<glyph unicode="&#xa3;" glyph-name="sterling" horiz-adv-x="541" d="M561 164L509 172H505Q486 172 479 154H480Q462 116 421 116Q404 116 366 126L369 124Q368 125 366 125Q363 125 362 126Q341 132 323 135T284 139Q274 139 250 137Q289 204 302 277Q303 283
304 291Q305 299 306 305V304L307 324H453Q478 324 483 349L493 409Q493 411 493 412L494 415Q494 434 473 434H320L327 488Q327 489 327 490Q328 493 328 493Q328 493 328 496Q328 497 328 498L329 507Q340 568 370 602T455 637Q491 637 518 627T577 597L574 599Q578
594 588 594Q601 594 611 605L648 649L650 652Q657 662 657 666Q657 667 657 669Q658 671 658 672Q658 679 654 683Q616 714 575 732T475 750Q430 750 387 737T307 695T243 623T206 522L203 505L194 434H112Q87 434 82 409L72 349Q72 347 72 346L71 343Q71 324
92 324H180L177 295L171 263Q171 261 170 251Q168 240 168 238Q163 209 155 187T131 148Q116 130 98 120T47 98Q41 95 34 89T26 75L17 21Q17 19 17 18Q16 15 16 15Q16 -4 36 -4H40Q95 11 129 17T206 24Q241 24 295 8Q348 -8 381 -8Q453 -8 506 32T574 148L561 164Z"
/>
<glyph unicode="&#xa5;" glyph-name="yen" horiz-adv-x="550" d="M664 631Q689 631 694 656L704 713Q704 738 683 738H592Q576 738 569 725L373 444L265 725Q263 729 257 733T245 738H146Q136 738 128 731T118 713L108 656Q108 654 108 653Q107 650 107 650Q107
631 127 631H160L252 403H171Q148 403 143 379L134 327Q134 325 134 324Q133 321 133 321Q133 302 153 302H284L279 273H148Q138 273 130 266T120 248L111 197Q111 195 111 194Q110 191 110 191Q110 172 130 172H261L250 107H217Q192 107 187 82L177 25Q177 0 198
0H389Q415 0 418 25L428 82Q428 84 428 85L429 88Q429 107 408 107H375L386 172H518Q543 172 548 197L557 248Q557 273 536 273H404L409 302H541Q566 302 571 327L580 379Q580 381 580 382Q581 385 581 385Q581 403 559 403H470L628 631H664Z" />
<glyph unicode="&#xa7;" glyph-name="section" horiz-adv-x="529" d="M542 304Q545 324 545 341Q545 389 521 421T449 482L341 548Q325 558 316 568T307 591Q307 592 307 594Q307 597 307 597Q312 625 336 638T399 652Q458 652 526 617Q530 612 540 612Q559 612
567 629L566 627L598 677L597 676Q602 684 602 687Q602 699 593 707Q558 729 516 744T415 759Q331 759 265 717T184 597Q181 576 181 559Q181 528 192 505T230 462Q132 408 116 318Q113 300 113 283Q113 235 136 204T203 146L308 81Q331 67 342 55T353 27Q353 26
352 23Q352 20 352 18Q348 -7 322 -19T256 -32Q213 -32 179 -21T102 12Q98 15 90 15Q80 15 72 8T61 -9L49 -78Q49 -85 52 -92T60 -101Q106 -122 144 -131T243 -141Q283 -141 322 -130T393 -98T447 -45T475 24Q479 44 479 60Q479 91 466 114T426 160Q526 214 542
304ZM419 298Q414 270 392 251T335 221L311 235Q271 260 256 275T240 313Q240 314 240 318Q241 323 241 325Q246 352 267 371T321 403L349 387Q389 363 404 348T420 311Q420 309 420 305Q419 300 419 298Z" />
<glyph unicode="&#xa8;" glyph-name="dieresis" horiz-adv-x="491" d="M529 601Q529 603 529 606Q530 610 530 611Q530 636 512 653T466 670Q434 670 409 650T379 601Q379 599 378 595Q378 592 378 589Q378 565 396 549T442 532Q473 532 498 552T529 601ZM343
601Q343 603 343 606Q344 610 344 611Q344 636 326 653T280 670Q249 670 224 650T193 601Q193 599 193 595Q192 591 192 590Q192 565 210 549T256 532Q287 532 312 552T343 601Z" />
<glyph unicode="&#xa9;" glyph-name="copyright" horiz-adv-x="785" d="M854 369Q860 404 860 439Q860 508 836 566T768 667T665 733T535 756Q457 756 382 727T243 646T137 522T80 369Q74 334 74 299Q74 231 98 173T166 72T269 6T399 -18Q477 -18 552 11T691 93T797
217T854 369ZM740 369Q730 310 700 258T625 167T527 107T417 85Q368 85 326 102T253 150T206 223T189 316Q189 342 194 369Q204 428 234 480T309 572T407 632T517 654Q567 654 609 637T681 589T728 515T745 423Q745 396 740 369ZM660 566Q660 566 660 569Q661 571
661 571Q661 586 647 590L649 589Q622 602 591 609T519 617Q467 617 420 599T335 548T272 470T236 369Q231 341 231 316Q231 227 285 175T431 122Q473 122 508 130T570 150Q575 152 581 160T589 173L599 230Q599 255 580 255Q574 255 567 252Q539 239 514 233T457
226Q411 226 383 253T355 331Q355 349 358 368Q369 431 407 472T504 513Q525 513 544 510T588 496Q593 493 602 493Q621 493 629 510L628 508L654 553Q657 557 660 564V566Z" />
<glyph unicode="&#xaa;" glyph-name="ordfeminine" horiz-adv-x="352" d="M443 463L431 491Q423 499 413 499H407L425 603Q428 619 428 634Q428 680 398 704T305 729Q245 729 198 707Q182 703 179 686Q179 685 179 683Q178 680 178 679Q178 677 178 675Q179 673
179 672L185 642L184 643Q185 626 204 626Q166 613 142 585T112 519Q110 505 110 493Q110 450 139 427T223 403Q273 403 312 427Q326 409 358 409Q377 409 397 417T437 441L443 463ZM307 520Q305 506 291 498T256 489Q217 489 217 514Q217 514 217 516Q217 519
217 519Q222 550 264 550Q287 550 297 543T308 525Q308 524 307 523Q307 520 307 520ZM277 639Q305 639 317 627Q291 635 265 635Q245 635 223 630Q246 639 277 639Z" />
<glyph unicode="&#xab;" glyph-name="guillemotleft" horiz-adv-x="481" d="M456 63Q469 71 472 83Q472 91 469 100L395 254L523 408Q531 420 532 425Q532 437 523 444L480 477Q470 483 464 483Q459 483 453 480T442 469L270 265Q267 262 265 254Q265 240 268
237L267 240L366 39Q367 32 372 29T383 25Q389 25 401 31L456 63ZM279 63Q292 71 295 83Q295 91 292 100L218 254L346 408Q354 420 355 425Q355 437 346 444L303 477Q293 483 287 483Q277 483 267 472L93 265Q90 262 88 254Q88 240 91 237L90 240L190 36Q196 25
206 25Q212 25 224 31L279 63Z" />
<glyph unicode="&#xac;" glyph-name="logicalnot" horiz-adv-x="549" d="M555 172Q566 172 574 179T585 196L622 411Q622 413 622 414L623 417Q623 435 602 435H100Q75 435 70 411L59 345Q59 343 59 342L58 339Q58 320 79 320H486L465 196Q465 195 465 193Q464
191 464 190Q464 172 484 172H555Z" />
<glyph unicode="&#xae;" glyph-name="registered" horiz-adv-x="785" d="M854 369Q860 404 860 439Q860 508 836 566T768 667T665 733T535 756Q457 756 382 727T243 646T137 522T80 369Q74 334 74 299Q74 231 98 173T166 72T269 6T399 -18Q477 -18 552 11T691
93T797 217T854 369ZM517 654Q567 654 609 637T681 589T728 515T745 423Q745 396 740 369Q732 322 711 279T657 198V201Q657 203 657 204L658 207Q658 226 637 226H617Q609 226 606 234T601 263V266V268Q598 294 594 312T579 346Q602 358 615 369Q662 408 672 465Q675
482 675 496Q675 607 521 607H357Q432 654 517 654ZM194 369Q204 423 230 472T297 560L293 539Q293 537 293 536Q292 533 292 533Q292 514 314 514H329L278 226H263Q238 226 233 201L229 178Q189 237 189 315Q189 341 194 369ZM552 133H579Q503 85 417 85Q330 85
271 133H386Q411 133 416 158L423 201Q423 203 423 204L424 207Q424 226 403 226H389L406 323H448Q467 312 474 289T484 231V232V231Q488 181 500 157T552 133ZM553 468Q544 418 481 418H423L439 512H497Q554 512 554 477Q554 476 553 473Q553 470 553 468Z" />
<glyph unicode="&#xaf;" glyph-name="overscore" horiz-adv-x="493" d="M491 443Q517 443 520 466L528 513Q528 514 528 516L529 518Q529 535 507 535H192Q169 535 164 513L156 466Q156 443 176 443H491Z" />
<glyph unicode="&#xb0;" glyph-name="degree" horiz-adv-x="379" d="M464 608Q467 623 467 637Q467 693 430 729T334 766Q302 766 271 754T214 721T171 670T148 608Q146 594 146 580Q146 524 183 487T278 450Q310 450 341 462T398 496T441 546T464 608ZM359 608Q355
584 337 568T296 551Q277 551 265 564T252 598Q252 600 253 603Q253 606 253 608Q258 633 276 649T316 666Q335 666 347 653T360 620Q360 617 360 614Q359 610 359 608Z" />
<glyph unicode="&#xb1;" glyph-name="plusminus" horiz-adv-x="549" d="M535 0Q561 0 564 25L577 94Q577 119 556 119H362Q365 124 367 133L395 292H586Q597 292 605 299T616 316L628 386Q628 388 628 389Q629 392 629 392Q629 411 607 411H416L444 569Q444 570
444 573Q445 574 445 576Q445 594 425 594H353Q343 594 335 587T324 569L296 411H105Q81 411 76 386L64 316Q64 315 64 313L63 311Q63 292 84 292H275L247 133Q247 128 248 122Q248 120 248 119H54Q28 119 25 94L12 25Q12 0 33 0H535Z" />
<glyph unicode="&#xb4;" glyph-name="acute" horiz-adv-x="480" d="M490 673L488 671Q495 677 497 688Q497 711 477 711H401Q397 711 390 708T379 700L381 701L220 528L221 530Q214 524 212 514V513Q212 489 232 489H297Q301 489 308 492T318 501V499L490 673Z" />
<glyph unicode="&#xb5;" glyph-name="mu" horiz-adv-x="566" d="M605 69L587 112Q579 120 568 120Q564 120 556 117L554 116Q554 116 552 115Q550 113 549 113L544 111Q531 105 527 105L593 480Q593 504 572 504H498Q472 504 469 480L429 258Q418 190 383 145T292
100Q262 100 248 117T233 166Q233 179 236 195L273 403Q276 417 276 429Q276 463 256 483T194 504Q170 504 140 493T83 465H84Q73 459 69 444Q69 442 69 441L68 438Q68 433 72 429L84 398Q91 386 104 386Q110 386 120 391Q134 401 145 401Q146 401 146 399Q146
396 144 387L40 -203Q40 -228 60 -228H131Q157 -228 160 -203L198 11Q232 -12 284 -12Q319 -12 350 2T408 39Q426 0 478 0Q504 0 535 12T596 45L605 69Z" />
<glyph unicode="&#xb6;" glyph-name="paragraph" horiz-adv-x="621" d="M623 -72L608 -28Q601 -13 588 -13Q581 -13 569 -19Q563 -23 556 -26T544 -29Q543 -28 543 -26Q543 -25 543 -23Q544 -18 544 -16L659 636H692Q718 636 721 660L732 718Q732 743 711 743H445Q377
743 318 720T213 653T137 550T93 418Q87 385 87 353Q87 259 135 195T263 117L221 -120Q217 -145 217 -164Q217 -199 235 -216T295 -234Q322 -234 350 -223T406 -193H405Q416 -187 420 -172Q420 -170 420 -169L421 -166Q421 -161 417 -157L405 -123Q398 -108 385
-108Q381 -108 372 -112Q371 -112 369 -113Q363 -117 355 -120T342 -124Q340 -124 340 -120Q340 -119 340 -117Q341 -113 341 -111L473 633H538L422 -25Q418 -50 418 -69Q418 -104 436 -121T496 -139Q523 -139 553 -127T614 -94L623 -72Z" />
<glyph unicode="&#xb7;" glyph-name="middot" horiz-adv-x="243" d="M256 288Q251 258 225 236T168 213Q142 213 124 231T105 276Q105 277 106 282V288Q111 319 137 341T194 363Q221 363 239 345T257 301V294Q256 290 256 288Z" />
<glyph unicode="&#xb8;" glyph-name="cedilla" horiz-adv-x="481" d="M363 -95Q363 -92 364 -86Q365 -81 365 -78Q365 -46 344 -27T291 -4L306 10L308 13Q313 21 313 25Q313 48 292 48H251Q247 48 242 47T236 44L151 -43Q145 -53 144 -58Q144 -70 148 -75L165
-94H164Q171 -101 181 -101Q190 -101 196 -96Q215 -88 232 -88Q242 -88 248 -90T254 -97Q253 -102 243 -104T213 -106Q194 -106 176 -101T140 -89Q136 -86 128 -86Q118 -86 110 -93T100 -110L92 -155Q92 -172 105 -178Q133 -189 157 -194T210 -199Q269 -199 311
-174T363 -95Z" />
<glyph unicode="&#xba;" glyph-name="ordmasculine" horiz-adv-x="351" d="M454 566Q457 584 457 601Q457 659 420 694T314 729Q236 729 183 684T116 566Q113 548 113 531Q113 473 150 438T256 403Q334 403 387 448T454 566ZM346 566Q340 533 322 513T272 493Q246
493 234 506T222 544Q222 554 224 566Q230 599 248 619T298 640Q324 640 336 626T348 588Q348 578 346 566Z" />
<glyph unicode="&#xbb;" glyph-name="guillemotright" horiz-adv-x="481" d="M317 240L316 237Q322 242 324 253V254V265L224 469Q223 476 218 479T206 483Q202 483 191 478L188 477L133 444Q119 435 118 425Q118 417 121 408L194 254L67 100Q59 88 58 83Q58 83
58 81Q58 79 58 79Q58 70 66 63L109 31Q109 31 112 30Q121 25 125 25Q131 25 137 28T148 39L317 240ZM494 240L493 237Q499 242 501 253V254V265L399 472Q395 483 383 483Q379 483 368 478L365 477L310 444Q296 435 295 425Q295 417 298 408L371 254L244 100Q236
88 235 83Q235 83 235 81Q235 79 235 79Q235 70 243 63L286 31Q286 31 289 30Q298 25 302 25Q314 25 322 36L494 240Z" />
<glyph unicode="&#xbf;" glyph-name="questiondown" horiz-adv-x="465" d="M464 -107L431 -62Q425 -54 414 -54Q403 -54 395 -61Q366 -86 332 -104T257 -122Q173 -122 173 -58Q173 -49 175 -39Q180 -9 202 16T263 76L278 89Q326 131 346 164T376 249L384 296Q384
298 384 299Q385 302 385 302Q385 321 365 321H290Q280 321 272 314T261 296L254 255Q249 225 236 204T197 163Q131 111 95 66T47 -45Q43 -66 43 -86Q43 -158 93 -196T229 -234Q299 -234 357 -204T460 -133L464 -107ZM428 433Q428 435 429 440Q429 445 429 447Q429
476 410 496T362 516Q330 516 301 492T265 433Q265 431 264 425Q264 420 264 418Q264 389 283 370T333 350Q366 350 394 374T428 433Z" />
<glyph unicode="&#xc0;" glyph-name="Agrave" horiz-adv-x="660" d="M650 0Q676 0 679 25L689 82Q689 84 689 85L690 88Q690 107 669 107H628L528 725L529 724Q525 742 508 742H426Q419 742 411 737T400 725L66 107H28Q18 107 10 100T-1 82L-11 25Q-11 0 9 0H118Q125
0 133 5T144 17L262 242H472L506 17L505 18Q505 11 512 6T527 0H650ZM577 741H581Q590 741 599 748T610 766L620 823Q620 842 604 847L312 910H307Q297 910 289 903T278 885L266 814Q266 813 266 811Q265 809 265 808Q265 792 281 789L577 741ZM426 551L454 356H322L426
551Z" />
<glyph unicode="&#xc1;" glyph-name="Aacute" horiz-adv-x="660" d="M650 0Q676 0 679 25L689 82Q689 84 689 85L690 88Q690 107 669 107H628L528 725L529 724Q525 742 508 742H426Q419 742 411 737T400 725L66 107H28Q18 107 10 100T-1 82L-11 25Q-11 0 9 0H118Q125
0 133 5T144 17L262 242H472L506 17L505 18Q505 11 512 6T527 0H650ZM644 789Q665 792 670 814L682 885Q682 885 682 888Q683 889 683 890Q683 910 662 910H657L342 847Q334 845 328 838T319 823L309 766Q309 741 330 741H334L644 789ZM426 551L454 356H322L426
551Z" />
<glyph unicode="&#xc2;" glyph-name="Acircumflex" horiz-adv-x="660" d="M650 0Q676 0 679 25L690 83Q690 107 669 107H628L528 725L529 724Q525 742 508 742H426Q419 742 411 737T400 725L66 107H28Q18 107 10 100T0 83L-11 25Q-11 0 9 0H118Q125 0 133 5T144
17L262 242H472L506 17L505 18Q505 11 512 6T527 0H650ZM652 744H657Q682 744 685 768L695 823Q695 824 695 825Q696 827 696 827Q696 842 684 846H685L505 930L501 931H497H494L490 930L281 845Q276 843 271 836T264 823L254 768Q254 744 274 744H279L477 809L652
744ZM426 551L454 356H322L426 551Z" />
<glyph unicode="&#xc3;" glyph-name="Atilde" horiz-adv-x="660" d="M650 0Q676 0 679 25L689 82Q689 84 689 85L690 88Q690 107 669 107H628L528 725L529 724Q525 742 508 742H426Q419 742 411 737T400 725L66 107H28Q18 107 10 100T-1 82L-11 25Q-11 0 9 0H118Q125
0 133 5T144 17L262 242H472L506 17L505 18Q505 11 512 6T527 0H650ZM682 916H626Q618 916 609 910T597 896Q593 884 586 876T569 868Q553 868 535 872T486 887Q467 893 449 896T406 899Q349 899 309 860T254 767V764Q254 763 254 761Q253 759 253 759Q253 740
273 740H324Q332 740 341 746T352 762Q357 773 364 780T384 788Q407 788 437 778H458L478 777L456 804L434 779Q441 776 447 775Q449 775 450 774H451L452 773Q456 771 459 771Q461 770 464 770L466 769Q488 764 506 761T552 757Q608 757 645 798T698 895L682 916ZM426
551L454 356H322L426 551Z" />
<glyph unicode="&#xc4;" glyph-name="Adieresis" horiz-adv-x="660" d="M650 0Q676 0 679 25L689 82Q689 84 689 85L690 88Q690 107 669 107H628L528 725L529 724Q525 742 508 742H426Q419 742 411 737T400 725L66 107H28Q18 107 10 100T-1 82L-11 25Q-11 0 9
0H118Q125 0 133 5T144 17L261 241H471L506 17L505 18Q505 11 512 6T527 0H650ZM435 818Q435 821 436 825Q436 831 436 832Q436 859 418 877T372 896Q340 896 314 873T281 818Q281 816 280 811Q280 808 280 805Q280 777 298 759T345 741Q377 741 403 763T435 818ZM673
818Q673 821 674 825Q674 831 674 832Q674 859 656 877T610 896Q578 896 552 873T519 818Q519 816 518 811Q518 808 518 805Q518 777 536 759T583 741Q615 741 641 763T673 818ZM426 550L454 355H322L426 550Z" />
<glyph unicode="&#xc5;" glyph-name="Aring" horiz-adv-x="662" d="M651 0Q677 0 680 25L690 82Q690 84 690 85L691 88Q691 107 670 107H629L536 677Q561 695 578 721T601 777Q603 788 603 800Q603 845 574 875T496 905Q442 905 399 867T346 777Q344 765 344 754Q344
708 375 678L67 107H29Q19 107 11 100T0 82L-10 25Q-10 0 10 0H119Q126 0 134 5T145 17L262 241H472L507 17L506 18Q506 11 513 6T528 0H651ZM427 551L455 356H323L427 551ZM509 777Q506 763 495 753T471 742H464Q437 744 437 769Q437 770 438 773Q438 776 438
777Q441 792 453 802T479 812Q491 812 500 804T510 783Q510 783 509 780Q509 779 509 777Z" />
<glyph unicode="&#xc6;" glyph-name="AE" horiz-adv-x="927" d="M915 0Q941 0 944 25L955 86Q955 88 955 89L956 92Q956 111 935 111H636L674 330H912Q923 330 931 337T941 354L953 417Q953 441 932 441H694L727 627H993Q1017 627 1022 652L1033 713Q1033 738
1012 738H480Q470 738 462 731T452 713L442 659Q442 634 462 634H489L73 107H32Q7 107 2 82L-8 25Q-8 0 13 0H112Q118 0 125 4T135 13V12L284 202H525L508 107H473Q448 107 443 82L433 25Q433 0 454 0H915ZM373 315L595 601L545 315H373Z" />
<glyph unicode="&#xc7;" glyph-name="Ccedilla" horiz-adv-x="608" d="M727 695Q727 714 714 718L715 717Q673 737 627 749T521 761Q444 761 375 733T249 653T155 529T101 371Q93 323 93 279Q93 170 142 97T280 -4L237 -44V-43Q230 -50 229 -59V-62Q228 -63 228
-65Q228 -72 231 -76L248 -101Q254 -107 264 -107H269Q271 -106 277 -105Q280 -104 282 -104Q288 -103 295 -101Q320 -94 332 -94Q344 -94 352 -97T361 -106Q360 -113 346 -115T310 -118Q288 -118 264 -112T214 -97H209Q184 -97 179 -122L170 -173Q170 -195 184
-198V-197Q219 -208 248 -213T311 -218Q373 -218 422 -190T482 -105Q484 -96 484 -87Q484 -37 435 -15Q481 -11 520 1T593 28Q606 34 610 50L623 124Q623 124 623 126Q624 128 624 129Q624 137 618 143T602 149Q592 149 586 144L591 146Q549 125 508 113T414 101Q330
101 281 158T232 308Q232 339 238 371Q249 429 272 478T331 565T410 622T505 643Q547 643 580 635T650 611Q652 608 662 608Q681 608 689 625L688 624L720 681Q724 685 727 693V695Z" />
<glyph unicode="&#xc8;" glyph-name="Egrave" horiz-adv-x="546" d="M535 0Q545 0 553 7T563 25L574 86Q574 88 574 89Q575 92 575 92Q575 111 555 111H237L275 331H533Q558 331 563 356L574 419Q574 421 574 422Q575 425 575 425Q575 444 553 444H295L328 631H613Q637
631 641 655L652 717Q652 718 652 721Q653 722 653 724Q653 742 633 742H594Q601 744 607 751T615 766L625 823Q625 832 620 839T608 848L321 910H316Q306 910 298 903T287 885L275 814Q275 813 275 811Q274 809 274 808Q274 792 290 789L576 742H187Q162 742 157
717L147 659Q147 657 147 656Q146 653 146 653Q146 635 168 635H201L108 107H75Q50 107 45 82L35 25Q35 0 56 0H535Z" />
<glyph unicode="&#xc9;" glyph-name="Eacute" horiz-adv-x="546" d="M608 790Q622 793 627 814L639 885Q639 885 639 888Q640 889 640 890Q640 910 619 910H614L302 847Q294 845 288 838T279 823L269 766Q269 746 283 742H187Q162 742 157 717L147 659Q147 657
147 656Q146 653 146 653Q146 635 168 635H201L108 107H75Q50 107 45 82L35 25Q35 0 56 0H535Q545 0 553 7T563 25L574 86Q574 88 574 89Q575 92 575 92Q575 111 555 111H237L275 331H533Q558 331 563 356L574 419Q574 421 574 422Q575 425 575 425Q575 444 553
444H295L328 631H613Q637 631 641 655L652 717Q652 718 652 721Q653 722 653 724Q653 742 633 742H300L608 790Z" />
<glyph unicode="&#xca;" glyph-name="Ecircumflex" horiz-adv-x="546" d="M535 0Q545 0 553 7T563 25L574 86Q574 88 574 89Q575 92 575 92Q575 111 555 111H237L276 332H534Q545 332 553 339T563 356L574 419Q574 421 574 422Q575 425 575 425Q575 444 553 444H295L328
631H613Q637 631 642 656L652 717Q652 718 652 721Q653 722 653 724Q653 742 633 742H187Q162 742 157 717L147 660Q147 635 168 635H201L108 107H75Q64 107 56 100T46 83L35 25Q35 0 56 0H535ZM613 744H617Q627 744 636 750T646 768L656 823Q656 842 644 846H645L468
930L464 931H460Q458 931 455 930Q452 930 452 930L247 846H248Q242 844 236 837T228 823L218 768Q218 744 239 744H244L439 809L613 744Z" />
<glyph unicode="&#xcb;" glyph-name="Edieresis" horiz-adv-x="546" d="M640 818Q640 821 641 825Q641 831 641 832Q641 859 623 877T577 896Q546 896 520 873T487 818Q487 816 486 811Q486 806 486 804Q486 780 500 763T537 742H327Q355 747 377 768T404 818Q404
821 405 825Q405 831 405 832Q405 859 388 877T342 896Q310 896 284 873T251 818Q251 816 250 811Q250 806 250 804Q250 780 264 763T302 742H187Q162 742 157 717L147 659Q147 634 168 634H201L108 107H75Q50 107 45 82L35 25Q35 0 56 0H535Q545 0 553 7T563 25L574
86Q574 88 574 89Q575 92 575 92Q575 111 555 111H237L275 331H533Q558 331 563 356L574 419Q574 421 574 422Q575 425 575 425Q575 443 553 443H295L328 630H613Q638 630 641 655L652 717Q652 718 652 721Q653 722 653 724Q653 742 633 742H562Q591 747 613 768T640
818Z" />
<glyph unicode="&#xcc;" glyph-name="Igrave" horiz-adv-x="282" d="M246 0Q272 0 275 25L285 82Q285 84 285 85L286 88Q286 107 265 107H232L325 635H358Q383 635 387 659L397 717Q397 719 397 720L398 723Q398 742 377 742H186Q161 742 156 717L146 659Q146
657 146 656Q145 653 145 653Q145 635 167 635H199L106 107H74Q49 107 44 82L34 25Q34 0 55 0H246ZM396 741H400Q410 741 418 748T428 766L438 823Q438 832 433 839T421 848L140 910H135Q125 910 117 903T107 885L95 814Q95 813 95 811Q94 809 94 808Q94 792 110
789L396 741Z" />
<glyph unicode="&#xcd;" glyph-name="Iacute" horiz-adv-x="282" d="M246 0Q272 0 275 25L285 82Q285 84 285 85L286 88Q286 107 265 107H232L325 635H358Q383 635 387 659L397 717Q397 719 397 720L398 723Q398 742 377 742H186Q161 742 156 717L146 659Q146
657 146 656Q145 653 145 653Q145 635 167 635H199L106 107H74Q49 107 44 82L34 25Q34 0 55 0H246ZM451 790Q465 793 470 814L482 885Q482 885 482 888Q483 889 483 890Q483 910 462 910H457L152 847Q144 845 138 838T129 823L119 766Q119 741 140 741H143L451
790Z" />
<glyph unicode="&#xce;" glyph-name="Icircumflex" horiz-adv-x="286" d="M249 0Q275 0 278 25L289 83Q289 107 268 107H235L328 635H361Q387 635 390 660L400 717Q400 719 400 720L401 723Q401 742 380 742H186Q162 742 157 717L147 660Q147 635 167 635H201L108
107H74Q50 107 46 83L35 25Q35 0 55 0H249ZM468 744H472Q482 744 491 750T501 768L511 823Q511 842 499 846H500L325 930L321 931H317Q315 931 312 930Q309 930 309 930L106 846H107Q101 844 95 837T87 823L77 768Q77 744 98 744H103L296 809L468 744Z" />
<glyph unicode="&#xcf;" glyph-name="Idieresis" horiz-adv-x="284" d="M248 0Q273 0 276 25L286 82Q286 83 286 86Q287 87 287 89Q287 107 267 107H234L327 634H360Q385 634 388 659L398 717Q398 718 398 721Q399 722 399 724Q399 742 379 742H186Q161 742 156
717L146 659Q146 634 167 634H200L107 107H74Q49 107 44 82L34 25Q34 0 55 0H248ZM256 818Q256 821 257 825Q257 831 257 832Q257 859 240 877T194 896Q163 896 137 873T104 818Q104 816 103 811Q103 808 103 805Q103 777 121 759T167 741Q199 741 225 763T256
818ZM487 818Q487 821 488 825Q488 831 488 833Q488 860 471 878T426 896Q395 896 369 873T336 818Q336 816 335 811Q335 808 335 805Q335 777 353 759T399 741Q431 741 456 763T487 818Z" />
<glyph unicode="&#xd1;" glyph-name="Ntilde" horiz-adv-x="764" d="M748 916H691Q685 916 676 910T663 896Q659 884 652 876T635 868Q618 868 604 871T568 882H566V884Q542 892 523 895T472 899Q415 899 375 860T319 768V764Q319 748 330 742H177Q167 742 159
735T148 717L138 659Q138 635 158 635H192L99 107H65Q55 107 47 100T36 82L26 25Q26 0 46 0H179Q189 0 197 7T207 25L296 530L547 11V12Q549 8 555 4T565 0H664Q674 0 682 7T692 25L800 635H834Q845 635 853 642T863 659L873 717Q873 719 873 720L874 723Q874 742
853 742H721Q696 742 691 717L602 212L353 731V730Q351 735 340 740H389Q397 740 405 746T418 759Q423 772 430 780T450 788Q471 788 500 779Q507 776 513 775Q515 775 516 774Q518 773 520 773Q520 773 523 772Q527 770 529 770L533 769Q556 763 573 760T618 757Q674
757 711 798T764 895L748 916Z" />
<glyph unicode="&#xd2;" glyph-name="Ograve" horiz-adv-x="754" d="M647 741Q657 741 667 748T679 766L689 823Q689 843 674 848L381 910H376Q366 910 358 903T348 886L336 814Q336 813 336 811Q335 809 335 808Q335 792 351 789L532 759Q531 759 526 760Q521
760 520 760Q436 760 365 732T241 651T152 527T101 371Q92 321 92 276Q92 141 166 62T383 -18Q468 -18 538 11T663 92T751 215T801 371Q810 422 810 467Q810 570 766 641T636 742L647 741ZM664 371Q654 314 633 265T579 178T502 119T403 97Q316 97 274 150T232
293Q232 330 239 371Q249 428 270 477T324 565T401 624T500 646Q587 646 629 593T672 452Q672 413 664 371Z" />
<glyph unicode="&#xd3;" glyph-name="Oacute" horiz-adv-x="754" d="M700 789Q721 792 726 814L738 886Q738 886 738 888Q739 889 739 890Q739 898 732 904T717 910H712L402 849Q394 847 386 839T375 823L365 766Q365 754 372 748T389 741L396 742Q278 706 202
608T101 371Q92 321 92 276Q92 141 166 62T383 -18Q468 -18 538 11T663 92T751 215T801 371Q810 422 810 469Q810 603 736 681T520 760Q520 760 515 760Q511 759 510 759L700 789ZM664 371Q654 314 633 265T579 178T502 119T403 97Q316 97 274 150T232 293Q232
330 239 371Q249 428 270 477T324 565T401 624T500 646Q587 646 629 593T672 452Q672 413 664 371Z" />
<glyph unicode="&#xd4;" glyph-name="Ocircumflex" horiz-adv-x="754" d="M801 371Q810 422 810 469Q810 603 736 681T520 760Q436 760 365 732T241 651T152 528T101 371Q92 321 92 276Q92 141 166 62T383 -18Q468 -18 538 11T663 92T751 215T801 371ZM664 371Q654
314 633 265T579 178T502 119T403 97Q316 97 274 150T232 293Q232 330 239 371Q249 428 270 477T324 565T401 624T500 646Q587 646 629 593T672 452Q672 413 664 371ZM706 745Q706 745 709 745Q711 744 711 744Q721 744 729 751T740 769L749 823Q749 829 746 836T739
845L559 930L555 931H551Q548 931 547 931T541 928L542 929L336 846H337Q331 844 325 837T317 823L308 769Q308 767 308 766Q307 763 307 763Q307 744 327 744Q327 744 330 745Q333 745 333 745L530 809L706 745Z" />
<glyph unicode="&#xd5;" glyph-name="Otilde" horiz-adv-x="754" d="M751 916H694Q687 916 678 910T665 896Q662 884 655 876T638 868Q620 868 606 871T571 882H569V884Q545 892 526 896T475 900Q418 900 378 860T322 768V765Q322 741 343 741H392Q276 704 201
606T101 371Q92 321 92 276Q92 141 166 62T383 -18Q468 -18 538 11T663 92T751 215T801 371Q810 422 810 469Q810 603 736 681T520 760Q462 760 403 744Q417 753 423 763Q427 774 434 781T453 789Q474 789 504 779H505Q516 775 520 773L519 775L520 774Q523 771
527 771Q529 770 532 770H533Q558 763 575 760T620 757Q676 757 713 798T766 896L751 916ZM664 371Q654 314 633 265T579 178T502 119T403 97Q316 97 274 150T232 293Q232 330 239 371Q249 428 270 477T324 565T401 624T500 646Q587 646 629 593T672 452Q672 413
664 371Z" />
<glyph unicode="&#xd6;" glyph-name="Odieresis" horiz-adv-x="754" d="M730 819Q730 822 731 826Q731 832 731 833Q731 859 713 877T667 896Q635 896 609 873T576 819Q576 817 575 812Q575 808 575 806Q575 770 603 750Q566 759 520 759Q485 759 445 752Q463
763 475 780T492 819Q492 822 493 826Q493 832 493 833Q493 859 475 877T429 896Q397 896 371 873T338 819Q338 817 337 812Q337 808 337 805Q337 779 353 761T396 741Q279 706 203 608T101 371Q92 321 92 276Q92 141 166 62T383 -18Q468 -18 538 11T663 92T751
215T801 371Q810 422 810 468Q810 570 767 641T638 741H640Q672 741 698 764T730 819ZM664 371Q654 314 633 265T579 177T502 118T403 96Q316 96 274 149T232 292Q232 330 239 371Q249 427 270 476T324 564T401 623T500 645Q587 645 629 592T671 450Q671 413 664
371Z" />
<glyph unicode="&#xd8;" glyph-name="Oslash" horiz-adv-x="754" d="M801 370Q810 419 810 465Q810 554 776 620L845 688V687Q850 692 851 694T854 703Q854 716 849 724L812 760Q807 765 798 765Q788 765 782 762L716 696Q643 757 519 757Q435 757 365 729T241
648T152 525T101 370Q92 320 92 275Q92 183 127 118L58 51Q51 43 50 36Q50 24 54 19L90 -18H89Q95 -25 105 -25Q116 -25 119 -22L187 44Q262 -18 383 -18Q468 -18 538 10T663 91T751 215T801 370ZM239 370Q249 427 270 476T324 562T400 621T499 643Q577 643 619
601L238 226Q231 254 231 288Q231 325 239 370ZM664 370Q654 313 633 264T579 177T502 118T403 96Q326 96 282 137L664 511Q671 479 671 443Q671 407 664 370Z" />
<glyph unicode="&#xd9;" glyph-name="Ugrave" horiz-adv-x="717" d="M789 635Q815 635 818 660L828 717Q828 719 828 720L829 723Q829 742 808 742H674Q649 742 644 717L565 269Q550 178 506 138T382 97Q314 97 283 124T251 211Q251 237 256 269L335 717Q335 719
335 720L336 723Q336 742 315 742H174Q164 742 156 735T145 717L135 660Q135 635 155 635H189L122 254Q115 215 115 182Q115 84 175 33T361 -19Q505 -19 585 51T689 254L756 635H789ZM629 742H633Q642 742 651 749T662 766L672 823Q672 843 657 848L365 910H360Q350
910 342 903T331 886L319 814Q319 813 319 811Q318 809 318 808Q318 792 334 789L629 742Z" />
<glyph unicode="&#xda;" glyph-name="Uacute" horiz-adv-x="717" d="M797 635Q823 635 826 660L836 717Q836 719 836 720L837 723Q837 742 816 742H682Q657 742 652 717L573 269Q558 178 514 138T390 97Q322 97 291 124T259 211Q259 237 264 269L343 717Q343 719
343 720L344 723Q344 742 323 742H182Q172 742 164 735T153 717L143 660Q143 635 163 635H197L130 254Q123 215 123 182Q123 84 183 33T369 -19Q513 -19 593 51T697 254L764 635H797ZM714 789Q735 792 740 814L752 886Q752 886 752 888Q753 890 753 891Q753 899
747 904T732 910H727L413 848Q405 846 398 839T389 823L379 766Q379 742 400 742H404L714 789Z" />
<glyph unicode="&#xdb;" glyph-name="Ucircumflex" horiz-adv-x="717" d="M791 635Q817 635 820 660L831 718Q831 743 810 743H676Q650 743 647 718L567 269Q552 178 508 138T384 97Q316 97 285 124T253 211Q253 237 258 269L338 718Q338 743 317 743H176Q166
743 158 736T148 718L137 660Q137 635 157 635H191L124 254Q117 215 117 182Q117 84 177 33T363 -19Q507 -19 587 51T691 254L758 635H791ZM686 745Q686 745 689 745Q691 744 691 744Q701 744 709 751T720 769L729 823Q729 829 726 836T719 845L539 930L535 931H531H528L524
930L317 846H318Q312 844 306 837T298 823L289 769Q289 767 289 766Q288 763 288 763Q288 744 308 744Q308 744 311 745Q313 745 313 745L511 809L686 745Z" />
<glyph unicode="&#xdc;" glyph-name="Udieresis" horiz-adv-x="717" d="M797 635Q808 635 816 642T826 659L836 717Q836 719 836 720L837 723Q837 742 816 742H682Q657 742 652 717L573 269Q558 178 514 137T390 96Q322 96 291 123T259 211Q259 237 264 269L343
717Q343 719 343 720L344 723Q344 742 323 742H182Q172 742 164 735T153 717L143 659Q143 635 163 635H197L130 254Q123 215 123 182Q123 84 183 33T369 -19Q513 -19 593 51T697 254L764 635H797ZM474 819Q474 822 475 826Q475 832 475 833Q475 859 457 877T411
896Q379 896 353 873T320 819Q320 817 319 812Q319 809 319 806Q319 778 337 760T384 741Q416 741 442 764T474 819ZM712 819Q712 822 713 826Q713 832 713 833Q713 859 695 877T649 896Q617 896 591 873T558 819Q558 817 557 812Q557 809 557 806Q557 778 575
760T622 741Q654 741 680 764T712 819Z" />
<glyph unicode="&#xdf;" glyph-name="germandbls" horiz-adv-x="570" d="M598 240Q604 272 604 301Q604 416 512 458Q547 483 572 522T606 610Q609 628 609 646Q609 716 561 757T432 798Q370 798 322 780T241 728T186 650T156 551L63 25Q63 0 83 0H158Q184 0 187
25L281 554Q291 615 321 654T409 693Q443 693 461 676T480 626Q480 614 478 602Q471 558 441 532T369 506H348Q322 506 319 481L308 417Q308 415 308 414L307 411Q307 392 328 392H350Q407 392 439 364T472 282Q472 266 469 247Q456 174 416 137T318 99Q301 99
287 101T251 110H247Q237 110 229 103T219 85L208 25Q208 5 220 1Q244 -7 263 -9T307 -12Q416 -12 496 53T598 240Z" />
<glyph unicode="&#xe0;" glyph-name="agrave" horiz-adv-x="539" d="M544 68L526 111Q518 119 508 119Q504 119 496 116L494 115Q494 115 492 114Q490 112 489 112Q488 112 485 110Q471 104 466 104L504 315Q508 341 508 363Q508 460 430 493Q440 501 442 513Q442
517 441 523Q440 527 440 528L341 701V699Q340 703 333 707T322 711H247Q236 711 228 704T218 688Q218 676 222 671V673L324 510Q283 509 244 500T172 474Q156 469 154 451Q154 451 153 448Q152 445 152 443Q152 440 154 438L165 392V393Q168 378 185 378Q196 378
202 383L197 381Q247 404 301 404Q383 404 383 343Q383 335 381 326V324Q360 337 333 345T274 353Q183 353 121 302T44 171Q40 149 40 129Q40 62 82 25T204 -12Q246 -12 282 1T346 34Q362 0 418 0Q445 0 476 12T535 44L544 68ZM356 173Q349 137 317 115T241 92Q204
92 186 108T167 154Q167 162 169 171Q175 207 200 228T266 250Q310 250 333 232T357 185Q357 184 357 179Q356 176 356 173Z" />
<glyph unicode="&#xe1;" glyph-name="aacute" horiz-adv-x="539" d="M534 680L533 678Q539 683 541 691Q541 693 542 695Q542 718 522 718H446Q442 718 435 715T424 707L425 708L264 535L266 537Q259 531 257 521V520Q257 518 257 517Q256 514 256 513Q256 507
260 503Q212 494 172 474Q156 469 154 451Q154 451 153 448Q152 445 152 443Q152 440 154 438L165 392V393Q168 378 185 378Q196 378 202 383L197 381Q247 404 301 404Q383 404 383 343Q383 335 381 326V324Q360 337 333 345T274 353Q183 353 121 302T44 171Q40
149 40 129Q40 62 82 25T204 -12Q246 -12 282 1T346 34Q362 0 418 0Q445 0 476 12T535 44L544 68L526 111Q518 119 508 119Q504 119 496 116L494 115Q494 115 492 114Q490 112 489 112Q488 112 485 110Q471 104 466 104L504 315Q509 342 509 364Q509 428 474 465T365
509L534 680ZM356 173Q349 137 317 115T241 92Q204 92 186 108T167 154Q167 162 169 171Q175 207 200 228T266 250Q310 250 333 232T357 185Q357 184 357 179Q356 176 356 173Z" />
<glyph unicode="&#xe2;" glyph-name="acircumflex" horiz-adv-x="539" d="M494 487Q505 487 513 494T523 511Q523 512 523 513Q524 515 524 517Q524 521 521 525L448 707L447 706Q445 710 439 714T428 719H346Q342 719 333 715T322 706L184 522L187 526Q182 522
180 513L179 511Q179 487 199 487H203Q181 479 172 474Q156 469 154 451Q154 451 153 448Q152 445 152 443Q152 440 154 438L165 392V393Q168 378 185 378Q196 378 202 383L197 381Q247 404 301 404Q383 404 383 343Q383 335 381 326V324Q360 337 333 345T274 353Q183
353 121 302T44 171Q40 149 40 129Q40 62 82 25T204 -12Q246 -12 282 1T346 34Q362 0 418 0Q445 0 476 12T535 44L544 68L526 111Q518 119 508 119Q504 119 496 116L494 115Q494 115 492 114Q490 112 489 112Q488 112 485 110Q471 104 466 104L504 315Q508 341
508 364Q508 451 443 487H494ZM356 173Q349 137 317 115T241 92Q204 92 186 108T167 154Q167 162 169 171Q175 207 200 228T266 250Q310 250 333 232T357 185Q357 184 357 179Q356 176 356 173ZM332 510Q310 510 287 507L363 607L411 500Q373 510 332 510Z" />
<glyph unicode="&#xe3;" glyph-name="atilde" horiz-adv-x="539" d="M534 664H476Q466 664 458 658T448 641Q443 629 436 622T422 614Q414 614 403 617Q401 618 399 618H400L385 623L384 622Q384 622 383 623Q381 623 381 623Q358 631 344 633T309 636Q256 636
217 598T166 512Q166 488 187 488H205Q190 483 172 474Q156 469 154 451Q154 451 153 448Q152 445 152 443Q152 440 154 438L165 392V393Q168 378 185 378Q196 378 202 383L197 381Q247 404 301 404Q383 404 383 343Q383 335 381 326V324Q360 337 333 345T274 353Q183
353 121 302T44 171Q40 149 40 129Q40 62 82 25T204 -12Q246 -12 282 1T346 34Q362 0 418 0Q445 0 476 12T535 44L544 68L526 111Q518 119 508 119Q504 119 496 116L494 115Q494 115 492 114Q490 112 489 112Q488 112 485 110Q471 104 466 104L504 315Q509 341
509 364Q509 435 465 472T332 510Q296 510 263 504L267 510Q271 522 278 530T294 538Q308 538 334 530L332 531L337 528H341L355 523H357Q371 520 382 519T412 517Q463 517 501 557T548 647L534 664ZM356 173Q349 137 317 115T241 92Q204 92 186 108T167 154Q167
162 169 171Q175 207 200 228T266 250Q310 250 333 232T357 185Q357 184 357 179Q356 176 356 173Z" />
<glyph unicode="&#xe4;" glyph-name="adieresis" horiz-adv-x="539" d="M516 547Q516 549 517 553Q517 556 517 559Q517 583 500 599T454 616Q422 616 397 596T366 547Q366 545 366 541Q365 538 365 536Q365 520 372 508Q348 510 332 510Q319 510 312 509Q327
525 330 547Q330 549 331 553Q331 556 331 559Q331 583 314 599T268 616Q237 616 211 596T180 547Q180 546 180 542Q179 538 179 536Q179 504 206 488Q201 486 193 483Q179 477 172 474Q156 469 154 451Q154 451 153 448Q152 445 152 443Q152 440 154 438L165 392V393Q168
378 185 378Q196 378 202 383L197 381Q247 404 301 404Q383 404 383 343Q383 335 381 326V324Q360 337 333 345T274 353Q183 353 121 302T44 171Q40 149 40 129Q40 62 82 25T204 -12Q246 -12 282 1T346 34Q362 0 418 0Q445 0 476 12T535 44L544 68L526 111Q518
119 508 119Q504 119 496 116L494 115Q494 115 492 114Q490 112 489 112Q488 112 485 110Q471 104 466 104L504 315Q508 340 508 363Q508 444 453 481Q477 488 494 506T516 547ZM356 173Q349 137 317 115T241 92Q204 92 186 108T167 154Q167 162 169 171Q175 207
200 228T266 250Q310 250 333 232T357 185Q357 184 357 179Q356 176 356 173Z" />
<glyph unicode="&#xe5;" glyph-name="aring" horiz-adv-x="539" d="M478 609Q480 620 480 631Q480 673 453 701T379 730Q327 730 286 694T236 609Q234 598 234 587Q234 534 275 506Q217 497 172 474Q156 469 154 451Q154 451 153 448Q152 445 152 443Q152 440
154 438L165 392V393Q168 378 185 378Q196 378 202 383L197 381Q247 404 301 404Q383 404 383 343Q383 335 381 326V324Q360 337 333 345T274 353Q183 353 121 302T44 171Q40 149 40 129Q40 62 82 25T204 -12Q246 -12 282 1T346 34Q362 0 418 0Q445 0 476 12T535
44L544 68L526 111Q518 119 508 119Q504 119 496 116L494 115Q494 115 492 114Q490 112 489 112Q488 112 485 110Q471 104 466 104L504 315Q508 341 508 363Q508 420 481 455T398 503Q429 518 450 546T478 609ZM356 173Q349 137 317 115T241 92Q204 92 186 108T167
154Q167 162 169 171Q175 207 200 228T266 250Q310 250 333 232T357 185Q357 184 357 179Q356 176 356 173ZM389 609Q387 595 376 586T352 577Q324 577 324 609Q327 622 338 631T363 641Q374 641 382 634T390 615Q390 614 389 612Q389 610 389 609Z" />
<glyph unicode="&#xe6;" glyph-name="ae" horiz-adv-x="789" d="M790 198Q800 198 808 205T818 223L824 255Q831 296 831 330Q831 510 648 510Q604 510 561 494T486 449Q465 481 426 495T332 510Q289 510 247 500T168 473Q163 471 159 465T153 451Q153 451 152
448Q151 445 151 443Q151 440 153 438L164 392V393Q167 378 185 378Q191 378 197 381Q247 404 302 404Q385 404 385 343Q385 335 383 326V325Q363 338 336 345T274 353Q183 353 120 302T42 171Q38 149 38 128Q38 61 82 25T213 -12Q268 -12 314 8T395 61Q416 30
457 9T565 -12Q625 -12 665 -3T735 22Q739 24 745 31T752 44L763 106Q763 131 743 131Q732 131 726 126Q700 113 667 105T593 96Q540 96 515 125T487 198H790ZM356 173Q349 137 317 115T242 92Q205 92 186 108T167 154Q167 162 169 171Q175 207 200 228T267 250Q311
250 334 233T357 186Q357 184 357 179Q356 176 356 173ZM627 406Q666 406 683 385T701 321Q701 318 700 312Q700 305 700 302H504Q520 349 552 377T627 406Z" />
<glyph unicode="&#xe7;" glyph-name="ccedilla" horiz-adv-x="437" d="M529 450L531 457Q531 475 521 480Q488 496 454 506T377 516Q321 516 271 497T181 442T114 358T77 252Q72 221 72 192Q72 120 105 70T201 0L157 -47Q150 -55 149 -62Q149 -75 153 -80L171
-100H170Q176 -107 187 -107Q196 -107 202 -102Q224 -93 240 -93Q250 -93 256 -95T263 -104Q262 -110 251 -112T220 -114Q201 -114 179 -108T139 -94H136L132 -93Q122 -93 114 -100T103 -118L95 -166Q95 -174 99 -180T107 -189Q135 -200 160 -205T216 -211Q277
-211 321 -185T375 -102Q377 -93 377 -84Q377 -56 361 -37T318 -10Q351 -6 381 2T438 21Q443 23 449 30T457 44L468 108Q468 108 468 110Q469 112 469 113Q469 121 463 127T447 133Q441 133 435 130Q399 112 368 105T307 97Q256 97 229 128T201 214Q201 232 204
252Q216 318 255 361T358 404Q389 404 413 398T458 383Q462 379 471 379Q490 379 498 396L496 394L529 450Z" />
<glyph unicode="&#xe8;" glyph-name="egrave" horiz-adv-x="523" d="M431 501Q455 501 460 525Q460 528 458 535L457 540L358 713V711Q357 715 350 719T339 723H264Q253 723 245 716T235 700Q235 688 239 683V685L348 511Q348 510 349 510Q244 506 171 435T77
249Q72 217 72 189Q72 98 123 43T277 -12Q335 -12 373 -3T447 22Q460 28 464 44L475 106Q475 131 455 131Q449 131 443 128Q414 114 380 105T306 96Q253 96 228 125T200 198H501Q527 198 530 223L536 255Q543 294 543 328Q543 468 430 501H431ZM339 406Q377 406
395 384T414 319Q414 315 413 311Q413 305 413 302H218Q238 353 267 379T339 406Z" />
<glyph unicode="&#xe9;" glyph-name="eacute" horiz-adv-x="523" d="M540 685L538 683Q545 689 547 700Q547 723 527 723H451Q447 723 440 720T430 712L431 713L270 540L272 542Q263 534 263 525Q263 524 263 522Q262 520 262 519Q262 501 282 501H288Q206 479
150 412T77 249Q72 217 72 189Q72 98 123 43T277 -12Q335 -12 373 -3T447 22Q460 28 464 44L475 106Q475 131 455 131Q449 131 443 128Q414 114 380 105T306 96Q253 96 228 125T200 198H501Q527 198 530 223L536 255Q543 294 543 328Q543 415 498 461T366 510Q368
512 368 513V511L540 685ZM339 406Q377 406 395 384T414 319Q414 315 413 311Q413 305 413 302H218Q238 353 267 379T339 406Z" />
<glyph unicode="&#xea;" glyph-name="ecircumflex" horiz-adv-x="523" d="M501 198Q527 198 530 223L536 255Q543 294 543 328Q543 417 496 463T360 510Q306 510 259 491T174 438T112 355T77 249Q72 217 72 189Q72 98 123 43T277 -12Q335 -12 373 -3T447 22Q460
28 464 44L475 106Q475 131 455 131Q449 131 443 128Q414 114 380 105T306 96Q253 96 228 125T200 198H501ZM512 502Q523 502 531 509T541 526Q541 536 538 540L465 722V721Q463 725 457 729T445 734H363Q359 734 351 730T340 721L202 537L204 541Q197 534 197
526Q197 526 197 524Q197 522 197 521Q197 513 202 508T217 502H276Q281 502 287 504T296 509L381 622L431 510Q433 508 439 505T449 502H512ZM339 406Q377 406 395 384T414 319Q414 315 413 311Q413 305 413 302H218Q238 353 267 379T339 406Z" />
<glyph unicode="&#xeb;" glyph-name="edieresis" horiz-adv-x="523" d="M536 565Q536 567 536 570Q537 574 537 575Q537 600 519 617T473 634Q441 634 416 614T386 565Q386 563 385 558Q385 554 385 552Q385 521 411 505Q386 510 360 510Q330 510 297 503Q318
511 332 528T350 565Q350 567 350 570Q351 574 351 575Q351 600 333 617T287 634Q256 634 231 614T200 565Q200 563 199 559Q199 556 199 554Q199 529 217 513T262 496Q271 496 276 497Q198 472 146 407T77 249Q72 217 72 189Q72 98 123 43T277 -12Q335 -12 373
-3T447 22Q460 28 464 44L475 106Q475 131 455 131Q449 131 443 128Q414 114 380 105T306 96Q253 96 228 125T200 198H501Q527 198 530 223L536 255Q543 294 543 328Q543 459 444 496H448Q479 496 505 516T536 565ZM339 406Q377 406 395 384T414 319Q414 315 413
311Q413 305 413 302H218Q238 353 267 379T339 406Z" />
<glyph unicode="&#xec;" glyph-name="igrave" horiz-adv-x="268" d="M297 489Q321 489 325 513Q325 517 324 523Q323 527 323 528L224 701V699Q223 703 216 707T205 711H130Q119 711 111 704T101 688Q101 676 105 671V673L213 500Q217 494 221 492Q201 498 187
498Q164 498 135 488T79 459H80Q67 452 65 438Q65 437 65 434Q64 432 64 431Q64 427 68 423L80 393Q87 381 99 381Q107 381 115 386Q128 395 139 395Q140 395 140 393Q140 390 138 382L89 103Q85 83 85 67Q85 31 103 13T163 -6Q188 -6 218 6T277 39L285 61L268
101Q261 113 249 113Q246 113 243 113T234 109Q230 105 222 102T210 98Q210 99 210 100Q211 105 211 110L263 401Q265 412 265 422Q265 470 230 489H297Z" />
<glyph unicode="&#xed;" glyph-name="iacute" horiz-adv-x="268" d="M367 673L365 671Q372 677 374 688Q374 711 354 711H278Q274 711 267 708T256 700L258 701L97 528L98 530Q91 524 89 514V513Q89 489 109 489H139Q109 479 79 459H80Q67 452 65 438Q65 437 65
434Q64 432 64 431Q64 427 68 423L80 393Q87 381 99 381Q107 381 115 386Q128 395 139 395Q140 395 140 393Q140 390 138 382L89 103Q85 83 85 67Q85 31 103 13T163 -6Q188 -6 218 6T277 39L285 61L268 101Q261 113 249 113Q246 113 243 113T234 109Q230 105 222
102T210 98Q210 99 210 100Q211 105 211 110L263 401Q265 413 265 424Q265 456 247 476T193 498Q195 500 195 501V499L367 673Z" />
<glyph unicode="&#xee;" glyph-name="icircumflex" horiz-adv-x="268" d="M285 61L268 101Q261 113 249 113Q246 113 243 113T234 109Q230 105 222 102T210 98Q210 99 210 100Q211 105 211 110L263 401Q265 413 265 424Q265 457 246 477T187 498Q164 498 135 488T79
459H80Q67 452 65 438Q65 437 65 434Q64 432 64 431Q64 427 68 423L80 393Q87 381 99 381Q107 381 115 386Q128 395 139 395Q140 395 140 393Q140 390 138 382L89 103Q85 83 85 67Q85 31 103 13T163 -6Q188 -6 218 6T277 39L285 61ZM356 487Q367 487 375 494T385
511Q385 512 385 513Q386 515 386 517Q386 521 383 525L310 707L309 706Q307 710 301 714T290 719H208Q204 719 195 715T184 706L46 522L49 526Q44 522 42 513L41 511Q41 487 61 487H120Q125 487 131 489T140 494L225 607L275 495Q277 493 283 490T293 487H356Z"
/>
<glyph unicode="&#xef;" glyph-name="idieresis" horiz-adv-x="268" d="M285 61L268 101Q261 113 249 113Q246 113 243 113T234 109Q230 105 222 102T210 98Q210 99 210 100Q211 105 211 110L263 401Q265 413 265 424Q265 457 246 477T187 498Q164 498 135 488T79
459H80Q67 452 65 438Q65 437 65 434Q64 432 64 431Q64 427 68 423L80 393Q87 381 99 381Q107 381 115 386Q128 395 139 395Q140 395 140 393Q140 390 138 382L89 103Q85 83 85 67Q85 31 103 13T163 -6Q188 -6 218 6T277 39L285 61ZM384 563Q384 565 385 569Q385
572 385 574Q385 599 367 615T321 632Q289 632 264 612T234 563Q234 562 234 558Q233 554 233 552Q233 527 250 511T297 494Q329 494 354 514T384 563ZM198 563Q198 565 199 569Q199 572 199 574Q199 599 181 615T135 632Q105 632 79 612T48 563Q48 561 48 558Q47
554 47 553Q47 528 65 511T111 494Q143 494 168 514T198 563Z" />
<glyph unicode="&#xf1;" glyph-name="ntilde" horiz-adv-x="587" d="M572 664H514Q493 664 486 643V641Q481 629 474 622T460 614Q452 614 441 617Q439 618 437 618H438L423 623L422 622Q422 622 421 623Q419 623 419 623Q396 631 382 633T347 636Q294 636 255
598T204 512Q204 502 206 498Q202 499 193 499Q169 499 141 488T84 459H85Q73 453 70 439Q70 428 73 424L85 393Q92 381 105 381Q116 381 122 387L120 386Q136 396 146 396Q148 396 148 392L147 389Q147 386 147 383L83 25Q83 0 103 0H178Q203 0 206 25L245 244Q256
311 292 355T385 400Q415 400 429 384T444 337Q444 323 441 306L405 103Q402 84 402 68Q402 32 421 13T483 -6Q509 -6 540 6T601 39L611 61L592 102Q585 114 573 114Q568 114 557 109L554 108Q547 104 541 101T531 98L533 110L570 325Q575 350 575 372Q575 438
535 474T411 510Q370 510 333 496T265 456Q259 477 240 488H276Q282 488 291 495T305 510Q309 522 316 530T332 538Q346 538 372 530L370 531L375 528H379L393 523H395Q409 520 420 519T450 517Q501 517 539 557T586 647L572 664Z" />
<glyph unicode="&#xf2;" glyph-name="ograve" horiz-adv-x="560" d="M567 249Q573 281 573 310Q573 374 547 420T470 490Q489 495 491 513Q491 517 490 523Q489 527 489 528L390 701V699Q389 703 382 707T371 711H296Q285 711 277 704T267 688Q267 676 271 671V673L373
510H368Q254 510 176 439T77 249Q72 218 72 188Q72 96 125 42T276 -12Q333 -12 382 7T469 60Q547 132 567 249ZM439 249Q428 184 390 139T295 94Q248 94 225 125T201 207Q201 227 205 249Q216 315 254 360T349 405Q396 405 419 374T443 291Q443 271 439 249Z" />
<glyph unicode="&#xf3;" glyph-name="oacute" horiz-adv-x="560" d="M552 673L550 671Q557 677 559 688Q559 711 539 711H463Q459 711 452 708T441 700L443 701L282 528L283 530Q276 524 274 514V513Q274 511 274 509L273 506Q273 500 276 496Q198 471 146 406T77
249Q72 218 72 188Q72 96 125 42T276 -12Q333 -12 382 7T469 60Q547 132 567 249Q573 281 573 310Q573 397 526 450T390 509L552 673ZM439 249Q428 184 390 139T295 94Q248 94 225 125T201 207Q201 227 205 249Q216 315 254 360T349 405Q396 405 419 374T443 291Q443
271 439 249Z" />
<glyph unicode="&#xf4;" glyph-name="ocircumflex" horiz-adv-x="560" d="M518 487Q529 487 537 494T547 511Q547 512 547 513Q548 515 548 517Q548 521 545 525L472 707L471 706Q469 710 463 714T452 719H370Q366 719 357 715T346 706L208 522L211 526Q206 522
204 513L203 511Q203 487 223 487H251Q183 458 138 396T77 249Q72 218 72 188Q72 96 125 42T276 -12Q333 -12 382 7T469 60Q547 132 567 249Q573 281 573 310Q573 372 548 418T476 487H518ZM439 249Q428 184 390 139T295 94Q248 94 225 125T201 207Q201 227 205
249Q216 315 254 360T349 405Q396 405 419 374T443 291Q443 271 439 249ZM368 510Q339 510 310 504L387 607L434 502Q400 510 368 510Z" />
<glyph unicode="&#xf5;" glyph-name="otilde" horiz-adv-x="560" d="M557 664H499Q478 664 471 643V642Q468 631 461 623T445 614Q437 614 426 617Q424 618 422 618H423L408 623L407 622Q407 622 406 623Q404 623 404 623Q381 631 367 633T332 636Q279 636 240
598T189 512Q189 488 210 488H253Q184 459 138 397T77 249Q72 218 72 188Q72 96 125 42T276 -12Q333 -12 382 7T469 60Q547 132 567 249Q573 281 573 310Q573 403 520 456T368 510Q323 510 279 497Q287 505 290 510Q294 522 301 530T317 538Q331 538 357 530L355
531L360 528H364L378 523H380Q394 520 405 519T435 517Q486 517 524 557T571 647L557 664ZM439 249Q428 184 390 139T295 94Q248 94 225 125T201 207Q201 227 205 249Q216 315 254 360T349 405Q396 405 419 374T443 291Q443 271 439 249Z" />
<glyph unicode="&#xf6;" glyph-name="odieresis" horiz-adv-x="560" d="M538 547Q538 549 539 553Q539 556 539 559Q539 583 522 599T476 616Q444 616 419 596T388 547Q388 545 388 542Q387 538 387 537Q387 521 394 509Q392 509 381 510Q371 510 368 510Q355
510 333 508Q349 526 352 547Q352 549 353 553Q353 556 353 559Q353 583 336 599T290 616Q259 616 233 596T202 547Q202 546 202 542Q201 538 201 537Q201 518 212 503T241 482Q177 451 134 391T77 249Q72 218 72 188Q72 96 125 42T276 -12Q333 -12 382 7T469 60Q547
132 567 249Q573 281 573 310Q573 370 550 414T482 483Q504 492 519 509T538 547ZM439 249Q428 184 390 139T295 94Q248 94 225 125T201 207Q201 227 205 249Q216 315 254 360T349 405Q396 405 419 374T443 291Q443 271 439 249Z" />
<glyph unicode="&#xf7;" glyph-name="divide" horiz-adv-x="549" d="M580 255Q606 255 609 280L622 349Q622 374 601 374H99Q73 374 70 349L57 280Q57 255 78 255H580ZM447 472Q447 474 448 479Q448 483 448 486Q448 513 429 532T381 552Q349 552 322 529T288
472Q288 469 288 466Q287 460 287 460Q287 432 305 413T353 393Q385 393 413 416T447 472ZM392 157Q392 160 393 163Q393 168 393 169Q393 197 374 216T326 236Q294 236 266 213T233 157Q233 155 232 150Q232 145 232 143Q232 116 251 97T298 78Q331 78 358 100T392
157Z" />
<glyph unicode="&#xf8;" glyph-name="oslash" horiz-adv-x="537" d="M567 250Q572 281 572 309Q572 367 550 411L587 446Q596 452 598 463Q598 472 592 482L564 512H565Q559 519 548 519Q538 519 528 511L493 477Q440 511 368 511Q311 511 262 493T175 439Q98
368 77 250Q71 217 71 188Q71 130 93 87L55 50V51Q49 46 47 36V35Q47 21 52 15L82 -14Q86 -19 96 -19Q106 -19 116 -11L150 23Q203 -12 276 -12Q333 -12 382 7T469 61T532 144T567 250ZM439 250Q428 184 390 139T295 94Q260 94 238 108L441 305Q441 304 442 296Q442
291 442 286Q442 269 439 250ZM205 250Q216 316 254 360T349 405Q385 405 404 390L201 192Q201 194 201 199Q200 204 200 207Q200 225 205 250Z" />
<glyph unicode="&#xf9;" glyph-name="ugrave" horiz-adv-x="586" d="M605 68L587 107Q580 119 568 119Q564 119 556 116L554 115Q554 115 552 114Q550 112 549 112Q548 112 545 110Q531 104 526 104L592 474Q592 498 571 498H497Q471 498 468 474L429 255Q418
188 382 144T289 99Q259 99 245 115T231 162Q231 176 234 193L271 401Q273 413 273 424Q273 457 253 477T191 498Q167 498 137 487T80 459H81Q69 453 66 439Q66 428 69 424L81 393Q88 381 101 381Q112 381 118 387L116 386Q132 396 142 396Q143 396 143 394V392Q142
389 142 387L105 173Q100 147 100 125Q100 60 140 24T264 -12Q305 -12 341 2T407 41Q422 0 478 0Q505 0 536 12T596 44L605 68ZM433 489Q457 489 461 513Q461 517 460 523Q459 527 459 528L360 701V699Q359 703 352 707T341 711H266Q255 711 247 704T237 688Q237
676 241 671V673L350 499L349 501Q350 497 357 493T367 489H433Z" />
<glyph unicode="&#xfa;" glyph-name="uacute" horiz-adv-x="586" d="M605 68L587 107Q580 119 568 119Q564 119 556 116L554 115Q554 115 552 114Q550 112 549 112Q548 112 545 110Q531 104 526 104L592 474Q592 498 571 498H497Q471 498 468 474L429 255Q418
188 382 144T289 99Q259 99 245 115T231 162Q231 176 234 193L271 401Q273 413 273 424Q273 457 253 477T191 498Q167 498 137 487T80 459H81Q69 453 66 439Q66 428 69 424L81 393Q88 381 101 381Q112 381 118 387L116 386Q132 396 142 396Q143 396 143 394V392Q142
389 142 387L105 173Q100 147 100 125Q100 60 140 24T264 -12Q305 -12 341 2T407 41Q422 0 478 0Q505 0 536 12T596 44L605 68ZM552 673L550 671Q557 677 559 688Q559 711 539 711H463Q459 711 452 708T441 700L443 701L282 528L283 530Q276 524 274 514V513Q274
489 294 489H359Q363 489 370 492T380 501V499L552 673Z" />
<glyph unicode="&#xfb;" glyph-name="ucircumflex" horiz-adv-x="586" d="M605 68L587 107Q580 119 568 119Q564 119 556 116L554 115Q554 115 552 114Q550 112 549 112Q548 112 545 110Q531 104 526 104L592 474Q592 498 571 498H532Q536 502 538 511Q538 512
538 513Q539 515 539 517Q539 521 536 525L463 707L462 706Q460 710 454 714T443 719H361Q357 719 348 715T337 706L199 522L202 526Q197 522 195 513L194 511Q194 510 194 508L193 506Q193 501 196 498H191Q167 498 137 487T80 459H81Q69 453 66 439Q66 428 69
424L81 393Q88 381 101 381Q112 381 118 387L116 386Q132 396 142 396Q143 396 143 394V392Q142 389 142 387L105 173Q100 147 100 125Q100 60 140 24T264 -12Q305 -12 341 2T407 41Q422 0 478 0Q505 0 536 12T596 44L605 68ZM468 474L429 255Q418 188 382 144T289
99Q259 99 245 115T231 162Q231 176 234 193L271 401Q273 413 273 423Q273 468 240 487H273Q278 487 284 489T293 494L378 607L428 495Q430 493 436 490T446 487H473Q468 480 468 474Z" />
<glyph unicode="&#xfc;" glyph-name="udieresis" horiz-adv-x="586" d="M544 547Q544 549 545 553Q545 556 545 559Q545 583 528 599T482 616Q450 616 425 596T394 547Q394 546 394 542Q393 538 393 536Q393 511 410 495T457 478Q464 478 468 479L429 255Q418
188 382 144T289 99Q259 99 245 115T231 162Q231 176 234 193L271 401Q273 412 273 423Q273 462 248 481Q257 478 271 478Q303 478 328 498T358 547Q358 549 359 553Q359 556 359 559Q359 583 342 599T296 616Q265 616 239 596T208 547Q208 546 208 541Q207 538
207 536Q207 509 229 492Q213 498 191 498Q167 498 137 487T80 459H81Q69 453 66 439Q66 428 69 424L81 393Q88 381 101 381Q112 381 118 387L116 386Q132 396 142 396Q143 396 143 394V392Q142 389 142 387L105 173Q100 147 100 125Q100 60 140 24T264 -12Q305
-12 341 2T407 41Q422 0 478 0Q505 0 536 12T596 44L605 68L587 107Q580 119 568 119Q564 119 556 116L554 115Q554 115 552 114Q550 112 549 112Q548 112 545 110Q531 104 526 104L592 474Q592 498 571 498H514Q539 517 544 547Z" />
<glyph unicode="&#xff;" glyph-name="ydieresis" horiz-adv-x="567" d="M541 547Q541 549 542 553Q542 556 542 559Q542 583 525 599T479 616Q447 616 422 596T391 547Q391 546 391 542Q390 538 390 536Q390 511 407 495T454 478Q462 478 466 479L426 251Q413
185 378 143T289 100Q259 100 245 117T230 165Q230 179 233 195L271 406Q273 418 273 428Q273 459 257 479Q260 478 268 478Q300 478 325 498T355 547Q355 549 356 553Q356 556 356 559Q356 583 339 599T293 616Q262 616 236 596T205 547Q205 544 205 541Q204 537
204 536Q204 518 215 503Q201 505 192 505Q168 505 138 494T81 465H82Q71 459 67 444Q67 442 67 441L66 438Q66 433 70 429L82 398Q89 386 101 386Q107 386 117 391Q133 401 143 401Q143 400 143 399Q142 395 142 391L104 175Q100 150 100 127Q100 61 140 25T262
-12Q297 -12 330 0T392 32Q379 -43 344 -83T235 -124Q195 -124 164 -116T108 -95L109 -96Q104 -93 98 -93Q75 -93 70 -117L59 -181Q59 -200 70 -204H69Q98 -217 135 -225T221 -233Q344 -233 416 -163T512 42L590 480Q590 505 569 505H519Q538 524 541 547Z" />
<glyph unicode="&#x152;" glyph-name="OE" horiz-adv-x="906" d="M885 0Q911 0 914 25L925 86Q925 88 925 89L926 92Q926 111 905 111H606L644 330H882Q907 330 912 355L923 417Q923 442 902 442H664L697 628H963Q974 628 982 635T992 652L1003 714Q1003 716 1003
717Q1004 720 1004 720Q1004 738 982 738H752Q707 738 669 739T587 744Q539 747 498 747Q330 747 227 645T93 369Q84 315 84 267Q84 137 153 64T364 -9Q400 -9 442 -6Q443 -6 445 -6Q448 -5 450 -5Q451 -5 459 -5Q465 -4 470 -4Q540 0 588 0H885ZM385 105Q300 105
262 152T223 283Q223 322 231 369Q241 426 260 473T309 557T381 614T478 634Q528 634 569 630L477 109Q431 105 385 105Z" />
<glyph unicode="&#x153;" glyph-name="oe" horiz-adv-x="854" d="M855 198Q881 198 884 223L890 255Q897 296 897 330Q897 510 713 510Q658 510 613 490T531 432Q505 469 464 489T367 510Q255 510 177 439T78 249Q73 218 73 188Q73 96 126 42T275 -12Q381 -12
460 65Q482 30 524 9T630 -12Q691 -12 730 -3T801 22Q814 28 818 44L829 106Q829 131 808 131Q802 131 796 128Q769 114 735 105T659 96Q606 96 581 125T553 198H855ZM435 249Q424 183 388 139T294 94Q248 94 226 125T203 206Q203 226 207 249Q218 315 255 360T348
405Q395 405 417 375T439 295Q439 273 435 249ZM692 406Q731 406 748 385T766 321Q766 318 765 312Q765 305 765 302H571Q590 353 619 379T692 406Z" />
<glyph unicode="&#x178;" glyph-name="Ydieresis" horiz-adv-x="587" d="M688 634Q714 634 717 659L727 717Q727 719 727 720L728 723Q728 742 707 742H614Q609 742 601 738T590 729L383 452L261 730V729Q258 734 253 738T242 742H141Q131 742 123 735T112 717L102
659Q102 634 122 634H156L294 325L256 107H223Q198 107 193 82L183 25Q183 0 204 0H399Q425 0 428 25L438 82Q438 84 438 85L439 88Q439 107 418 107H385L424 329L651 634H688ZM401 818Q401 821 402 825Q402 831 402 832Q402 859 384 877T338 896Q307 896 281 873T248
818Q248 816 247 811Q247 808 247 805Q247 777 265 759T311 741Q343 741 369 763T401 818ZM638 818Q638 821 639 825Q639 831 639 832Q639 859 621 877T575 896Q544 896 518 873T485 818Q485 816 484 811Q484 808 484 805Q484 777 502 759T548 741Q580 741 606
763T638 818Z" />
<glyph unicode="&#x192;" glyph-name="florin" horiz-adv-x="550" d="M691 689Q694 692 694 696Q694 710 686 716H687Q669 731 640 742T580 753Q501 753 445 707T359 578L316 459H222Q196 459 193 434L183 381Q183 356 204 356H279L176 70Q161 23 143 -3T90 -30Q75
-30 60 -26T39 -18H38Q30 -15 27 -15Q8 -15 1 -36L-17 -92L-18 -96Q-18 -112 -5 -121Q7 -128 32 -134T87 -141Q163 -141 213 -97T295 38L408 356H510Q520 356 528 363T538 381L548 434Q548 459 528 459H444L474 541Q491 588 512 615T567 642Q580 642 594 638T621
626L618 628Q622 623 632 623Q637 623 644 627T657 638L691 689Z" />
<glyph unicode="&#x2c6;" glyph-name="circumflex" horiz-adv-x="492" d="M489 487Q500 487 508 494T518 511Q518 512 518 513Q519 515 519 517Q519 521 516 525L443 707L442 706Q440 710 434 714T423 719H341Q337 719 328 715T317 706L179 522L182 526Q177 522
175 513L174 511Q174 487 194 487H253Q258 487 264 489T273 494L358 607L408 495Q410 493 416 490T426 487H489Z" />
<glyph unicode="&#x2dc;" glyph-name="tilde" horiz-adv-x="493" d="M535 664H477Q467 664 459 658T449 642Q446 631 439 623T423 614Q415 614 404 617Q402 618 400 618H401L386 623L385 622Q385 622 384 623Q382 623 382 623Q359 631 345 633T310 636Q257 636
218 598T167 512Q167 488 188 488H239Q245 488 254 495T268 510Q272 522 279 530T295 538Q309 538 335 530L333 531L338 528H342L356 523H358Q372 520 383 519T413 517Q464 517 502 557T549 647L535 664Z" />
<glyph unicode="&#x2013;" glyph-name="endash" horiz-adv-x="500" d="M518 160Q544 160 547 182L557 239Q557 240 557 242Q558 244 558 244Q558 262 536 262H56Q32 262 27 239L17 182Q17 160 38 160H518Z" />
<glyph unicode="&#x2014;" glyph-name="emdash" horiz-adv-x="1000" d="M1018 160Q1044 160 1047 182L1057 239Q1057 240 1057 242Q1058 244 1058 244Q1058 262 1036 262H56Q32 262 27 239L17 182Q17 160 38 160H1018Z" />
<glyph unicode="&#x2018;" glyph-name="quoteleft" horiz-adv-x="254" d="M362 736L307 756H303Q292 756 283 749Q248 714 208 656T141 537Q141 536 140 536Q139 535 139 535Q139 528 143 521T152 511L235 487H237Q258 487 265 507Q283 558 312 615T369 711L362 736Z" />
<glyph unicode="&#x2019;" glyph-name="quoteright" horiz-adv-x="254" d="M354 731L265 757Q265 757 264 758Q264 758 263 758Q254 758 246 752T236 735V738Q218 686 190 632T136 541Q133 537 132 532Q131 530 131 530Q131 510 146 506L144 507L193 488H198Q209
488 214 492Q250 529 292 589T362 710L354 731Z" />
<glyph unicode="&#x201a;" glyph-name="quotesinglbase" horiz-adv-x="254" d="M238 117L150 143H148Q127 143 120 122Q103 72 75 18T21 -74Q16 -82 16 -85Q16 -86 16 -88Q15 -89 15 -91Q15 -106 31 -109L29 -108L78 -126H82Q95 -126 98 -123Q115 -105 134 -82T174
-29Q220 36 246 95L238 117Z" />
<glyph unicode="&#x201c;" glyph-name="quotedblleft" horiz-adv-x="449" d="M376 736L318 756H313Q309 756 303 754T293 749Q275 732 256 709T216 658T176 599T144 538Q144 537 142 535Q142 513 157 510L240 487H246Q255 487 263 492T274 507Q293 558 323 615T383
711L376 736ZM556 736L498 756H493Q489 756 483 754T473 749Q455 732 436 709T396 658T356 599T324 538Q324 537 322 535Q322 513 337 510L420 487H426Q447 487 454 507Q473 559 503 615T561 710L556 736Z" />
<glyph unicode="&#x201d;" glyph-name="quotedblright" horiz-adv-x="449" d="M546 732L457 757L454 758H450Q430 758 423 738Q405 688 376 633T320 541Q317 537 316 531Q315 529 315 529Q315 529 315 526Q315 525 315 524Q315 510 328 506L327 507L379 488H384Q396
488 404 495Q441 530 484 590T555 710L546 732ZM366 732L277 757L274 758H270Q250 758 243 738Q226 687 197 633T140 541Q137 537 136 531Q135 529 135 529Q135 529 135 526Q135 525 135 524Q135 510 148 506L147 507L200 488H204Q216 488 224 495Q261 530 304
590T375 710L366 732Z" />
<glyph unicode="&#x201e;" glyph-name="quotedblbase" horiz-adv-x="449" d="M248 118L159 143H153Q144 143 136 138T124 123Q107 73 78 18T21 -74Q16 -82 16 -85Q16 -86 16 -88Q15 -89 15 -91Q15 -106 31 -109L29 -108L81 -126H86Q90 -126 96 -124T106 -120Q143
-84 186 -25T256 95L248 118ZM428 118L339 143H333Q324 143 316 138T304 123Q287 73 258 18T201 -74Q196 -82 196 -86Q196 -106 210 -109L209 -108L261 -126H266Q277 -126 285 -120Q322 -84 365 -25T436 95L428 118Z" />
<glyph unicode="&#x2020;" glyph-name="dagger" horiz-adv-x="539" d="M582 456Q607 456 612 481L625 555Q625 556 625 558Q626 561 626 561Q626 580 603 580L440 574L480 758Q480 760 480 761L481 764Q481 783 459 783H375Q351 783 346 759L318 574L158 580Q134
580 129 555L116 481Q116 479 116 478L115 475Q115 456 136 456L300 460L191 -134Q191 -159 212 -159H290Q316 -159 319 -134L420 460L582 456Z" />
<glyph unicode="&#x2021;" glyph-name="daggerdbl" horiz-adv-x="538" d="M502 34Q528 34 531 59L544 133Q544 135 544 136L545 139Q545 158 523 158L366 152L422 471L578 467Q603 467 608 492L621 566Q621 591 599 591L442 585L479 759Q479 760 479 763Q480 764
480 766Q480 783 459 783H375Q351 783 346 759L320 585L165 591Q155 591 147 584T137 566L124 492Q124 490 124 489Q123 486 123 486Q123 467 143 467L302 471L246 152L89 158Q79 158 71 151T60 133L47 59Q47 34 67 34L224 38L188 -134Q188 -159 209 -159H293Q318
-159 321 -134L346 38L502 34Z" />
<glyph unicode="&#x2022;" glyph-name="bullet" horiz-adv-x="478" d="M494 359Q497 376 497 392Q497 456 454 499T344 542Q307 542 271 528T205 489T155 430T128 359Q125 342 125 327Q125 262 168 219T279 176Q317 176 352 190T418 229T467 288T494 359Z" />
<glyph unicode="&#x2026;" glyph-name="ellipsis" horiz-adv-x="975" d="M592 65Q592 67 593 71Q593 75 593 77Q593 103 573 121T522 140Q488 140 460 118T425 65Q425 64 425 59Q424 56 424 54Q424 26 444 8T495 -10Q528 -10 557 12T592 65ZM267 65Q267 67 268
71Q268 75 268 77Q268 103 248 121T198 140Q164 140 135 118T100 65Q100 64 100 59Q99 56 99 54Q99 26 120 8T171 -10Q204 -10 233 12T267 65ZM916 65Q916 67 917 71Q917 75 917 77Q917 103 897 121T847 140Q813 140 785 118T750 65Q750 64 750 59Q749 56 749 54Q749
26 769 8T820 -10Q853 -10 882 12T916 65Z" />
<glyph unicode="&#x2030;" glyph-name="perthousand" horiz-adv-x="1393" d="M1423 201Q1426 221 1426 239Q1426 315 1376 364T1246 414Q1202 414 1160 398T1082 352T1024 284T993 201Q990 182 990 163Q990 87 1040 38T1171 -12Q1216 -12 1258 4T1334 50T1392
118T1423 201ZM963 201Q966 221 966 239Q966 315 916 364T786 414Q742 414 700 398T622 352T564 284T533 201Q530 182 530 163Q530 87 580 38T711 -12Q756 -12 798 4T874 50T932 118T963 201ZM549 538Q552 557 552 576Q552 653 502 702T371 751Q327 751 285 735T208
690T150 621T119 538Q116 519 116 500Q116 424 166 375T296 326Q341 326 383 342T460 387T518 455T549 538ZM923 695L921 693Q928 699 930 710Q930 711 930 713Q931 714 931 716Q931 725 923 730H924L878 766Q877 767 874 768Q868 771 864 771Q852 771 846 765L160
44L161 46Q154 40 152 30V29Q152 16 160 10H159L204 -26Q212 -31 219 -31Q229 -31 237 -25L923 695ZM431 538Q424 497 390 467T316 437Q281 437 259 460T236 519Q236 529 238 538Q246 580 279 609T352 639Q387 639 410 616T433 557Q433 548 431 538ZM1305 201Q1298
160 1265 130T1191 100Q1156 100 1134 124T1111 184Q1111 186 1111 192Q1112 197 1112 201Q1120 243 1153 272T1226 302Q1261 302 1284 279T1307 220Q1307 211 1305 201ZM845 201Q838 160 805 130T731 100Q696 100 674 124T651 184Q651 186 651 192Q652 197 652
201Q660 243 693 272T766 302Q801 302 824 279T847 220Q847 211 845 201Z" />
<glyph unicode="&#x2039;" glyph-name="guilsinglleft" horiz-adv-x="291" d="M268 64Q280 71 283 84Q283 85 283 87L284 89Q284 92 281 101L211 254L335 407Q340 414 341 417T343 423V424Q343 438 335 444L289 480L287 481Q282 483 278 483Q267 483 257 472L94
272Q86 260 85 254Q85 240 88 237L180 36Q186 25 197 25Q205 25 209 28L268 64Z" />
<glyph unicode="&#x203a;" glyph-name="guilsinglright" horiz-adv-x="291" d="M310 243Q310 244 311 248T313 254Q313 263 314 265L217 472Q213 483 201 483Q197 483 192 481L190 480L130 444Q116 435 115 425Q115 416 119 407L187 254L65 101Q55 87 55 83Q55
83 55 81Q55 80 55 79Q55 71 63 64L110 28Q115 25 120 25Q132 25 140 36L310 243Z" />
<glyph unicode="&#x20ac;" glyph-name="currency" horiz-adv-x="608" d="M553 236Q577 236 582 261L594 327Q594 351 573 351H229L235 386H579Q604 386 608 410L620 476Q620 478 620 479Q621 482 621 482Q621 500 599 500H278Q315 565 372 602T499 640Q541 640
574 632T643 608Q646 605 656 605Q675 605 683 622L681 621L713 677Q717 681 720 689V691Q720 691 720 694Q721 696 721 696Q721 711 707 715L709 714Q667 733 621 744T514 756Q392 756 290 687T134 500H97Q73 500 68 476L56 410Q56 408 56 407Q55 404 55 404Q55
386 77 386H98L92 351H71Q60 351 52 344T42 327L30 261Q30 259 30 258Q29 255 29 255Q29 236 51 236H88Q100 117 176 50T376 -18Q438 -18 491 -5T587 28Q600 34 604 50L617 123Q617 148 597 148Q586 148 580 143L585 145Q544 124 502 113T408 101Q341 101 296 136T234
236H553Z" />
<glyph unicode="&#x2122;" glyph-name="trademark" horiz-adv-x="974" d="M961 282Q984 282 989 307L997 349Q997 373 977 373H962L1008 633H1023Q1046 633 1051 658L1058 700Q1058 701 1058 703Q1059 705 1059 706Q1059 724 1039 724H915Q911 724 902 719T890
710L743 463L680 710Q678 714 672 719T661 724H538Q527 724 519 717T508 700L501 658Q501 656 501 655Q500 652 500 652Q500 633 522 633H536L490 373H476Q450 373 447 349L439 307Q439 305 439 304Q438 301 438 301Q438 282 460 282H552Q576 282 581 307L616 506L668
297Q669 291 676 287T689 282H728Q734 282 742 287T754 298L753 297L877 504L842 307Q842 305 842 304Q841 301 841 301Q841 282 863 282H961ZM465 628Q490 628 494 652L502 700Q502 701 502 703L503 705Q503 724 482 724H166Q155 724 147 717T136 700L128 652Q128
650 128 649Q127 646 127 646Q127 628 149 628H252L207 373H191Q166 373 163 349L155 307Q155 306 155 304Q154 302 154 301Q154 282 175 282H317Q341 282 346 307L354 349Q354 373 333 373H318L363 628H465Z" />
</font>
</defs>
</svg>
