<?xml version="1.0" standalone="no"?> <!DOCTYPE svg PUBLIC "-//W3C//DTD SVG 1.0//EN" "http://www.w3.org/TR/2001/REC-SVG-20010904/DTD/svg10.dtd" > <svg xmlns="http://www.w3.org/2000/svg" width="100%" height="100%">
<defs >
<font id="Steinem-Italic" horiz-adv-x="434" ><font-face
    font-family="Steinem"
    units-per-em="1000"
    panose-1="2 0 5 0 0 0 0 0 0 0"
    ascent="901"
    descent="-235"
    alphabetic="0" />
<missing-glyph horiz-adv-x="364" d="M33 0V666H298V0H33ZM66 33H265V633H66V33Z" />
<glyph unicode=" " glyph-name="space" horiz-adv-x="278" />
<glyph unicode="!" glyph-name="exclam" horiz-adv-x="243" d="M298 699Q298 708 291 708H219Q211 708 209 699L132 232Q132 222 138 222H200Q209 222 211 232L298 699ZM200 56Q200 59 201 62Q201 68 201 69Q201 92 188 108T152 125Q127 125 106 105T80 56Q80
54 79 49Q79 45 79 43Q79 20 93 4T128 -12Q152 -12 173 8T200 56Z" />
<glyph unicode="&quot;" glyph-name="quotedbl" horiz-adv-x="442" d="M492 701Q492 711 484 711H391Q380 711 380 701L356 479Q356 471 365 471H426Q436 471 436 479L492 701ZM328 701Q328 711 320 711H227Q216 711 216 701L192 479Q192 471 200 471H262Q272
471 272 479L328 701Z" />
<glyph unicode="#" glyph-name="numbersign" horiz-adv-x="548" d="M596 421Q606 421 608 431L619 491Q619 501 610 501H526L589 697Q589 697 589 699Q590 700 590 700Q590 708 582 708H517Q510 708 506 699L443 501H341L404 697Q404 697 404 699Q405 700 405
700Q405 708 396 708H332Q324 708 320 699L257 501H162Q153 501 151 491L140 431Q140 421 148 421H232L190 289H96Q87 289 85 279L75 219Q75 209 82 209H165L103 11Q103 11 103 9Q103 8 103 8Q103 0 111 0H175Q183 0 187 9L248 209H350L288 11Q288 11 288 9Q288
8 288 8Q288 0 296 0H360Q368 0 372 9L434 209H530Q540 209 542 219L552 279Q552 289 544 289H460L501 421H596ZM315 421H417L376 289H274L315 421Z" />
<glyph unicode="$" glyph-name="dollar" horiz-adv-x="545" d="M545 198Q549 220 549 240Q549 304 509 340T393 403L433 632Q473 631 503 624T562 604Q563 604 563 604Q564 603 565 603Q572 603 574 609L604 663Q606 666 606 669Q606 673 601 675Q574 687 532
698T447 711L459 778Q459 788 452 788H400Q391 788 389 778L377 710Q289 698 231 649T158 521Q155 504 155 488Q155 455 168 429T203 385T250 355T310 329L267 83Q219 84 183 95T105 124L102 125Q102 125 100 126Q99 126 98 126Q89 126 87 116L75 46Q75 39 80 37Q115
22 158 12T252 0L239 -71Q239 -81 247 -81H299Q307 -81 309 -71L323 4Q413 17 472 67T545 198ZM448 196Q441 154 412 128T338 90L376 305Q413 289 431 269T450 217Q450 208 448 196ZM253 532Q259 570 287 595T363 629L327 427Q286 445 269 465T251 513Q251 522
253 532Z" />
<glyph unicode="%" glyph-name="percent" horiz-adv-x="1116" d="M1072 186Q1075 204 1075 221Q1075 292 1029 338T908 384Q867 384 828 369T757 327T703 263T674 186Q671 168 671 150Q671 80 717 34T838 -12Q879 -12 918 3T990 45T1043 109T1072 186ZM587 523Q590
542 590 559Q590 630 544 675T423 721Q382 721 343 706T271 664T218 601T189 523Q186 505 186 488Q186 417 232 372T353 326Q394 326 433 341T504 383T558 446T587 523ZM999 689Q1003 693 1003 697Q1003 701 1000 703L954 739Q953 741 950 741Q945 741 941 737L262
20Q258 17 258 12Q258 9 260 7L306 -29Q308 -31 311 -31Q317 -31 320 -27L999 689ZM984 186Q976 139 937 105T852 70Q812 70 787 97T761 165Q761 175 763 186Q771 234 809 268T893 302Q934 302 960 275T986 207Q986 197 984 186ZM498 523Q490 476 452 442T368 407Q328
407 302 434T275 503Q275 513 277 523Q286 571 324 605T409 639Q449 639 474 612T500 545Q500 534 498 523Z" />
<glyph unicode="&amp;" glyph-name="ampersand" horiz-adv-x="708" d="M721 57L704 90Q703 94 698 94Q694 94 691 92Q681 85 672 81T655 76Q638 76 624 94L562 172Q566 176 570 182L569 181Q570 183 572 185Q574 187 575 189L676 316H723Q732 316 734 326L744
381Q744 390 736 390H641Q634 390 631 385L518 238Q517 238 516 236Q515 235 514 234L398 383Q480 423 524 463T578 564Q581 581 581 595Q581 655 538 688T426 721Q347 721 286 677T210 556Q208 541 208 527Q208 493 222 463T263 396Q181 356 134 306T74 184Q71
167 71 151Q71 78 124 33T254 -12Q319 -12 375 12T494 97L543 36Q562 13 577 7T610 0Q639 0 668 14T718 45L721 57ZM277 67Q231 67 200 97T169 174Q169 185 171 196Q178 238 212 271T309 338L448 157Q358 67 277 67ZM491 563Q485 530 451 500T354 438L350 444Q327
474 314 497T301 545Q301 546 302 552Q302 555 302 558Q310 603 341 628T415 653Q450 653 471 633T493 580Q493 576 492 572Q491 566 491 563Z" />
<glyph unicode="&apos;" glyph-name="quotesingle" horiz-adv-x="237" d="M301 701Q301 711 293 711H210Q201 711 201 701L175 479Q175 471 182 471H237Q246 471 246 479L301 701Z" />
<glyph unicode="(" glyph-name="parenleft" horiz-adv-x="259" d="M238 -116Q243 -112 243 -108Q243 -107 242 -106Q242 -105 242 -104Q212 -32 198 29T184 156Q184 215 196 286Q215 391 261 489T378 672Q382 677 382 681Q382 684 379 686L330 727Q328 729 325
729Q321 729 317 725Q234 629 178 517T101 286Q90 223 90 159Q90 -11 162 -154Q164 -157 168 -157Q171 -157 174 -155L238 -116Z" />
<glyph unicode=")" glyph-name="parenright" horiz-adv-x="259" d="M277 286Q288 349 288 414Q288 496 270 575T217 725Q215 729 210 729Q207 729 205 727L141 687Q136 684 136 675Q166 605 180 544T195 417Q195 357 182 286Q164 180 118 82T-1 -101Q-4 -105 -4
-109Q-4 -112 -1 -114L49 -155Q50 -157 54 -157Q58 -157 62 -154Q145 -58 201 54T277 286Z" />
<glyph unicode="*" glyph-name="asterisk" horiz-adv-x="428" d="M508 555Q515 558 515 567L505 635Q504 642 497 642Q496 642 495 641Q494 641 493 641L367 594L396 720Q396 730 389 730H316Q307 730 305 720L289 594L180 641Q179 641 178 641Q177 642 176 642Q169
642 166 635L131 567Q131 566 130 565Q130 563 130 562Q130 557 135 555L251 519L155 421Q152 418 152 414Q152 410 155 408L204 364Q206 362 209 362Q214 362 218 367L307 475L362 366Q363 362 367 362Q370 362 374 364L439 408Q445 412 445 417Q445 419 443 421L379
519L508 555Z" />
<glyph unicode="+" glyph-name="plus" horiz-adv-x="549" d="M580 257Q590 257 592 267L604 336Q604 346 596 346H390L427 553Q427 562 419 562H347Q339 562 337 553L300 346H94Q84 346 82 336L70 267Q70 257 78 257H284L248 50Q248 40 255 40H327Q336 40 338
50L374 257H580Z" />
<glyph unicode="," glyph-name="comma" horiz-adv-x="254" d="M223 90L145 113Q135 113 132 105Q115 54 86 -2T30 -96Q28 -99 28 -102Q28 -107 34 -109L80 -126Q88 -126 90 -124Q124 -89 163 -33T227 78L223 90Z" />
<glyph unicode="-" glyph-name="hyphen" horiz-adv-x="313" d="M307 160Q316 160 318 168L328 228Q328 236 321 236H95Q85 236 83 228L73 168Q73 160 81 160H307Z" />
<glyph unicode="." glyph-name="period" horiz-adv-x="243" d="M199 50Q199 52 199 55Q200 57 200 59Q200 80 186 95T149 110Q124 110 104 92T79 50Q79 49 79 45Q78 41 78 40Q78 18 92 4T128 -10Q152 -10 173 7T199 50Z" />
<glyph unicode="/" glyph-name="slash" horiz-adv-x="357" d="M493 689Q495 692 495 695Q495 700 491 702L434 725Q433 725 432 725Q431 726 431 726Q425 726 421 721L8 20Q6 18 6 15Q6 10 10 8L65 -17Q66 -17 67 -17Q68 -18 69 -18Q76 -18 79 -12L493 689Z" />
<glyph unicode="0" glyph-name="zero" horiz-adv-x="547" d="M586 354Q598 422 598 480Q598 531 589 573T558 649T500 701T410 720Q341 720 288 688T198 601T139 484T104 354Q92 288 92 230Q92 180 101 137T132 61T191 8T281 -12Q351 -12 404 21T493 107T552 224T586
354ZM484 354Q476 308 463 262T429 172T374 101T296 73Q267 73 247 85T215 120T199 169T194 230Q194 260 197 291T206 354Q215 401 227 447T262 536T317 608T395 636Q424 636 444 624T475 590T492 540T497 480Q497 449 494 417T484 354Z" />
<glyph unicode="1" glyph-name="one" horiz-adv-x="531" d="M406 0Q415 0 417 10L427 67Q427 77 420 77H346L455 698Q455 708 444 708L267 659Q259 657 259 650L248 590Q248 581 258 581L344 604L251 77H176Q167 77 165 67L155 10Q155 0 162 0H406Z" />
<glyph unicode="2" glyph-name="two" horiz-adv-x="547" d="M513 135L467 142Q459 142 456 134Q436 86 388 86Q375 86 350 91Q344 92 335 93H333Q310 99 293 101T251 104Q227 104 188 93L347 228Q442 308 499 378T569 522Q573 546 573 567Q573 642 524 681T392
720Q358 720 325 712T262 690T211 663T175 637Q171 635 171 629Q171 628 172 627Q172 626 172 625L196 581Q199 577 203 577Q207 577 210 580Q236 600 277 617T361 635Q416 635 443 612T470 547Q470 534 467 520Q458 471 419 417T294 286L43 67Q39 63 39 60L29
6Q29 -4 38 -4Q43 -3 55 -1Q98 5 129 8T196 12Q221 12 271 3L283 1Q330 -8 358 -8Q417 -8 463 27T520 126L513 135Z" />
<glyph unicode="3" glyph-name="three" horiz-adv-x="545" d="M517 202Q520 220 520 237Q520 285 497 321T431 374Q481 398 513 440T555 535Q558 554 558 571Q558 642 508 681T375 720Q318 720 264 699T164 651Q159 648 159 643Q159 642 159 641Q159 641 160 639L181
590Q182 585 188 585Q188 585 189 586Q191 586 191 586Q193 587 195 588L197 589Q234 609 271 623T351 637Q405 637 431 614T457 551Q457 540 455 527Q449 493 433 471T395 437T349 421T300 416H276Q267 416 265 406L253 338Q253 328 261 328H285Q342 328 380 304T418
227Q418 215 416 202Q406 143 361 108T257 72Q196 72 160 85T79 128Q77 130 74 130Q65 130 63 120L50 45Q50 38 54 36Q97 12 141 0T242 -12Q287 -12 332 1T415 42T481 109T517 202Z" />
<glyph unicode="4" glyph-name="four" horiz-adv-x="547" d="M538 166Q548 166 550 176L560 234Q560 244 552 244H479L559 698Q559 708 551 708H437Q431 708 428 703L79 260L64 176Q64 166 71 166H373L357 74H299Q290 74 288 64L279 10Q279 0 286 0H497Q506 0
508 10L517 64Q517 74 510 74H449L465 166H538ZM160 244L453 619L387 244H160Z" />
<glyph unicode="5" glyph-name="five" horiz-adv-x="545" d="M529 227Q534 255 534 281Q534 365 484 411T343 458Q316 458 295 456T252 448L291 621H560Q570 621 572 630L584 699Q584 708 576 708H235Q225 708 223 699L145 344Q145 335 153 335Q153 335 155 335Q156
336 157 336Q197 355 238 365T312 375Q369 375 400 348T432 266Q432 248 428 227Q416 157 372 116T257 74Q208 74 173 86T97 127Q97 127 95 128Q93 128 92 128Q82 128 81 119L68 44Q68 36 71 35Q104 15 146 2T250 -12Q300 -12 346 5T430 54T494 130T529 227Z" />
<glyph unicode="6" glyph-name="six" horiz-adv-x="547" d="M568 227Q573 255 573 280Q573 363 524 410T388 457Q344 457 302 440T222 385Q237 454 260 503T311 583T371 626T436 639Q473 639 497 632T543 613L547 611Q549 610 557 606Q558 606 559 606Q560 605
561 605Q568 605 570 611L603 665Q605 668 605 671Q605 676 602 677Q579 693 539 706T449 720Q386 720 329 692T238 623Q192 572 163 511T117 356Q102 274 102 215Q102 164 114 123Q149 -12 299 -12Q346 -12 390 5T472 54T534 130T568 227ZM467 221Q456 157 411
114T309 70Q260 70 232 101T203 185Q203 202 206 221Q219 291 262 332T363 374Q412 374 441 343T471 259Q471 241 467 221Z" />
<glyph unicode="7" glyph-name="seven" horiz-adv-x="546" d="M616 644L625 698Q625 708 617 708H189Q180 708 178 698L166 631Q166 621 173 621H508L132 14Q130 11 130 8Q130 0 139 0H217Q225 0 227 6L616 644Z" />
<glyph unicode="8" glyph-name="eight" horiz-adv-x="546" d="M543 200Q547 220 547 238Q547 286 524 323T460 379Q506 400 538 442T578 531Q581 550 581 567Q581 636 534 678T409 720Q367 720 328 707T257 668T204 608T175 531Q172 516 172 501Q172 462 189 429T239
379Q182 358 142 310T91 200Q87 179 87 159Q87 80 140 34T280 -12Q328 -12 372 2T451 45T511 112T543 200ZM446 201Q436 145 393 106T294 67Q246 67 217 98T187 176Q187 189 189 201Q200 257 243 296T341 335Q389 335 419 305T449 227Q449 214 446 201ZM486 533Q478
485 441 453T356 421Q315 421 290 446T265 512Q265 522 267 533Q276 583 313 614T396 645Q437 645 462 621T488 556Q488 545 486 533Z" />
<glyph unicode="9" glyph-name="nine" horiz-adv-x="547" d="M573 360Q586 433 586 493Q586 549 575 588Q537 720 389 720Q341 720 297 703T216 655T155 580T121 485Q117 459 117 436Q117 355 166 308T300 261Q346 261 389 276T466 325Q438 196 380 134T248 72Q210
72 178 81T115 105Q114 105 113 106Q111 106 110 106Q101 106 100 96L88 27Q88 19 91 18Q127 2 161 -5T244 -12Q305 -12 362 14T456 85Q498 134 528 202T573 360ZM485 492Q473 422 430 384T326 345Q277 345 247 377T216 461Q216 476 219 492Q230 556 272 597T378
639Q428 639 458 606T488 521Q488 507 485 492Z" />
<glyph unicode=":" glyph-name="colon" horiz-adv-x="243" d="M200 56Q200 59 201 62Q201 67 201 68Q201 91 188 107T152 123Q127 123 106 103T80 56Q80 54 79 49Q79 45 79 43Q79 20 93 4T128 -12Q152 -12 173 8T200 56ZM261 401Q261 404 262 407Q262 412 262
413Q262 437 249 452T213 468Q188 468 167 449T141 401Q141 399 140 394Q140 390 140 388Q140 365 154 350T189 334Q213 334 234 354T261 401Z" />
<glyph unicode=";" glyph-name="semicolon" horiz-adv-x="254" d="M224 94L146 118Q146 118 145 118Q143 119 143 119Q135 119 132 110Q116 58 87 0T29 -101Q27 -104 27 -107Q27 -112 33 -114L79 -133Q87 -133 89 -130Q123 -94 163 -35T227 81L224 94ZM276 405Q276
407 277 411Q277 415 277 417Q277 440 263 456T225 472Q199 472 177 452T150 405Q150 404 150 399Q149 396 149 394Q149 369 164 353T201 337Q226 337 249 357T276 405Z" />
<glyph unicode="&lt;" glyph-name="less" horiz-adv-x="549" d="M539 41Q540 41 541 41Q542 40 543 40Q552 40 554 50L566 121Q566 129 562 130L197 301L622 473Q628 474 630 482L643 553Q643 562 636 562Q635 562 633 562Q632 561 631 561L89 341Q82 339 82 332L71
271Q71 263 75 262L539 41Z" />
<glyph unicode="=" glyph-name="equal" horiz-adv-x="549" d="M565 171Q575 171 577 181L589 247Q589 256 580 256H78Q67 256 67 247L55 181Q55 171 63 171H565ZM592 321Q602 321 603 330L615 396Q615 405 606 405H104Q95 405 93 396L81 330Q81 321 90 321H592Z" />
<glyph unicode="&gt;" glyph-name="greater" horiz-adv-x="549" d="M585 262Q591 264 593 271L604 332Q604 339 599 341L136 561Q135 561 133 562Q132 562 131 562Q122 562 121 553L108 482Q108 475 112 473L476 301L52 130Q46 128 44 121L32 50Q32 40 40 40Q40
40 42 41Q43 41 44 41L585 262Z" />
<glyph unicode="?" glyph-name="question" horiz-adv-x="465" d="M530 551Q533 570 533 588Q533 655 487 690T361 726Q295 726 240 699T147 635Q143 631 143 626Q143 624 144 623Q144 621 144 621L174 579Q176 576 180 576Q184 576 188 579Q217 604 255 624T338
645Q386 645 410 625T434 569Q434 558 432 545Q426 511 401 481T333 414L322 405Q298 383 284 367T259 334T242 297T230 249L222 203Q222 193 229 193H304Q313 193 315 203L322 243Q329 283 343 305T387 351Q452 406 485 448T530 551ZM309 56Q309 57 310 62Q310
65 310 67Q310 92 295 108T254 125Q227 125 204 105T176 56Q176 54 175 50Q175 47 175 44Q175 20 191 4T230 -12Q257 -12 280 8T309 56Z" />
<glyph unicode="@" glyph-name="at" horiz-adv-x="784" d="M830 419Q835 446 835 472Q835 528 814 575T753 656T661 708T547 726Q470 726 397 697T263 615T161 488T104 328Q98 294 98 261Q98 173 140 107Q177 49 243 16T405 -18Q456 -18 504 -8T593 19T665 52T722
85Q727 88 727 94Q727 95 727 96Q726 98 726 98L706 139Q703 143 699 143Q696 143 693 141L686 137Q625 102 563 79T417 55Q347 55 296 80T216 151Q182 204 182 273Q182 302 188 332Q200 400 232 459T312 562T417 630T534 654Q578 654 618 640T688 601T736 538T753
456Q753 436 749 414Q742 373 725 338T685 276T637 235T588 220Q576 220 576 232Q576 233 577 236Q578 242 579 243L709 532Q709 533 710 534Q710 536 710 537Q710 544 701 544H638Q629 544 627 538L615 513Q595 563 521 563Q474 563 428 542T342 483T275 395T237
288Q234 270 234 255Q234 201 267 171T354 140Q423 140 487 192Q487 166 506 153T555 140Q593 140 636 158T718 211T788 300T830 419ZM543 348Q517 288 476 251T384 214Q326 214 326 272Q326 281 328 291Q335 330 353 366T396 431T451 476T507 492Q538 492 552
478T567 435Q567 425 565 413Q558 379 543 348Z" />
<glyph unicode="A" glyph-name="A" horiz-adv-x="661" d="M651 0Q661 0 663 10L673 67Q673 77 665 77H614L511 701Q509 708 503 708H421Q413 708 411 701L73 77H24Q15 77 13 67L3 10Q3 0 10 0H119Q127 0 129 7L252 240H483L519 7Q521 0 528 0H651ZM433 579L470
324H296L433 579Z" />
<glyph unicode="B" glyph-name="B" horiz-adv-x="625" d="M626 201Q629 217 629 234Q629 285 601 323T523 374Q574 396 607 435T650 530Q653 549 653 565Q653 603 637 630T591 675T525 700T445 708H179Q169 708 167 698L157 641Q157 631 165 631H213L116 77H68Q58
77 56 67L46 10Q46 0 54 0H315Q369 0 419 10T513 42T586 104T626 201ZM517 204Q507 145 460 113T345 81H214L258 328H391Q448 328 484 305T520 231Q520 218 517 204ZM544 519Q538 487 522 466T483 432T434 414T378 409H272L311 627H425Q482 627 514 607T546 542Q546
532 544 519Z" />
<glyph unicode="C" glyph-name="C" horiz-adv-x="608" d="M700 672Q702 675 702 678Q702 683 698 685Q655 704 611 715T509 726Q436 726 369 700T249 624T159 505T107 354Q99 309 99 267Q99 136 173 59T376 -18Q437 -18 488 -6T580 26Q586 28 586 35L599 108Q599
118 591 118Q590 118 589 118Q588 117 587 117Q542 95 500 83T403 71Q313 71 261 130T208 288Q208 320 214 354Q225 415 250 467T312 558T397 618T499 640Q545 640 580 631T652 606Q653 606 654 606Q655 605 656 605Q663 605 666 611L700 672Z" />
<glyph unicode="D" glyph-name="D" horiz-adv-x="673" d="M703 354Q711 396 711 434Q711 559 632 633T396 708H181Q171 708 169 698L159 641Q159 631 167 631H215L118 77H70Q60 77 58 67L48 10Q48 0 56 0H271Q363 0 437 26T566 101T655 213T703 354ZM597 354Q587
295 560 245T494 158T407 101T308 81H217L314 627H393Q489 627 546 569T603 415Q603 386 597 354Z" />
<glyph unicode="E" glyph-name="E" horiz-adv-x="546" d="M535 0Q544 0 546 10L558 71Q558 81 550 81H216L260 330H533Q543 330 545 339L556 402Q556 411 547 411H274L313 627H613Q621 627 623 637L634 698Q634 708 627 708H181Q171 708 169 698L159 641Q159 631
167 631H215L118 77H70Q60 77 58 67L48 10Q48 0 56 0H535Z" />
<glyph unicode="F" glyph-name="F" horiz-adv-x="509" d="M612 627Q621 627 623 637L634 698Q634 708 626 708H174Q164 708 162 698L152 641Q152 631 160 631H208L111 77H63Q53 77 51 67L41 10Q41 0 49 0H252Q262 0 264 10L274 67Q274 77 266 77H208L253 336H494Q505
336 506 345L517 407Q517 417 509 417H268L305 627H612Z" />
<glyph unicode="G" glyph-name="G" horiz-adv-x="650" d="M620 46L677 367Q677 377 669 377H527Q518 377 516 367L505 309Q505 299 514 299H568L531 89Q468 70 408 70Q316 70 265 129T213 285Q213 318 219 354Q230 415 255 467T317 558T401 618T501 640Q553 640
588 629T655 599Q656 599 657 599Q658 598 659 598Q666 598 670 604L706 665Q708 668 708 671Q708 676 705 678Q670 700 622 713T507 726Q435 726 370 700T253 624T164 505T113 354Q105 309 105 266Q105 135 178 59T381 -18Q501 -18 614 37L620 46Z" />
<glyph unicode="H" glyph-name="H" horiz-adv-x="726" d="M680 0Q690 0 692 10L702 67Q702 77 694 77H645L742 631H791Q801 631 803 641L813 698Q813 708 805 708H667Q657 708 655 698L604 409H267L318 698Q318 708 310 708H172Q163 708 161 698L151 641Q151 631
158 631H207L110 77H61Q52 77 50 67L40 10Q40 0 47 0H185Q195 0 197 10L253 328H590L534 10Q534 0 542 0H680Z" />
<glyph unicode="I" glyph-name="I" horiz-adv-x="273" d="M232 0Q241 0 243 10L253 67Q253 77 246 77H199L296 631H343Q352 631 354 641L364 698Q364 708 357 708H171Q162 708 160 698L150 641Q150 631 157 631H203L106 77H60Q51 77 49 67L39 10Q39 0 46 0H232Z" />
<glyph unicode="J" glyph-name="J" horiz-adv-x="350" d="M428 632Q439 632 440 641L450 699Q450 708 442 708H246Q237 708 235 699L225 641Q225 632 232 632H285L202 158Q194 113 175 90T117 66Q92 66 71 72T30 89Q29 89 28 89L26 90Q17 90 15 80L3 14Q3 7 7
5Q32 -7 57 -12T119 -18Q189 -18 235 24T293 138L380 632H428Z" />
<glyph unicode="K" glyph-name="K" horiz-adv-x="662" d="M653 0Q662 0 664 10L674 67Q674 77 667 77H604L444 450L643 631H731Q741 631 743 641L753 698Q753 708 745 708H616Q611 708 608 705L269 393L323 698Q323 708 316 708H178Q168 708 166 698L156 641Q156
631 164 631H213L116 77H67Q57 77 55 67L45 10Q45 0 53 0H191Q200 0 202 10L248 270L361 374L516 5Q519 0 524 0H653Z" />
<glyph unicode="L" glyph-name="L" horiz-adv-x="542" d="M533 0Q542 0 544 10L555 71Q555 81 547 81H214L311 631H369Q378 631 380 641L390 698Q390 708 383 708H179Q169 708 167 698L157 641Q157 631 165 631H213L116 77H68Q58 77 56 67L46 10Q46 0 54 0H533Z" />
<glyph unicode="M" glyph-name="M" horiz-adv-x="919" d="M875 0Q885 0 887 10L897 67Q897 77 889 77H840L937 631H986Q996 631 998 641L1008 698Q1008 708 1000 708H816Q809 708 807 702L493 168L363 702Q361 708 355 708H175Q165 708 163 698L153 641Q153 631
161 631H210L113 77H64Q54 77 52 67L42 10Q42 0 50 0H179Q188 0 190 10L290 576L428 6Q430 0 436 0H483Q491 0 493 6L829 575L730 10Q730 0 737 0H875Z" />
<glyph unicode="N" glyph-name="N" horiz-adv-x="764" d="M843 631Q853 631 855 641L865 698Q865 708 857 708H725Q715 708 713 698L616 146L345 704Q343 708 338 708H181Q172 708 170 698L160 641Q160 631 167 631H216L119 77H70Q61 77 59 67L49 10Q49 0 56 0H189Q198
0 200 10L297 563L569 4Q569 0 575 0H674Q683 0 685 10L794 631H843Z" />
<glyph unicode="O" glyph-name="O" horiz-adv-x="754" d="M776 354Q785 403 785 447Q785 576 714 651T507 726Q427 726 359 699T240 621T154 503T106 354Q98 307 98 263Q98 134 169 58T376 -18Q457 -18 524 9T643 87T728 205T776 354ZM669 354Q659 295 637 243T579
151T497 89T391 66Q297 66 252 123T207 274Q207 312 214 354Q225 414 247 466T304 558T386 620T492 643Q586 643 631 587T677 437Q677 398 669 354Z" />
<glyph unicode="P" glyph-name="P" horiz-adv-x="567" d="M637 499Q641 522 641 544Q641 622 589 665T440 708H176Q166 708 164 698L154 641Q154 631 162 631H210L113 77H65Q55 77 53 67L43 10Q43 0 51 0H252Q262 0 264 10L274 67Q274 77 266 77H210L248 294H367Q477
294 548 347T637 499ZM536 499Q514 375 385 375H262L307 627H430Q539 627 539 530Q539 516 536 499Z" />
<glyph unicode="Q" glyph-name="Q" horiz-adv-x="755" d="M745 -69L717 -42Q715 -40 711 -40Q706 -40 702 -44Q666 -82 627 -82Q612 -82 595 -76L472 -28Q460 -23 439 -16L432 -14Q502 -6 562 24T667 103T743 216T786 356Q795 405 795 449Q795 578 724 654T516
730Q435 730 368 703T249 625T163 506T115 356Q106 307 106 263Q106 151 159 79T317 -11Q285 -21 256 -44T207 -96Q205 -98 205 -101Q205 -106 209 -109L239 -131Q241 -133 244 -133Q248 -133 251 -129Q275 -105 295 -94T344 -83Q362 -83 384 -90Q384 -90 394 -93Q414
-100 427 -106Q430 -107 434 -109Q441 -112 445 -113L444 -112L547 -155Q570 -164 595 -164Q632 -164 670 -145T745 -82V-69ZM677 355Q666 295 644 243T587 151T505 89T399 66Q306 66 261 122T215 272Q215 312 223 355Q233 415 255 467T313 560T395 623T501 646Q595
646 640 590T685 438Q685 399 677 355Z" />
<glyph unicode="R" glyph-name="R" horiz-adv-x="604" d="M594 0Q603 0 605 10L615 67Q615 77 608 77H566Q540 77 530 109Q525 123 523 158Q523 167 522 177Q519 229 509 265T468 327Q496 335 516 346T557 374Q619 427 633 509Q637 531 637 551Q637 625 585 666T436
708H172Q162 708 160 698L150 641Q150 631 158 631H206L109 77H61Q51 77 49 67L39 10Q39 0 47 0H242Q252 0 254 10L264 67Q264 77 256 77H207L248 313H356Q395 289 407 246T422 136Q424 100 426 79T436 39T458 11T496 0H594ZM528 509Q508 395 387 395H263L304 627H428Q531
627 531 538Q531 524 528 509Z" />
<glyph unicode="S" glyph-name="S" horiz-adv-x="499" d="M512 189Q516 213 516 234Q516 303 467 347Q446 366 416 381T341 412Q275 435 247 458T219 517Q219 527 221 539Q230 587 273 615T379 644Q427 644 460 636T527 613Q528 613 529 613Q530 612 531 612Q537
612 541 617L573 677Q575 680 575 683Q575 688 570 689Q544 702 493 714T394 726Q285 726 212 674T123 529Q120 510 120 492Q120 455 134 427T173 380T227 347T298 318Q354 298 383 274T413 207Q413 198 411 186Q401 128 356 99T238 69Q187 69 147 81T67 112Q66
112 65 113Q63 113 63 113Q54 113 52 103L39 30Q39 22 43 21Q80 4 127 -7T228 -18Q343 -18 419 36T512 189Z" />
<glyph unicode="T" glyph-name="T" horiz-adv-x="536" d="M638 627Q647 627 649 637L660 698Q660 708 652 708H137Q128 708 126 698L115 637Q115 627 123 627H331L234 77H186Q177 77 175 67L165 10Q165 0 172 0H367Q377 0 379 10L389 67Q389 77 381 77H333L430 627H638Z" />
<glyph unicode="U" glyph-name="U" horiz-adv-x="717" d="M787 632Q797 632 799 641L809 699Q809 709 801 709H667Q657 709 655 699L577 253Q559 154 511 110T376 66Q302 66 267 95T232 190Q232 217 238 253L316 699Q316 709 308 709H167Q158 709 156 699L146
641Q146 632 153 632H202L133 237Q127 202 127 170Q127 79 183 31T360 -18Q496 -18 572 48T670 237L739 632H787Z" />
<glyph unicode="V" glyph-name="V" horiz-adv-x="662" d="M762 631Q772 631 774 641L784 698Q784 708 776 708H663Q656 708 654 701L361 141L268 701Q266 708 261 708H135Q126 708 124 698L114 641Q114 631 121 631H173L281 7Q283 0 289 0H371Q379 0 381 7L710 631H762Z" />
<glyph unicode="W" glyph-name="W" horiz-adv-x="999" d="M1099 631Q1109 631 1111 641L1121 698Q1121 708 1113 708H995Q987 708 985 701L733 154L677 701Q675 708 668 708H580Q571 708 569 701L317 152L261 701Q259 708 252 708H136Q126 708 124 698L114 641Q114
631 122 631H165L230 7Q232 0 239 0H328Q337 0 339 7L587 541L647 7Q649 0 656 0H745Q754 0 756 7L1052 631H1099Z" />
<glyph unicode="X" glyph-name="X" horiz-adv-x="644" d="M633 0Q643 0 645 10L655 67Q655 77 647 77H586L440 374L656 631H723Q732 631 734 641L744 698Q744 708 737 708H626Q619 708 617 704L403 450L278 704Q276 708 271 708H151Q141 708 139 698L129 641Q129
631 137 631H197L330 362L90 77H24Q15 77 13 67L3 10Q3 0 10 0H120Q125 0 129 4L366 286L505 4Q505 0 512 0H633Z" />
<glyph unicode="Y" glyph-name="Y" horiz-adv-x="585" d="M686 631Q696 631 698 641L708 698Q708 708 700 708H607Q600 708 597 703L375 406L242 703Q240 708 235 708H134Q125 708 123 698L113 641Q113 631 120 631H163L306 313L265 77H217Q207 77 205 67L195
10Q195 0 203 0H398Q408 0 410 10L420 67Q420 77 412 77H364L406 316L641 631H686Z" />
<glyph unicode="Z" glyph-name="Z" horiz-adv-x="541" d="M531 0Q541 0 543 10L554 73Q554 83 546 83H154L647 627L659 698Q659 708 651 708H165Q156 708 154 698L143 635Q143 625 150 625H530L40 84L27 10Q27 0 34 0H531Z" />
<glyph unicode="[" glyph-name="bracketleft" horiz-adv-x="236" d="M192 -140Q201 -140 203 -130L214 -69Q214 -60 206 -60H132L254 631H328Q337 631 339 641L350 702Q350 711 342 711H195Q187 711 185 702L38 -130Q38 -140 45 -140H192Z" />
<glyph unicode="\" glyph-name="backslash" horiz-adv-x="357" d="M368 8Q376 11 376 20L209 721Q208 726 201 726Q200 726 199 725Q198 725 197 725L133 702Q125 699 125 689L293 -12Q294 -18 301 -18Q301 -18 303 -17Q304 -17 304 -17L368 8Z" />
<glyph unicode="]" glyph-name="bracketright" horiz-adv-x="236" d="M160 -140Q169 -140 171 -130L318 702Q318 711 310 711H162Q155 711 153 702L142 641Q142 631 148 631H222L100 -60H26Q19 -60 17 -69L6 -130Q6 -140 12 -140H160Z" />
<glyph unicode="^" glyph-name="asciicircum" horiz-adv-x="646" d="M629 280Q638 283 638 291Q638 291 637 293Q637 294 637 294L492 692Q492 697 485 697H427Q420 697 417 692L135 294Q133 291 133 288Q133 282 137 280L191 254Q192 254 193 254Q195 253 196
253Q202 253 204 257L433 580L550 256Q551 251 557 251Q558 251 559 252Q561 252 561 252L629 280Z" />
<glyph unicode="_" glyph-name="underscore" horiz-adv-x="500" d="M469 -121Q478 -121 480 -113L490 -57Q490 -49 481 -49H1Q-8 -49 -10 -57L-20 -113Q-20 -121 -11 -121H469Z" />
<glyph unicode="`" glyph-name="grave" horiz-adv-x="480" d="M439 489Q450 489 450 500Q450 500 449 502Q449 503 449 504L349 677Q349 681 342 681H267Q256 681 256 672Q256 669 258 667L367 493Q369 489 373 489H439Z" />
<glyph unicode="a" glyph-name="a" horiz-adv-x="518" d="M525 50L510 85Q508 89 503 89Q499 89 496 87L493 85Q483 80 476 77T461 74Q450 74 450 87Q450 88 450 92Q451 98 451 101L486 300Q490 325 490 347Q490 412 450 446T327 480Q285 480 246 471T172 445Q166
442 166 432L178 383Q179 378 185 378Q186 378 188 378Q189 379 190 379Q246 404 301 404Q396 404 396 331Q396 322 394 311L389 281Q370 299 339 311T269 323Q185 323 127 277T57 156Q53 135 53 117Q53 56 92 22T204 -12Q251 -12 289 4T353 45Q359 0 418 0Q442
0 469 10T520 37L525 50ZM368 158Q361 115 323 89T236 62Q193 62 172 81T150 134Q150 145 152 156Q159 198 188 224T266 250Q316 250 342 229T369 174Q369 172 369 166Q368 161 368 158Z" />
<glyph unicode="b" glyph-name="b" horiz-adv-x="570" d="M583 238Q589 271 589 302Q589 387 543 437T404 487Q361 487 319 471T244 425L288 682Q290 693 290 703Q290 732 274 750T222 768Q200 768 174 758T121 731Q115 727 115 722Q115 721 116 720Q116 720 116
719L131 684Q133 680 138 680Q141 680 144 682Q164 694 179 694Q193 694 193 679Q193 678 192 674Q191 668 191 666L76 10Q76 0 84 0H159Q169 0 171 10L179 57Q197 26 234 7T323 -12Q373 -12 417 6T495 59T551 139T583 238ZM483 238Q470 164 431 117T327 69Q270
69 239 105T208 200Q208 219 211 238Q224 309 272 358T387 408Q439 408 463 376T488 290Q488 266 483 238Z" />
<glyph unicode="c" glyph-name="c" horiz-adv-x="437" d="M500 434Q500 435 500 437Q501 438 501 439Q501 445 497 447L493 449Q462 462 431 471T359 480Q307 480 260 462T174 411T111 332T77 234Q72 205 72 178Q72 91 123 40T271 -12Q310 -12 349 -3T420 20Q427
22 427 29L438 92Q438 102 430 102Q430 102 428 102Q426 101 425 101Q387 82 355 74T290 66Q232 66 201 100T170 192Q170 212 174 234Q187 305 231 352T346 400Q381 400 407 393T454 376Q455 376 456 376Q457 375 458 375Q465 375 468 381L500 434Z" />
<glyph unicode="d" glyph-name="d" horiz-adv-x="583" d="M602 51L587 86Q585 91 579 91Q576 91 574 89Q564 83 555 79T538 75Q526 75 526 88Q526 89 526 93Q527 99 527 102L629 682Q631 693 631 703Q631 732 615 750T563 768Q541 768 515 758T462 731Q456 727
456 722Q456 721 457 720Q457 720 457 719L471 684Q473 680 479 680Q482 680 485 682Q493 687 502 690T519 694Q533 694 533 678Q533 677 533 673Q532 669 532 666L490 425Q447 487 347 487Q299 487 256 469T179 417T123 337T90 238Q84 205 84 174Q84 88 130 38T265
-12Q308 -12 352 5T428 53Q430 27 446 14T495 0Q519 0 545 10T597 38L602 51ZM457 238Q445 167 398 118T285 68Q235 68 211 100T186 186Q186 210 191 238Q204 312 244 360T347 408Q401 408 431 372T461 278Q461 259 457 238Z" />
<glyph unicode="e" glyph-name="e" horiz-adv-x="500" d="M501 198Q511 198 513 208L518 240Q525 277 525 310Q525 393 482 436T355 480Q253 480 180 412Q146 379 123 334T89 234Q84 204 84 176Q84 91 133 40T277 -12Q333 -12 369 -4T440 20Q446 22 446 29L457
91Q457 101 450 101Q449 101 448 101Q446 100 445 100Q414 85 379 76T301 66Q239 66 211 103T182 198H501ZM339 406Q384 406 406 381T428 308Q428 291 425 272H196Q216 337 251 371T339 406Z" />
<glyph unicode="f" glyph-name="f" horiz-adv-x="296" d="M469 727Q469 728 470 730Q470 732 470 733Q470 738 467 740Q445 755 425 761T377 768Q337 768 306 754T252 716T217 663T198 603L176 476H101Q92 476 90 466L81 412Q81 403 88 403H163L94 10Q94 0 101
0H175Q184 0 186 10L255 403H353Q364 403 365 412L374 466Q374 476 366 476H268L286 576Q295 629 313 658T370 688Q384 688 400 683T426 672Q427 672 428 671Q430 671 431 671Q437 671 440 676L469 727Z" />
<glyph unicode="g" glyph-name="g" horiz-adv-x="567" d="M516 25L594 465Q594 475 586 475H512Q502 475 500 465L493 424Q450 486 350 486Q300 486 256 468T179 416T123 336T90 237Q84 203 84 172Q84 87 130 38T267 -12Q309 -12 352 4T427 49L421 19Q415 -15
404 -45T371 -100T318 -139T241 -154Q196 -154 162 -146T100 -123Q100 -123 98 -123Q97 -122 96 -122Q86 -122 85 -131L73 -196Q73 -202 78 -204Q109 -218 146 -226T232 -234Q351 -234 423 -165T516 25ZM460 237Q448 167 400 118T285 68Q234 68 210 100T185 185Q185
210 190 237Q203 311 242 359T345 407Q401 407 432 370T463 275Q463 256 460 237Z" />
<glyph unicode="h" glyph-name="h" horiz-adv-x="548" d="M570 45L555 80Q553 85 548 85Q545 85 542 83Q532 77 523 73T506 69Q493 69 493 82Q493 83 494 86Q494 90 494 92L534 315Q538 338 538 359Q538 420 501 453T387 487Q346 487 309 471T243 428L288 681Q290
693 290 704Q290 733 274 750T223 768Q201 768 174 758T121 731Q115 727 115 722Q115 721 115 720Q116 719 116 718L131 684Q133 679 138 679Q141 679 144 681Q163 694 179 694Q193 694 193 679Q193 678 192 674Q191 668 191 666L76 10Q76 0 84 0H158Q168 0 170
10L209 232Q222 307 262 356T367 406Q404 406 421 387T439 333Q439 319 436 302L435 295L399 94L398 90Q395 72 395 58Q395 27 411 11T463 -6Q487 -6 514 4T566 32L570 45Z" />
<glyph unicode="i" glyph-name="i" horiz-adv-x="248" d="M269 45L255 80Q253 85 248 85Q245 85 242 83Q234 78 225 74T208 69Q196 69 196 83Q196 84 196 88Q197 93 197 96L249 388L250 391Q252 401 252 412Q252 440 236 457T187 475Q166 475 140 465T88 438Q83
434 83 425L97 391Q99 386 104 386Q108 386 110 388Q129 401 144 401Q157 401 157 385Q157 383 157 380Q156 376 156 373L105 93V89Q101 70 101 55Q101 25 116 10T166 -6Q189 -6 215 4T265 32L269 45ZM295 643Q295 646 296 649Q296 653 296 654Q296 676 282 690T246
705Q222 705 202 687T176 643Q176 641 175 637Q175 633 175 631Q175 608 188 595T224 581Q250 581 270 598T295 643Z" />
<glyph unicode="j" glyph-name="j" horiz-adv-x="232" d="M167 -70L248 391Q250 403 250 414Q250 443 235 460T186 478Q166 478 140 468T89 441Q83 437 83 428L97 394Q99 389 104 389Q108 389 110 391Q127 403 144 403Q157 403 157 389Q157 387 156 383Q155 378
155 375L78 -62Q69 -112 54 -135T-2 -159Q-21 -159 -34 -154T-63 -140Q-63 -140 -65 -139Q-66 -139 -67 -139Q-77 -139 -78 -149L-88 -206Q-88 -213 -84 -214Q-82 -215 -81 -215Q-80 -215 -79 -216Q-61 -225 -44 -230T-1 -235Q73 -235 113 -193T167 -70ZM292 647Q292
650 293 653Q293 658 293 659Q293 682 279 697T242 713Q216 713 195 694T168 647Q168 645 167 640Q167 636 167 633Q167 610 181 596T219 582Q246 582 266 600T292 647Z" />
<glyph unicode="k" glyph-name="k" horiz-adv-x="501" d="M547 58L530 91Q528 95 524 95Q521 95 517 93Q507 86 498 81T481 76Q472 76 468 80T458 98L383 311L552 412Q556 415 556 425L532 477Q530 481 524 481Q524 481 522 481Q520 480 519 480L221 293L289 683Q291
694 291 704Q291 733 275 750T223 768Q201 768 174 758T121 731Q115 727 115 722Q115 721 115 720Q116 719 116 718L131 684Q133 679 138 679Q141 679 144 681Q163 694 179 694Q193 694 193 679Q193 678 192 674Q191 668 191 666L76 10Q76 0 84 0H159Q169 0 171
10L205 202L294 256L360 55Q379 0 431 0Q465 0 493 13T545 44L547 58Z" />
<glyph unicode="l" glyph-name="l" horiz-adv-x="234" d="M252 45L238 80Q236 85 230 85Q227 85 225 83Q214 77 205 73T190 69Q178 69 178 83Q178 85 178 89Q179 94 179 97L282 681Q284 693 284 704Q284 733 269 750T219 768Q198 768 172 758T122 731Q116 727
116 722Q116 721 116 720Q117 719 117 718L130 684Q132 679 137 679Q141 679 143 681Q162 694 177 694Q190 694 190 679Q190 678 189 674Q188 669 188 666L88 94Q84 72 84 56Q84 25 99 10T148 -6Q171 -6 197 4T247 32L252 45Z" />
<glyph unicode="m" glyph-name="m" horiz-adv-x="852" d="M875 44L859 79Q857 84 852 84Q848 84 845 82Q837 77 827 73T809 68Q798 68 798 81Q798 83 798 87Q799 92 799 95L837 311Q841 336 841 357Q841 417 806 448T695 480Q646 480 604 459T535 400Q523 439
490 459T400 480Q355 480 317 462T254 417Q252 441 237 455T190 469Q168 469 142 459T88 432Q82 428 82 423Q82 422 83 421Q83 421 83 420L97 386Q99 381 105 381Q109 381 112 383Q131 396 147 396Q161 396 161 380Q161 379 161 375Q160 371 160 368L97 10Q97 0
105 0H180Q190 0 192 10L230 229Q244 305 280 352T379 400Q413 400 427 382T442 329Q442 308 437 279L390 10Q390 0 398 0H476Q486 0 488 10L526 229Q540 305 575 352T674 400Q709 400 724 382T740 331Q740 314 736 293L700 88Q697 71 697 57Q697 26 713 10T766
-6Q790 -6 817 4T870 32L875 44Z" />
<glyph unicode="n" glyph-name="n" horiz-adv-x="567" d="M591 44L576 79Q574 84 568 84Q564 84 561 82Q553 77 543 73T526 68Q514 68 514 81Q514 82 515 84Q515 89 515 90L516 95L553 310Q557 333 557 353Q557 414 520 447T406 480Q360 480 321 461T253 412Q251
439 236 454T188 469Q167 469 141 459T88 432Q82 428 82 423Q82 422 83 421Q83 421 83 420L97 386Q99 381 105 381Q109 381 111 383Q130 396 146 396Q160 396 160 380Q160 379 160 375Q159 371 159 368L96 10Q96 0 103 0H178Q187 0 189 10L227 229Q240 303 280
351T385 400Q421 400 439 381T457 326Q457 310 453 291L418 88Q415 71 415 56Q415 26 431 10T483 -6Q507 -6 534 4T586 32L591 44Z" />
<glyph unicode="o" glyph-name="o" horiz-adv-x="519" d="M531 234Q536 265 536 293Q536 380 487 430T345 480Q238 480 165 413T71 234Q66 204 66 177Q66 90 116 39T258 -12Q365 -12 438 55T531 234ZM433 234Q421 162 378 113T271 64Q218 64 192 99T165 189Q165
211 169 234Q182 307 224 356T331 405Q384 405 410 371T437 280Q437 258 433 234Z" />
<glyph unicode="p" glyph-name="p" horiz-adv-x="584" d="M597 237Q603 270 603 301Q603 386 557 436T422 486Q378 486 334 469T256 418Q254 444 238 459T189 475Q168 475 142 465T89 438Q83 434 83 428Q83 427 84 426V425L98 391Q100 386 106 386Q109 386 111
388Q131 401 147 401Q161 401 161 384Q161 383 161 379Q160 375 160 372L56 -213Q56 -223 64 -223H139Q148 -223 150 -213L197 50Q239 -12 342 -12Q390 -12 432 6T508 59T565 138T597 237ZM496 237Q483 164 443 116T340 68Q286 68 256 104T226 197Q226 217 230
237Q243 308 290 357T402 407Q453 407 477 375T501 289Q501 265 496 237Z" />
<glyph unicode="q" glyph-name="q" horiz-adv-x="567" d="M463 -223Q472 -223 474 -213L594 465Q594 475 586 475H512Q502 475 500 465L493 424Q452 486 348 486Q299 486 256 468T178 415T122 336T90 237Q84 203 84 172Q84 87 130 38T267 -12Q308 -12 351 4T427
49L380 -213Q380 -223 389 -223H463ZM460 237Q448 167 400 118T285 68Q234 68 210 100T185 185Q185 210 190 237Q203 311 242 359T345 407Q401 407 432 370T463 275Q463 256 460 237Z" />
<glyph unicode="r" glyph-name="r" horiz-adv-x="376" d="M466 439Q468 441 468 444Q468 448 464 450Q451 461 432 467T384 474Q347 474 311 454T246 396Q246 435 233 451T187 468Q165 468 139 458T87 432Q82 427 82 422Q82 421 83 420V419L97 386Q98 381 104
381Q108 381 111 383Q126 395 145 395Q158 395 158 380Q158 378 158 375Q157 370 157 367L94 10Q94 0 102 0H175Q184 0 186 10L218 193Q226 237 245 279T289 352Q323 392 365 392Q384 392 398 386T419 374Q421 372 424 372Q431 372 434 379L466 439Z" />
<glyph unicode="s" glyph-name="s" horiz-adv-x="390" d="M403 139Q406 154 406 167Q406 215 374 240T278 282Q231 293 208 307T184 341Q184 342 184 344Q184 347 184 347Q189 375 214 390T283 406Q315 406 339 399T386 382Q388 381 390 380Q391 379 391 379Q393
377 397 377Q403 377 407 382L437 430Q439 433 439 436Q439 440 436 442Q403 462 367 471T296 480Q220 480 162 443T93 338Q91 325 91 313Q91 265 125 242T229 200Q272 188 291 177T310 142Q310 140 310 136Q309 132 309 130Q303 98 273 82T205 65Q161 65 127 78T64
112Q61 114 58 114Q49 114 48 105L36 37Q36 30 40 29L41 28Q74 11 109 0T199 -12Q233 -12 265 -4T327 23T376 71T403 139Z" />
<glyph unicode="t" glyph-name="t" horiz-adv-x="308" d="M328 28L338 83Q338 93 330 93Q329 93 327 92Q325 91 324 91Q310 83 287 77T244 70Q221 70 213 78T204 105Q204 116 207 137L254 400H365Q374 400 376 410L386 463Q386 472 377 472H266L287 592Q287 601
280 601H207Q197 601 195 592L174 472H100Q92 472 90 463L80 410Q80 400 88 400H162L113 126Q109 103 109 85Q109 37 136 15T217 -7Q243 -7 273 1T321 19L328 28Z" />
<glyph unicode="u" glyph-name="u" horiz-adv-x="566" d="M586 50L571 84Q569 89 563 89Q559 89 556 87L553 85Q543 80 536 77T521 74Q510 74 510 87Q510 88 510 92Q511 98 511 101L574 459Q574 468 566 468H492Q482 468 480 459L441 240Q428 166 388 118T284
69Q248 69 231 88T213 144Q213 159 216 178L253 386Q255 397 255 406Q255 434 238 451T186 468Q164 468 137 458T84 432Q78 428 78 422Q78 422 79 421Q79 421 79 420L93 386Q95 381 101 381Q105 381 107 383Q126 396 142 396Q156 396 156 381Q156 380 156 377Q155
373 155 372L117 158Q113 136 113 115Q113 55 150 22T264 -12Q309 -12 348 6T416 56Q417 30 432 15T478 0Q502 0 529 10T581 37L586 50Z" />
<glyph unicode="v" glyph-name="v" horiz-adv-x="502" d="M579 437Q579 438 580 439Q580 441 580 441Q580 447 576 449L517 472Q517 472 516 472Q514 473 514 473Q507 473 504 467L295 111L248 365Q248 366 248 369Q247 372 247 374Q240 421 226 444T173 468Q127
468 71 431Q65 428 65 421Q65 421 66 420Q66 419 66 418L80 385Q81 380 87 380Q88 380 90 380Q91 381 92 381Q114 392 127 392Q141 392 150 353L220 6Q222 0 228 0H311Q319 0 321 6L579 437Z" />
<glyph unicode="w" glyph-name="w" horiz-adv-x="765" d="M842 438Q842 438 843 440Q843 441 843 442Q843 448 838 450L779 472Q779 472 778 472Q777 473 776 473Q770 473 766 466L574 117L540 364Q532 418 518 443T462 468Q416 468 360 431Q355 428 355 422Q355
421 355 420Q356 418 356 418L371 386Q373 381 379 381Q382 381 385 383Q402 394 417 394Q430 394 436 387T448 356V357L449 350L287 106L251 365Q244 417 230 442T174 468Q127 468 71 431Q66 428 66 422Q66 421 66 420Q67 418 67 418L83 386Q85 381 90 381Q93
381 96 383Q110 392 127 392Q148 392 154 354L205 7Q207 0 213 0H297Q305 0 307 6L462 238L496 7Q498 0 505 0H589Q597 0 599 6L842 438Z" />
<glyph unicode="x" glyph-name="x" horiz-adv-x="483" d="M504 63L487 95Q485 100 480 100Q477 100 473 97Q454 82 435 82Q419 82 404 114L343 241L536 420Q540 424 540 429Q540 431 538 433L505 477Q503 479 499 479Q495 479 491 477L312 310L261 419Q261 420
260 421Q249 443 236 456T195 469Q171 469 143 455T89 418Q85 415 85 405L103 374Q105 370 110 370Q113 370 117 372Q137 387 154 387Q163 387 170 381T185 357L239 242L29 48Q26 44 26 39Q26 38 26 37Q27 35 27 35L60 -9Q63 -11 67 -11Q71 -11 74 -9L271 173L328
49Q338 26 352 13T395 0Q419 0 446 14T501 51L504 63Z" />
<glyph unicode="y" glyph-name="y" horiz-adv-x="544" d="M495 27L572 465Q572 475 564 475H490Q481 475 479 465L439 236Q424 164 384 117T283 70Q247 70 230 89T212 144Q212 160 216 180L253 391Q255 402 255 411Q255 440 239 457T187 475Q165 475 138 465T85
438Q79 434 79 428Q79 427 80 426V425L94 391Q96 386 101 386Q105 386 107 388Q127 401 143 401Q155 401 155 387Q155 386 155 383Q154 379 154 376L116 160Q112 137 112 116Q112 55 149 22T262 -12Q305 -12 343 6T410 53L404 18Q397 -22 386 -53T355 -106Q313
-154 230 -154Q188 -154 156 -146T97 -124Q96 -124 95 -123Q93 -123 92 -123Q84 -123 83 -132L71 -196Q71 -204 75 -205Q103 -218 139 -225T221 -233Q337 -233 404 -167T495 27Z" />
<glyph unicode="z" glyph-name="z" horiz-adv-x="433" d="M452 131L410 135Q400 135 398 128Q380 80 337 80Q319 80 294 87Q278 92 262 95T220 98Q199 98 170 90L494 408L503 459Q503 468 495 468H136Q127 468 125 459L114 398Q114 389 122 389H363L25 58L16 6Q16
-4 26 -4Q54 3 90 7T165 12Q190 12 236 2L242 1Q280 -8 307 -8Q363 -8 405 25T458 121L452 131Z" />
<glyph unicode="{" glyph-name="braceleft" horiz-adv-x="294" d="M253 -140Q262 -140 264 -130L275 -69Q275 -60 267 -60H217Q202 -60 196 -50T189 -23Q189 -11 192 6L219 158Q222 177 222 194Q222 230 210 253T178 286Q207 302 231 332T263 411L291 566Q296
596 307 613T339 631H389Q398 631 400 641L411 702Q411 711 403 711H338Q298 711 259 675T208 579L181 425Q173 381 147 353T92 324Q82 324 82 315L71 256Q71 246 78 246Q102 246 118 226T134 171Q134 158 132 145L105 -8Q102 -24 102 -39Q102 -86 127 -113T188
-140H253Z" />
<glyph unicode="|" glyph-name="bar" horiz-adv-x="176" d="M119 -18Q127 -18 129 -8L256 717Q256 726 250 726H198Q190 726 188 717L61 -8Q61 -18 67 -18H119Z" />
<glyph unicode="}" glyph-name="braceright" horiz-adv-x="294" d="M332 256L343 315Q343 324 335 324Q312 324 296 344T280 399Q280 411 282 425L309 579Q312 594 312 608Q312 655 286 683T225 711H160Q152 711 150 702L139 641Q139 631 146 631H196Q212 631
218 622T225 594Q225 583 222 566L194 411Q191 394 191 379Q191 344 204 322T235 286Q208 273 184 242T150 158L123 6Q118 -24 107 -42T74 -60H24Q16 -60 14 -69L3 -130Q3 -140 10 -140H75Q117 -140 156 -104T206 -8L233 145Q241 191 267 218T321 246L332 256Z"
/>
<glyph unicode="~" glyph-name="asciitilde" horiz-adv-x="645" d="M620 307L584 337Q583 337 582 338Q580 338 579 338Q573 338 569 333Q569 332 567 331Q566 329 565 328L566 329Q547 308 531 297T489 286Q468 286 450 291T407 309Q405 310 401 312Q393 317
389 318Q387 319 380 322Q352 334 333 339T292 345Q248 345 216 324T143 258Q141 255 141 251Q141 248 143 246L179 216Q181 214 185 214Q191 214 194 219Q195 220 196 222Q198 223 198 224L197 223Q216 244 232 255T271 266Q291 266 308 261T351 243L353 242Q357
241 365 236Q369 234 371 233Q402 219 422 213T468 206Q514 206 547 228T620 295V307Z" />
<glyph unicode="&#xa1;" glyph-name="exclamdown" horiz-adv-x="243" d="M127 -223Q135 -223 137 -213L214 249Q214 259 207 259H145Q137 259 135 249L48 -213Q48 -223 55 -223H127ZM264 418Q264 421 265 424Q265 429 265 430Q265 454 251 470T216 486Q192 486
170 466T144 418Q144 416 143 411Q143 406 143 404Q143 381 157 366T192 350Q217 350 238 370T264 418Z" />
<glyph unicode="&#xa2;" glyph-name="cent" horiz-adv-x="541" d="M567 552Q569 555 569 558Q569 563 565 565Q540 577 512 586T447 597L464 694Q464 704 456 704H407Q398 704 396 694L379 593Q292 576 231 511T153 354Q148 325 148 298Q148 224 185 176T294 114L276
9Q276 -1 283 -1H332Q342 -1 344 9L361 110Q397 112 430 121T489 141Q495 144 495 150L507 213Q507 223 499 223Q499 223 497 223Q495 222 494 222Q460 204 431 197T375 188L433 517Q488 513 524 494Q525 494 526 494Q527 493 528 493Q534 493 537 499L567 552ZM248
354Q259 410 288 451T364 508L309 198Q244 227 244 314Q244 332 248 354Z" />
<glyph unicode="&#xa3;" glyph-name="sterling" horiz-adv-x="541" d="M548 135L502 142Q494 142 491 135Q479 109 461 98T416 86Q395 86 357 96L351 98Q332 103 316 106T278 109Q250 109 220 103Q241 135 258 175T284 262Q286 270 288 288L291 324H453Q463 324
465 334L475 394Q475 394 475 396Q476 397 476 397Q476 404 467 404H300L309 472Q311 486 312 492Q324 561 358 599T455 637Q493 637 522 627T584 595Q584 595 586 594Q587 594 588 594Q594 594 597 598L637 645Q640 648 640 653Q640 657 637 659Q603 687 565 703T470
720Q428 720 388 708T312 668T252 601T218 507L216 491L204 404H106Q97 404 94 394L84 334Q84 324 92 324H194L190 281L188 273Q186 262 184 248Q182 234 180 223Q175 192 166 168T140 125Q123 105 102 93T47 69Q39 66 39 60L29 6Q29 -4 39 -4Q94 11 128 17T206
24Q227 24 250 20T299 7Q352 -8 381 -8Q447 -8 495 27T555 126L548 135Z" />
<glyph unicode="&#xa5;" glyph-name="yen" horiz-adv-x="550" d="M664 631Q674 631 676 641L686 698Q686 708 678 708H587Q580 708 578 703L366 398L248 703Q246 708 240 708H141Q132 708 130 698L120 641Q120 631 127 631H169L274 373H166Q157 373 155 364L146
312Q146 302 153 302H299L289 243H143Q134 243 132 233L123 182Q123 172 130 172H276L260 77H212Q202 77 200 67L190 10Q190 0 198 0H389Q399 0 401 10L411 67Q411 77 403 77H355L371 172H518Q528 172 530 182L539 233Q539 243 531 243H384L394 302H541Q551 302
553 312L562 364Q562 373 554 373H441L619 631H664Z" />
<glyph unicode="&#xa7;" glyph-name="section" horiz-adv-x="529" d="M524 289Q527 307 527 323Q527 367 504 397T437 454L329 520Q311 531 300 543T289 572Q289 574 290 577Q290 581 290 582Q296 618 325 635T399 652Q434 652 468 642T536 613Q537 613 538 613Q539
612 540 612Q547 612 550 618L583 668Q585 671 585 673Q585 677 581 680Q549 700 508 714T410 729Q332 729 271 691T197 582Q194 563 194 549Q194 516 209 493T258 446Q203 422 170 385T128 303Q125 286 125 272Q125 228 147 199T209 144L315 79Q341 64 353 50T366
15Q366 14 366 9Q365 6 365 3Q359 -30 328 -46T251 -62Q204 -62 168 -51T88 -16Q88 -16 86 -16Q85 -15 84 -15Q75 -15 74 -24L62 -93Q62 -101 66 -102Q109 -122 147 -131T243 -141Q280 -141 316 -131T381 -102Q446 -60 458 9Q461 26 461 40Q461 74 445 98T395 147Q451
172 483 208T524 289ZM431 283Q425 250 398 226T328 190L299 207Q257 234 240 251T222 293Q222 301 224 310Q230 343 256 367T322 405L356 385Q398 360 415 343T433 299Q433 296 432 292Q431 286 431 283Z" />
<glyph unicode="&#xa8;" glyph-name="dieresis" horiz-adv-x="491" d="M511 586Q511 588 511 590Q512 592 512 594Q512 614 498 627T461 640Q436 640 416 624T391 586Q391 585 391 582Q390 580 390 578Q390 558 404 545T442 532Q467 532 487 548T511 586ZM325
586Q325 588 325 590Q326 592 326 594Q326 614 312 627T275 640Q250 640 230 624T205 586Q205 585 205 582Q204 580 204 578Q204 558 219 545T256 532Q281 532 301 548T325 586Z" />
<glyph unicode="&#xa9;" glyph-name="copyright" horiz-adv-x="785" d="M836 354Q842 388 842 422Q842 488 819 544T754 641T654 704T530 726Q456 726 383 698T249 620T147 501T92 354Q86 321 86 288Q86 222 109 166T174 68T274 5T399 -18Q474 -18 546 10T679
88T781 207T836 354ZM752 354Q742 292 710 237T631 141T528 78T412 55Q360 55 316 73T239 124T189 201T171 299Q171 326 176 354Q187 417 219 472T298 568T401 631T517 654Q570 654 614 636T690 586T739 508T757 411Q757 383 752 354ZM640 547Q642 550 642 553Q642
558 638 560Q612 573 583 580T514 587Q465 587 421 570T342 523T282 449T248 354Q244 329 244 304Q244 221 294 172T431 122Q471 122 504 129T564 149Q569 151 571 158L581 215Q581 225 574 225Q573 225 572 225Q570 224 569 224Q538 210 512 203T452 196Q400 196
369 226T337 314Q337 333 340 353Q353 423 396 468T504 513Q527 513 549 509T598 494Q599 494 600 494Q601 493 602 493Q609 493 612 499L640 547Z" />
<glyph unicode="&#xaa;" glyph-name="ordfeminine" horiz-adv-x="352" d="M424 444L415 465Q413 469 408 469Q405 469 402 467Q401 466 399 465Q390 460 386 460Q386 461 387 465Q387 469 387 472L408 588Q410 602 410 614Q410 655 383 677T299 699Q246 699 199
678Q191 675 191 670L192 669Q192 668 192 667L197 632Q199 626 205 626Q206 626 208 626Q209 627 210 627Q238 639 277 639Q306 639 320 629T335 600Q335 599 334 596Q334 593 334 591L333 585Q306 605 260 605Q204 605 168 577T124 504Q122 492 122 482Q122 445
148 424T223 403Q253 403 277 412T318 434Q324 409 358 409Q374 409 391 415T421 433L424 444ZM319 505Q315 484 298 472T251 459Q224 459 211 468T198 494Q198 495 199 499Q199 502 199 504Q202 525 218 537T264 550Q293 550 306 540T320 513Q320 511 319 509Q319
506 319 505Z" />
<glyph unicode="&#xab;" glyph-name="guillemotleft" horiz-adv-x="481" d="M448 61Q454 64 454 70Q454 71 453 72Q453 73 453 74L374 239L511 404Q514 408 514 411Q514 415 511 417L465 451Q462 453 459 453Q454 453 452 449L280 245Q278 242 278 233L378 29Q379
25 383 25Q386 25 390 27L448 61ZM271 61Q277 64 277 70Q277 71 276 72Q276 73 276 74L197 239L334 404Q337 408 337 411Q337 415 334 417L288 451Q285 453 282 453Q278 453 275 449L103 245Q101 242 101 233L201 29Q203 25 206 25Q209 25 213 27L271 61Z" />
<glyph unicode="&#xac;" glyph-name="logicalnot" horiz-adv-x="549" d="M555 172Q565 172 567 181L605 396Q605 405 596 405H94Q85 405 83 396L71 330Q71 320 79 320H501L477 181Q477 172 484 172H555Z" />
<glyph unicode="&#xae;" glyph-name="registered" horiz-adv-x="785" d="M836 354Q842 388 842 422Q842 488 819 544T754 641T654 704T530 726Q456 726 383 698T249 620T147 501T92 354Q86 321 86 288Q86 222 109 166T174 68T274 5T399 -18Q474 -18 546 10T679
88T781 207T836 354ZM552 133H622Q576 96 522 76T412 55Q360 55 316 73T239 124T189 201T171 299Q171 326 176 354Q187 417 219 472T298 568T401 631T517 654Q570 654 614 636T690 586T739 508T757 411Q757 383 752 354Q742 293 710 238T632 141L640 186Q640 196
632 196H612Q597 196 592 207T584 245V247L583 252Q580 282 574 302T550 336Q580 346 604 365Q645 398 654 450Q657 464 657 477Q657 577 516 577H325Q315 577 313 567L305 524Q305 514 314 514H344L288 196H258Q248 196 246 186L238 143Q238 133 246 133H386Q396
133 398 143L406 186Q406 196 398 196H369L391 323H452Q477 310 485 285T497 220Q500 175 509 154T552 133ZM565 453Q553 388 475 388H402L424 512H497Q566 512 566 467Q566 465 566 460Q565 456 565 453Z" />
<glyph unicode="&#xaf;" glyph-name="overscore" horiz-adv-x="493" d="M491 443Q501 443 503 451L511 498Q511 505 502 505H187Q179 505 177 498L169 451Q169 443 176 443H491Z" />
<glyph unicode="&#xb0;" glyph-name="degree" horiz-adv-x="379" d="M447 593Q449 607 449 619Q449 670 416 703T329 736Q269 736 221 695T161 593Q158 579 158 566Q158 516 191 483T278 450Q308 450 336 461T387 492Q436 533 447 593ZM372 593Q367 563 343 542T291
521Q267 521 251 537T235 580Q235 582 235 586Q236 591 236 593Q241 624 264 645T316 666Q341 666 357 649T373 606Q373 604 373 600Q372 595 372 593Z" />
<glyph unicode="&#xb1;" glyph-name="plusminus" horiz-adv-x="549" d="M586 292Q596 292 598 301L610 371Q610 381 602 381H396L427 554Q427 564 419 564H347Q339 564 337 554L306 381H100Q90 381 88 371L76 301Q76 292 84 292H290L260 118Q260 108 267 108H339Q348
108 350 118L380 292H586ZM535 0Q545 0 547 10L559 79Q559 89 551 89H49Q39 89 37 79L25 10Q25 0 33 0H535Z" />
<glyph unicode="&#xb4;" glyph-name="acute" horiz-adv-x="480" d="M477 667Q480 670 480 674Q480 681 472 681H396Q392 681 388 677L228 504Q225 500 225 496Q225 489 232 489H297Q305 489 305 493L477 667Z" />
<glyph unicode="&#xb5;" glyph-name="mu" horiz-adv-x="566" d="M586 51L571 86Q569 90 563 90Q560 90 557 88Q554 87 551 85Q542 81 535 78T521 75Q510 75 510 88Q510 89 510 93Q511 99 511 102L575 465Q575 474 567 474H493Q483 474 481 465L442 243Q429 168
390 119T286 70Q249 70 233 90T216 145Q216 161 219 180L255 388Q257 400 257 411Q257 439 241 456T189 474Q167 474 140 464T87 438Q81 434 81 428Q81 427 82 426V425L96 391Q98 386 104 386Q108 386 110 388Q129 401 145 401Q158 401 158 384Q158 383 158 379Q157
375 157 372L53 -218Q53 -228 60 -228H131Q141 -228 143 -218L186 26Q200 9 224 -1T284 -12Q323 -12 356 6T416 54Q418 29 433 15T478 0Q502 0 529 10T581 38L586 51Z" />
<glyph unicode="&#xb6;" glyph-name="paragraph" horiz-adv-x="621" d="M604 -88L591 -48Q588 -43 583 -43Q579 -43 576 -45Q566 -51 556 -55T539 -59Q525 -59 525 -45Q525 -40 527 -31L644 636H692Q703 636 704 645L714 703Q714 713 706 713H440Q375 713 319
691T220 628T147 529T105 403Q100 371 100 341Q100 248 148 186T277 115L233 -135Q229 -157 229 -173Q229 -204 244 -219T295 -234Q319 -234 345 -224T396 -196Q402 -192 402 -183L388 -143Q386 -138 380 -138Q376 -138 373 -140Q365 -145 355 -149T337 -154Q323
-154 323 -140Q323 -138 323 -134Q324 -129 324 -126L458 633H553L434 -40Q430 -62 430 -78Q430 -109 445 -124T496 -139Q520 -139 546 -129T599 -101L604 -88Z" />
<glyph unicode="&#xb7;" glyph-name="middot" horiz-adv-x="243" d="M238 273Q234 249 213 231T168 213Q147 213 132 227T117 263Q117 265 118 268V273Q123 298 143 315T189 333Q211 333 225 319T239 284V279Q238 276 238 273Z" />
<glyph unicode="&#xb8;" glyph-name="cedilla" horiz-adv-x="481" d="M346 -110Q346 -108 347 -103Q347 -99 347 -97Q347 -66 324 -50T271 -33H255L293 4Q296 7 296 11Q296 18 287 18H246Q242 18 239 15L159 -67Q156 -70 156 -74Q156 -77 158 -79L175 -98Q177
-101 181 -101Q182 -101 183 -100Q184 -100 184 -100Q211 -88 232 -88Q247 -88 257 -92T267 -107Q267 -108 266 -109Q266 -112 266 -112Q264 -126 249 -131T208 -136Q188 -136 166 -131T126 -117Q126 -117 124 -117Q123 -116 122 -116Q113 -116 112 -125L104 -170Q104
-177 109 -179Q137 -189 160 -194T210 -199Q262 -199 300 -178T346 -110Z" />
<glyph unicode="&#xba;" glyph-name="ordmasculine" horiz-adv-x="351" d="M436 551Q439 567 439 582Q439 635 405 667T308 699Q237 699 188 658T128 551Q125 535 125 520Q125 467 159 435T256 403Q327 403 376 444T436 551ZM358 551Q352 511 330 487T267 463Q234
463 219 480T204 526Q204 538 206 551Q213 591 236 615T298 640Q330 640 345 623T361 577Q361 565 358 551Z" />
<glyph unicode="&#xbb;" glyph-name="guillemotright" horiz-adv-x="481" d="M304 233Q307 236 307 241Q307 242 306 243Q306 245 306 245L206 449Q205 453 201 453Q198 453 195 451L137 417Q130 414 130 408Q130 407 131 406Q131 405 131 404L209 239L73 74Q70
70 70 67Q70 63 74 61L120 27Q123 25 126 25Q130 25 132 29L304 233ZM481 233Q484 236 484 241Q484 242 483 243Q483 245 483 245L383 449Q381 453 378 453Q375 453 372 451L314 417Q307 414 307 408Q307 407 308 406Q308 405 308 404L386 239L250 74Q247 70 247
67Q247 63 251 61L297 27Q300 25 302 25Q306 25 309 29L481 233Z" />
<glyph unicode="&#xbf;" glyph-name="questiondown" horiz-adv-x="465" d="M445 -128L416 -87Q413 -84 409 -84Q405 -84 402 -87Q373 -112 334 -132T252 -152Q203 -152 179 -133T155 -76Q155 -65 157 -54Q163 -20 186 7T252 71L266 84Q312 124 331 155T358 234L367
281Q367 291 359 291H284Q276 291 274 281L266 240Q260 206 245 183T202 137Q139 87 105 44T59 -60Q56 -79 56 -97Q56 -163 102 -198T229 -234Q295 -234 349 -207T443 -142L445 -128ZM411 418Q411 419 412 423Q412 427 412 429Q412 453 396 469T357 486Q330 486
306 466T278 418Q278 416 277 411Q277 407 277 405Q277 381 292 366T333 350Q360 350 383 370T411 418Z" />
<glyph unicode="&#xc0;" glyph-name="Agrave" horiz-adv-x="660" d="M650 0Q660 0 662 10L672 67Q672 77 664 77H613L510 705Q510 712 503 712H421Q415 712 410 705L72 77H23Q14 77 12 67L2 10Q2 0 9 0H118Q126 0 128 7L252 242H483L518 7Q520 0 527 0H650ZM579
741Q590 741 592 751L602 808Q602 816 596 817L304 880Q293 880 290 870L278 799Q278 790 284 789L579 741ZM433 582L469 326H295L433 582Z" />
<glyph unicode="&#xc1;" glyph-name="Aacute" horiz-adv-x="660" d="M650 0Q660 0 662 10L672 67Q672 77 664 77H613L510 705Q510 712 503 712H421Q415 712 410 705L72 77H23Q14 77 12 67L2 10Q2 0 9 0H118Q126 0 128 7L252 242H483L518 7Q520 0 527 0H650ZM642
789Q650 791 652 799L664 870Q664 880 655 880L341 817Q333 815 331 808L321 751Q321 741 332 741L642 789ZM433 582L469 326H295L433 582Z" />
<glyph unicode="&#xc2;" glyph-name="Acircumflex" horiz-adv-x="660" d="M650 0Q660 0 662 10L672 68Q672 77 664 77H613L510 705Q510 712 503 712H421Q415 712 410 705L72 77H23Q14 77 12 68L2 10Q2 0 9 0H118Q126 0 128 7L252 242H483L518 7Q520 0 527 0H650ZM654
744Q667 744 668 753L677 808Q677 816 674 817L496 900Q496 900 494 900Q493 901 493 901Q492 901 491 900Q489 900 489 900L283 817Q278 815 276 808L267 753Q267 744 277 744L477 810L654 744ZM433 582L469 326H295L433 582Z" />
<glyph unicode="&#xc3;" glyph-name="Atilde" horiz-adv-x="660" d="M650 0Q660 0 662 10L672 67Q672 77 664 77H613L510 705Q510 712 503 712H421Q415 712 410 705L72 77H23Q14 77 12 67L2 10Q2 0 9 0H118Q126 0 128 7L252 242H483L518 7Q520 0 527 0H650ZM670
886H620Q613 886 609 878Q602 860 591 849T564 838Q547 838 533 841T497 851L495 852V851L487 854Q465 862 447 865T400 869Q349 869 314 834T266 751Q266 750 266 749L265 747Q265 740 273 740H324Q333 740 335 748Q342 765 353 776T384 788Q406 788 439 778L441
777L440 778Q445 776 454 774Q456 773 457 773Q458 773 463 772Q467 770 468 770L471 769Q492 764 509 761T552 757Q600 757 632 792T678 875L670 886ZM433 582L469 326H295L433 582Z" />
<glyph unicode="&#xc4;" glyph-name="Adieresis" horiz-adv-x="660" d="M650 0Q660 0 662 10L672 67Q672 77 664 77H613L510 705Q510 712 503 712H421Q415 712 410 705L72 77H23Q14 77 12 67L2 10Q2 0 9 0H118Q126 0 128 7L251 241H482L518 7Q520 0 527 0H650ZM433
582L469 325H295L433 582ZM418 803Q418 806 419 809Q419 813 419 814Q419 836 405 851T367 866Q341 866 320 848T294 803Q294 802 293 797Q293 793 293 791Q293 769 307 755T345 741Q371 741 392 759T418 803ZM656 803Q656 806 657 809Q657 813 657 814Q657 836
643 851T605 866Q579 866 558 848T532 803Q532 802 531 797Q531 793 531 791Q531 769 545 755T583 741Q609 741 630 759T656 803Z" />
<glyph unicode="&#xc5;" glyph-name="Aring" horiz-adv-x="662" d="M651 0Q661 0 663 10L673 67Q673 77 665 77H614L518 667Q543 682 560 707T583 762Q585 772 585 782Q585 822 559 848T490 875Q442 875 404 842T358 762Q356 752 356 741Q356 694 391 668L73 77H24Q15
77 13 67L3 10Q3 0 10 0H119Q127 0 129 7L252 241H483L519 7Q521 0 528 0H651ZM434 582L470 326H296L434 582ZM521 762Q517 741 501 728T467 712H459Q442 713 431 724T419 753Q419 754 420 757Q420 760 420 762Q424 783 442 797T479 812Q497 812 509 800T522 770Q522
768 521 766Q521 763 521 762Z" />
<glyph unicode="&#xc6;" glyph-name="AE" horiz-adv-x="927" d="M915 0Q925 0 927 10L938 71Q938 81 929 81H615L659 330H912Q922 330 924 339L935 402Q935 411 926 411H673L712 627H993Q1002 627 1004 637L1015 698Q1015 708 1007 708H475Q466 708 464 698L455
644Q455 644 455 642Q455 641 455 641Q455 634 462 634H516L77 77H27Q17 77 15 67L5 10Q5 0 13 0H112Q119 0 121 5L276 202H540L518 77H468Q458 77 456 67L446 10Q446 0 454 0H915ZM609 631H615L554 285H340L609 631Z" />
<glyph unicode="&#xc7;" glyph-name="Ccedilla" horiz-adv-x="608" d="M707 676Q709 679 709 682Q709 687 704 688Q661 708 618 719T516 731Q443 731 376 704T255 627T165 508T114 356Q106 309 106 266Q106 155 159 83T308 -11L244 -69Q241 -72 241 -76Q241 -77
241 -79Q242 -81 242 -82L258 -105Q260 -107 267 -107Q269 -106 276 -105Q283 -103 286 -102L285 -103L289 -102Q317 -94 332 -94Q350 -94 362 -100T374 -121Q371 -136 352 -142T305 -148Q282 -148 257 -142T207 -127Q193 -127 192 -137L183 -188Q183 -197 188
-198Q221 -208 249 -213T311 -218Q367 -218 411 -194T465 -120Q465 -118 466 -113Q466 -108 466 -106Q466 -73 440 -54T379 -35H356L382 -18Q443 -18 494 -6T586 26Q592 28 592 35L605 109Q605 119 597 119Q597 119 595 119Q593 118 593 118Q548 96 506 84T409
71Q320 71 268 130T215 289Q215 321 221 356Q232 417 257 469T319 561T403 621T505 643Q552 643 588 634T658 609Q659 609 660 609Q661 608 662 608Q669 608 672 614L707 676Z" />
<glyph unicode="&#xc8;" glyph-name="Egrave" horiz-adv-x="546" d="M535 0Q544 0 546 10L557 71Q557 81 549 81H216L260 331H533Q543 331 545 341L556 404Q556 414 548 414H275L313 631H613Q622 631 624 640L635 702Q635 712 628 712H182Q172 712 170 702L160
644Q160 644 160 642Q160 642 160 641Q160 635 168 635H216L118 77H70Q60 77 58 67L48 10Q48 0 56 0H535ZM585 741Q595 741 597 751L607 808Q607 815 602 817L313 880Q302 880 299 870L287 799Q287 790 293 789L585 741Z" />
<glyph unicode="&#xc9;" glyph-name="Eacute" horiz-adv-x="546" d="M535 0Q544 0 546 10L557 71Q557 81 549 81H216L260 331H533Q543 331 545 341L556 404Q556 414 548 414H275L313 631H613Q622 631 624 640L635 702Q635 712 628 712H182Q172 712 170 702L160
644Q160 644 160 642Q160 642 160 641Q160 635 168 635H216L118 77H70Q60 77 58 67L48 10Q48 0 56 0H535ZM600 789Q607 791 609 799L621 870Q621 880 612 880L301 817Q293 815 291 808L281 751Q281 741 292 741L600 789Z" />
<glyph unicode="&#xca;" glyph-name="Ecircumflex" horiz-adv-x="546" d="M535 0Q544 0 546 10L557 71Q557 81 549 81H216L261 332H534Q543 332 545 341L556 404Q556 414 548 414H275L313 631H613Q622 631 624 641L635 702Q635 712 628 712H182Q172 712 170 702L160
645Q160 635 168 635H216L118 77H70Q60 77 58 68L48 10Q48 0 56 0H535ZM615 744Q628 744 629 753L638 808Q638 816 634 817L459 900Q458 900 457 900Q456 901 455 901Q454 901 453 900Q452 900 451 900L248 817Q242 815 240 808L231 753Q231 744 242 744L439 810L615
744Z" />
<glyph unicode="&#xcb;" glyph-name="Edieresis" horiz-adv-x="546" d="M535 0Q544 0 546 10L557 71Q557 81 549 81H216L260 331H533Q543 331 545 341L556 404Q556 413 548 413H275L313 630H613Q622 630 624 640L635 702Q635 712 628 712H182Q172 712 170 702L160
644Q160 644 160 642Q160 641 160 641Q160 634 168 634H216L118 77H70Q60 77 58 67L48 10Q48 0 56 0H535ZM387 803Q387 806 388 809Q388 813 388 814Q388 836 374 851T337 866Q311 866 290 848T264 803Q264 802 263 797Q263 793 263 791Q263 769 277 755T315 741Q340
741 361 759T387 803ZM623 803Q623 806 624 809Q624 813 624 814Q624 836 610 851T572 866Q547 866 526 848T500 803Q500 802 499 797Q499 793 499 791Q499 769 513 755T550 741Q576 741 597 759T623 803Z" />
<glyph unicode="&#xcc;" glyph-name="Igrave" horiz-adv-x="282" d="M246 0Q256 0 258 10L268 67Q268 77 260 77H212L310 635H358Q367 635 370 644L380 702Q380 712 372 712H181Q171 712 169 702L159 644Q159 644 159 642Q159 642 159 641Q159 635 167 635H214L116
77H69Q59 77 57 67L47 10Q47 0 55 0H246ZM398 741Q408 741 410 751L420 808Q420 815 415 817L132 880Q122 880 119 870L107 799Q107 790 113 789L398 741Z" />
<glyph unicode="&#xcd;" glyph-name="Iacute" horiz-adv-x="282" d="M246 0Q256 0 258 10L268 67Q268 77 260 77H212L310 635H358Q367 635 370 644L380 702Q380 712 372 712H181Q171 712 169 702L159 644Q159 644 159 642Q159 642 159 641Q159 635 167 635H214L116
77H69Q59 77 57 67L47 10Q47 0 55 0H246ZM443 789Q450 791 452 799L464 870Q464 880 455 880L151 817Q143 815 141 808L131 751Q131 741 141 741L443 789Z" />
<glyph unicode="&#xce;" glyph-name="Icircumflex" horiz-adv-x="286" d="M249 0Q259 0 261 10L271 68Q271 77 263 77H215L313 635H361Q371 635 373 645L383 702Q383 712 375 712H181Q172 712 170 702L160 645Q160 635 167 635H216L118 77H69Q60 77 58 68L48 10Q48
0 55 0H249ZM470 744Q483 744 484 753L493 808Q493 816 489 817L316 900Q315 900 314 900Q313 901 312 901Q311 901 310 900Q309 900 308 900L107 817Q101 815 99 808L90 753Q90 744 101 744L296 810L470 744Z" />
<glyph unicode="&#xcf;" glyph-name="Idieresis" horiz-adv-x="284" d="M248 0Q257 0 259 10L269 67Q269 77 262 77H214L312 634H360Q368 634 371 644L381 702Q381 712 374 712H181Q171 712 169 702L159 644Q159 644 159 642Q159 641 159 641Q159 634 167 634H215L117
77H69Q59 77 57 67L47 10Q47 0 55 0H248ZM239 803Q239 806 240 809Q240 813 240 814Q240 836 226 851T189 866Q164 866 143 848T117 803Q117 802 116 797Q116 793 116 791Q116 769 130 755T167 741Q192 741 213 759T239 803ZM470 803Q470 806 471 809Q471 814 471
814Q471 836 457 851T421 866Q396 866 375 848T349 803Q349 802 348 797Q348 793 348 791Q348 769 362 755T399 741Q424 741 444 759T470 803Z" />
<glyph unicode="&#xd1;" glyph-name="Ntilde" horiz-adv-x="764" d="M834 635Q844 635 846 644L856 702Q856 712 848 712H716Q706 712 704 702L606 147L336 708Q334 712 329 712H172Q163 712 161 702L151 644Q151 635 158 635H207L109 77H60Q51 77 49 67L39 10Q39
0 46 0H179Q188 0 190 10L288 566L559 4Q559 0 565 0H664Q673 0 675 10L785 635H834ZM736 886H685Q679 886 675 878Q668 860 657 849T630 838Q612 838 597 841T560 852Q558 853 555 854Q552 855 550 856H551Q532 863 514 866T466 869Q416 869 381 834T331 751Q331
751 331 749Q331 748 331 748Q331 740 339 740H389Q397 740 401 748Q408 765 419 776T450 788Q472 788 507 777L506 778Q511 776 520 774Q522 773 523 773Q529 771 533 770L538 769Q560 763 577 760T618 757Q666 757 698 792T744 875L736 886Z" />
<glyph unicode="&#xd2;" glyph-name="Ograve" horiz-adv-x="754" d="M784 356Q793 405 793 449Q793 578 722 654T515 730Q435 730 367 703T248 625T162 506T114 356Q105 307 105 263Q105 134 176 58T383 -18Q464 -18 532 9T651 87T736 206T784 356ZM677 356Q666
296 644 244T587 152T505 90T398 67Q305 67 260 123T214 273Q214 313 222 356Q232 416 254 468T312 561T394 623T500 646Q594 646 639 590T685 438Q685 399 677 356ZM649 741Q659 741 661 751L671 808Q671 817 665 818L373 880Q363 880 361 871L348 799Q348 790
354 789L649 741Z" />
<glyph unicode="&#xd3;" glyph-name="Oacute" horiz-adv-x="754" d="M784 356Q793 405 793 449Q793 578 722 654T515 730Q435 730 367 703T248 625T162 506T114 356Q105 307 105 263Q105 134 176 58T383 -18Q464 -18 532 9T651 87T736 206T784 356ZM677 356Q666
296 644 244T587 152T505 90T398 67Q305 67 260 123T214 273Q214 313 222 356Q232 416 254 468T312 561T394 623T500 646Q594 646 639 590T685 438Q685 399 677 356ZM698 789Q706 791 708 799L721 871Q721 880 710 880L396 818Q389 816 387 808L377 751Q377 741
387 741L698 789Z" />
<glyph unicode="&#xd4;" glyph-name="Ocircumflex" horiz-adv-x="754" d="M784 356Q793 405 793 450Q793 579 722 654T515 730Q435 730 367 703T248 625T162 507T114 356Q105 307 105 263Q105 134 176 58T383 -18Q464 -18 532 9T651 87T736 206T784 356ZM677 356Q666
296 644 244T587 152T505 90T398 67Q305 67 260 123T214 273Q214 313 222 356Q232 416 254 468T312 561T394 623T500 646Q594 646 639 590T685 438Q685 399 677 356ZM708 745Q708 745 710 745Q711 745 712 745Q721 745 722 754L731 808Q731 816 728 817L550 900Q549
900 548 900Q547 901 546 901Q545 901 544 900H543L337 817Q331 815 329 808L320 754Q320 745 328 745Q328 745 329 745Q331 745 331 745L530 810L708 745Z" />
<glyph unicode="&#xd5;" glyph-name="Otilde" horiz-adv-x="754" d="M784 356Q793 405 793 449Q793 578 722 654T515 730Q435 730 367 703T248 625T162 506T114 356Q105 307 105 263Q105 134 176 58T383 -18Q464 -18 532 9T651 87T736 206T784 356ZM677 356Q666
296 644 244T587 152T505 90T398 67Q305 67 260 123T214 273Q214 313 222 356Q232 416 254 468T312 561T394 623T500 646Q594 646 639 590T685 438Q685 399 677 356ZM739 886H688Q682 886 677 879Q671 861 661 850T633 838Q614 838 600 841T563 852Q561 853 558
854Q555 855 553 856H554Q534 863 516 866T469 870Q419 870 384 834T334 751Q334 741 343 741H393Q399 741 404 748Q411 766 422 777T453 789Q473 789 505 779Q508 779 510 778L509 779Q520 774 525 773Q526 773 531 772Q535 770 536 770H537Q562 763 579 760T620
757Q668 757 700 792T746 876L739 886Z" />
<glyph unicode="&#xd6;" glyph-name="Odieresis" horiz-adv-x="754" d="M784 356Q793 405 793 449Q793 578 722 653T515 729Q434 729 367 702T248 624T162 506T114 356Q105 307 105 263Q105 134 176 58T383 -18Q464 -18 532 9T651 87T736 206T784 356ZM677 356Q666
296 644 244T587 151T505 89T398 66Q305 66 260 122T214 273Q214 312 222 356Q232 416 254 468T312 560T394 622T500 645Q594 645 639 589T685 438Q685 399 677 356ZM713 804Q713 807 714 810Q714 814 714 815Q714 836 700 851T662 866Q636 866 615 848T589 804Q589
801 589 798Q588 794 588 793Q588 770 602 756T640 741Q666 741 687 759T713 804ZM475 804Q475 807 476 810Q476 814 476 815Q476 836 462 851T424 866Q398 866 377 848T351 804Q351 801 351 798Q350 794 350 793Q350 770 364 756T402 741Q428 741 449 759T475
804Z" />
<glyph unicode="&#xd8;" glyph-name="Oslash" horiz-adv-x="754" d="M784 355Q792 404 792 448Q792 542 755 606L833 683Q837 686 837 690Q837 694 834 697L797 733Q795 735 793 735Q788 735 783 731L712 661Q640 727 514 727Q434 727 366 700T247 622T162 504T114
355Q105 306 105 262Q105 168 143 103L66 27Q63 24 63 20Q63 18 65 15L99 -22Q101 -25 105 -25Q110 -25 113 -21L186 50Q259 -18 383 -18Q464 -18 532 9T651 87T736 205T784 355ZM677 355Q666 295 644 243T587 151T505 89T398 66Q308 66 259 121L672 525Q684 484
684 433Q684 395 677 355ZM222 355Q232 414 254 466T311 558T393 620T499 643Q591 643 638 588L226 184Q214 224 214 272Q214 311 222 355Z" />
<glyph unicode="&#xd9;" glyph-name="Ugrave" horiz-adv-x="717" d="M789 635Q799 635 801 645L811 702Q811 712 803 712H669Q659 712 657 702L578 254Q560 155 512 111T377 67Q303 67 268 96T233 190Q233 218 239 254L318 702Q318 712 310 712H169Q160 712 158
702L148 645Q148 635 155 635H204L134 239Q128 203 128 171Q128 79 184 30T361 -19Q497 -19 573 47T671 239L741 635H789ZM631 742Q643 742 644 751L654 808Q654 817 648 818L357 880Q346 880 344 871L331 799Q331 790 337 789L631 742Z" />
<glyph unicode="&#xda;" glyph-name="Uacute" horiz-adv-x="717" d="M797 635Q807 635 809 645L819 702Q819 712 811 712H677Q667 712 665 702L586 254Q568 155 520 111T385 67Q311 67 276 96T241 190Q241 218 247 254L326 702Q326 712 318 712H177Q168 712 166
702L156 645Q156 635 163 635H212L142 239Q136 203 136 171Q136 79 192 30T369 -19Q505 -19 581 47T679 239L749 635H797ZM712 789Q720 791 722 799L735 871Q735 880 725 880L411 818Q403 816 401 808L391 751Q391 742 402 742L712 789Z" />
<glyph unicode="&#xdb;" glyph-name="Ucircumflex" horiz-adv-x="717" d="M791 635Q801 635 803 645L813 703Q813 713 805 713H671Q661 713 659 703L580 254Q562 155 514 111T379 67Q305 67 270 96T235 190Q235 218 241 254L320 703Q320 713 312 713H171Q162 713
160 703L150 645Q150 635 157 635H206L136 239Q130 203 130 171Q130 79 186 30T363 -19Q499 -19 575 47T673 239L743 635H791ZM688 745Q688 745 690 745Q691 745 692 745Q701 745 702 754L711 808Q711 816 708 817L530 900Q530 900 528 900Q527 901 527 901Q526
901 525 900Q523 900 523 900L318 817Q312 815 310 808L301 754Q301 745 308 745Q309 745 310 745Q311 745 311 745L511 810L688 745Z" />
<glyph unicode="&#xdc;" glyph-name="Udieresis" horiz-adv-x="717" d="M797 635Q807 635 809 644L819 702Q819 712 811 712H677Q667 712 665 702L586 254Q568 155 520 111T385 66Q311 66 276 95T241 190Q241 218 247 254L326 702Q326 712 318 712H177Q168 712
166 702L156 644Q156 635 163 635H212L142 239Q136 203 136 171Q136 79 192 30T369 -19Q505 -19 581 47T679 239L749 635H797ZM457 804Q457 807 458 810Q458 814 458 815Q458 836 444 851T406 866Q380 866 359 848T333 804Q333 801 333 798Q332 794 332 793Q332
770 346 756T384 741Q410 741 431 759T457 804ZM695 804Q695 807 696 810Q696 814 696 815Q696 836 682 851T644 866Q618 866 597 848T571 804Q571 801 571 798Q570 794 570 793Q570 770 584 756T622 741Q648 741 669 759T695 804Z" />
<glyph unicode="&#xdf;" glyph-name="germandbls" horiz-adv-x="570" d="M581 225Q586 256 586 282Q586 407 475 439Q517 459 548 500T588 595Q591 612 591 629Q591 693 546 730T426 768Q314 768 251 705T169 536L76 10Q76 0 83 0H158Q168 0 170 10L263 539Q269
570 279 597T307 646T349 680T409 693Q449 693 471 673T493 613Q493 601 491 587Q481 536 447 506T364 476H343Q333 476 331 466L320 402Q320 392 328 392H350Q413 392 449 362T485 271Q485 253 481 232Q467 152 423 111T313 69Q295 69 281 71T245 80Q234 80 231
70L221 10Q221 1 225 0Q248 -7 265 -9T307 -12Q410 -12 485 49T581 225Z" />
<glyph unicode="&#xe0;" glyph-name="agrave" horiz-adv-x="539" d="M525 50L510 85Q508 89 503 89Q499 89 496 87L493 85Q483 80 476 77T461 74Q450 74 450 87Q450 88 450 92Q451 98 451 101L486 300Q490 325 490 347Q490 412 450 446T327 480Q285 480 246 471T172
445Q166 442 166 432L178 383Q179 378 185 378Q186 378 188 378Q189 379 190 379Q246 404 301 404Q396 404 396 331Q396 322 394 311L389 281Q370 299 339 311T269 323Q185 323 127 277T57 156Q53 135 53 117Q53 56 92 22T204 -12Q251 -12 289 4T353 45Q359 0 418
0Q442 0 469 10T520 37L525 50ZM368 158Q361 115 323 89T236 62Q193 62 172 81T150 134Q150 145 152 156Q159 198 188 224T266 250Q316 250 342 229T369 174Q369 172 369 166Q368 161 368 158ZM414 489Q425 489 425 500Q425 500 424 502Q424 503 424 504L324 677Q324
681 317 681H242Q231 681 231 672Q231 669 233 667L342 493Q344 489 348 489H414Z" />
<glyph unicode="&#xe1;" glyph-name="aacute" horiz-adv-x="539" d="M525 50L510 85Q508 89 503 89Q499 89 496 87L493 85Q483 80 476 77T461 74Q450 74 450 87Q450 88 450 92Q451 98 451 101L486 300Q490 325 490 347Q490 412 450 446T327 480Q285 480 246 471T172
445Q166 442 166 432L178 383Q179 378 185 378Q186 378 188 378Q189 379 190 379Q246 404 301 404Q396 404 396 331Q396 322 394 311L389 281Q370 299 339 311T269 323Q185 323 127 277T57 156Q53 135 53 117Q53 56 92 22T204 -12Q251 -12 289 4T353 45Q359 0 418
0Q442 0 469 10T520 37L525 50ZM368 158Q361 115 323 89T236 62Q193 62 172 81T150 134Q150 145 152 156Q159 198 188 224T266 250Q316 250 342 229T369 174Q369 172 369 166Q368 161 368 158ZM521 674Q524 677 524 681Q524 688 516 688H440Q435 688 433 684L272
511Q269 507 269 503Q269 496 276 496H341Q349 496 349 500L521 674Z" />
<glyph unicode="&#xe2;" glyph-name="acircumflex" horiz-adv-x="539" d="M525 50L510 85Q508 89 503 89Q499 89 496 87L493 85Q483 80 476 77T461 74Q450 74 450 87Q450 88 450 92Q451 98 451 101L486 300Q490 325 490 347Q490 412 450 446T327 480Q285 480 246
471T172 445Q166 442 166 432L178 383Q179 378 185 378Q186 378 188 378Q189 379 190 379Q246 404 301 404Q396 404 396 331Q396 322 394 311L389 281Q370 299 339 311T269 323Q185 323 127 277T57 156Q53 135 53 117Q53 56 92 22T204 -12Q251 -12 289 4T353 45Q359
0 418 0Q442 0 469 10T520 37L525 50ZM368 158Q361 115 323 89T236 62Q193 62 172 81T150 134Q150 145 152 156Q159 198 188 224T266 250Q316 250 342 229T369 174Q369 172 369 166Q368 161 368 158ZM494 487Q506 487 506 497Q506 497 505 498Q505 498 505 500L431
684Q429 689 422 689H340Q335 689 332 684L193 500Q191 497 191 494Q191 487 199 487H258Q261 487 267 490L268 491L366 622L424 491Q424 490 427 489T431 487H494Z" />
<glyph unicode="&#xe3;" glyph-name="atilde" horiz-adv-x="539" d="M525 50L510 85Q508 89 503 89Q499 89 496 87L493 85Q483 80 476 77T461 74Q450 74 450 87Q450 88 450 92Q451 98 451 101L486 300Q490 325 490 347Q490 412 450 446T327 480Q285 480 246 471T172
445Q166 442 166 432L178 383Q179 378 185 378Q186 378 188 378Q189 379 190 379Q246 404 301 404Q396 404 396 331Q396 322 394 311L389 281Q370 299 339 311T269 323Q185 323 127 277T57 156Q53 135 53 117Q53 56 92 22T204 -12Q251 -12 289 4T353 45Q359 0 418
0Q442 0 469 10T520 37L525 50ZM368 158Q361 115 323 89T236 62Q193 62 172 81T150 134Q150 145 152 156Q159 198 188 224T266 250Q316 250 342 229T369 174Q369 172 369 166Q368 161 368 158ZM522 634H471Q462 634 460 626Q455 608 444 596T417 584Q407 584 391
589Q386 591 380 592L381 591Q381 591 382 590Q382 590 380 591Q376 593 375 593Q352 601 338 603T304 606Q257 606 223 573T179 497Q179 488 187 488H238Q240 488 243 490T248 495Q256 514 267 526T294 538Q311 538 338 529Q339 529 340 529Q340 529 341 529Q341
528 341 528Q342 528 343 528L352 525Q359 523 359 523Q372 520 383 519T412 517Q456 517 489 550T529 625L522 634Z" />
<glyph unicode="&#xe4;" glyph-name="adieresis" horiz-adv-x="539" d="M525 50L510 85Q508 89 503 89Q499 89 496 87L493 85Q483 80 476 77T461 74Q450 74 450 87Q450 88 450 92Q451 98 451 101L486 300Q490 325 490 347Q490 412 450 446T327 480Q285 480 246
471T172 445Q166 442 166 432L178 383Q179 378 185 378Q186 378 188 378Q189 379 190 379Q246 404 301 404Q396 404 396 331Q396 322 394 311L389 281Q370 299 339 311T269 323Q185 323 127 277T57 156Q53 135 53 117Q53 56 92 22T204 -12Q251 -12 289 4T353 45Q359
0 418 0Q442 0 469 10T520 37L525 50ZM368 158Q361 115 323 89T236 62Q193 62 172 81T150 134Q150 145 152 156Q159 198 188 224T266 250Q316 250 342 229T369 174Q369 172 369 166Q368 161 368 158ZM499 532Q499 534 499 536Q500 538 500 540Q500 560 486 573T448
586Q423 586 403 570T379 532Q379 531 379 528Q378 525 378 523Q378 504 392 491T429 478Q455 478 475 494T499 532ZM313 532Q313 534 313 536Q314 538 314 540Q314 560 300 573T262 586Q237 586 217 570T193 532Q193 531 193 528Q192 526 192 524Q192 504 206
491T243 478Q269 478 289 494T313 532Z" />
<glyph unicode="&#xe5;" glyph-name="aring" horiz-adv-x="539" d="M525 50L510 85Q508 89 503 89Q499 89 496 87L493 85Q483 80 476 77T461 74Q450 74 450 87Q450 88 450 92Q451 98 451 101L486 300Q490 325 490 347Q490 412 450 446T327 480Q285 480 246 471T172
445Q166 442 166 432L178 383Q179 378 185 378Q186 378 188 378Q189 379 190 379Q246 404 301 404Q396 404 396 331Q396 322 394 311L389 281Q370 299 339 311T269 323Q185 323 127 277T57 156Q53 135 53 117Q53 56 92 22T204 -12Q251 -12 289 4T353 45Q359 0 418
0Q442 0 469 10T520 37L525 50ZM461 594Q463 604 463 612Q463 649 438 674T373 700Q328 700 293 669T249 594Q247 583 247 573Q247 536 271 513T336 489Q382 489 417 519T461 594ZM368 158Q361 115 323 89T236 62Q193 62 172 81T150 134Q150 145 152 156Q159 198
188 224T266 250Q316 250 342 229T369 174Q369 172 369 166Q368 161 368 158ZM402 594Q398 574 381 561T346 547Q329 547 318 557T306 586Q306 587 307 590Q307 592 307 594Q310 613 327 627T363 641Q379 641 391 630T403 601Q403 600 402 597Q402 594 402 594Z"
/>
<glyph unicode="&#xe6;" glyph-name="ae" horiz-adv-x="789" d="M790 198Q799 198 801 208L806 240Q813 279 813 312Q813 480 643 480Q598 480 553 461T479 409Q462 447 424 463T327 480Q285 480 245 471T170 445Q165 442 165 432L177 383Q178 378 184 378Q185
378 187 378Q189 379 190 379Q246 404 302 404Q398 404 398 331Q398 322 396 311L391 282Q371 301 342 312T269 323Q184 323 126 276T55 156Q51 135 51 116Q51 55 92 22T213 -12Q271 -12 318 12T396 70Q403 56 415 43T448 17T498 -4T565 -12Q623 -12 661 -3T728
20Q734 23 734 29L745 91Q745 101 737 101Q736 101 735 101Q734 100 733 100Q705 85 669 76T588 66Q526 66 498 103T469 198H790ZM368 158Q361 115 324 89T237 62Q194 62 172 81T150 134Q150 145 152 156Q159 198 188 224T267 250Q317 250 343 229T370 174Q370
171 369 166Q368 161 368 158ZM627 406Q673 406 693 381T714 308Q714 292 712 272H483Q499 332 536 369T627 406Z" />
<glyph unicode="&#xe7;" glyph-name="ccedilla" horiz-adv-x="437" d="M512 439Q512 440 513 442Q513 445 513 445Q513 450 510 452Q478 467 446 476T372 486Q319 486 272 468T188 416T125 337T90 237Q85 207 85 179Q85 106 121 57T226 -6L164 -71Q161 -75 161
-79Q161 -82 163 -84L181 -104Q183 -107 187 -107Q187 -107 188 -107Q190 -106 190 -106Q220 -93 240 -93Q255 -93 265 -98T276 -114Q276 -115 275 -116Q275 -119 275 -119Q272 -134 257 -139T215 -144Q193 -144 170 -138T130 -124Q129 -124 128 -124Q126 -123
126 -123Q117 -123 116 -133L107 -181Q107 -185 110 -189Q111 -190 111 -190Q140 -201 164 -206T216 -211Q271 -211 310 -189T357 -117Q357 -114 358 -109Q358 -104 358 -102Q358 -70 335 -53T280 -35H264L287 -12Q324 -11 361 -2T432 20Q439 22 439 29L450 93Q450
103 442 103Q442 103 440 103Q438 102 437 102Q399 83 367 75T302 67Q244 67 214 101T183 194Q183 215 187 237Q199 309 243 356T358 404Q394 404 421 397T467 380Q468 380 469 380Q470 379 471 379Q478 379 481 385L512 439Z" />
<glyph unicode="&#xe8;" glyph-name="egrave" horiz-adv-x="523" d="M501 198Q511 198 513 208L518 240Q525 277 525 310Q525 393 482 436T355 480Q253 480 180 412Q146 379 123 334T89 234Q84 204 84 176Q84 91 133 40T277 -12Q333 -12 369 -4T440 20Q446 22
446 29L457 91Q457 101 450 101Q449 101 448 101Q446 100 445 100Q414 85 379 76T301 66Q239 66 211 103T182 198H501ZM339 406Q384 406 406 381T428 308Q428 291 425 272H196Q216 337 251 371T339 406ZM431 501Q442 501 442 512Q442 512 441 514Q441 515 441 516L341
689Q341 693 334 693H259Q248 693 248 684Q248 681 250 679L359 505Q361 501 365 501H431Z" />
<glyph unicode="&#xe9;" glyph-name="eacute" horiz-adv-x="523" d="M501 198Q511 198 513 208L518 240Q525 277 525 310Q525 393 482 436T355 480Q253 480 180 412Q146 379 123 334T89 234Q84 204 84 176Q84 91 133 40T277 -12Q333 -12 369 -4T440 20Q446 22
446 29L457 91Q457 101 450 101Q449 101 448 101Q446 100 445 100Q414 85 379 76T301 66Q239 66 211 103T182 198H501ZM339 406Q384 406 406 381T428 308Q428 291 425 272H196Q216 337 251 371T339 406ZM527 679Q530 682 530 686Q530 693 522 693H446Q442 693 438
689L278 516Q275 512 275 508Q275 501 282 501H347Q355 501 355 505L527 679Z" />
<glyph unicode="&#xea;" glyph-name="ecircumflex" horiz-adv-x="523" d="M501 198Q511 198 513 208L518 240Q525 277 525 310Q525 393 482 436T355 480Q253 480 180 412Q146 379 123 334T89 234Q84 204 84 176Q84 91 133 40T277 -12Q333 -12 369 -4T440 20Q446
22 446 29L457 91Q457 101 450 101Q449 101 448 101Q446 100 445 100Q414 85 379 76T301 66Q239 66 211 103T182 198H501ZM512 502Q524 502 524 512Q524 512 523 513Q523 515 523 515L448 699Q448 704 440 704H358Q354 704 349 699L211 515Q209 512 209 509Q209
502 217 502H276Q281 502 285 506L383 637L441 506Q445 502 449 502H512ZM339 406Q384 406 406 381T428 308Q428 291 425 272H196Q216 337 251 371T339 406Z" />
<glyph unicode="&#xeb;" glyph-name="edieresis" horiz-adv-x="523" d="M501 198Q511 198 513 208L518 240Q525 277 525 310Q525 393 482 436T355 480Q253 480 180 412Q146 379 123 334T89 234Q84 204 84 176Q84 91 133 40T277 -12Q333 -12 369 -4T440 20Q446
22 446 29L457 91Q457 101 450 101Q449 101 448 101Q446 100 445 100Q414 85 379 76T301 66Q239 66 211 103T182 198H501ZM339 406Q384 406 406 381T428 308Q428 291 425 272H196Q216 337 251 371T339 406ZM518 550Q518 552 518 554Q519 556 519 558Q519 578 505
591T468 604Q443 604 423 588T398 550Q398 549 398 546Q397 543 397 541Q397 522 411 509T448 496Q474 496 494 512T518 550ZM332 550Q332 552 332 554Q333 556 333 558Q333 578 319 591T282 604Q257 604 237 588T212 550Q212 549 212 546Q211 544 211 542Q211
522 225 509T262 496Q288 496 308 512T332 550Z" />
<glyph unicode="&#xec;" glyph-name="igrave" horiz-adv-x="268" d="M266 44L252 79Q250 83 244 83Q244 83 241 83Q239 82 238 82Q231 77 222 73T205 68Q193 68 193 82Q193 83 193 87Q194 92 194 95L245 386Q247 396 247 406Q247 434 231 451T182 468Q161 468
135 458T83 432Q78 428 78 419L92 386Q94 381 100 381Q103 381 106 383Q121 395 139 395Q152 395 152 380Q152 378 152 375Q151 370 151 367L102 88Q98 69 98 55Q98 25 113 10T163 -6Q186 -6 212 4T262 32L266 44ZM297 489Q308 489 308 500Q308 500 307 502Q307
503 307 504L207 677Q207 681 200 681H125Q114 681 114 672Q114 669 116 667L225 493Q227 489 231 489H297Z" />
<glyph unicode="&#xed;" glyph-name="iacute" horiz-adv-x="268" d="M266 44L252 79Q250 83 244 83Q244 83 241 83Q239 82 238 82Q231 77 222 73T205 68Q193 68 193 82Q193 83 193 87Q194 92 194 95L245 386Q247 396 247 406Q247 434 231 451T182 468Q161 468
135 458T83 432Q78 428 78 419L92 386Q94 381 100 381Q103 381 106 383Q121 395 139 395Q152 395 152 380Q152 378 152 375Q151 370 151 367L102 88Q98 69 98 55Q98 25 113 10T163 -6Q186 -6 212 4T262 32L266 44ZM354 667Q357 670 357 674Q357 681 349 681H273Q269
681 265 677L105 504Q102 500 102 496Q102 489 109 489H174Q182 489 182 493L354 667Z" />
<glyph unicode="&#xee;" glyph-name="icircumflex" horiz-adv-x="268" d="M266 44L252 79Q250 83 244 83Q244 83 241 83Q239 82 238 82Q231 77 222 73T205 68Q193 68 193 82Q193 83 193 87Q194 92 194 95L245 386Q247 396 247 406Q247 434 231 451T182 468Q161
468 135 458T83 432Q78 428 78 419L92 386Q94 381 100 381Q103 381 106 383Q121 395 139 395Q152 395 152 380Q152 378 152 375Q151 370 151 367L102 88Q98 69 98 55Q98 25 113 10T163 -6Q186 -6 212 4T262 32L266 44ZM356 487Q368 487 368 497Q368 497 367 498Q367
498 367 500L293 684Q291 689 284 689H202Q197 689 194 684L55 500Q53 497 53 494Q53 487 61 487H120Q123 487 129 490L130 491L228 622L286 491Q286 490 289 489T293 487H356Z" />
<glyph unicode="&#xef;" glyph-name="idieresis" horiz-adv-x="268" d="M266 44L252 79Q250 83 244 83Q244 83 241 83Q239 82 238 82Q231 77 222 73T205 68Q193 68 193 82Q193 83 193 87Q194 92 194 95L245 386Q247 396 247 406Q247 434 231 451T182 468Q161 468
135 458T83 432Q78 428 78 419L92 386Q94 381 100 381Q103 381 106 383Q121 395 139 395Q152 395 152 380Q152 378 152 375Q151 370 151 367L102 88Q98 69 98 55Q98 25 113 10T163 -6Q186 -6 212 4T262 32L266 44ZM367 548Q367 550 367 552Q368 554 368 556Q368
576 354 589T316 602Q291 602 271 586T247 548Q247 546 247 543Q246 539 246 538Q246 519 260 507T297 494Q322 494 342 510T367 548ZM181 548Q181 550 181 552Q182 554 182 556Q182 576 168 589T130 602Q105 602 85 586T61 548Q61 546 61 543Q60 539 60 539Q60
519 74 507T111 494Q136 494 156 510T181 548Z" />
<glyph unicode="&#xf1;" glyph-name="ntilde" horiz-adv-x="587" d="M591 44L576 79Q574 84 568 84Q564 84 561 82Q553 77 543 73T526 68Q514 68 514 81Q514 82 515 84Q515 89 515 90L516 95L553 310Q557 333 557 353Q557 414 520 447T406 480Q360 480 321 461T253
412Q251 439 236 454T188 469Q167 469 141 459T88 432Q82 428 82 423Q82 422 83 421Q83 421 83 420L97 386Q99 381 105 381Q109 381 111 383Q130 396 146 396Q160 396 160 380Q160 379 160 375Q159 371 159 368L96 10Q96 0 103 0H178Q187 0 189 10L227 229Q240
303 280 351T385 400Q421 400 439 381T457 326Q457 310 453 291L418 88Q415 71 415 56Q415 26 431 10T483 -6Q507 -6 534 4T586 32L591 44ZM560 634H509Q500 634 498 626Q493 608 482 596T455 584Q445 584 429 589Q424 591 418 592L419 591Q419 591 420 590Q420
590 418 591Q414 593 413 593Q390 601 376 603T342 606Q295 606 261 573T217 497Q217 488 225 488H276Q278 488 281 490T286 495Q294 514 305 526T332 538Q349 538 376 529Q377 529 378 529Q378 529 379 529Q379 528 379 528Q380 528 381 528L390 525Q397 523 397
523Q410 520 421 519T450 517Q494 517 527 550T567 625L560 634Z" />
<glyph unicode="&#xf2;" glyph-name="ograve" horiz-adv-x="560" d="M549 234Q554 265 554 293Q554 380 505 430T363 480Q256 480 183 413T89 234Q84 204 84 177Q84 90 134 39T276 -12Q383 -12 456 55T549 234ZM451 234Q439 162 396 113T289 64Q236 64 210 99T183
189Q183 211 187 234Q200 307 242 356T349 405Q402 405 428 371T455 280Q455 258 451 234ZM463 489Q474 489 474 500Q474 500 473 502Q473 503 473 504L373 677Q373 681 366 681H291Q280 681 280 672Q280 669 282 667L391 493Q393 489 397 489H463Z" />
<glyph unicode="&#xf3;" glyph-name="oacute" horiz-adv-x="560" d="M549 234Q554 265 554 293Q554 380 505 430T363 480Q256 480 183 413T89 234Q84 204 84 177Q84 90 134 39T276 -12Q383 -12 456 55T549 234ZM451 234Q439 162 396 113T289 64Q236 64 210 99T183
189Q183 211 187 234Q200 307 242 356T349 405Q402 405 428 371T455 280Q455 258 451 234ZM539 667Q542 670 542 674Q542 681 534 681H458Q454 681 450 677L290 504Q287 500 287 496Q287 489 294 489H359Q367 489 367 493L539 667Z" />
<glyph unicode="&#xf4;" glyph-name="ocircumflex" horiz-adv-x="560" d="M549 234Q554 265 554 293Q554 380 505 430T363 480Q256 480 183 413T89 234Q84 204 84 177Q84 90 134 39T276 -12Q383 -12 456 55T549 234ZM451 234Q439 162 396 113T289 64Q236 64 210
99T183 189Q183 211 187 234Q200 307 242 356T349 405Q402 405 428 371T455 280Q455 258 451 234ZM518 487Q530 487 530 497Q530 497 529 498Q529 500 529 500L455 684Q453 689 446 689H364Q359 689 356 684L217 500Q215 497 215 494Q215 487 223 487H282Q285 487
291 490L292 491L390 622L448 491Q448 490 451 489T455 487H518Z" />
<glyph unicode="&#xf5;" glyph-name="otilde" horiz-adv-x="560" d="M549 234Q554 265 554 293Q554 380 505 430T363 480Q256 480 183 413T89 234Q84 204 84 177Q84 90 134 39T276 -12Q383 -12 456 55T549 234ZM451 234Q439 162 396 113T289 64Q236 64 210 99T183
189Q183 211 187 234Q200 307 242 356T349 405Q402 405 428 371T455 280Q455 258 451 234ZM545 634H494Q485 634 483 626Q478 608 467 596T440 584Q430 584 414 589Q409 591 403 592L404 591Q404 591 405 590Q405 590 403 591Q399 593 398 593Q375 601 361 603T327
606Q280 606 246 573T202 497Q202 488 210 488H261Q263 488 266 490T271 495Q279 514 290 526T317 538Q334 538 361 529Q362 529 363 529Q363 529 364 529Q364 528 364 528Q365 528 366 528L375 525Q382 523 382 523Q395 520 406 519T435 517Q479 517 512 550T552
625L545 634Z" />
<glyph unicode="&#xf6;" glyph-name="odieresis" horiz-adv-x="560" d="M549 234Q554 265 554 293Q554 380 505 430T363 480Q256 480 183 413T89 234Q84 204 84 177Q84 90 134 39T276 -12Q383 -12 456 55T549 234ZM451 234Q439 162 396 113T289 64Q236 64 210
99T183 189Q183 211 187 234Q200 307 242 356T349 405Q402 405 428 371T455 280Q455 258 451 234ZM521 532Q521 534 521 536Q522 538 522 540Q522 560 508 573T470 586Q445 586 425 570T401 532Q401 531 401 528Q400 525 400 523Q400 504 414 491T451 478Q477 478
497 494T521 532ZM335 532Q335 534 335 536Q336 538 336 540Q336 560 322 573T284 586Q259 586 239 570T215 532Q215 531 215 528Q214 526 214 524Q214 504 228 491T265 478Q291 478 311 494T335 532Z" />
<glyph unicode="&#xf7;" glyph-name="divide" horiz-adv-x="549" d="M580 255Q590 255 592 265L604 334Q604 344 596 344H94Q84 344 82 334L70 265Q70 255 78 255H580ZM430 457Q430 458 431 462Q431 466 431 467Q431 490 416 506T376 522Q349 522 328 504T301
457Q301 455 301 452Q300 447 300 446Q300 424 315 409T353 393Q380 393 402 411T430 457ZM374 142Q374 143 375 147Q375 151 375 152Q375 175 360 190T320 206Q294 206 272 188T245 142Q245 141 245 137Q244 133 244 131Q244 109 259 94T298 78Q325 78 347 96T374
142Z" />
<glyph unicode="&#xf8;" glyph-name="oslash" horiz-adv-x="537" d="M549 235Q555 266 555 294Q555 354 529 397L576 443Q580 445 580 450Q580 453 577 456L550 486Q547 489 543 489Q538 489 535 486L490 443Q439 481 363 481Q256 481 183 414T89 235Q84 205 84
178Q84 116 110 71L61 25Q59 23 59 19Q59 15 61 12L91 -17Q93 -19 96 -19Q100 -19 104 -15L148 27Q200 -12 276 -12Q383 -12 456 56T549 235ZM451 235Q439 163 396 114T289 64Q241 64 214 91L451 321Q455 300 455 278Q455 255 451 235ZM187 235Q200 307 242 356T349
405Q395 405 423 377L187 147Q183 165 183 187Q183 209 187 235Z" />
<glyph unicode="&#xf9;" glyph-name="ugrave" horiz-adv-x="586" d="M586 50L571 84Q569 89 563 89Q559 89 556 87L553 85Q543 80 536 77T521 74Q510 74 510 87Q510 88 510 92Q511 98 511 101L574 459Q574 468 566 468H492Q482 468 480 459L441 240Q428 166 388
118T284 69Q248 69 231 88T213 144Q213 159 216 178L253 386Q255 397 255 406Q255 434 238 451T186 468Q164 468 137 458T84 432Q78 428 78 422Q78 422 79 421Q79 421 79 420L93 386Q95 381 101 381Q105 381 107 383Q126 396 142 396Q156 396 156 381Q156 380 156
377Q155 373 155 372L117 158Q113 136 113 115Q113 55 150 22T264 -12Q309 -12 348 6T416 56Q417 30 432 15T478 0Q502 0 529 10T581 37L586 50ZM433 489Q444 489 444 500Q444 500 443 502Q443 503 443 504L343 677Q343 681 336 681H261Q250 681 250 672Q250 669
252 667L361 493Q363 489 367 489H433Z" />
<glyph unicode="&#xfa;" glyph-name="uacute" horiz-adv-x="586" d="M586 50L571 84Q569 89 563 89Q559 89 556 87L553 85Q543 80 536 77T521 74Q510 74 510 87Q510 88 510 92Q511 98 511 101L574 459Q574 468 566 468H492Q482 468 480 459L441 240Q428 166 388
118T284 69Q248 69 231 88T213 144Q213 159 216 178L253 386Q255 397 255 406Q255 434 238 451T186 468Q164 468 137 458T84 432Q78 428 78 422Q78 422 79 421Q79 421 79 420L93 386Q95 381 101 381Q105 381 107 383Q126 396 142 396Q156 396 156 381Q156 380 156
377Q155 373 155 372L117 158Q113 136 113 115Q113 55 150 22T264 -12Q309 -12 348 6T416 56Q417 30 432 15T478 0Q502 0 529 10T581 37L586 50ZM539 667Q542 670 542 674Q542 681 534 681H458Q454 681 450 677L290 504Q287 500 287 496Q287 489 294 489H359Q367
489 367 493L539 667Z" />
<glyph unicode="&#xfb;" glyph-name="ucircumflex" horiz-adv-x="586" d="M586 50L571 84Q569 89 563 89Q559 89 556 87L553 85Q543 80 536 77T521 74Q510 74 510 87Q510 88 510 92Q511 98 511 101L574 459Q574 468 566 468H492Q482 468 480 459L441 240Q428 166
388 118T284 69Q248 69 231 88T213 144Q213 159 216 178L253 386Q255 397 255 406Q255 434 238 451T186 468Q164 468 137 458T84 432Q78 428 78 422Q78 422 79 421Q79 421 79 420L93 386Q95 381 101 381Q105 381 107 383Q126 396 142 396Q156 396 156 381Q156 380
156 377Q155 373 155 372L117 158Q113 136 113 115Q113 55 150 22T264 -12Q309 -12 348 6T416 56Q417 30 432 15T478 0Q502 0 529 10T581 37L586 50ZM509 487Q521 487 521 497Q521 497 520 498Q520 498 520 500L446 684Q444 689 437 689H355Q350 689 347 684L208
500Q206 497 206 494Q206 487 214 487H273Q276 487 282 490L283 491L381 622L439 491Q439 490 442 489T446 487H509Z" />
<glyph unicode="&#xfc;" glyph-name="udieresis" horiz-adv-x="586" d="M586 50L571 84Q569 89 563 89Q559 89 556 87L553 85Q543 80 536 77T521 74Q510 74 510 87Q510 88 510 92Q511 98 511 101L574 459Q574 468 566 468H492Q482 468 480 459L441 240Q428 166
388 118T284 69Q248 69 231 88T213 144Q213 159 216 178L253 386Q255 397 255 406Q255 434 238 451T186 468Q164 468 137 458T84 432Q78 428 78 422Q78 422 79 421Q79 421 79 420L93 386Q95 381 101 381Q105 381 107 383Q126 396 142 396Q156 396 156 381Q156 380
156 377Q155 373 155 372L117 158Q113 136 113 115Q113 55 150 22T264 -12Q309 -12 348 6T416 56Q417 30 432 15T478 0Q502 0 529 10T581 37L586 50ZM527 532Q527 534 527 536Q528 538 528 540Q528 560 514 573T476 586Q451 586 431 570T407 532Q407 531 407 528Q406
525 406 523Q406 504 420 491T457 478Q483 478 503 494T527 532ZM341 532Q341 534 341 536Q342 538 342 540Q342 560 328 573T290 586Q265 586 245 570T221 532Q221 531 221 528Q220 526 220 524Q220 504 234 491T271 478Q297 478 317 494T341 532Z" />
<glyph unicode="&#xff;" glyph-name="ydieresis" horiz-adv-x="567" d="M495 27L572 465Q572 475 564 475H490Q481 475 479 465L439 236Q424 164 384 117T283 70Q247 70 230 89T212 144Q212 160 216 180L253 391Q255 402 255 411Q255 440 239 457T187 475Q165
475 138 465T85 438Q79 434 79 428Q79 427 80 426V425L94 391Q96 386 101 386Q105 386 107 388Q127 401 143 401Q155 401 155 387Q155 386 155 383Q154 379 154 376L116 160Q112 137 112 116Q112 55 149 22T262 -12Q305 -12 343 6T410 53L404 18Q397 -22 386 -53T355
-106Q313 -154 230 -154Q188 -154 156 -146T97 -124Q96 -124 95 -123Q93 -123 92 -123Q84 -123 83 -132L71 -196Q71 -204 75 -205Q103 -218 139 -225T221 -233Q337 -233 404 -167T495 27ZM524 532Q524 534 524 536Q525 538 525 540Q525 560 511 573T473 586Q448
586 428 570T404 532Q404 531 404 528Q403 525 403 523Q403 504 417 491T454 478Q480 478 500 494T524 532ZM338 532Q338 534 338 536Q339 538 339 540Q339 560 325 573T287 586Q262 586 242 570T218 532Q218 531 218 528Q217 526 217 524Q217 504 231 491T268
478Q294 478 314 494T338 532Z" />
<glyph unicode="&#x152;" glyph-name="OE" horiz-adv-x="906" d="M885 0Q895 0 897 10L908 71Q908 81 899 81H585L629 330H882Q892 330 894 340L905 402Q905 412 897 412H644L682 628H963Q972 628 974 637L985 699Q985 708 977 708H747Q669 708 581 714Q532 717
492 717Q332 717 234 619T105 354Q96 302 96 256Q96 131 162 61T364 -9Q389 -9 444 -5H450L469 -4Q542 0 588 0H885ZM482 80Q461 78 434 77T379 75Q288 75 246 125T204 264Q204 305 213 354Q224 414 244 464T297 553T374 612T478 634Q522 634 584 629L487 80H482Z"
/>
<glyph unicode="&#x153;" glyph-name="oe" horiz-adv-x="854" d="M855 198Q865 198 867 208L872 240Q879 279 879 312Q879 480 708 480Q653 480 608 458T525 393Q501 435 460 457T362 480Q257 480 184 413T90 234Q85 204 85 177Q85 90 134 39T275 -12Q332 -12
378 10T463 75Q481 36 522 12T630 -12Q688 -12 726 -4T794 20Q800 22 800 29L811 91Q811 101 803 101Q802 101 801 101Q799 100 798 100Q769 85 733 76T654 66Q591 66 563 103T535 198H855ZM447 234Q435 161 394 113T288 64Q236 64 211 98T185 188Q185 210 189
234Q202 307 243 356T348 405Q401 405 426 372T452 284Q452 260 447 234ZM692 406Q738 406 758 381T779 308Q779 292 777 272H549Q569 337 604 371T692 406Z" />
<glyph unicode="&#x178;" glyph-name="Ydieresis" horiz-adv-x="587" d="M688 634Q697 634 700 644L710 702Q710 712 702 712H609Q602 712 599 707L376 408L244 707Q242 712 237 712H136Q127 712 125 702L115 644Q115 644 115 642Q115 641 115 641Q115 634 122
634H165L308 315L266 77H218Q208 77 206 67L196 10Q196 0 204 0H399Q409 0 411 10L421 67Q421 77 413 77H365L407 318L643 634H688ZM621 803Q621 806 622 809Q622 813 622 814Q622 836 608 851T570 866Q545 866 524 848T498 803Q498 802 497 797Q497 793 497 791Q497
769 511 755T548 741Q574 741 595 759T621 803ZM384 803Q384 806 385 809Q385 813 385 814Q385 836 371 851T333 866Q308 866 287 848T261 803Q261 802 260 797Q260 793 260 791Q260 769 274 755T311 741Q337 741 358 759T384 803Z" />
<glyph unicode="&#x192;" glyph-name="florin" horiz-adv-x="550" d="M674 677Q674 678 675 680Q676 682 676 683Q676 687 673 689Q657 703 630 713T574 723Q502 723 451 681T371 560L324 429H217Q207 429 205 419L196 366Q196 366 196 364Q196 363 196 363Q196
356 204 356H298L188 53Q170 -1 148 -30T84 -60Q67 -60 51 -56T29 -47Q26 -45 22 -45Q15 -45 13 -53L-5 -109Q-5 -110 -5 -111Q-6 -112 -6 -113Q-6 -118 -2 -120Q13 -128 36 -134T87 -141Q156 -141 202 -100T278 26L395 356H510Q518 356 521 366L530 419Q530 429
523 429H421L457 529Q475 582 500 612T567 642Q581 642 597 637T628 624Q629 624 630 624Q631 623 632 623Q637 623 642 628L674 677Z" />
<glyph unicode="&#x2c6;" glyph-name="circumflex" horiz-adv-x="492" d="M489 487Q501 487 501 497Q501 497 500 498Q500 500 500 500L426 684Q424 689 417 689H335Q330 689 327 684L188 500Q186 497 186 494Q186 487 194 487H253Q256 487 262 490L263 491L361
622L419 491Q419 490 422 489T426 487H489Z" />
<glyph unicode="&#x2dc;" glyph-name="tilde" horiz-adv-x="493" d="M523 634H472Q463 634 461 626Q456 608 445 596T418 584Q408 584 392 589Q387 591 381 592L382 591Q382 591 383 590Q383 590 381 591Q377 593 376 593Q353 601 339 603T305 606Q258 606 224
573T180 497Q180 488 188 488H239Q241 488 244 490T249 495Q257 514 268 526T295 538Q312 538 339 529Q340 529 341 529Q341 529 342 529Q342 528 342 528Q343 528 344 528L353 525Q360 523 360 523Q373 520 384 519T413 517Q457 517 490 550T530 625L523 634Z"
/>
<glyph unicode="&#x2013;" glyph-name="endash" horiz-adv-x="500" d="M518 160Q529 160 529 167L539 224Q539 232 531 232H51Q41 232 39 224L29 167Q29 160 38 160H518Z" />
<glyph unicode="&#x2014;" glyph-name="emdash" horiz-adv-x="1000" d="M1018 160Q1029 160 1029 167L1039 224Q1039 232 1031 232H51Q41 232 39 224L29 167Q29 160 38 160H1018Z" />
<glyph unicode="&#x2018;" glyph-name="quoteleft" horiz-adv-x="254" d="M346 709L300 726Q292 726 291 724Q257 691 218 635T153 522Q153 521 153 520Q152 519 152 518Q152 511 157 510L235 487Q245 487 248 495Q265 546 294 602T350 696L346 709Z" />
<glyph unicode="&#x2019;" glyph-name="quoteright" horiz-adv-x="254" d="M338 704L260 727Q260 727 259 727Q258 728 257 728Q249 728 248 720Q231 670 203 615T146 519Q144 516 144 513Q144 508 149 506L195 488Q203 488 206 491Q239 525 278 581T343 692L338 704Z" />
<glyph unicode="&#x201a;" glyph-name="quotesinglbase" horiz-adv-x="254" d="M223 90L145 113Q135 113 132 105Q115 54 86 -2T30 -96Q28 -99 28 -102Q28 -107 34 -109L80 -126Q88 -126 90 -124Q124 -89 163 -33T227 78L223 90Z" />
<glyph unicode="&#x201c;" glyph-name="quotedblleft" horiz-adv-x="449" d="M360 709L311 726Q302 726 300 724Q265 690 224 634T156 522Q156 521 156 520Q155 519 155 518Q155 511 161 510L244 487Q256 487 257 495Q276 547 306 603T364 696L360 709ZM540 709L491
726Q482 726 480 724Q445 690 404 634T336 522Q336 521 336 520Q335 519 335 518Q335 511 341 510L424 487Q434 487 437 495Q457 547 486 603T543 696L540 709Z" />
<glyph unicode="&#x201d;" glyph-name="quotedblright" horiz-adv-x="449" d="M531 704L448 727Q448 727 447 727Q446 728 445 728Q438 728 435 720Q417 670 387 614T330 519Q327 516 327 513Q327 508 332 506L381 488Q390 488 393 491Q428 525 469 581T536 692L531
704ZM351 704L268 727Q268 727 267 727Q266 728 265 728Q258 728 255 720Q238 670 208 615T150 519Q147 516 147 513Q147 508 152 506L202 488Q210 488 213 491Q248 525 289 581T356 692L351 704Z" />
<glyph unicode="&#x201e;" glyph-name="quotedblbase" horiz-adv-x="449" d="M233 90L150 113Q139 113 136 105Q118 54 89 -2T30 -96Q28 -99 28 -102Q28 -107 34 -109L83 -126Q92 -126 94 -124Q130 -89 171 -33T237 78L233 90ZM413 90L330 113Q319 113 316 105Q298
54 269 -2T210 -96Q208 -99 208 -102Q208 -107 214 -109L263 -126Q272 -126 273 -124Q309 -89 347 -37Q368 -9 386 20T417 78L413 90Z" />
<glyph unicode="&#x2020;" glyph-name="dagger" horiz-adv-x="539" d="M582 456Q592 456 594 466L607 540Q607 550 599 550L420 544L462 744Q462 753 454 753H370Q360 753 358 744L329 544L153 550Q143 550 141 540L128 466Q128 456 136 456L315 461L204 -149Q204
-159 212 -159H290Q300 -159 302 -149L405 461L582 456Z" />
<glyph unicode="&#x2021;" glyph-name="daggerdbl" horiz-adv-x="538" d="M502 34Q512 34 514 44L527 118Q527 128 519 128L346 122L407 472L578 467Q588 467 590 477L603 551Q603 561 595 561L422 555L461 744Q461 753 454 753H370Q360 753 358 744L331 555L160
561Q151 561 149 551L136 477Q136 467 143 467L317 472L256 122L84 128Q75 128 73 118L60 44Q60 34 67 34L240 39L201 -149Q201 -159 209 -159H293Q302 -159 304 -149L331 39L502 34Z" />
<glyph unicode="&#x2022;" glyph-name="bullet" horiz-adv-x="478" d="M477 344Q480 359 480 373Q480 433 440 472T338 512Q304 512 271 499T211 463T165 410T141 344Q138 329 138 313Q138 254 177 215T279 176Q314 176 347 189T407 225T452 278T477 344Z" />
<glyph unicode="&#x2026;" glyph-name="ellipsis" horiz-adv-x="975" d="M250 50Q250 52 250 54Q251 58 251 58Q251 80 234 95T192 110Q164 110 141 92T113 50Q113 49 113 46Q112 43 112 41Q112 19 129 5T171 -10Q198 -10 222 7T250 50ZM575 50Q575 52 575 54Q576
58 576 58Q576 79 559 94T516 110Q488 110 465 92T438 50Q438 48 438 45Q437 42 437 41Q437 19 454 5T495 -10Q522 -10 546 7T575 50ZM899 50Q899 52 899 54Q900 58 900 58Q900 80 883 95T841 110Q813 110 790 92T763 50Q763 48 763 45Q762 42 762 41Q762 19 779
5T820 -10Q847 -10 871 7T899 50Z" />
<glyph unicode="&#x2030;" glyph-name="perthousand" horiz-adv-x="1393" d="M1406 186Q1409 204 1409 221Q1409 292 1363 338T1241 384Q1200 384 1161 369T1089 327T1035 264T1006 186Q1003 168 1003 150Q1003 80 1050 34T1171 -12Q1213 -12 1252 3T1323 45T1377
109T1406 186ZM946 186Q949 204 949 221Q949 292 903 338T781 384Q740 384 701 369T629 327T575 264T546 186Q543 168 543 150Q543 80 590 34T711 -12Q753 -12 792 3T863 45T917 109T946 186ZM531 523Q534 542 534 560Q534 630 488 675T366 721Q325 721 286 706T214
664T160 601T131 523Q128 505 128 488Q128 417 175 372T296 326Q338 326 377 341T449 383T502 446T531 523ZM909 689Q913 693 913 697Q913 701 910 703L864 739Q862 741 859 741Q854 741 850 737L168 20Q164 17 164 13Q164 9 167 7L213 -29Q215 -31 218 -31Q224
-31 227 -27L909 689ZM443 523Q435 476 396 442T311 407Q271 407 245 434T218 503Q218 513 220 523Q229 571 267 605T352 639Q392 639 418 612T445 545Q445 534 443 523ZM1318 186Q1310 139 1271 105T1185 70Q1145 70 1119 97T1093 165Q1093 176 1095 186Q1103
234 1141 268T1226 302Q1266 302 1293 275T1320 206Q1320 196 1318 186ZM858 186Q850 139 811 105T725 70Q685 70 659 97T633 165Q633 176 635 186Q643 234 681 268T766 302Q806 302 833 275T860 206Q860 196 858 186Z" />
<glyph unicode="&#x2039;" glyph-name="guilsinglleft" horiz-adv-x="291" d="M260 61Q265 65 265 74L190 239L323 404Q325 408 325 411Q325 415 323 417L279 451Q276 453 273 453Q269 453 266 449L100 245Q98 242 98 233L192 29Q194 25 197 25Q200 25 204 27L260 61Z" />
<glyph unicode="&#x203a;" glyph-name="guilsinglright" horiz-adv-x="291" d="M293 233Q295 236 295 245L201 449Q199 453 196 453Q193 453 190 451L134 417Q127 414 127 408Q127 407 128 406Q128 405 128 404L202 239L70 74Q67 70 67 67Q67 63 71 61L115 27Q117
25 120 25Q124 25 127 29L293 233Z" />
<glyph unicode="&#x20ac;" glyph-name="currency" horiz-adv-x="608" d="M553 236Q562 236 564 246L576 312Q576 321 568 321H210Q210 332 214 354Q218 373 221 386H579Q590 386 591 395L602 461Q602 470 594 470H252Q291 548 355 594T499 640Q545 640 580 631T652
606Q653 606 654 606Q655 605 656 605Q663 605 666 611L700 672Q702 675 702 678Q702 683 698 685Q655 704 611 715T509 726Q389 726 291 657T142 470H92Q82 470 80 461L69 395Q69 386 77 386H114Q111 373 107 354Q105 343 103 321H66Q56 321 54 312L42 246Q42
236 51 236H101Q109 118 182 50T376 -18Q437 -18 488 -6T580 26Q586 28 586 35L599 108Q599 118 591 118Q590 118 589 118Q588 117 587 117Q542 95 500 83T403 71Q326 71 276 115T213 236H553Z" />
<glyph unicode="&#x2122;" glyph-name="trademark" horiz-adv-x="974" d="M961 282Q969 282 971 292L979 334Q979 343 971 343H941L993 633H1023Q1031 633 1033 643L1041 685Q1041 694 1033 694H909Q905 694 900 689L733 409L663 689Q663 694 655 694H532Q523
694 521 685L513 643Q513 633 522 633H551L499 343H470Q461 343 459 334L451 292Q451 282 460 282H552Q561 282 563 292L612 566L681 288Q681 282 689 282H728Q734 282 738 288L902 564L854 292Q854 282 863 282H961ZM465 628Q475 628 476 637L485 685Q485 694
476 694H160Q151 694 149 685L140 637Q140 628 149 628H267L216 343H185Q177 343 175 334L167 292Q167 282 175 282H317Q326 282 328 292L336 334Q336 343 327 343H297L348 628H465Z" />
</font>
</defs>
</svg>
